P3
# CREATOR: GIMP PNM Filter Version 1.1
60 80
255
0
1
0
0
1
0
0
1
0
0
1
0
0
1
0
0
1
0
0
1
0
0
1
0
0
1
0
0
1
0
0
1
0
0
1
0
0
1
0
0
1
0
0
1
0
0
1
0
0
1
0
0
1
0
0
1
0
0
1
0
0
1
0
0
1
0
0
1
0
0
1
0
1
7
11
19
32
37
35
52
61
24
38
43
1
7
11
0
1
0
0
1
0
0
1
0
0
1
0
0
1
0
0
1
0
0
1
0
0
1
0
0
1
0
0
1
0
0
1
0
0
1
0
0
1
0
0
1
0
0
1
0
0
1
0
0
1
0
0
1
0
0
1
0
0
1
0
0
1
0
0
1
0
0
1
0
0
1
0
0
1
0
0
1
0
0
1
0
0
1
0
0
1
0
0
1
0
0
1
0
0
1
0
0
1
0
0
1
0
0
1
0
0
1
0
0
1
0
0
1
0
0
1
0
0
1
0
0
1
0
0
1
0
0
1
0
0
1
0
0
1
0
0
1
0
0
1
0
0
1
0
0
1
0
0
1
0
0
1
0
0
1
0
0
1
0
0
1
0
1
7
11
41
58
67
124
195
230
132
208
249
132
208
249
56
74
84
1
7
11
0
1
0
0
1
0
0
1
0
0
1
0
0
1
0
0
1
0
0
1
0
0
1
0
0
1
0
0
1
0
0
1
0
0
1
0
0
1
0
0
1
0
0
1
0
0
1
0
0
1
0
0
1
0
0
1
0
0
1
0
0
1
0
0
1
0
0
1
0
0
1
0
0
1
0
0
1
0
0
1
0
0
1
0
0
1
0
0
1
0
0
1
0
0
1
0
0
1
0
0
1
0
0
1
0
0
1
0
0
1
0
0
1
0
0
1
0
0
1
0
0
1
0
0
1
0
0
1
0
0
1
0
0
1
0
0
1
0
0
1
0
0
1
0
0
1
0
0
1
0
0
1
0
0
1
0
7
10
5
35
52
61
132
208
249
139
215
255
134
211
252
134
211
252
132
203
238
71
106
125
62
97
116
24
38
43
1
7
11
46
66
79
35
52
61
14
27
32
0
1
0
0
1
0
0
1
0
0
1
0
0
1
0
0
1
0
0
1
0
0
1
0
0
1
0
0
1
0
0
1
0
0
1
0
0
1
0
0
1
0
0
1
0
0
1
0
0
1
0
0
1
0
0
1
0
0
1
0
0
1
0
0
1
0
0
1
0
0
1
0
0
1
0
0
1
0
54
54
42
129
126
96
36
36
29
0
1
0
0
1
0
0
1
0
0
1
0
22
13
19
35
20
27
10
7
13
0
1
0
0
1
0
0
1
0
0
1
0
0
1
0
0
1
0
0
1
0
0
1
0
7
10
5
31
45
53
76
116
141
113
182
217
132
203
238
88
129
148
110
145
159
111
150
170
107
163
193
125
202
243
132
208
249
125
202
243
80
130
153
134
211
252
139
215
255
115
170
200
19
32
37
0
1
0
0
1
0
0
1
0
0
1
0
0
1
0
0
1
0
0
1
0
0
1
0
0
1
0
0
1
0
0
1
0
0
1
0
0
1
0
0
1
0
0
1
0
0
1
0
0
1
0
0
1
0
0
1
0
0
1
0
0
1
0
0
1
0
0
1
0
0
1
0
7
10
5
36
36
29
111
110
85
182
183
140
129
126
96
81
80
62
63
64
50
58
36
48
192
108
156
169
92
132
94
52
74
10
7
13
0
1
0
0
1
0
0
1
0
0
1
0
0
1
0
0
1
0
8
0
0
41
58
67
125
202
243
125
202
243
101
131
146
107
126
136
197
217
216
213
234
233
213
234
233
149
166
166
101
131
146
134
211
252
134
211
252
119
178
208
114
164
188
114
164
188
125
202
243
76
116
141
0
1
0
0
1
0
0
1
0
0
1
0
0
1
0
0
1
0
0
1
0
0
1
0
0
1
0
0
1
0
0
1
0
0
1
0
0
1
0
0
1
0
0
1
0
0
1
0
0
1
0
0
1
0
0
1
0
0
1
0
0
1
0
0
1
0
0
1
0
0
1
0
36
36
29
36
36
29
91
90
71
129
126
96
138
135
104
197
195
148
95
86
75
192
108
156
169
92
132
156
86
123
143
82
116
78
43
62
0
1
0
0
1
0
0
1
0
0
1
0
0
1
0
0
1
0
22
40
49
125
202
243
134
211
252
88
129
148
159
179
189
213
234
233
213
234
233
213
234
233
213
234
233
213
234
233
149
166
166
94
147
175
119
178
208
156
176
175
213
234
233
206
227
226
123
149
157
67
89
102
0
1
0
0
1
0
0
1
0
0
1
0
0
1
0
0
1
0
0
1
0
0
1
0
0
1
0
0
1
0
0
1
0
0
1
0
0
1
0
0
1
0
0
1
0
0
1
0
0
1
0
0
1
0
0
1
0
0
1
0
0
1
0
0
1
0
0
1
0
8
0
0
182
183
140
197
195
148
152
152
119
130
138
107
152
152
119
182
183
140
113
73
88
192
108
156
129
75
105
201
109
161
201
109
161
175
97
138
22
13
19
0
1
0
0
1
0
0
1
0
0
1
0
8
0
0
94
147
175
132
203
238
119
178
208
149
166
166
213
234
233
213
234
233
213
234
233
213
234
233
213
234
233
213
234
233
213
234
233
104
128
133
111
150
170
213
234
233
213
234
233
213
234
233
213
234
233
156
176
175
24
31
32
0
1
0
0
1
0
0
1
0
0
1
0
0
1
0
0
1
0
0
1
0
0
1
0
0
1
0
0
1
0
0
1
0
0
1
0
0
1
0
0
1
0
0
1
0
0
1
0
0
1
0
0
1
0
0
1
0
0
1
0
0
1
0
0
1
0
0
1
0
36
36
29
91
93
68
146
144
112
146
144
112
182
183
140
129
126
96
169
92
132
201
109
161
129
75
105
192
108
156
192
108
156
201
109
161
62
34
50
0
1
0
0
1
0
0
1
0
0
1
0
22
40
49
132
208
249
134
211
252
104
128
133
213
234
233
213
234
233
213
234
233
213
234
233
213
234
233
213
234
233
213
234
233
213
234
233
149
166
166
104
128
133
213
234
233
213
234
233
213
234
233
213
234
233
213
234
233
104
116
120
0
1
0
0
1
0
0
1
0
0
1
0
0
1
0
0
1
0
0
1
0
0
1
0
0
1
0
0
1
0
0
1
0
0
1
0
0
1
0
0
1
0
0
1
0
0
1
0
0
1
0
0
1
0
0
1
0
0
1
0
0
1
0
0
1
0
25
25
18
63
64
50
111
110
85
168
169
129
197
195
148
207
205
158
81
80
62
192
108
156
175
97
138
140
78
112
186
101
146
201
109
161
201
109
161
94
52
74
0
1
0
0
1
0
0
1
0
8
0
0
56
74
84
134
211
252
132
208
249
107
126
136
213
234
233
213
234
233
213
234
233
213
234
233
213
234
233
213
234
233
213
234
233
213
234
233
197
217
216
130
146
146
213
234
233
213
234
233
213
234
233
213
234
233
213
234
233
179
200
199
32
35
37
0
1
0
0
1
0
0
1
0
0
1
0
0
1
0
0
1
0
0
1
0
0
1
0
0
1
0
0
1
0
0
1
0
0
1
0
0
1
0
0
1
0
0
1
0
0
1
0
0
1
0
0
1
0
0
1
0
0
1
0
0
1
0
54
54
42
146
144
112
182
183
140
182
183
140
182
183
140
197
195
148
63
64
50
192
108
156
156
86
123
156
86
123
201
109
161
192
108
156
192
108
156
156
86
123
8
0
0
0
1
0
0
1
0
0
1
0
80
130
153
134
211
252
125
202
243
130
146
146
213
234
233
213
234
233
213
234
233
213
234
233
213
234
233
213
234
233
213
234
233
213
234
233
213
234
233
131
137
133
213
234
233
213
234
233
213
234
233
213
234
233
213
234
233
213
234
233
69
83
88
0
1
0
0
1
0
0
1
0
0
1
0
0
1
0
0
1
0
0
1
0
0
1
0
0
1
0
0
1
0
0
1
0
0
1
0
0
1
0
0
1
0
0
1
0
0
1
0
0
1
0
0
1
0
0
1
0
0
1
0
0
1
0
17
19
16
25
25
18
36
36
29
111
110
85
152
152
119
207
205
158
91
90
71
201
109
161
140
78
112
156
86
123
192
108
156
201
109
161
201
109
161
192
108
156
22
13
19
0
1
0
0
1
0
1
7
11
94
147
175
134
211
252
132
208
249
123
149
157
213
234
233
213
234
233
213
234
233
213
234
233
213
234
233
213
234
233
213
234
233
213
234
233
206
227
226
124
133
134
206
227
226
197
217
216
213
234
233
213
234
233
213
234
233
213
234
233
89
103
106
1
7
11
0
1
0
0
1
0
0
1
0
0
1
0
0
1
0
0
1
0
0
1
0
0
1
0
0
1
0
0
1
0
0
1
0
0
1
0
0
1
0
0
1
0
0
1
0
0
1
0
0
1
0
0
1
0
0
1
0
0
1
0
91
90
71
207
205
158
207
205
158
207
205
158
207
205
158
207
205
158
91
90
71
192
108
156
156
86
123
140
78
112
201
109
161
192
108
156
192
108
156
192
108
156
22
13
19
0
1
0
0
1
0
0
1
0
94
147
175
132
203
238
134
211
252
123
149
157
213
234
233
213
234
233
213
234
233
213
234
233
213
234
233
169
188
187
175
180
182
213
234
233
197
217
216
149
166
166
149
166
166
66
73
75
213
234
233
213
234
233
213
234
233
213
234
233
69
83
88
29
31
13
18
17
7
0
1
0
0
1
0
0
1
0
0
1
0
0
1
0
0
1
0
0
1
0
0
1
0
0
1
0
0
1
0
0
1
0
0
1
0
0
1
0
0
1
0
0
1
0
0
1
0
0
1
0
0
1
0
0
1
0
36
36
29
95
86
75
129
126
96
146
144
112
157
158
118
197
195
148
111
110
85
192
108
156
186
101
146
140
78
112
192
108
156
201
109
161
201
109
161
192
108
156
22
13
19
0
1
0
0
1
0
7
10
5
46
77
90
91
139
151
91
139
151
69
99
114
156
176
175
213
234
233
213
234
233
213
234
233
197
217
216
21
25
26
80
98
92
213
234
233
130
146
146
130
146
146
102
116
108
57
62
64
213
234
233
213
234
233
213
234
233
206
227
226
112
115
71
218
217
87
198
196
82
78
78
32
7
10
5
0
1
0
0
1
0
0
1
0
0
1
0
0
1
0
0
1
0
0
1
0
0
1
0
0
1
0
0
1
0
0
1
0
0
1
0
0
1
0
0
1
0
0
1
0
0
1
0
0
1
0
17
19
16
111
110
85
152
152
119
197
195
148
207
205
158
207
205
158
157
158
118
175
97
138
192
108
156
156
86
123
201
109
161
192
108
156
192
108
156
175
97
138
28
14
21
0
1
0
0
1
0
29
31
13
112
115
71
171
171
73
188
186
80
188
186
80
147
154
89
134
158
150
206
227
226
213
234
233
213
234
233
102
116
108
186
191
194
206
227
226
131
150
119
95
103
65
89
103
106
123
149
157
213
234
233
213
234
233
213
234
233
104
128
133
171
171
73
151
153
62
188
186
80
213
214
91
102
102
43
0
1
0
0
1
0
0
1
0
0
1
0
0
1
0
0
1
0
0
1
0
0
1
0
0
1
0
0
1
0
0
1
0
0
1
0
0
1
0
0
1
0
0
1
0
0
1
0
0
1
0
7
10
5
81
80
62
146
144
112
152
152
119
152
152
119
168
169
129
197
195
148
113
73
88
192
108
156
156
86
123
192
108
156
201
109
161
201
109
161
175
97
138
17
19
16
8
0
0
8
0
0
171
171
73
213
214
91
218
217
87
218
217
87
213
214
91
218
217
87
218
217
87
131
150
119
169
188
187
213
234
233
213
234
233
179
200
199
102
116
108
151
153
62
181
180
75
218
217
87
160
161
68
75
83
79
156
176
175
110
131
112
198
196
82
181
180
75
126
125
53
160
161
68
198
196
82
160
161
68
0
1
0
0
1
0
0
1
0
0
1
0
0
1
0
0
1
0
0
1
0
0
1
0
0
1
0
0
1
0
0
1
0
0
1
0
0
1
0
0
1
0
0
1
0
0
1
0
0
1
0
1
7
11
54
54
42
168
169
129
207
205
158
207
205
158
207
205
158
207
205
158
95
86
75
192
108
156
175
97
138
175
97
138
192
108
156
192
108
156
140
78
112
8
0
0
7
10
5
51
49
21
218
217
87
213
214
91
126
125
53
71
72
31
95
92
39
143
144
61
213
214
91
213
214
91
171
171
73
134
149
107
131
150
119
147
154
89
218
217
87
218
217
87
218
217
87
218
217
87
213
214
91
142
145
68
115
116
48
218
217
87
200
202
87
95
92
39
200
202
87
218
217
87
198
196
82
51
49
21
0
1
0
0
1
0
0
1
0
0
1
0
0
1
0
0
1
0
0
1
0
0
1
0
0
1
0
0
1
0
0
1
0
0
1
0
0
1
0
0
1
0
0
1
0
0
1
0
0
1
0
1
7
11
63
64
50
54
54
42
63
64
50
129
126
96
138
135
104
138
135
104
111
110
85
186
101
146
192
108
156
129
75
105
201
109
161
201
109
161
94
52
74
8
0
0
0
1
0
18
17
7
198
196
82
207
208
85
213
214
91
218
217
87
160
161
68
213
214
91
213
214
91
213
214
91
213
214
91
218
217
87
213
214
91
213
214
91
218
217
87
218
217
87
213
214
91
213
214
91
213
214
91
198
196
82
95
92
39
137
135
53
71
72
31
198
196
82
213
214
91
181
180
75
38
38
15
0
1
0
0
1
0
0
1
0
0
1
0
0
1
0
0
1
0
0
1
0
0
1
0
0
1
0
0
1
0
0
1
0
0
1
0
0
1
0
0
1
0
0
1
0
0
1
0
0
1
0
0
1
0
0
1
0
31
30
24
138
135
104
207
205
158
207
205
158
207
205
158
207
205
158
207
205
158
98
76
74
192
108
156
186
101
146
156
86
123
192
108
156
58
36
48
0
1
0
0
1
0
8
0
0
57
60
26
200
202
87
213
214
91
213
214
91
213
214
91
160
161
68
143
144
61
151
153
62
160
161
68
160
161
68
143
144
61
106
108
49
194
191
78
213
214
91
213
214
91
218
217
87
218
217
87
213
214
91
95
92
39
188
186
80
213
214
91
213
214
91
106
108
49
24
25
12
1
7
11
0
1
0
0
1
0
0
1
0
0
1
0
0
1
0
0
1
0
0
1
0
0
1
0
0
1
0
0
1
0
0
1
0
0
1
0
0
1
0
0
1
0
0
1
0
0
1
0
0
1
0
0
1
0
0
1
0
31
30
24
182
183
140
138
135
104
138
135
104
152
152
119
157
158
118
207
205
158
157
158
118
129
75
105
192
108
156
192
108
156
186
101
146
22
13
19
0
1
0
0
1
0
10
7
13
8
0
0
38
38
15
143
144
61
213
214
91
213
214
91
218
217
87
213
214
91
194
191
78
171
171
73
171
171
73
188
186
80
198
196
82
143
144
61
188
186
80
213
214
91
213
214
91
218
217
87
143
144
61
188
186
80
213
214
91
106
108
49
46
45
20
8
0
0
8
0
0
0
1
0
0
1
0
0
1
0
0
1
0
0
1
0
0
1
0
0
1
0
0
1
0
0
1
0
0
1
0
0
1
0
0
1
0
0
1
0
0
1
0
0
1
0
0
1
0
0
1
0
0
1
0
0
1
0
0
1
0
0
1
0
18
17
7
36
36
29
36
36
29
111
110
85
111
110
85
138
135
104
197
195
148
111
110
85
175
97
138
201
109
161
124
69
101
7
10
5
0
1
0
0
1
0
0
1
0
7
10
5
10
7
13
8
0
0
38
38
15
91
93
68
142
145
68
194
191
78
213
214
91
213
214
91
218
217
87
218
217
87
213
214
91
213
214
91
160
161
68
137
135
53
171
171
73
143
144
61
143
144
61
213
214
91
82
89
46
8
0
0
8
0
0
1
7
11
0
1
0
0
1
0
0
1
0
0
1
0
0
1
0
0
1
0
0
1
0
0
1
0
0
1
0
0
1
0
0
1
0
0
1
0
0
1
0
0
1
0
0
1
0
0
1
0
0
1
0
0
1
0
0
1
0
0
1
0
0
1
0
8
0
0
0
1
0
36
36
29
182
183
140
168
169
129
111
110
85
138
135
104
146
144
112
63
64
50
58
36
48
192
108
156
78
43
62
8
0
0
0
1
0
0
1
0
8
0
0
0
1
0
7
10
5
8
0
0
8
0
0
8
0
0
78
114
134
63
93
95
102
102
43
194
191
78
213
214
91
213
214
91
218
217
87
213
214
91
213
214
91
218
217
87
194
191
78
213
214
91
213
214
91
142
145
68
32
35
37
0
1
0
0
1
0
0
1
0
0
1
0
0
1
0
0
1
0
0
1
0
0
1
0
0
1
0
0
1
0
0
1
0
0
1
0
0
1
0
0
1
0
0
1
0
0
1
0
0
1
0
0
1
0
0
1
0
0
1
0
0
1
0
0
1
0
0
1
0
0
1
0
1
7
11
0
1
0
7
10
5
54
54
42
8
0
0
63
64
50
138
135
104
18
17
7
18
17
7
35
20
27
201
109
161
78
43
62
0
1
0
0
1
0
0
1
0
0
1
0
0
1
0
8
0
0
0
1
0
0
1
0
1
7
11
56
74
84
139
215
255
104
128
133
198
196
82
218
217
87
218
217
87
218
217
87
218
217
87
218
217
87
213
214
91
213
214
91
213
214
91
188
186
80
79
105
103
22
40
49
21
25
26
7
10
5
0
1
0
0
1
0
0
1
0
0
1
0
0
1
0
0
1
0
0
1
0
0
1
0
0
1
0
0
1
0
0
1
0
0
1
0
0
1
0
0
1
0
0
1
0
0
1
0
0
1
0
0
1
0
0
1
0
0
1
0
0
1
0
0
1
0
0
1
0
7
10
5
0
1
0
0
1
0
0
1
0
81
80
62
31
30
24
1
7
11
0
1
0
35
20
27
201
109
161
94
52
74
0
1
0
0
1
0
0
1
0
0
1
0
0
1
0
0
1
0
0
1
0
0
1
0
10
7
13
46
77
90
134
211
252
139
215
255
102
116
108
200
202
87
218
217
87
213
214
91
213
214
91
213
214
91
218
217
87
218
217
87
188
186
80
69
83
88
132
203
238
64
82
92
182
218
240
85
103
114
13
18
20
32
35
37
41
58
67
21
25
26
0
1
0
0
1
0
0
1
0
0
1
0
0
1
0
0
1
0
0
1
0
0
1
0
0
1
0
0
1
0
0
1
0
0
1
0
0
1
0
0
1
0
0
1
0
0
1
0
0
1
0
0
1
0
0
1
0
8
0
0
0
1
0
0
1
0
0
1
0
17
19
16
8
0
0
0
1
0
0
1
0
22
13
19
192
108
156
129
75
105
0
1
0
0
1
0
0
1
0
0
1
0
0
1
0
0
1
0
0
1
0
0
1
0
8
0
0
53
83
97
139
215
255
134
211
252
132
203
238
80
98
92
147
154
89
213
214
91
218
217
87
213
214
91
213
214
91
159
168
82
110
141
132
132
203
238
139
215
255
62
97
116
173
210
232
195
232
254
127
145
154
107
126
136
195
232
254
154
185
201
32
35
37
0
1
0
0
1
0
0
1
0
0
1
0
0
1
0
0
1
0
0
1
0
0
1
0
0
1
0
0
1
0
0
1
0
0
1
0
0
1
0
0
1
0
0
1
0
0
1
0
0
1
0
0
1
0
0
1
0
0
1
0
0
1
0
0
1
0
0
1
0
0
1
0
0
1
0
0
1
0
22
13
19
186
101
146
175
97
138
10
7
13
0
1
0
0
1
0
0
1
0
0
1
0
0
1
0
0
1
0
0
1
0
10
7
13
62
97
116
134
211
252
139
215
255
139
215
255
132
203
238
119
178
208
104
128
133
110
141
132
131
150
119
130
146
146
105
172
207
139
215
255
134
211
252
139
215
255
115
170
200
97
115
126
195
232
254
195
232
254
97
115
126
182
218
240
195
232
254
144
175
191
21
25
26
0
1
0
0
1
0
0
1
0
0
1
0
0
1
0
0
1
0
0
1
0
0
1
0
0
1
0
0
1
0
0
1
0
0
1
0
0
1
0
0
1
0
0
1
0
0
1
0
0
1
0
0
1
0
0
1
0
0
1
0
0
1
0
0
1
0
0
1
0
0
1
0
7
10
5
8
0
0
186
101
146
186
101
146
22
13
19
0
1
0
0
1
0
0
1
0
0
1
0
0
1
0
0
1
0
0
1
0
8
0
0
105
172
207
134
211
252
134
211
252
139
215
255
139
215
255
139
215
255
139
215
255
139
215
255
139
215
255
139
215
255
139
215
255
134
211
252
134
211
252
134
211
252
139
215
255
46
66
79
195
232
254
195
232
254
182
218
240
123
149
157
195
232
254
195
232
254
107
126
136
7
10
5
0
1
0
0
1
0
0
1
0
0
1
0
0
1
0
0
1
0
0
1
0
0
1
0
0
1
0
0
1
0
0
1
0
0
1
0
0
1
0
0
1
0
0
1
0
0
1
0
0
1
0
0
1
0
0
1
0
0
1
0
0
1
0
0
1
0
8
0
0
7
10
5
8
0
0
58
36
48
62
69
87
80
130
153
46
77
90
1
7
11
0
1
0
0
1
0
0
1
0
0
1
0
1
7
11
32
35
37
139
215
255
134
211
252
132
208
249
134
211
252
132
208
249
132
203
238
139
215
255
134
211
252
132
203
238
132
203
238
139
215
255
132
203
238
139
215
255
132
208
249
132
203
238
94
147
175
110
145
159
195
232
254
195
232
254
130
162
179
195
232
254
195
232
254
195
232
254
69
83
88
0
1
0
0
1
0
0
1
0
0
1
0
0
1
0
0
1
0
0
1
0
0
1
0
0
1
0
0
1
0
0
1
0
0
1
0
0
1
0
0
1
0
0
1
0
0
1
0
0
1
0
0
1
0
0
1
0
0
1
0
0
1
0
0
1
0
0
1
0
8
0
0
31
45
53
115
170
200
132
203
238
134
211
252
134
211
252
80
130
153
35
52
61
1
7
11
0
1
0
1
7
11
19
32
37
35
52
61
101
155
185
134
211
252
139
215
255
134
211
252
139
215
255
139
215
255
139
215
255
125
202
243
111
150
170
133
151
162
130
146
146
119
135
143
119
135
143
111
150
170
132
208
249
134
211
252
64
82
92
195
232
254
195
232
254
182
218
240
195
232
254
195
232
254
195
232
254
182
218
240
32
35
37
0
1
0
0
1
0
0
1
0
0
1
0
0
1
0
0
1
0
0
1
0
0
1
0
0
1
0
0
1
0
0
1
0
0
1
0
0
1
0
0
1
0
0
1
0
0
1
0
0
1
0
0
1
0
0
1
0
0
1
0
0
1
0
16
23
29
62
97
116
132
208
249
139
215
255
132
203
238
139
215
255
139
215
255
132
208
249
139
215
255
76
116
141
21
25
26
72
122
146
132
208
249
132
208
249
119
178
208
125
202
243
132
208
249
134
211
252
132
208
249
132
203
238
110
145
159
166
171
173
249
251
248
249
251
248
249
251
248
249
251
248
249
251
248
230
232
229
145
153
161
114
164
188
75
93
104
195
232
254
195
232
254
195
232
254
195
232
254
195
232
254
195
232
254
163
195
211
31
45
53
16
23
29
0
1
0
0
1
0
0
1
0
0
1
0
0
1
0
0
1
0
0
1
0
0
1
0
0
1
0
0
1
0
0
1
0
0
1
0
0
1
0
0
1
0
0
1
0
0
1
0
0
1
0
0
1
0
0
1
0
14
27
32
106
171
199
139
215
255
139
215
255
139
215
255
139
215
255
134
211
252
90
138
161
139
215
255
134
211
252
132
203
238
72
122
146
132
203
238
134
211
252
139
215
255
139
215
255
132
203
238
132
203
238
134
211
252
139
215
255
106
128
145
230
232
229
249
251
248
249
251
248
249
251
248
249
251
248
249
251
248
249
251
248
249
251
248
249
251
248
200
205
208
55
66
72
195
232
254
195
232
254
195
232
254
195
232
254
163
195
211
67
89
102
90
138
161
124
195
230
124
195
230
72
122
146
14
27
32
0
1
0
0
1
0
0
1
0
0
1
0
0
1
0
0
1
0
0
1
0
0
1
0
0
1
0
0
1
0
0
1
0
0
1
0
0
1
0
0
1
0
0
1
0
0
1
0
8
0
0
56
74
84
134
211
252
132
208
249
132
208
249
132
208
249
132
203
238
139
215
255
94
147
175
119
178
208
134
211
252
92
124
151
105
172
207
132
208
249
132
208
249
132
208
249
139
215
255
139
215
255
139
215
255
139
215
255
120
152
168
239
241
238
249
251
248
249
251
248
249
251
248
249
251
248
249
251
248
249
251
248
249
251
248
249
251
248
249
251
248
249
251
248
130
146
146
182
218
240
195
232
254
195
232
254
86
117
131
88
129
148
132
208
249
132
203
238
139
215
255
139
215
255
132
203
238
46
77
90
0
1
0
0
1
0
0
1
0
0
1
0
0
1
0
0
1
0
0
1
0
0
1
0
0
1
0
0
1
0
0
1
0
0
1
0
0
1
0
0
1
0
0
1
0
0
1
0
1
7
11
38
68
82
134
211
252
139
215
255
139
215
255
139
215
255
139
215
255
139
215
255
139
215
255
62
97
116
80
130
153
46
77
90
132
203
238
139
215
255
132
203
238
139
215
255
134
211
252
139
215
255
132
203
238
119
178
208
209
211
208
249
251
248
249
251
248
249
251
248
249
251
248
249
251
248
249
251
248
249
251
248
249
251
248
249
251
248
249
251
248
249
251
248
230
232
229
104
128
133
195
232
254
71
106
125
119
188
224
139
215
255
139
215
255
139
215
255
139
215
255
139
215
255
105
172
207
62
97
116
0
1
0
0
1
0
0
1
0
0
1
0
0
1
0
0
1
0
0
1
0
0
1
0
0
1
0
0
1
0
0
1
0
0
1
0
0
1
0
0
1
0
0
1
0
0
1
0
0
1
0
13
18
20
119
188
224
134
211
252
134
211
252
132
208
249
134
211
252
132
208
249
132
208
249
124
195
230
31
45
53
134
211
252
139
215
255
139
215
255
134
211
252
134
211
252
139
215
255
139
215
255
134
211
252
133
151
162
249
251
248
249
251
248
249
251
248
249
251
248
249
251
248
249
251
248
249
251
248
249
251
248
249
251
248
249
251
248
249
251
248
249
251
248
249
251
248
139
157
167
139
157
167
114
164
188
132
208
249
134
211
252
134
211
252
134
211
252
132
208
249
139
215
255
119
178
208
35
52
61
19
32
37
31
45
53
31
45
53
1
7
11
0
1
0
0
1
0
0
1
0
0
1
0
0
1
0
0
1
0
0
1
0
0
1
0
0
1
0
0
1
0
0
1
0
0
1
0
0
1
0
1
7
11
62
97
116
134
211
252
134
211
252
139
215
255
134
211
252
139
215
255
139
215
255
134
211
252
107
163
193
119
188
224
134
211
252
134
211
252
134
211
252
134
211
252
132
208
249
132
208
249
124
195
230
186
191
194
249
251
248
249
251
248
249
251
248
249
251
248
249
251
248
249
251
248
249
251
248
249
251
248
249
251
248
249
251
248
249
251
248
249
251
248
249
251
248
249
251
248
75
93
104
132
208
249
139
215
255
134
211
252
134
211
252
134
211
252
139
215
255
132
208
249
139
215
255
105
172
207
53
83
97
134
211
252
132
208
249
78
114
134
16
23
29
0
1
0
0
1
0
0
1
0
0
1
0
0
1
0
0
1
0
0
1
0
0
1
0
0
1
0
0
1
0
0
1
0
0
1
0
13
18
20
53
83
97
132
203
238
139
215
255
134
211
252
132
208
249
132
208
249
134
211
252
132
208
249
80
130
153
124
195
230
134
211
252
132
203
238
119
188
224
139
215
255
139
215
255
134
211
252
114
164
188
249
251
248
249
251
248
249
251
248
249
251
248
249
251
248
249
251
248
249
251
248
249
251
248
249
251
248
249
251
248
249
251
248
249
251
248
249
251
248
249
251
248
249
251
248
111
150
170
132
208
249
132
203
238
139
215
255
132
203
238
115
170
200
101
155
185
119
188
224
132
208
249
139
215
255
107
163
193
72
122
146
139
215
255
132
203
238
78
114
134
0
1
0
0
1
0
0
1
0
0
1
0
0
1
0
0
1
0
0
1
0
0
1
0
0
1
0
0
1
0
0
1
0
16
23
29
105
172
207
88
129
148
139
215
255
132
208
249
134
211
252
113
182
217
90
138
161
106
171
199
139
215
255
62
97
116
134
211
252
139
215
255
139
215
255
90
138
161
132
208
249
132
208
249
134
211
252
120
152
168
249
251
248
249
251
248
249
251
248
249
251
248
249
251
248
249
251
248
249
251
248
249
251
248
249
251
248
249
251
248
249
251
248
249
251
248
249
251
248
249
251
248
220
222
219
106
171
199
124
195
230
76
116
141
56
74
84
64
82
92
106
128
145
133
151
162
110
145
159
56
74
84
105
172
207
139
215
255
78
114
134
134
211
252
139
215
255
125
202
243
19
32
37
0
1
0
0
1
0
0
1
0
0
1
0
0
1
0
0
1
0
0
1
0
0
1
0
0
1
0
0
1
0
41
58
67
134
211
252
72
122
146
134
211
252
132
203
238
75
93
104
160
93
131
186
101
146
106
110
136
119
188
224
71
106
125
134
211
252
134
211
252
139
215
255
90
138
161
139
215
255
134
211
252
139
215
255
133
151
162
249
251
248
249
251
248
249
251
248
249
251
248
249
251
248
249
251
248
249
251
248
249
251
248
249
251
248
249
251
248
249
251
248
249
251
248
249
251
248
249
251
248
249
251
248
175
180
182
55
66
72
163
195
211
195
232
254
195
232
254
195
232
254
182
218
240
195
232
254
127
145
154
105
172
207
125
202
243
90
138
161
134
211
252
134
211
252
139
215
255
38
68
82
0
1
0
0
1
0
0
1
0
0
1
0
0
1
0
0
1
0
0
1
0
0
1
0
0
1
0
0
1
0
38
68
82
134
211
252
105
172
207
107
163
193
132
208
249
88
107
129
192
108
156
201
109
161
62
69
87
62
97
116
132
203
238
132
203
238
134
211
252
132
208
249
76
116
141
139
215
255
132
203
238
134
211
252
133
151
162
249
251
248
249
251
248
249
251
248
249
251
248
249
251
248
249
251
248
249
251
248
249
251
248
249
251
248
249
251
248
249
251
248
249
251
248
249
251
248
249
251
248
249
251
248
209
211
208
127
145
154
195
232
254
195
232
254
195
232
254
195
232
254
69
83
88
173
210
232
195
232
254
86
117
131
106
171
199
139
215
255
139
215
255
132
203
238
132
208
249
62
97
116
0
1
0
0
1
0
0
1
0
0
1
0
0
1
0
0
1
0
0
1
0
0
1
0
0
1
0
1
7
11
41
58
67
132
203
238
139
215
255
119
178
208
134
211
252
92
124
151
175
97
138
201
109
161
77
75
95
139
215
255
139
215
255
139
215
255
132
208
249
107
163
193
76
116
141
139
215
255
139
215
255
139
215
255
133
151
162
249
251
248
249
251
248
249
251
248
249
251
248
249
251
248
249
251
248
249
251
248
249
251
248
249
251
248
249
251
248
249
251
248
249
251
248
249
251
248
249
251
248
249
251
248
155
160
162
163
195
211
195
232
254
195
232
254
195
232
254
195
232
254
123
149
157
144
175
191
195
232
254
101
131
146
124
195
230
134
211
252
139
215
255
139
215
255
139
215
255
38
68
82
0
1
0
0
1
0
0
1
0
0
1
0
0
1
0
0
1
0
0
1
0
0
1
0
0
1
0
0
1
0
22
40
49
132
208
249
134
211
252
139
215
255
139
215
255
94
147
175
175
97
138
192
108
156
92
73
98
134
211
252
101
155
185
31
45
53
21
25
26
13
18
20
71
106
125
134
211
252
139
215
255
134
211
252
145
153
161
249
251
248
249
251
248
249
251
248
249
251
248
249
251
248
249
251
248
249
251
248
249
251
248
249
251
248
249
251
248
249
251
248
249
251
248
249
251
248
249
251
248
249
251
248
116
123
125
195
232
254
195
232
254
195
232
254
195
232
254
195
232
254
110
145
159
173
210
232
195
232
254
173
210
232
80
130
153
134
211
252
132
208
249
134
211
252
119
188
224
16
23
29
0
1
0
0
1
0
0
1
0
0
1
0
0
1
0
0
1
0
0
1
0
0
1
0
0
1
0
0
1
0
0
1
0
71
106
125
134
211
252
134
211
252
139
215
255
105
172
207
156
86
123
201
109
161
105
72
102
46
66
79
13
18
20
8
0
0
8
0
0
8
0
0
76
116
141
132
208
249
139
215
255
139
215
255
130
162
179
249
251
248
249
251
248
249
251
248
249
251
248
249
251
248
249
251
248
249
251
248
249
251
248
249
251
248
249
251
248
249
251
248
249
251
248
249
251
248
249
251
248
230
232
229
119
135
143
195
232
254
195
232
254
195
232
254
195
232
254
195
232
254
107
126
136
195
232
254
195
232
254
195
232
254
85
103
114
134
211
252
132
203
238
124
195
230
31
45
53
0
1
0
0
1
0
0
1
0
0
1
0
0
1
0
0
1
0
0
1
0
0
1
0
0
1
0
0
1
0
0
1
0
0
1
0
1
7
11
56
74
84
115
170
200
132
208
249
124
195
230
129
75
105
201
109
161
140
78
112
1
7
11
8
0
0
0
1
0
0
1
0
0
1
0
78
114
134
134
211
252
134
211
252
134
211
252
145
153
161
249
251
248
249
251
248
249
251
248
249
251
248
249
251
248
249
251
248
249
251
248
249
251
248
249
251
248
249
251
248
249
251
248
249
251
248
249
251
248
249
251
248
152
154
151
173
210
232
195
232
254
195
232
254
195
232
254
195
232
254
195
232
254
107
126
136
195
232
254
195
232
254
195
232
254
163
195
211
88
129
148
80
130
153
32
35
37
0
1
0
0
1
0
0
1
0
0
1
0
0
1
0
0
1
0
0
1
0
0
1
0
0
1
0
0
1
0
0
1
0
0
1
0
1
7
11
1
7
11
1
7
11
10
7
13
32
35
37
22
40
49
113
65
94
192
108
156
175
97
138
10
7
13
0
1
0
0
1
0
0
1
0
1
7
11
92
124
151
139
215
255
134
211
252
139
215
255
133
151
162
249
251
248
249
251
248
249
251
248
249
251
248
249
251
248
249
251
248
249
251
248
249
251
248
249
251
248
249
251
248
249
251
248
249
251
248
249
251
248
249
251
248
116
123
125
195
232
254
195
232
254
195
232
254
195
232
254
195
232
254
195
232
254
144
175
191
130
162
179
195
232
254
195
232
254
195
232
254
64
82
92
1
7
11
1
7
11
0
1
0
0
1
0
0
1
0
0
1
0
0
1
0
0
1
0
0
1
0
0
1
0
0
1
0
0
1
0
0
1
0
0
1
0
8
0
0
0
1
0
1
7
11
1
7
11
1
7
11
1
7
11
94
52
74
192
108
156
192
108
156
28
14
21
0
1
0
0
1
0
0
1
0
0
1
0
107
163
193
132
208
249
134
211
252
134
211
252
145
153
161
249
251
248
249
251
248
249
251
248
249
251
248
249
251
248
249
251
248
249
251
248
249
251
248
249
251
248
249
251
248
249
251
248
249
251
248
249
251
248
200
205
208
144
175
191
195
232
254
195
232
254
195
232
254
195
232
254
195
232
254
195
232
254
195
232
254
97
115
126
195
232
254
195
232
254
195
232
254
182
218
240
31
45
53
8
0
0
0
1
0
0
1
0
0
1
0
0
1
0
0
1
0
0
1
0
0
1
0
0
1
0
0
1
0
0
1
0
0
1
0
0
1
0
0
1
0
0
1
0
0
1
0
0
1
0
7
10
5
0
1
0
94
52
74
201
109
161
192
108
156
45
26
37
0
1
0
0
1
0
0
1
0
13
18
20
132
203
238
132
208
249
134
211
252
134
211
252
145
153
161
249
251
248
249
251
248
249
251
248
249
251
248
249
251
248
249
251
248
249
251
248
249
251
248
249
251
248
249
251
248
249
251
248
249
251
248
249
251
248
140
145
147
195
232
254
195
232
254
195
232
254
195
232
254
195
232
254
195
232
254
195
232
254
195
232
254
104
128
133
195
232
254
195
232
254
195
232
254
195
232
254
123
149
157
1
7
11
0
1
0
0
1
0
0
1
0
0
1
0
0
1
0
0
1
0
0
1
0
0
1
0
0
1
0
0
1
0
0
1
0
0
1
0
0
1
0
0
1
0
0
1
0
0
1
0
0
1
0
7
10
5
78
43
62
192
108
156
201
109
161
62
34
50
0
1
0
0
1
0
0
1
0
31
45
53
139
215
255
132
203
238
134
211
252
134
211
252
145
153
161
249
251
248
249
251
248
249
251
248
249
251
248
249
251
248
249
251
248
249
251
248
249
251
248
249
251
248
249
251
248
249
251
248
249
251
248
249
251
248
123
149
157
195
232
254
195
232
254
195
232
254
163
195
211
134
160
169
120
152
168
144
175
191
182
218
240
120
152
168
195
232
254
195
232
254
195
232
254
195
232
254
195
232
254
89
103
106
1
7
11
0
1
0
0
1
0
0
1
0
0
1
0
0
1
0
0
1
0
0
1
0
0
1
0
0
1
0
0
1
0
0
1
0
0
1
0
0
1
0
0
1
0
0
1
0
0
1
0
0
1
0
62
34
50
192
108
156
201
109
161
78
43
62
0
1
0
0
1
0
1
7
11
71
106
125
134
211
252
139
215
255
134
211
252
139
215
255
145
153
161
249
251
248
249
251
248
249
251
248
249
251
248
249
251
248
249
251
248
249
251
248
249
251
248
249
251
248
249
251
248
249
251
248
249
251
248
249
251
248
133
151
162
144
175
191
101
131
146
72
122
146
106
171
199
124
195
230
124
195
230
119
178
208
78
114
134
64
82
92
195
232
254
195
232
254
195
232
254
195
232
254
195
232
254
195
232
254
85
103
114
1
7
11
0
1
0
0
1
0
0
1
0
0
1
0
0
1
0
0
1
0
0
1
0
0
1
0
0
1
0
0
1
0
0
1
0
0
1
0
0
1
0
0
1
0
0
1
0
0
1
0
45
26
37
201
109
161
192
108
156
94
52
74
0
1
0
7
10
5
16
23
29
125
202
243
134
211
252
132
208
249
139
215
255
119
188
224
186
191
194
249
251
248
249
251
248
249
251
248
249
251
248
249
251
248
249
251
248
249
251
248
249
251
248
249
251
248
249
251
248
249
251
248
249
251
248
220
222
219
75
93
104
114
164
188
139
215
255
132
203
238
139
215
255
139
215
255
139
215
255
139
215
255
139
215
255
94
147
175
144
175
191
195
232
254
195
232
254
154
185
201
75
93
104
64
82
92
75
93
104
32
35
37
0
1
0
0
1
0
0
1
0
0
1
0
0
1
0
0
1
0
0
1
0
0
1
0
0
1
0
0
1
0
0
1
0
0
1
0
0
1
0
0
1
0
0
1
0
8
0
0
35
20
27
201
109
161
192
108
156
124
69
101
8
0
0
7
10
5
71
106
125
139
215
255
139
215
255
132
208
249
139
215
255
116
162
194
239
241
238
249
251
248
249
251
248
249
251
248
249
251
248
249
251
248
249
251
248
249
251
248
249
251
248
249
251
248
249
251
248
249
251
248
249
251
248
104
116
120
139
215
255
132
203
238
139
215
255
139
215
255
139
215
255
139
215
255
139
215
255
139
215
255
139
215
255
139
215
255
56
74
84
123
149
157
35
52
61
62
97
116
124
195
230
139
215
255
139
215
255
132
203
238
53
83
97
13
18
20
0
1
0
0
1
0
0
1
0
0
1
0
0
1
0
0
1
0
0
1
0
0
1
0
0
1
0
0
1
0
0
1
0
0
1
0
0
1
0
7
10
5
35
20
27
192
108
156
201
109
161
160
93
131
10
7
13
35
52
61
134
211
252
134
211
252
132
208
249
139
215
255
132
208
249
145
153
161
249
251
248
249
251
248
249
251
248
249
251
248
249
251
248
249
251
248
249
251
248
249
251
248
249
251
248
249
251
248
249
251
248
249
251
248
249
251
248
94
99
103
88
129
148
124
195
230
139
215
255
139
215
255
139
215
255
139
215
255
139
215
255
119
188
224
106
171
199
113
182
217
106
171
199
41
58
67
132
203
238
139
215
255
139
215
255
139
215
255
139
215
255
139
215
255
139
215
255
101
155
185
24
38
43
0
1
0
0
1
0
0
1
0
0
1
0
0
1
0
0
1
0
0
1
0
0
1
0
0
1
0
0
1
0
0
1
0
0
1
0
7
10
5
22
13
19
192
108
156
201
109
161
186
101
146
22
13
19
101
155
185
132
203
238
139
215
255
132
208
249
132
208
249
132
208
249
133
151
162
249
251
248
249
251
248
249
251
248
249
251
248
249
251
248
249
251
248
249
251
248
249
251
248
249
251
248
249
251
248
249
251
248
249
251
248
249
251
248
104
116
120
132
203
238
139
215
255
182
218
240
119
178
208
107
126
136
124
133
134
116
123
125
76
83
91
145
153
161
127
145
154
75
93
104
41
58
67
139
215
255
139
215
255
139
215
255
139
215
255
139
215
255
139
215
255
132
203
238
119
188
224
107
163
193
24
38
43
0
1
0
0
1
0
0
1
0
0
1
0
0
1
0
0
1
0
0
1
0
0
1
0
0
1
0
0
1
0
0
1
0
8
0
0
22
13
19
186
101
146
201
109
161
201
109
161
62
69
87
139
215
255
139
215
255
132
203
238
139
215
255
134
211
252
125
202
243
186
191
194
249
251
248
249
251
248
249
251
248
249
251
248
249
251
248
249
251
248
249
251
248
249
251
248
249
251
248
249
251
248
249
251
248
249
251
248
249
251
248
97
115
126
139
215
255
114
164
188
110
145
159
195
197
194
249
251
248
249
251
248
249
251
248
116
123
125
182
202
214
182
202
214
75
93
104
116
162
194
139
215
255
139
215
255
139
215
255
132
203
238
88
107
129
75
93
104
75
93
104
107
126
136
106
128
145
75
93
104
0
1
0
0
1
0
0
1
0
0
1
0
0
1
0
0
1
0
0
1
0
0
1
0
0
1
0
0
1
0
0
1
0
7
10
5
8
0
0
175
97
138
192
108
156
201
109
161
117
117
150
139
215
255
139
215
255
134
211
252
139
215
255
132
208
249
102
125
154
249
251
248
249
251
248
249
251
248
249
251
248
249
251
248
249
251
248
249
251
248
249
251
248
249
251
248
249
251
248
249
251
248
249
251
248
249
251
248
239
241
238
85
103
114
145
153
161
230
232
229
249
251
248
249
251
248
249
251
248
249
251
248
249
251
248
119
135
143
144
175
191
85
103
114
124
195
230
139
215
255
139
215
255
154
185
201
56
74
84
75
93
104
159
179
189
182
202
214
182
202
214
182
202
214
182
202
214
55
66
72
0
1
0
0
1
0
0
1
0
0
1
0
0
1
0
0
1
0
0
1
0
24
38
43
90
138
161
14
27
32
0
1
0
8
0
0
7
10
5
129
75
105
201
109
161
186
101
146
117
117
150
134
211
252
139
215
255
132
203
238
139
215
255
139
215
255
145
153
161
249
251
248
249
251
248
249
251
248
249
251
248
249
251
248
249
251
248
249
251
248
249
251
248
249
251
248
249
251
248
249
251
248
249
251
248
249
251
248
249
251
248
249
251
248
249
251
248
249
251
248
249
251
248
249
251
248
249
251
248
249
251
248
249
251
248
166
171
173
68
76
83
139
215
255
139
215
255
115
170
200
56
74
84
85
103
114
169
189
201
182
202
214
182
202
214
182
202
214
182
202
214
159
179
189
55
66
72
10
7
13
0
1
0
0
1
0
0
1
0
0
1
0
0
1
0
0
1
0
10
7
13
38
68
82
139
215
255
113
182
217
35
52
61
8
0
0
7
10
5
58
36
48
201
109
161
175
97
138
116
162
194
132
208
249
139
215
255
139
215
255
139
215
255
116
162
194
230
232
229
249
251
248
249
251
248
249
251
248
249
251
248
249
251
248
249
251
248
249
251
248
249
251
248
249
251
248
249
251
248
249
251
248
249
251
248
249
251
248
249
251
248
249
251
248
249
251
248
249
251
248
249
251
248
249
251
248
249
251
248
249
251
248
249
251
248
249
251
248
140
145
147
139
157
167
145
153
161
49
53
55
182
202
214
182
202
214
182
202
214
182
202
214
182
202
214
169
189
201
76
83
91
21
25
26
0
1
0
0
1
0
0
1
0
0
1
0
0
1
0
0
1
0
0
1
0
0
1
0
0
1
0
56
74
84
139
215
255
139
215
255
134
211
252
107
163
193
38
68
82
56
74
84
92
124
151
116
162
194
139
215
255
139
215
255
132
208
249
132
208
249
132
208
249
140
145
147
249
251
248
249
251
248
249
251
248
249
251
248
249
251
248
249
251
248
249
251
248
249
251
248
249
251
248
249
251
248
249
251
248
249
251
248
249
251
248
249
251
248
249
251
248
249
251
248
249
251
248
249
251
248
249
251
248
249
251
248
249
251
248
249
251
248
249
251
248
249
251
248
249
251
248
249
251
248
249
251
248
166
171
173
133
151
162
182
202
214
163
195
211
97
115
126
49
53
55
22
13
19
1
7
11
8
0
0
0
1
0
0
1
0
0
1
0
0
1
0
0
1
0
0
1
0
0
1
0
0
1
0
1
7
11
41
58
67
134
211
252
134
211
252
132
208
249
119
188
224
53
83
97
132
203
238
139
215
255
132
203
238
134
211
252
139
215
255
132
203
238
139
215
255
116
162
194
186
191
194
249
251
248
249
251
248
249
251
248
249
251
248
249
251
248
249
251
248
249
251
248
249
251
248
249
251
248
249
251
248
249
251
248
249
251
248
249
251
248
249
251
248
249
251
248
249
251
248
249
251
248
249
251
248
249
251
248
249
251
248
249
251
248
249
251
248
249
251
248
249
251
248
249
251
248
249
251
248
249
251
248
249
251
248
49
53
55
49
53
55
13
18
20
1
7
11
1
7
11
0
1
0
0
1
0
0
1
0
0
1
0
0
1
0
0
1
0
0
1
0
0
1
0
0
1
0
0
1
0
0
1
0
0
1
0
31
45
53
134
211
252
139
215
255
132
203
238
46
66
79
119
188
224
139
215
255
134
211
252
139
215
255
139
215
255
134
211
252
139
215
255
139
215
255
106
110
136
249
251
248
249
251
248
249
251
248
249
251
248
249
251
248
249
251
248
249
251
248
249
251
248
249
251
248
249
251
248
249
251
248
249
251
248
249
251
248
249
251
248
249
251
248
249
251
248
249
251
248
249
251
248
249
251
248
249
251
248
249
251
248
249
251
248
249
251
248
249
251
248
249
251
248
249
251
248
249
251
248
249
251
248
249
251
248
94
99
103
8
0
0
8
0
0
0
1
0
0
1
0
0
1
0
0
1
0
0
1
0
0
1
0
0
1
0
0
1
0
0
1
0
0
1
0
0
1
0
0
1
0
0
1
0
1
7
11
16
23
29
119
188
224
139
215
255
94
147
175
72
122
146
134
211
252
132
203
238
139
215
255
132
208
249
134
211
252
134
211
252
139
215
255
119
178
208
186
191
194
249
251
248
249
251
248
249
251
248
249
251
248
249
251
248
249
251
248
249
251
248
249
251
248
249
251
248
249
251
248
249
251
248
249
251
248
249
251
248
249
251
248
249
251
248
249
251
248
249
251
248
249
251
248
249
251
248
249
251
248
249
251
248
249
251
248
249
251
248
249
251
248
249
251
248
249
251
248
249
251
248
249
251
248
249
251
248
116
123
125
1
7
11
0
1
0
0
1
0
0
1
0
0
1
0
0
1
0
0
1
0
0
1
0
0
1
0
0
1
0
0
1
0
0
1
0
0
1
0
0
1
0
0
1
0
0
1
0
8
0
0
90
138
161
134
211
252
38
68
82
125
202
243
139
215
255
139
215
255
134
211
252
139
215
255
132
203
238
134
211
252
134
211
252
133
151
162
249
251
248
249
251
248
249
251
248
249
251
248
249
251
248
249
251
248
249
251
248
249
251
248
249
251
248
249
251
248
249
251
248
249
251
248
249
251
248
249
251
248
249
251
248
249
251
248
249
251
248
249
251
248
249
251
248
249
251
248
249
251
248
249
251
248
249
251
248
249
251
248
249
251
248
249
251
248
249
251
248
249
251
248
249
251
248
249
251
248
116
123
125
0
1
0
0
1
0
0
1
0
0
1
0
0
1
0
0
1
0
0
1
0
0
1
0
0
1
0
0
1
0
0
1
0
0
1
0
0
1
0
0
1
0
0
1
0
0
1
0
8
0
0
35
52
61
113
182
217
46
77
90
134
211
252
132
208
249
134
211
252
132
203
238
139
215
255
139
215
255
134
211
252
119
188
224
175
180
182
249
251
248
249
251
248
249
251
248
249
251
248
249
251
248
249
251
248
249
251
248
249
251
248
249
251
248
249
251
248
249
251
248
249
251
248
249
251
248
249
251
248
249
251
248
249
251
248
249
251
248
249
251
248
249
251
248
249
251
248
249
251
248
249
251
248
249
251
248
249
251
248
249
251
248
249
251
248
249
251
248
249
251
248
249
251
248
249
251
248
140
145
147
0
1
0
0
1
0
0
1
0
0
1
0
0
1
0
0
1
0
0
1
0
0
1
0
0
1
0
0
1
0
0
1
0
0
1
0
0
1
0
0
1
0
0
1
0
0
1
0
0
1
0
14
27
32
71
106
125
94
147
175
134
211
252
139
215
255
139
215
255
139
215
255
139
215
255
134
211
252
134
211
252
120
152
168
249
251
248
249
251
248
249
251
248
249
251
248
249
251
248
249
251
248
249
251
248
249
251
248
249
251
248
249
251
248
249
251
248
249
251
248
249
251
248
249
251
248
249
251
248
249
251
248
249
251
248
249
251
248
249
251
248
249
251
248
249
251
248
249
251
248
249
251
248
249
251
248
249
251
248
249
251
248
249
251
248
249
251
248
249
251
248
249
251
248
249
251
248
140
145
147
0
1
0
0
1
0
0
1
0
0
1
0
0
1
0
0
1
0
0
1
0
0
1
0
0
1
0
0
1
0
0
1
0
0
1
0
0
1
0
0
1
0
0
1
0
0
1
0
1
7
11
1
7
11
10
7
13
119
188
224
134
211
252
132
208
249
134
211
252
132
208
249
132
203
238
139
215
255
134
211
252
145
153
161
249
251
248
249
251
248
249
251
248
249
251
248
249
251
248
249
251
248
249
251
248
249
251
248
249
251
248
249
251
248
249
251
248
249
251
248
249
251
248
249
251
248
249
251
248
249
251
248
249
251
248
249
251
248
249
251
248
249
251
248
249
251
248
249
251
248
249
251
248
249
251
248
249
251
248
249
251
248
249
251
248
249
251
248
249
251
248
249
251
248
249
251
248
124
133
134
0
1
0
0
1
0
0
1
0
0
1
0
0
1
0
0
1
0
0
1
0
0
1
0
0
1
0
0
1
0
0
1
0
0
1
0
0
1
0
0
1
0
0
1
0
0
1
0
0
1
0
8
0
0
7
10
5
132
203
238
139
215
255
132
203
238
134
211
252
139
215
255
139
215
255
139
215
255
119
188
224
186
191
194
249
251
248
249
251
248
249
251
248
249
251
248
249
251
248
249
251
248
249
251
248
249
251
248
249
251
248
249
251
248
249
251
248
249
251
248
249
251
248
249
251
248
249
251
248
249
251
248
249
251
248
249
251
248
249
251
248
249
251
248
249
251
248
249
251
248
249
251
248
249
251
248
249
251
248
249
251
248
249
251
248
249
251
248
249
251
248
249
251
248
249
251
248
94
99
103
0
1
0
0
1
0
0
1
0
0
1
0
0
1
0
0
1
0
0
1
0
0
1
0
0
1
0
0
1
0
0
1
0
0
1
0
0
1
0
0
1
0
0
1
0
0
1
0
0
1
0
10
7
13
19
32
37
134
211
252
139
215
255
139
215
255
134
211
252
134
211
252
134
211
252
139
215
255
116
162
194
230
232
229
249
251
248
249
251
248
249
251
248
249
251
248
249
251
248
249
251
248
249
251
248
249
251
248
249
251
248
249
251
248
249
251
248
249
251
248
249
251
248
249
251
248
249
251
248
249
251
248
249
251
248
249
251
248
249
251
248
249
251
248
249
251
248
249
251
248
249
251
248
249
251
248
249
251
248
249
251
248
249
251
248
249
251
248
249
251
248
249
251
248
249
251
248
76
83
91
0
1
0
0
1
0
0
1
0
0
1
0
0
1
0
0
1
0
0
1
0
0
1
0
0
1
0
0
1
0
0
1
0
0
1
0
0
1
0
0
1
0
0
1
0
0
1
0
0
1
0
0
1
0
19
32
37
132
203
238
134
211
252
134
211
252
134
211
252
134
211
252
139
215
255
139
215
255
117
117
150
249
251
248
249
251
248
249
251
248
249
251
248
249
251
248
249
251
248
249
251
248
249
251
248
249
251
248
249
251
248
249
251
248
249
251
248
249
251
248
249
251
248
249
251
248
249
251
248
249
251
248
249
251
248
249
251
248
249
251
248
249
251
248
249
251
248
249
251
248
249
251
248
249
251
248
249
251
248
249
251
248
249
251
248
249
251
248
249
251
248
249
251
248
230
232
229
32
35
37
0
1
0
0
1
0
0
1
0
0
1
0
0
1
0
0
1
0
0
1
0
0
1
0
0
1
0
0
1
0
0
1
0
0
1
0
0
1
0
0
1
0
0
1
0
0
1
0
0
1
0
8
0
0
16
23
29
132
208
249
132
203
238
139
215
255
134
211
252
132
208
249
139
215
255
139
215
255
130
162
179
249
251
248
249
251
248
249
251
248
249
251
248
249
251
248
249
251
248
249
251
248
249
251
248
249
251
248
249
251
248
249
251
248
249
251
248
249
251
248
249
251
248
249
251
248
249
251
248
249
251
248
249
251
248
249
251
248
249
251
248
249
251
248
249
251
248
249
251
248
249
251
248
249
251
248
249
251
248
249
251
248
249
251
248
249
251
248
249
251
248
249
251
248
140
145
147
7
10
5
0
1
0
0
1
0
0
1
0
0
1
0
0
1
0
0
1
0
0
1
0
0
1
0
0
1
0
0
1
0
0
1
0
0
1
0
0
1
0
0
1
0
0
1
0
0
1
0
0
1
0
1
7
11
10
7
13
111
150
170
139
215
255
132
203
238
139
215
255
132
203
238
134
211
252
139
215
255
133
151
162
249
251
248
249
251
248
249
251
248
249
251
248
249
251
248
249
251
248
249
251
248
249
251
248
249
251
248
249
251
248
249
251
248
249
251
248
249
251
248
249
251
248
249
251
248
249
251
248
249
251
248
249
251
248
249
251
248
249
251
248
249
251
248
249
251
248
249
251
248
249
251
248
249
251
248
249
251
248
249
251
248
249
251
248
249
251
248
249
251
248
249
251
248
68
76
83
8
0
0
0
1
0
0
1
0
0
1
0
0
1
0
0
1
0
0
1
0
0
1
0
0
1
0
0
1
0
0
1
0
0
1
0
0
1
0
0
1
0
0
1
0
0
1
0
0
1
0
0
1
0
0
1
0
1
7
11
46
66
79
134
211
252
132
203
238
139
215
255
139
215
255
134
211
252
139
215
255
111
150
170
249
251
248
249
251
248
249
251
248
249
251
248
249
251
248
249
251
248
249
251
248
249
251
248
249
251
248
249
251
248
249
251
248
249
251
248
249
251
248
249
251
248
249
251
248
249
251
248
249
251
248
249
251
248
249
251
248
249
251
248
249
251
248
249
251
248
249
251
248
249
251
248
249
251
248
249
251
248
249
251
248
249
251
248
249
251
248
249
251
248
124
133
134
10
7
13
0
1
0
0
1
0
0
1
0
0
1
0
0
1
0
0
1
0
0
1
0
0
1
0
0
1
0
0
1
0
0
1
0
0
1
0
0
1
0
0
1
0
0
1
0
0
1
0
0
1
0
0
1
0
0
1
0
0
1
0
13
18
20
116
162
194
139
215
255
139
215
255
134
211
252
139
215
255
134
211
252
116
162
194
230
232
229
249
251
248
249
251
248
249
251
248
249
251
248
249
251
248
249
251
248
249
251
248
249
251
248
249
251
248
249
251
248
249
251
248
249
251
248
249
251
248
249
251
248
249
251
248
249
251
248
249
251
248
249
251
248
249
251
248
249
251
248
249
251
248
249
251
248
249
251
248
249
251
248
249
251
248
249
251
248
249
251
248
249
251
248
186
191
194
49
53
55
0
1
0
0
1
0
0
1
0
0
1
0
0
1
0
0
1
0
0
1
0
0
1
0
0
1
0
0
1
0
0
1
0
0
1
0
0
1
0
0
1
0
0
1
0
0
1
0
0
1
0
0
1
0
0
1
0
0
1
0
1
7
11
1
7
11
19
32
37
119
188
224
134
211
252
132
208
249
139
215
255
139
215
255
134
211
252
186
191
194
249
251
248
249
251
248
249
251
248
249
251
248
249
251
248
249
251
248
249
251
248
249
251
248
249
251
248
249
251
248
249
251
248
249
251
248
249
251
248
200
205
208
200
205
208
239
241
238
249
251
248
249
251
248
249
251
248
249
251
248
249
251
248
249
251
248
249
251
248
249
251
248
249
251
248
249
251
248
249
251
248
186
191
194
35
20
27
51
49
21
57
60
26
78
78
32
106
108
49
115
116
48
115
116
48
95
92
39
57
60
26
29
31
13
7
10
5
0
1
0
0
1
0
0
1
0
0
1
0
0
1
0
0
1
0
0
1
0
0
1
0
0
1
0
7
10
5
24
25
12
24
25
12
29
31
13
29
31
13
17
19
16
101
131
146
139
215
255
134
211
252
134
211
252
139
215
255
145
153
161
249
251
248
249
251
248
249
251
248
249
251
248
249
251
248
249
251
248
249
251
248
249
251
248
249
251
248
249
251
248
200
205
208
94
99
103
45
26
37
113
73
88
116
123
125
140
145
147
183
186
182
230
232
229
249
251
248
249
251
248
249
251
248
249
251
248
249
251
248
249
251
248
249
251
248
239
241
238
131
137
133
106
108
49
213
214
91
213
214
91
218
217
87
213
214
91
218
217
87
218
217
87
218
217
87
218
217
87
218
217
87
213
214
91
126
125
53
38
38
15
0
1
0
0
1
0
0
1
0
0
1
0
7
10
5
38
38
15
71
72
31
115
116
48
160
161
68
198
196
82
207
208
85
213
214
91
213
214
91
213
214
91
160
161
68
91
93
68
101
131
146
125
202
243
134
211
252
119
188
224
166
171
173
249
251
248
249
251
248
249
251
248
249
251
248
249
251
248
249
251
248
200
205
208
106
110
136
98
76
74
28
14
21
8
0
0
0
1
0
8
0
0
8
0
0
28
14
21
28
14
21
46
45
20
98
76
74
113
114
94
140
145
147
140
145
147
155
160
162
140
145
147
125
128
113
134
137
80
213
214
91
213
214
91
213
214
91
213
214
91
218
217
87
213
214
91
213
214
91
213
214
91
213
214
91
200
202
87
160
161
68
181
180
75
218
217
87
151
153
62
7
10
5
0
1
0
0
1
0
38
38
15
137
135
53
213
214
91
218
217
87
218
217
87
181
180
75
218
217
87
213
214
91
213
214
91
218
217
87
213
214
91
213
214
91
218
217
87
188
186
80
102
102
43
95
103
65
109
113
104
80
98
92
113
73
88
140
145
147
116
123
125
98
76
74
95
86
75
111
110
85
51
49
21
8
0
0
8
0
0
8
0
0
0
1
0
0
1
0
0
1
0
0
1
0
8
0
0
126
125
53
218
217
87
218
217
87
213
214
91
218
217
87
218
217
87
218
217
87
218
217
87
213
214
91
213
214
91
213
214
91
213
214
91
218
217
87
218
217
87
213
214
91
218
217
87
218
217
87
218
217
87
218
217
87
218
217
87
213
214
91
160
161
68
51
49
21
8
0
0
8
0
0
0
1
0
8
0
0
102
102
43
213
214
91
213
214
91
213
214
91
115
116
48
188
186
80
213
214
91
218
217
87
213
214
91
218
217
87
218
217
87
213
214
91
218
217
87
213
214
91
213
214
91
218
217
87
213
214
91
218
217
87
218
217
87
218
217
87
218
217
87
218
217
87
218
217
87
218
217
87
188
186
80
8
0
0
7
10
5
0
1
0
0
1
0
0
1
0
0
1
0
0
1
0
8
0
0
137
135
53
213
214
91
213
214
91
218
217
87
198
196
82
213
214
91
198
196
82
218
217
87
213
214
91
213
214
91
218
217
87
213
214
91
213
214
91
213
214
91
213
214
91
194
191
78
213
214
91
213
214
91
213
214
91
213
214
91
213
214
91
213
214
91
218
217
87
78
78
32
7
10
5
0
1
0
7
10
5
8
0
0
18
17
7
38
38
15
36
36
29
160
161
68
213
214
91
218
217
87
218
217
87
213
214
91
213
214
91
213
214
91
218
217
87
213
214
91
218
217
87
213
214
91
218
217
87
218
217
87
213
214
91
218
217
87
218
217
87
213
214
91
188
186
80
102
102
43
46
45
20
29
31
13
0
1
0
8
0
0
0
1
0
0
1
0
0
1
0
0
1
0
0
1
0
0
1
0
28
14
21
46
45
20
51
49
21
95
92
39
95
92
39
95
92
39
126
125
53
143
144
61
194
191
78
218
217
87
218
217
87
218
217
87
218
217
87
218
217
87
213
214
91
213
214
91
126
125
53
106
108
49
102
102
43
115
116
48
115
116
48
126
125
53
115
116
48
71
72
31
8
0
0
8
0
0
0
1
0
8
0
0
8
0
0
8
0
0
29
31
13
218
217
87
213
214
91
218
217
87
218
217
87
218
217
87
213
214
91
171
171
73
213
214
91
218
217
87
213
214
91
218
217
87
213
214
91
218
217
87
213
214
91
126
125
53
51
49
21
31
30
24
28
14
21
8
0
0
8
0
0
0
1
0
0
1
0
0
1
0
0
1
0
0
1
0
0
1
0
0
1
0
0
1
0
8
0
0
8
0
0
8
0
0
28
14
21
28
14
21
8
0
0
28
14
21
28
14
21
28
14
21
22
13
19
46
45
20
71
72
31
126
125
53
198
196
82
218
217
87
218
217
87
218
217
87
218
217
87
78
78
32
22
13
19
8
0
0
10
7
13
8
0
0
8
0
0
7
10
5
0
1
0
0
1
0
0
1
0
1
7
11
0
1
0
0
1
0
22
13
19
95
92
39
126
125
53
95
92
39
78
78
32
71
72
31
71
72
31
198
196
82
218
217
87
218
217
87
218
217
87
213
214
91
213
214
91
126
125
53
31
30
24
22
13
19
8
0
0
8
0
0
0
1
0
0
1
0
0
1
0
0
1
0
0
1
0
0
1
0
0
1
0
0
1
0
0
1
0
0
1
0
0
1
0
0
1
0
8
0
0
8
0
0
0
1
0
0
1
0
0
1
0
0
1
0
0
1
0
0
1
0
8
0
0
8
0
0
8
0
0
22
13
19
36
36
29
71
72
31
160
161
68
213
214
91
213
214
91
200
202
87
24
25
12
0
1
0
0
1
0
0
1
0
0
1
0
8
0
0
0
1
0
0
1
0
0
1
0
0
1
0
0
1
0
0
1
0
8
0
0
10
7
13
8
0
0
22
13
19
8
0
0
22
13
19
10
7
13
143
144
61
218
217
87
213
214
91
218
217
87
160
161
68
36
36
29
8
0
0
8
0
0
8
0
0
0
1
0
0
1
0
0
1
0
0
1
0
0
1
0
0
1
0
0
1
0
0
1
0
0
1
0
0
1
0
0
1
0
0
1
0
0
1
0
0
1
0
0
1
0
0
1
0
0
1
0
0
1
0
0
1
0
0
1
0
0
1
0
7
10
5
8
0
0
1
7
11
8
0
0
8
0
0
10
7
13
22
13
19
22
13
19
38
38
15
61
63
26
51
49
21
8
0
0
0
1
0
0
1
0
0
1
0
0
1
0
0
1
0
0
1
0
0
1
0
0
1
0
0
1
0
0
1
0
0
1
0
0
1
0
8
0
0
0
1
0
1
7
11
8
0
0
8
0
0
18
17
7
35
20
27
51
49
21
71
72
31
46
45
20
18
17
7
8
0
0
8
0
0
0
1
0
0
1
0
0
1
0
0
1
0
0
1
0
0
1
0
0
1
0
0
1
0
0
1
0
0
1
0
0
1
0
0
1
0
0
1
0
0
1
0
0
1
0
0
1
0
0
1
0
0
1
0
0
1
0
0
1
0
0
1
0
0
1
0
0
1
0
8
0
0
0
1
0
0
1
0
0
1
0
0
1
0
8
0
0
1
7
11
8
0
0
10
7
13
10
7
13
8
0
0
0
1
0
0
1
0
0
1
0
0
1
0
0
1
0
0
1
0
0
1
0
