<?xml version="1.0" encoding="UTF-8" standalone="no"?>
<!-- Created with Inkscape (http://www.inkscape.org/) -->

<svg
   xmlns:dc="http://purl.org/dc/elements/1.1/"
   xmlns:cc="http://creativecommons.org/ns#"
   xmlns:rdf="http://www.w3.org/1999/02/22-rdf-syntax-ns#"
   xmlns:svg="http://www.w3.org/2000/svg"
   xmlns="http://www.w3.org/2000/svg"
   xmlns:xlink="http://www.w3.org/1999/xlink"
   xmlns:sodipodi="http://sodipodi.sourceforge.net/DTD/sodipodi-0.dtd"
   xmlns:inkscape="http://www.inkscape.org/namespaces/inkscape"
   width="256"
   height="256"
   viewBox="0 0 256 256"
   id="svg2"
   version="1.1"
   inkscape:version="0.91 r13725"
   sodipodi:docname="acdown.svg">
  <defs
     id="defs4">
    <linearGradient
       inkscape:collect="always"
       id="linearGradient4166">
      <stop
         style="stop-color:#ff6600;stop-opacity:0"
         offset="0"
         id="stop4168" />
      <stop
         style="stop-color:#ff6600;stop-opacity:1"
         offset="1"
         id="stop4170" />
    </linearGradient>
    <linearGradient
       inkscape:collect="always"
       id="linearGradient4181">
      <stop
         style="stop-color:#ffccaa;stop-opacity:1"
         offset="0"
         id="stop4183" />
      <stop
         style="stop-color:#aa4400;stop-opacity:1"
         offset="1"
         id="stop4185" />
    </linearGradient>
    <linearGradient
       inkscape:collect="always"
       id="linearGradient4169">
      <stop
         style="stop-color:#ff9955;stop-opacity:1"
         offset="0"
         id="stop4171" />
      <stop
         style="stop-color:#aa4400;stop-opacity:1"
         offset="1"
         id="stop4173" />
    </linearGradient>
    <linearGradient
       inkscape:collect="always"
       xlink:href="#linearGradient4169"
       id="linearGradient4179"
       x1="143.53929"
       y1="282.505"
       x2="143.60355"
       y2="513.93359"
       gradientUnits="userSpaceOnUse"
       gradientTransform="matrix(0.98976223,0,0,0.98394162,-122.36142,531.43202)" />
    <linearGradient
       inkscape:collect="always"
       xlink:href="#linearGradient4181"
       id="linearGradient4187"
       x1="142.85715"
       y1="267.36221"
       x2="145"
       y2="515.93365"
       gradientUnits="userSpaceOnUse"
       gradientTransform="matrix(0.95483871,0,0,0.95483871,-113.58065,543.04217)" />
    <linearGradient
       inkscape:collect="always"
       xlink:href="#linearGradient4166"
       id="linearGradient4172"
       x1="27"
       y1="1042.8622"
       x2="135"
       y2="1042.8622"
       gradientUnits="userSpaceOnUse"
       gradientTransform="matrix(0.92592592,0,0,0.86666667,0,140.04829)" />
    <linearGradient
       inkscape:collect="always"
       xlink:href="#linearGradient4166"
       id="linearGradient4172-3"
       x1="27"
       y1="1042.8622"
       x2="135"
       y2="1042.8622"
       gradientUnits="userSpaceOnUse"
       gradientTransform="matrix(0.93055555,0,0,0.86666667,-249.125,140.04824)" />
  </defs>
  <sodipodi:namedview
     id="base"
     pagecolor="#ffffff"
     bordercolor="#666666"
     borderopacity="1.0"
     inkscape:pageopacity="0.0"
     inkscape:pageshadow="2"
     inkscape:zoom="1"
     inkscape:cx="42.33768"
     inkscape:cy="212.06743"
     inkscape:document-units="px"
     inkscape:current-layer="layer1"
     showgrid="false"
     inkscape:window-width="1366"
     inkscape:window-height="709"
     inkscape:window-x="-4"
     inkscape:window-y="0"
     inkscape:window-maximized="1"
     inkscape:snap-global="false"
     units="px" />
  <metadata
     id="metadata7">
    <rdf:RDF>
      <cc:Work
         rdf:about="">
        <dc:format>image/svg+xml</dc:format>
        <dc:type
           rdf:resource="http://purl.org/dc/dcmitype/StillImage" />
        <dc:title />
      </cc:Work>
    </rdf:RDF>
  </metadata>
  <g
     inkscape:label="Layer 1"
     inkscape:groupmode="layer"
     id="layer1"
     transform="translate(0,-796.36216)">
    <rect
       style="fill:url(#linearGradient4187);fill-rule:evenodd;stroke:none;stroke-width:1px;stroke-linecap:butt;stroke-linejoin:miter;stroke-opacity:1"
       id="rect3344"
       width="253.71429"
       height="253.71429"
       x="1"
       y="797.64795"
       rx="19.096773"
       ry="19.096773" />
    <rect
       style="fill:url(#linearGradient4179);fill-opacity:1;fill-rule:evenodd;stroke:none;stroke-width:0.93572575px;stroke-linecap:butt;stroke-linejoin:miter;stroke-opacity:1"
       id="rect3344-9"
       width="231.95078"
       height="230.58672"
       x="10.517689"
       y="808.66602"
       rx="17.45866"
       ry="17.355989" />
    <path
       style="fill:#ff7f2a;fill-opacity:1;stroke:none"
       d="m 229.47927,983.43227 0,30.14563 c 0,8.4637 -6.81373,15.2774 -15.27742,15.2774 l -179.509679,0 c -8.46369,0 -15.277419,-6.8137 -15.277419,-15.2774 l 0,-30.14563 c 77.531691,0.48684 138.546978,0.44331 210.064518,0 z"
       id="rect4248"
       inkscape:connector-curvature="0"
       sodipodi:nodetypes="csssscc" />
    <g
       style="font-style:normal;font-weight:normal;font-size:40px;line-height:125%;font-family:sans-serif;letter-spacing:0px;word-spacing:0px;fill:#ffffff;fill-opacity:1;stroke:none;stroke-width:1px;stroke-linecap:butt;stroke-linejoin:miter;stroke-opacity:1"
       id="text4153"
       transform="matrix(0.87183981,0,0,1.3365259,18.306884,-333.44636)">
      <path
         d="m 60.451172,880.39148 35.419922,0 24.433596,103.27148 q 0.70312,2.72461 1.58203,4.83399 0.79101,1.66992 3.51562,2.72461 2.28516,0.96679 3.16407,1.93359 0.8789,0.9668 0.8789,2.63672 0,4.57033 -6.85547,4.57033 l -43.857418,0 q -2.636719,0 -4.21875,-1.23049 -1.582031,-1.31836 -1.582031,-3.42773 0,-1.75781 0.703125,-2.63672 0.703125,-0.87891 3.164062,-2.19726 1.757813,-0.87891 2.460938,-1.9336 0.703125,-1.05469 0.703125,-2.63672 0,-1.49414 -0.263672,-2.63672 l -2.8125,-12.74414 -24.521485,0 2.373047,-10.45898 19.6875,0 -16.171875,-71.45508 2.197266,-8.61328 z M 54.386719,902.7157 58.869141,920.90906 43.3125,977.6864 q -0.703125,2.46094 -0.703125,4.57031 0,5.53711 5.185547,7.91016 l 3.076172,1.40625 q 2.90039,1.31836 2.90039,4.39453 0,4.39455 -6.416015,4.39455 l -22.324219,0 q -3.251953,0 -5.185547,-1.31838 Q 18,997.63757 18,995.26453 q 0,-2.54883 3.867187,-4.21875 3.603516,-1.58203 5.273438,-2.8125 1.757812,-1.31836 3.339844,-3.51563 2.460937,-3.60351 4.042968,-9.58008 L 54.386719,902.7157 Z"
         style="font-style:normal;font-variant:normal;font-weight:normal;font-stretch:normal;font-size:180px;font-family:Stencil;-inkscape-font-specification:Stencil;fill:#ffffff"
         id="path4158"
         inkscape:connector-curvature="0" />
      <path
         d="m 184.99219,878.01843 0,10.63477 q -5.18555,0.79101 -7.73438,4.57031 -2.54883,3.7793 -2.54883,10.81055 l 0,72.59765 0,3.7793 q 0,2.02149 0.79102,4.30664 0.87891,2.19727 2.19727,3.7793 1.40625,1.75781 2.98828,2.54883 1.58203,0.70312 4.30664,0.96679 l 0,10.72263 q -17.05078,0 -29.61914,-8.87692 -11.07422,-7.82227 -16.69922,-21.00586 -5.625,-13.27149 -5.625,-31.37696 0,-13.27148 3.60351,-24.69726 3.69141,-11.51367 10.63477,-19.95117 7.03125,-8.52539 16.78711,-13.71094 9.84375,-5.18555 18.89648,-5.18555 l 2.02149,0.0879 z m 6.94336,10.72266 0,-10.63477 q 4.30664,0.70313 6.94336,1.49414 2.72461,0.79102 9.75586,3.33985 4.48242,1.58203 5.97656,1.58203 2.54883,0 3.86719,-2.28516 l 1.14257,-2.10937 q 1.05469,-2.10938 3.95508,-2.10938 2.37305,0 3.60352,1.40625 1.31836,1.40625 1.31836,4.13086 l 0,36.5625 q 0,3.51563 -1.58203,5.09766 -1.58204,1.58203 -3.60352,1.58203 -2.10938,0 -3.42773,-1.31836 -1.23047,-1.40625 -2.02149,-4.48242 -1.8457,-6.94336 -3.60351,-10.89844 -3.7793,-8.34961 -8.61329,-13.53516 -3.25195,-3.51562 -6.5039,-5.36132 -3.25196,-1.9336 -7.20703,-2.46094 z m 0.26367,113.99411 0,-10.72263 q 6.85547,-0.52734 14.41406,-5.18554 4.04297,-2.54883 7.20703,-6.76758 3.16406,-4.30664 4.7461,-9.4043 0.8789,-2.8125 2.02148,-3.95508 1.23047,-1.23047 3.16406,-1.23047 2.10938,0 3.51563,1.58204 1.40625,1.58203 1.40625,3.95507 0,3.95508 -3.07617,9.58008 -2.98829,5.625 -7.73438,10.3711 -5.80078,5.80078 -11.95312,8.61328 -6.06446,2.81253 -13.71094,3.16403 z"
         style="font-style:normal;font-variant:normal;font-weight:normal;font-stretch:normal;font-size:180px;font-family:Stencil;-inkscape-font-specification:Stencil;fill:#ffffff"
         id="path4160"
         inkscape:connector-curvature="0" />
    </g>
    <rect
       style="fill:url(#linearGradient4172);fill-opacity:1;stroke:none"
       id="rect4164"
       width="100"
       height="13"
       x="25"
       y="1037.3622" />
    <rect
       style="fill:url(#linearGradient4172-3);fill-opacity:1;stroke:none"
       id="rect4164-8"
       width="100.5"
       height="13"
       x="-224"
       y="1037.3622"
       transform="scale(-1,1)" />
  </g>
</svg>
