/* XPM */
static char * dark_oberon_xpm[] = {
"32 32 63 1",
" 	c None",
".	c #020001",
"+	c #160A0F",
"@	c #2E1617",
"#	c #542419",
"$	c #B20602",
"%	c #D32A0D",
"&	c #E4241A",
"*	c #EE2B0A",
"=	c #ED4E35",
"-	c #996633",
";	c #342D30",
">	c #A4291C",
",	c #CC3333",
"'	c #E75A45",
")	c #D9553E",
"!	c #E46651",
"~	c #D0D942",
"{	c #D5E365",
"]	c #31250D",
"^	c #64551C",
"/	c #D79366",
"(	c #DEF18E",
"_	c #4A372E",
":	c #ABA52C",
"<	c #A9965E",
"[	c #E0A997",
"}	c #E5DFDD",
"|	c #EEF1ED",
"1	c #F7FAFB",
"2	c #B6AFAC",
"3	c #E7EAE7",
"4	c #EBF8F8",
"5	c #897976",
"6	c #A6968F",
"7	c #A5A19F",
"8	c #C5B9B2",
"9	c #D5D1C9",
"0	c #5C2353",
"a	c #544847",
"b	c #7B6E67",
"c	c #908679",
"d	c #CAC7C1",
"e	c #DBDAD5",
"f	c #75645A",
"g	c #86736B",
"h	c #978C89",
"i	c #CC9966",
"j	c #6F544E",
"k	c #CC3300",
"l	c #CC6633",
"m	c #FF3333",
"n	c #CC6666",
"o	c #876C58",
"p	c #FF3300",
"q	c #D8EBEC",
"r	c #F40898",
"s	c #F10503",
"t	c #D34832",
"u	c #547983",
"v	c #A7CCCE",
"w	c #FE6306",
"x	c #EAA722",
"...+@#$$%&*=====&%-             ",
".@@@;###>>>,,=')!~{~            ",
".@@@++]^^>>>-/{{(({~            ",
".;@+_^:::::~~{(({~::            ",
".@+;^^^^^-::::::-<[}|1          ",
".@+__]]]]]^^^-<2}||33||4        ",
".@+;+;567678931|3}33|||13       ",
"0@+.;abc28888deeee3}|||||1      ",
"0@++;afb66622d9eee}}|114|41     ",
" 0+;;afgcch728d99ee}111114|     ",
",i0;;_jbcch6788d999}|111|||1    ",
",,k;;;fb5gch628d9999}3||||33    ",
",,lm;;afgbgch28dd99e}|||3|4e    ",
",,ln;;ajjbbbgh7d9999e}}|343f    ",
",,ln;;ajjogbg5h8ddde993||4ff    ",
"kkpp;;;affbbb5h7d99e|11|1431|   ",
"    ;;__jjfffg5h2de}7j]o||3||   ",
"    ;;ajjjjjfb5h2dd}9o6|1|33q   ",
"    ;__jjjjjjfbc2ddq11114|||4   ",
"    0___jjjjjfb572de}e3|4|331)r ",
"   0..#^jjjjjoo55628e3q3|3|q4)sr",
"$,t/7u;]#oooooo55gh28d3333334!%!",
"s>%*=[4va..#jgcc5gbh778eq3344!,w",
"s,,t,%=}14a..+c6c5ogh229q3334!tw",
"st,t))=&/11e_..o665gbh2ddq334)t*",
"$,tt))'=&[1119a._hcggbc2ddq44t)*",
"$tttt))!'=/11118]acggog7dddq4,)%",
"sttt))!!!'*/44112_bc5oo57vdq}%)*",
"st)))'!!'!'*/44|1cfcccob572q8%tw",
"sttt''!!'''=*!4q}db5hh5c7h7v),,x",
"sttt))!'')''t*[4e9c5hcb69-6)%,>~",
"$%%%%******%%s%qd8ffbjjv/ss$$$--"};
