/* XPM */
static char * viewericon_xpm[] = {
"32 32 662 2",
"  	c None",
". 	c #2594FF",
"+ 	c #2693FF",
"@ 	c #2894FF",
"# 	c #2996FF",
"$ 	c #2B98FF",
"% 	c #2C9AFF",
"& 	c #2E99FF",
"* 	c #319AFF",
"= 	c #319BFF",
"- 	c #329CFF",
"; 	c #339EFF",
"> 	c #349EFF",
", 	c #329DFF",
"' 	c #3099FF",
") 	c #2D99FF",
"! 	c #2A97FF",
"~ 	c #2191FF",
"{ 	c #2692FF",
"] 	c #2994FF",
"^ 	c #2A96FF",
"/ 	c #2B9AFF",
"( 	c #329BFF",
"_ 	c #359FFF",
": 	c #35A0FF",
"< 	c #36A0FF",
"[ 	c #359EFF",
"} 	c #2E98FF",
"| 	c #2293FF",
"1 	c #2995FF",
"2 	c #339DFF",
"3 	c #369FFF",
"4 	c #2D9AFF",
"5 	c #2394FF",
"6 	c #2F98FF",
"7 	c #38A2FF",
"8 	c #39A2FF",
"9 	c #3BA4FF",
"0 	c #3AA3FF",
"a 	c #38A1FF",
"b 	c #37A1FF",
"c 	c #309AFF",
"d 	c #2593FF",
"e 	c #2997FF",
"f 	c #349FFF",
"g 	c #3BA3FF",
"h 	c #3CA4FF",
"i 	c #3EA6FF",
"j 	c #3EA7FF",
"k 	c #3FA7FF",
"l 	c #2D91FE",
"m 	c #298BFC",
"n 	c #298AFA",
"o 	c #2989FA",
"p 	c #2889FA",
"q 	c #2688F8",
"r 	c #2486F8",
"s 	c #2386F8",
"t 	c #2488FA",
"u 	c #2E96FE",
"v 	c #2893FF",
"w 	c #3DA5FF",
"x 	c #3FA8FF",
"y 	c #2F96FE",
"z 	c #1978F4",
"A 	c #136DEE",
"B 	c #126AEB",
"C 	c #1269EA",
"D 	c #116AE9",
"E 	c #106AE8",
"F 	c #1069E6",
"G 	c #1068E6",
"H 	c #116AEA",
"I 	c #1C7BF7",
"J 	c #2A94FF",
"K 	c #3AA2FF",
"L 	c #3DA6FF",
"M 	c #40ADFF",
"N 	c #41AEFF",
"O 	c #43B0FF",
"P 	c #2D95FD",
"Q 	c #1472EF",
"R 	c #0F69E6",
"S 	c #0D67E2",
"T 	c #0D66E1",
"U 	c #0C65E0",
"V 	c #0C64E0",
"W 	c #0C63E0",
"X 	c #0E64E2",
"Y 	c #1874F2",
"Z 	c #2C96FF",
"` 	c #2E97FE",
" .	c #2A91FE",
"..	c #2C93FE",
"+.	c #2F94FE",
"@.	c #3097FE",
"#.	c #3098FE",
"$.	c #3197FE",
"%.	c #359BFE",
"&.	c #40ACFF",
"*.	c #44B1FF",
"=.	c #45B2FF",
"-.	c #46B2FF",
";.	c #47B3FF",
">.	c #3098FD",
",.	c #1475EE",
"'.	c #0E6AE6",
").	c #0C69E2",
"!.	c #0C68E1",
"~.	c #0C67E0",
"{.	c #0C66E0",
"].	c #0B63E0",
"^.	c #0E65E2",
"/.	c #1876F2",
"(.	c #2C97FF",
"_.	c #309BFF",
":.	c #1473F6",
"<.	c #1069F3",
"[.	c #106CF3",
"}.	c #1069F4",
"|.	c #1068F8",
"1.	c #106CF8",
"2.	c #106DF6",
"3.	c #116EF6",
"4.	c #1475F8",
"5.	c #39A3FE",
"6.	c #3099FE",
"7.	c #1478F0",
"8.	c #0E6CE7",
"9.	c #0C6AE4",
"0.	c #0E67E2",
"a.	c #1878F3",
"b.	c #319BFE",
"c.	c #116DF4",
"d.	c #106AF3",
"e.	c #106AF4",
"f.	c #1067F7",
"g.	c #106BF8",
"h.	c #106DF8",
"i.	c #106DF5",
"j.	c #1271F7",
"k.	c #1577F8",
"l.	c #36A0FE",
"m.	c #319AFE",
"n.	c #147AF0",
"o.	c #0E6EE8",
"p.	c #0C6CE6",
"q.	c #0C68E2",
"r.	c #0E68E4",
"s.	c #1A7BF4",
"t.	c #2D97FF",
"u.	c #329CFE",
"v.	c #126EF4",
"w.	c #1068F5",
"x.	c #1069F8",
"y.	c #106EF8",
"z.	c #106EF4",
"A.	c #1270F7",
"B.	c #1477F8",
"C.	c #1578F8",
"D.	c #369FFE",
"E.	c #319BFD",
"F.	c #1479EF",
"G.	c #0E6EE7",
"H.	c #0C6BE5",
"I.	c #0F6AE6",
"J.	c #1B7CF5",
"K.	c #1270F4",
"L.	c #106BF3",
"M.	c #1374F8",
"N.	c #369EFE",
"O.	c #3099FB",
"P.	c #1272E8",
"Q.	c #0C6ADF",
"R.	c #0C6AE0",
"S.	c #0C6CE4",
"T.	c #0F6AE7",
"U.	c #1C7CF5",
"V.	c #3EA5FF",
"W.	c #329DFE",
"X.	c #106DF7",
"Y.	c #106EF5",
"Z.	c #1271F8",
"`.	c #116DF0",
" +	c #0D62DE",
".+	c #0D60DB",
"++	c #257DF0",
"@+	c #318CF6",
"#+	c #318EF9",
"$+	c #328EF9",
"%+	c #2079EA",
"&+	c #0B5ACA",
"*+	c #0857C6",
"=+	c #0A61D3",
"-+	c #0C6CE5",
";+	c #1C7AF5",
">+	c #3A91FA",
",+	c #3D94FA",
"'+	c #3A92FA",
")+	c #1969EC",
"!+	c #1761EE",
"~+	c #1764F0",
"{+	c #1767EE",
"]+	c #1868ED",
"^+	c #1A6AEE",
"/+	c #0D48BD",
"(+	c #0A42AC",
"_+	c #0B40AB",
":+	c #164DCE",
"<+	c #1D54DB",
"[+	c #1D54DC",
"}+	c #134AC5",
"|+	c #083B9F",
"1+	c #083CA2",
"2+	c #0C4BB6",
"3+	c #1261D4",
"4+	c #1465DD",
"5+	c #1365DE",
"6+	c #1564DE",
"7+	c #1766E2",
"8+	c #2476EF",
"9+	c #4599FC",
"0+	c #469BFC",
"a+	c #3A93FC",
"b+	c #5273EE",
"c+	c #5574EE",
"d+	c #5272EC",
"e+	c #2F53D4",
"f+	c #2C4ED6",
"g+	c #2C52D7",
"h+	c #2C52D5",
"i+	c #2E54D6",
"j+	c #3053D4",
"k+	c #1E3BA8",
"l+	c #1C38A3",
"m+	c #1D38A3",
"n+	c #2C40BC",
"o+	c #3545C6",
"p+	c #3544C6",
"q+	c #283EB6",
"r+	c #1A349B",
"s+	c #193398",
"t+	c #1E3AA3",
"u+	c #2A4FC1",
"v+	c #2C55CA",
"w+	c #2B55CC",
"x+	c #2C55CC",
"y+	c #2C55CD",
"z+	c #2F56CF",
"A+	c #3E61DA",
"B+	c #5C78F0",
"C+	c #5E79F2",
"D+	c #5272F5",
"E+	c #5573EE",
"F+	c #5271EC",
"G+	c #2C4ED5",
"H+	c #2D52D3",
"I+	c #2E55D4",
"J+	c #3154D3",
"K+	c #1E3AA7",
"L+	c #1C39A2",
"M+	c #1C38A2",
"N+	c #2C42BC",
"O+	c #3444C4",
"P+	c #3344C3",
"Q+	c #2D42BF",
"R+	c #203AA9",
"S+	c #1C36A2",
"T+	c #2440B0",
"U+	c #385DD0",
"V+	c #3C63D6",
"W+	c #3B62D6",
"X+	c #3C62D7",
"Y+	c #3D64D8",
"Z+	c #4C6FE4",
"`+	c #5C78EE",
" @	c #5170F2",
".@	c #5272EB",
"+@	c #5273EB",
"@@	c #5172EA",
"#@	c #385CD9",
"$@	c #2E51D4",
"%@	c #2E54D4",
"&@	c #2F54D2",
"*@	c #3056D4",
"=@	c #3256D2",
"-@	c #1E3AA6",
";@	c #1D39A2",
">@	c #1F3BA9",
",@	c #2C43BE",
"'@	c #3244C2",
")@	c #3244C1",
"!@	c #3247C5",
"~@	c #314CCA",
"{@	c #385AD4",
"]@	c #557DEF",
"^@	c #557EEF",
"/@	c #547DEE",
"(@	c #517EEE",
"_@	c #507EEE",
":@	c #4C7AEC",
"<@	c #4C78EA",
"[@	c #4770EE",
"}@	c #5072E7",
"|@	c #5173E7",
"1@	c #5474E6",
"2@	c #5574E7",
"3@	c #5575E8",
"4@	c #5776E8",
"5@	c #5978E9",
"6@	c #5B78EA",
"7@	c #3147C2",
"8@	c #2D42BD",
"9@	c #2C42BE",
"0@	c #3043BE",
"a@	c #3144BE",
"b@	c #3144BF",
"c@	c #3153CC",
"d@	c #3058CD",
"e@	c #3661D5",
"f@	c #4F7DEC",
"g@	c #507EEC",
"h@	c #4D7EEB",
"i@	c #4C7EEB",
"j@	c #4B7FEA",
"k@	c #4B7FE9",
"l@	c #4A7EEA",
"m@	c #467BE9",
"n@	c #467AE5",
"o@	c #4370E8",
"p@	c #4E72E2",
"q@	c #4F72E2",
"r@	c #5072E2",
"s@	c #5574E2",
"t@	c #5877E5",
"u@	c #5878E5",
"v@	c #5978E6",
"w@	c #5C7DE8",
"x@	c #5D7CE9",
"y@	c #2F48C0",
"z@	c #2A42BA",
"A@	c #2D41BA",
"B@	c #3042BA",
"C@	c #3043BA",
"D@	c #3043B9",
"E@	c #3046BD",
"F@	c #2E57C8",
"G@	c #2E58C8",
"H@	c #3460D0",
"I@	c #4F7DE8",
"J@	c #4C7EE6",
"K@	c #4A7FE6",
"L@	c #4A7FE5",
"M@	c #4A7FE4",
"N@	c #477CE4",
"O@	c #457AE4",
"P@	c #4478DE",
"Q@	c #406FE4",
"R@	c #4B70DE",
"S@	c #4D72DE",
"T@	c #4E72DE",
"U@	c #5073DD",
"V@	c #5675DF",
"W@	c #5676E1",
"X@	c #587AE2",
"Y@	c #5A7CE4",
"Z@	c #2E48BB",
"`@	c #2942B6",
" #	c #2A42B6",
".#	c #2E42B5",
"+#	c #2E43B5",
"@#	c #2E42B4",
"##	c #2D44B6",
"$#	c #2C56C4",
"%#	c #2C58C4",
"&#	c #3260CC",
"*#	c #4B7DE2",
"=#	c #497DE0",
"-#	c #477DE0",
";#	c #487DE0",
">#	c #467EE0",
",#	c #467EDF",
"'#	c #457DDE",
")#	c #437ADD",
"!#	c #4279DD",
"~#	c #4177D9",
"{#	c #3E6EDE",
"]#	c #486ED8",
"^#	c #4B71D9",
"/#	c #4B72D9",
"(#	c #4D72D8",
"_#	c #5374DA",
":#	c #5475DB",
"<#	c #5578DC",
"[#	c #567ADD",
"}#	c #2C48B7",
"|#	c #2742B1",
"1#	c #2A42B1",
"2#	c #2C42B1",
"3#	c #2C42B0",
"4#	c #2B44B2",
"5#	c #2A56BF",
"6#	c #2A57BF",
"7#	c #315EC7",
"8#	c #467CDC",
"9#	c #457CDA",
"0#	c #447CDA",
"a#	c #437CDA",
"b#	c #437CD8",
"c#	c #427CD8",
"d#	c #427AD8",
"e#	c #4077D7",
"f#	c #3F76D5",
"g#	c #3F75D4",
"h#	c #3C6FD8",
"i#	c #466ED2",
"j#	c #486ED4",
"k#	c #4A70D4",
"l#	c #4A70D3",
"m#	c #4E72D4",
"n#	c #5174D6",
"o#	c #5074D6",
"p#	c #5276D6",
"q#	c #5277D6",
"r#	c #2A46B2",
"s#	c #2540AC",
"t#	c #2840AC",
"u#	c #2A42AC",
"v#	c #2A41AC",
"w#	c #2A44AE",
"x#	c #2955BA",
"y#	c #2856BA",
"z#	c #2E5EC2",
"A#	c #447AD6",
"B#	c #437AD5",
"C#	c #417AD4",
"D#	c #407AD2",
"E#	c #3F79D1",
"F#	c #3E78D0",
"G#	c #3E76D1",
"H#	c #3E75D2",
"I#	c #3C74CF",
"J#	c #3B73CE",
"K#	c #3A6FD5",
"L#	c #436CCC",
"M#	c #456ECE",
"N#	c #466FCE",
"O#	c #4A71CE",
"P#	c #4E73D0",
"Q#	c #4E74D0",
"R#	c #4F74D0",
"S#	c #4E74CF",
"T#	c #2846AD",
"U#	c #2440A8",
"V#	c #2340A8",
"W#	c #2640A7",
"X#	c #2740A7",
"Y#	c #2841A7",
"Z#	c #2843A9",
"`#	c #2652B5",
" $	c #2552B5",
".$	c #2B5CBC",
"+$	c #417AD0",
"@$	c #3F79CE",
"#$	c #3E78CC",
"$$	c #3C76CA",
"%$	c #3B76C8",
"&$	c #3B74C9",
"*$	c #3B74CC",
"=$	c #3A73CD",
"-$	c #3871CA",
";$	c #3870C9",
">$	c #386ED0",
",$	c #426CC7",
"'$	c #426CC9",
")$	c #446EC9",
"!$	c #466FC9",
"~$	c #4A72CA",
"{$	c #4C73CC",
"]$	c #4B72CB",
"^$	c #2E4FB0",
"/$	c #2340A4",
"($	c #223FA4",
"_$	c #223FA3",
":$	c #233FA3",
"<$	c #2442A5",
"[$	c #224FB0",
"}$	c #2350B2",
"|$	c #2E62BC",
"1$	c #3E79CB",
"2$	c #3B77C8",
"3$	c #3A76C5",
"4$	c #3873C2",
"5$	c #3771C2",
"6$	c #3771C5",
"7$	c #3771C8",
"8$	c #3770C6",
"9$	c #3670C5",
"0$	c #366FC6",
"a$	c #346CCD",
"b$	c #3F6BC2",
"c$	c #406BC2",
"d$	c #426DC4",
"e$	c #426EC4",
"f$	c #456FC4",
"g$	c #4A72C6",
"h$	c #4A73C7",
"i$	c #4A72C7",
"j$	c #466EC3",
"k$	c #3E65BC",
"l$	c #4065BD",
"m$	c #4166BD",
"n$	c #4066BD",
"o$	c #4066BC",
"p$	c #3F66BD",
"q$	c #346BBF",
"r$	c #356DC0",
"s$	c #3B76C6",
"t$	c #3B78C4",
"u$	c #3874C1",
"v$	c #3672BE",
"w$	c #3570BD",
"x$	c #346EBF",
"y$	c #346EC1",
"z$	c #346DC1",
"A$	c #346CC0",
"B$	c #346DC0",
"C$	c #346EC2",
"D$	c #316AC9",
"E$	c #3C6ABE",
"F$	c #3D6BBE",
"G$	c #3F6CC0",
"H$	c #416CC0",
"I$	c #426DC0",
"J$	c #4570C0",
"K$	c #4872C2",
"L$	c #4A76C4",
"M$	c #4E79C7",
"N$	c #4F7AC7",
"O$	c #507AC8",
"P$	c #4E79C8",
"Q$	c #3D79C4",
"R$	c #3C7AC4",
"S$	c #3A79C2",
"T$	c #3776BF",
"U$	c #3572BB",
"V$	c #336FBA",
"W$	c #326DBB",
"X$	c #326CBD",
"Y$	c #326ABD",
"Z$	c #3169BB",
"`$	c #3169BA",
" %	c #316ABB",
".%	c #2E66C3",
"+%	c #396ABA",
"@%	c #3C6BBA",
"#%	c #3C6ABB",
"$%	c #3E6CBD",
"%%	c #406CBD",
"&%	c #406DBD",
"*%	c #426EBD",
"=%	c #456FBD",
"-%	c #4672BF",
";%	c #4672C0",
">%	c #4874C0",
",%	c #4976C1",
"'%	c #4B78C2",
")%	c #4C78C3",
"!%	c #4E78C3",
"~%	c #4B78C3",
"{%	c #3C78C1",
"]%	c #3A79C1",
"^%	c #3778BE",
"/%	c #3673BA",
"(%	c #326EB8",
"_%	c #326DBA",
":%	c #326BBB",
"<%	c #316ABA",
"[%	c #2F68B9",
"}%	c #2E66B8",
"|%	c #3067BB",
"1%	c #2C63BF",
"2%	c #3769B8",
"3%	c #3969B8",
"4%	c #3B6AB8",
"5%	c #3C6AB8",
"6%	c #3E6CBA",
"7%	c #3F6DBA",
"8%	c #416DBA",
"9%	c #446FBB",
"0%	c #4672BC",
"a%	c #4672BD",
"b%	c #4674BC",
"c%	c #4674BD",
"d%	c #4775BE",
"e%	c #4575BE",
"f%	c #3A76C0",
"g%	c #3776BE",
"h%	c #3573BB",
"i%	c #326EB6",
"j%	c #306CB7",
"k%	c #316CBB",
"l%	c #3068B8",
"m%	c #2E66B9",
"n%	c #2E66BA",
"o%	c #3068BE",
"p%	c #2B62C0",
"q%	c #3769B6",
"r%	c #3A68B6",
"s%	c #3B69B6",
"t%	c #406DBA",
"u%	c #436EBA",
"v%	c #4571BB",
"w%	c #4372BC",
"x%	c #3774BE",
"y%	c #3875C3",
"z%	c #316DB6",
"A%	c #2F6BB5",
"B%	c #306BB9",
"C%	c #326ABB",
"D%	c #3169BD",
"E%	c #3169BF",
"F%	c #3169C0",
"G%	c #3067BE",
"H%	c #2E66BC",
"I%	c #285FBC",
"J%	c #3667B5",
"K%	c #3768B6",
"L%	c #3C6BB9",
"M%	c #416EBA",
"N%	c #4470BA",
"O%	c #4570BB",
"P%	c #3873BD",
"Q%	c #3A76C6",
"R%	c #3974C3",
"S%	c #336FBC",
"T%	c #316CB9",
"U%	c #326CBB",
"V%	c #336CBD",
"W%	c #346CC2",
"X%	c #326AC2",
"Y%	c #3068C1",
"Z%	c #2B64B8",
"`%	c #245AB6",
" &	c #3466B5",
".&	c #3668B5",
"+&	c #3868B6",
"@&	c #3F6CBA",
"#&	c #426FBA",
"$&	c #436FBA",
"%&	c #4271BA",
"&&	c #3772BB",
"*&	c #3975C3",
"=&	c #3974C4",
"-&	c #3772C2",
";&	c #346FBF",
">&	c #326CBC",
",&	c #3169BC",
"'&	c #2D65BC",
")&	c #2961B5",
"!&	c #2861B4",
"~&	c #2056B2",
". . + @ # $ % % & * * * = - - ; ; > > ; , - - * * * ' ) % % ! ~ ",
". { ] ^ / % ) ' * * ( , > > _ : < < < : : [ > ; - * * * } % % | ",
"+ 1 ^ % % & * * ( 2 > 3 < < < < < < < < < < < 3 _ > - * * ' 4 5 ",
"@ ^ % % 6 * * - > 3 < < < < 7 8 9 9 0 0 a b < < < < [ ; = * c d ",
"e / % ' * * , f < < < 7 g h i j j j j j i i 9 8 b < < 3 > - * + ",
"$ % & * * ; [ < < a 9 i j k k k k h l m n o p p q r s t u > - v ",
"% ) * * , _ < < 8 w k k k k k k x y z A B C D E F G G H I [ > J ",
"% ' * , [ < < K L k k k k x M N O P Q R S T U U V W W X Y > < Z ",
"& * = `  . ...+.@.#.$.%.&.*.=.-.;.>.,.'.).!.~.{.U ].].^./.< < (.",
"c * _.:.<.[.}.|.1.2.3.4.5.;.;.;.;.6.7.8.9.).).!.{.U V 0.a.8 b (.",
"* ( b.c.d.e.f.g.h.i.j.k.l.;.;.;.;.m.n.o.p.p.9.).q.{.{.r.s.h b t.",
"* , u.v.[.w.x.y.z.A.B.C.D.;.;.;.;.E.F.G.p.p.p.H.).q.~.I.J.w 9 } ",
"* > u.K.L.f.1.2.3.M.C.C.N.;.;.;.;.O.P.Q.R.S.p.p.H.).).T.U.V.w 6 ",
"- > W.K.w.|.X.Y.Z.`. +.+++@+@+#+$+%+&+*+=+Q.-+p.p.9.).E ;+V.i - ",
">+,+'+)+!+~+{+]+^+/+(+_+:+<+<+[+[+}+|+1+2+3+4+5+5+5+6+7+8+9+0+a+",
"b+c+d+e+f+g+h+i+j+k+l+m+n+o+o+o+p+q+r+s+t+u+v+w+w+x+y+z+A+B+C+D+",
"b+E+F+e+G+h+H+I+J+K+L+M+N+O+O+P+P+Q+R+S+T+U+V+V+W+W+X+Y+Z+`+`+ @",
".@+@@@#@$@%@&@*@=@-@;@>@,@'@)@)@)@)@!@~@{@]@^@/@(@(@_@_@_@:@<@[@",
"}@|@|@1@2@3@4@5@6@7@8@9@0@a@a@a@a@b@c@d@e@f@g@h@i@j@j@k@l@m@n@o@",
"p@q@r@s@t@u@v@w@x@y@z@A@B@C@D@D@D@E@F@G@H@I@J@K@L@L@L@M@N@O@P@Q@",
"R@S@T@U@V@W@W@X@Y@Z@`@ #.#+#+#+#@###$#%#&#*#=#-#;#>#,#'#)#!#~#{#",
"]#^#/#(#_#:#:#<#[#}#|#|#1#2#2#3#3#4#5#6#7#8#9#0#a#b#c#d#e#f#g#h#",
"i#j#k#l#m#n#o#p#q#r#s#s#s#t#u#v#u#w#x#y#z#A#B#C#D#E#F#G#H#I#J#K#",
"L#M#N#N#O#P#Q#R#S#T#U#U#V#V#W#X#Y#Z#`# $.$+$@$#$$$%$&$*$=$-$;$>$",
",$'$)$)$!$~${${$]$^$/$($_$_$_$_$:$<$[$}$|$1$2$3$4$5$6$7$8$9$0$a$",
"b$c$d$e$e$f$g$h$i$j$k$l$m$m$n$n$o$p$q$r$s$t$u$v$w$x$y$z$A$B$C$D$",
"E$F$G$H$I$I$J$K$K$K$K$L$M$N$O$O$O$P$Q$R$S$T$U$V$W$X$Y$Z$`$ %Y$.%",
"+%@%#%$%%%&%*%=%-%;%;%;%>%,%'%)%!%~%{%]%^%/%(%_%:%<%[%}%}%}%|%1%",
"2%3%4%5%6%7%7%8%9%0%a%a%0%0%b%c%d%e%f%g%h%i%j%k%<%l%}%m%m%n%o%p%",
"q%q%r%s%5%6%7%7%t%u%v%0%0%0%0%0%0%w%x%y%v$z%A%B%C%Z$D%E%F%G%H%I%",
"J%q%K%s%s%L%6%7%7%7%M%N%O%0%0%0%0%w%P%Q%R%S%T%U%V%A$W%X%Y%H%Z%`%",
" &.&q%+&s%s%5%6%@&7%7%t%t%#&$&N%N%%&&&*&=&-&;&>&C%,&o%'&)&!&!&~&"};
