/* XPM */
static char *stepmania_icon[] = {
"32 32 298 2",
"  	c None",
". 	c #000000",
"+ 	c #2B2B2B",
"@ 	c #949494",
"# 	c #B6B6B6",
"$ 	c #AEAEAE",
"% 	c #ADADAD",
"& 	c #AFAFAF",
"* 	c #8D8D8D",
"= 	c #282828",
"- 	c #FFF1F1",
"; 	c #FFDDDD",
"> 	c #FFD4D4",
", 	c #FFD5D5",
"' 	c #FFD6D6",
") 	c #FFDFDF",
"! 	c #FFF2F2",
"~ 	c #7B7B7B",
"{ 	c #FFE1E1",
"] 	c #FF9B9B",
"^ 	c #FE7171",
"/ 	c #F85151",
"( 	c #F74A4A",
"_ 	c #F84C4C",
": 	c #F84D4D",
"< 	c #F95555",
"[ 	c #FE7676",
"} 	c #FF9E9E",
"| 	c #818181",
"1 	c #232323",
"2 	c #FFEDED",
"3 	c #FF7474",
"4 	c #EF3A3A",
"5 	c #E00303",
"6 	c #E00000",
"7 	c #EE3939",
"8 	c #FF7373",
"9 	c #FFE3E3",
"0 	c #373737",
"a 	c #6C6C6C",
"b 	c #FFB8B8",
"c 	c #F82C2C",
"d 	c #DC0909",
"e 	c #DA0000",
"f 	c #DC0707",
"g 	c #F52B2B",
"h 	c #FFABAB",
"i 	c #808080",
"j 	c #757575",
"k 	c #F3AEAE",
"l 	c #DC1919",
"m 	c #D10000",
"n 	c #D30000",
"o 	c #E41414",
"p 	c #F69E9E",
"q 	c #8C8C8C",
"r 	c #383838",
"s 	c #F3D6D6",
"t 	c #C52E2E",
"u 	c #BD0606",
"v 	c #CB0000",
"w 	c #DC1414",
"x 	c #F59F9F",
"y 	c #898989",
"z 	c #D4A2A2",
"A 	c #981A1A",
"B 	c #AA0B0B",
"C 	c #B90606",
"D 	c #BC0404",
"E 	c #BC0505",
"F 	c #BE0404",
"G 	c #C00202",
"H 	c #C20000",
"I 	c #C40000",
"J 	c #D51414",
"K 	c #F6A0A0",
"L 	c #0D0D0D",
"M 	c #969696",
"N 	c #D6B7B7",
"O 	c #915151",
"P 	c #7C3030",
"Q 	c #7D3030",
"R 	c #843030",
"S 	c #A33939",
"T 	c #AF1515",
"U 	c #BC0101",
"V 	c #BC0000",
"W 	c #CD1414",
"X 	c #5D5D5D",
"Y 	c #C6C6C6",
"Z 	c #FBF8F8",
"` 	c #FAF7F7",
" .	c #E5E5E5",
"..	c #F4C7C7",
"+.	c #CA1F1F",
"@.	c #B50404",
"#.	c #B30000",
"$.	c #C41414",
"%.	c #080808",
"&.	c #0A0A0A",
"*.	c #8B8B8B",
"=.	c #FFE7E7",
"-.	c #E88585",
";.	c #C43A3A",
">.	c #AC0202",
",.	c #AB0000",
"'.	c #BC1414",
").	c #FEE7E7",
"!.	c #E58686",
"~.	c #BE3E3E",
"{.	c #A50505",
"].	c #A30000",
"^.	c #B41414",
"/.	c #F2A0A0",
"(.	c #FDE5E5",
"_.	c #E08686",
":.	c #B73D3D",
"<.	c #9B0303",
"[.	c #9A0000",
"}.	c #AB1414",
"|.	c #EDA0A0",
"1.	c #8E8E8E",
"2.	c #FCE7E7",
"3.	c #DA8787",
"4.	c #B03D3D",
"5.	c #940505",
"6.	c #910000",
"7.	c #8D0303",
"8.	c #8F0505",
"9.	c #A21414",
"0.	c #E9A0A0",
"a.	c #FAE7E7",
"b.	c #D48484",
"c.	c #A93E3E",
"d.	c #8B0505",
"e.	c #880000",
"f.	c #810505",
"g.	c #791212",
"h.	c #A05151",
"i.	c #7F0D0D",
"j.	c #9A1414",
"k.	c #E4A0A0",
"l.	c #F9E5E5",
"m.	c #D08686",
"n.	c #A23C3C",
"o.	c #810202",
"p.	c #800000",
"q.	c #7A0404",
"r.	c #711616",
"s.	c #B98E8E",
"t.	c #E7D4D4",
"u.	c #891919",
"v.	c #921414",
"w.	c #E0A0A0",
"x.	c #F8E7E7",
"y.	c #CA8585",
"z.	c #9B3D3D",
"A.	c #7A0505",
"B.	c #770000",
"C.	c #710404",
"D.	c #6B1515",
"E.	c #B38989",
"F.	c #EED7D7",
"G.	c #922121",
"H.	c #891414",
"I.	c #DCA0A0",
"J.	c #8A8A8A",
"K.	c #F6E6E6",
"L.	c #C58585",
"M.	c #953E3E",
"N.	c #700303",
"O.	c #6E0000",
"P.	c #690505",
"Q.	c #631515",
"R.	c #AD8686",
"S.	c #3A3A3A",
"T.	c #EFD7D7",
"U.	c #892020",
"V.	c #801414",
"W.	c #D7A0A0",
"X.	c #777777",
"Y.	c #F5E6E6",
"Z.	c #BE8282",
"`.	c #8D3D3D",
" +	c #670303",
".+	c #650000",
"++	c #610404",
"@+	c #5E1616",
"#+	c #AF8D8D",
"$+	c #2D2D2D",
"%+	c #EDD7D7",
"&+	c #802020",
"*+	c #771414",
"=+	c #D3A0A0",
"-+	c #F7EEEE",
";+	c #BA7D7D",
">+	c #883F3F",
",+	c #5E0303",
"'+	c #5C0000",
")+	c #580404",
"!+	c #571515",
"~+	c #A98989",
"{+	c #252525",
"]+	c #EBD7D7",
"^+	c #782020",
"/+	c #6E1414",
"(+	c #CE9F9F",
"_+	c #797979",
":+	c #D9B3B3",
"<+	c #7F3434",
"[+	c #5B0A0A",
"}+	c #540000",
"|+	c #520505",
"1+	c #511515",
"2+	c #A48686",
"3+	c #2A2A2A",
"4+	c #E9D7D7",
"5+	c #702020",
"6+	c #661414",
"7+	c #C99F9F",
"8+	c #919191",
"9+	c #C39B9B",
"0+	c #5E1515",
"a+	c #4C0000",
"b+	c #4A0404",
"c+	c #4B1515",
"d+	c #A68C8C",
"e+	c #363636",
"f+	c #E8DADA",
"g+	c #672222",
"h+	c #4C0101",
"i+	c #5C1414",
"j+	c #C49E9E",
"k+	c #5E5E5E",
"l+	c #CEBBBB",
"m+	c #531D1D",
"n+	c #420303",
"o+	c #430000",
"p+	c #410404",
"q+	c #451515",
"r+	c #9F8787",
"s+	c #262626",
"t+	c #151515",
"u+	c #F5F0F0",
"v+	c #6E3B3B",
"w+	c #430606",
"x+	c #541D1D",
"y+	c #CBB6B6",
"z+	c #656565",
"A+	c #070707",
"B+	c #FBFAFA",
"C+	c #8B7070",
"D+	c #3E1313",
"E+	c #3B0505",
"F+	c #3B0101",
"G+	c #3A0606",
"H+	c #3F1616",
"I+	c #9C8787",
"J+	c #2C2C2C",
"K+	c #848484",
"L+	c #AF9A9A",
"M+	c #421818",
"N+	c #3B0606",
"O+	c #8C7272",
"P+	c #F7F5F5",
"Q+	c #494949",
"R+	c #F9F8F8",
"S+	c #928080",
"T+	c #3D1F1F",
"U+	c #341212",
"V+	c #452929",
"W+	c #AB9D9D",
"X+	c #1B1B1B",
"Y+	c #FEFEFE",
"Z+	c #AA9B9B",
"`+	c #452828",
" @	c #3E1F1F",
".@	c #948282",
"+@	c #FAF9F9",
"@@	c #464646",
"#@	c #313131",
"$@	c #F1EFEF",
"%@	c #B6ADAD",
"&@	c #9F9595",
"*@	c #C1B9B9",
"=@	c #111111",
"-@	c #141414",
";@	c #BFB7B7",
">@	c #9E9494",
",@	c #B5ADAD",
"'@	c #303030",
")@	c #636363",
"!@	c #7E7E7E",
"~@	c #565656",
"{@	c #090909",
"]@	c #585858",
"^@	c #7F7F7F",
"/@	c #646464",
"                                                                ",
"                                                                ",
"          . . . . . . . . . . . . . . . . . . . . .             ",
"        . + @ # $ $ $ % $ $ % $ $ $ $ $ % $ $ & * = .           ",
"      . * - ; > , , , ' , , ' , , , , , ' , , ' ) ! * .         ",
"    . ~ { ] ^ / ( _ : : : : : : _ _ _ : : : _ < [ } { | .       ",
"    1 2 3 4 5 6 6 6 6 6 6 6 6 6 6 6 6 6 6 6 6 6 5 7 8 9 0 .     ",
"  . a b c d e e e e e e e e e e e e e e e e e e e f g h i .     ",
"  . j k l m n n n n n n n n n n n n n n n n n n n n o p q .     ",
"    r s t u v v v v v v v v v v v v v v v v v v v v w x y .     ",
"    . q z A B C D D D D E F G H I I I I I I I I I I J K y .     ",
"      L M N O P Q Q Q P R S T U V V V V V V V V V V W K y .     ",
"        . X Y Z ` ` ` `  ...+.@.#.#.#.#.#.#.#.#.#.#.$.K y .     ",
"          . . %.&.&.&.*.=.-.;.>.,.,.,.,.,.,.,.,.,.,.'.K y .     ",
"                  . y ).!.~.{.].].].].].].].].].].].^./.y .     ",
"                . y (._.:.<.[.[.[.[.[.[.[.[.[.[.[.[.}.|.y .     ",
"              . 1.2.3.4.5.6.6.6.6.6.7.8.7.6.6.6.6.6.9.0.y .     ",
"            . y a.b.c.d.e.e.e.e.e.f.g.h.i.e.e.e.e.e.j.k.y .     ",
"          . *.l.m.n.o.p.p.p.p.p.q.r.s.t.u.p.p.p.p.p.v.w.y .     ",
"        . q x.y.z.A.B.B.B.B.B.C.D.E.M F.G.B.B.B.B.B.H.I.y .     ",
"      . J.K.L.M.N.O.O.O.O.O.P.Q.R.M S.T.U.O.O.O.O.O.V.W.y .     ",
"    . X.Y.Z.`. +.+.+.+.+.+++@+#+M $+S.%+&+.+.+.+.+.+*+=+y .     ",
"    1 -+;+>+,+'+'+'+'+'+)+!+~+M {+. S.]+^+'+'+'+'+'+/+(+y .     ",
"  . _+:+<+[+}+}+}+}+}+|+1+2+M 3+.   S.4+5+}+}+}+}+}+6+7+J..     ",
"  . 8+9+0+a+a+a+a+a+b+c+d+M $+.     e+f+g+h+a+a+a+a+i+j+q .     ",
"  . k+l+m+n+o+o+o+p+q+r+M s+.       t+u+v+w+o+o+o+n+x+y+z+.     ",
"    A+B+C+D+E+F+G+H+I+M J+.         . K+L+M+N+F+E+D+O+P+L       ",
"    . Q+R+S+T+U+V+W+M + .           . X+Y+Z+`+U+ @.@+@@@.       ",
"      . #@$@%@&@*@+@=@.               . -@R+;@>@,@$@'@.         ",
"        . t+)@!@~@%..                   . {@]@^@/@t+.           ",
"            . . .                           . . .               ",
"                                                                "};
