<?xml version="1.0" encoding="UTF-8" standalone="no"?>
<!-- Created with Inkscape (http://www.inkscape.org/) -->
<svg
   xmlns:dc="http://purl.org/dc/elements/1.1/"
   xmlns:cc="http://creativecommons.org/ns#"
   xmlns:rdf="http://www.w3.org/1999/02/22-rdf-syntax-ns#"
   xmlns:svg="http://www.w3.org/2000/svg"
   xmlns="http://www.w3.org/2000/svg"
   xmlns:xlink="http://www.w3.org/1999/xlink"
   xmlns:sodipodi="http://sodipodi.sourceforge.net/DTD/sodipodi-0.dtd"
   xmlns:inkscape="http://www.inkscape.org/namespaces/inkscape"
   width="128"
   height="128"
   id="svg2"
   sodipodi:version="0.32"
   inkscape:version="0.46"
   version="1.0"
   sodipodi:docname="archlinux-icon-crystal-256.svg"
   inkscape:output_extension="org.inkscape.output.svg.inkscape">
  <defs
     id="defs4">
    <inkscape:perspective
       sodipodi:type="inkscape:persp3d"
       inkscape:vp_x="0 : 526.18109 : 1"
       inkscape:vp_y="0 : 1000 : 0"
       inkscape:vp_z="744.09448 : 526.18109 : 1"
       inkscape:persp3d-origin="372.04724 : 350.78739 : 1"
       id="perspective10" />
    <inkscape:perspective
       sodipodi:type="inkscape:persp3d"
       inkscape:vp_x="0 : 526.18109 : 1"
       inkscape:vp_y="0 : 1000 : 0"
       inkscape:vp_z="744.09448 : 526.18109 : 1"
       inkscape:persp3d-origin="372.04724 : 350.78739 : 1"
       id="perspective2527" />
    <linearGradient
       y2="303.14029"
       x2="606.91248"
       y1="104.50665"
       x1="541.33502"
       gradientTransform="matrix(-0.3937741,0,0,0.393752,978.3497,416.9815)"
       gradientUnits="userSpaceOnUse"
       id="linearGradient2216"
       xlink:href="#path1082_2_"
       inkscape:collect="always" />
    <linearGradient
       gradientUnits="userSpaceOnUse"
       y2="348.96875"
       x2="650.81366"
       y1="238.08237"
       x1="291.83591"
       id="linearGradient5329"
       xlink:href="#linearGradient5323"
       inkscape:collect="always" />
    <linearGradient
       id="linearGradient5323"
       inkscape:collect="always">
      <stop
         id="stop5325"
         offset="0"
         style="stop-color:#6e6e6e;stop-opacity:1" />
      <stop
         id="stop5327"
         offset="1"
         style="stop-color:#4d4d4d;stop-opacity:1" />
    </linearGradient>
    <linearGradient
       gradientUnits="userSpaceOnUse"
       y2="666.97791"
       x2="616.48553"
       y1="634.15063"
       x1="400.6142"
       id="linearGradient4352"
       xlink:href="#linearGradient4346"
       inkscape:collect="always" />
    <linearGradient
       id="linearGradient4346"
       inkscape:collect="always">
      <stop
         id="stop4348"
         offset="0"
         style="stop-color:#00bdec;stop-opacity:1" />
      <stop
         id="stop4350"
         offset="1"
         style="stop-color:#40bfde;stop-opacity:1" />
    </linearGradient>
    <linearGradient
       id="linearGradient3388">
      <stop
         id="stop3390"
         offset="0"
         style="stop-color:#000000;stop-opacity:0;" />
      <stop
         id="stop3392"
         offset="1"
         style="stop-color:#000000;stop-opacity:0.37113401;" />
    </linearGradient>
    <linearGradient
       gradientTransform="translate(287,-83)"
       x1="112.49854"
       y1="6.1372099"
       x2="112.49853"
       y2="129.3468"
       id="path1082_2_"
       gradientUnits="userSpaceOnUse">
      <stop
         style="stop-color:#ffffff;stop-opacity:0"
         offset="0"
         id="stop193" />
      <stop
         style="stop-color:#ffffff;stop-opacity:0.27450982;"
         offset="1"
         id="stop195" />
      <midPointStop
         offset="0"
         style="stop-color:#FFFFFF"
         id="midPointStop197" />
      <midPointStop
         offset="0.5"
         style="stop-color:#FFFFFF"
         id="midPointStop199" />
      <midPointStop
         offset="1"
         style="stop-color:#000000"
         id="midPointStop201" />
    </linearGradient>
    <linearGradient
       y2="303.14029"
       x2="606.91248"
       y1="104.50665"
       x1="541.33502"
       gradientTransform="matrix(-0.3937741,0,0,0.393752,978.34969,416.9815)"
       gradientUnits="userSpaceOnUse"
       id="linearGradient2240"
       xlink:href="#path1082_2_"
       inkscape:collect="always" />
    <inkscape:perspective
       id="perspective31"
       inkscape:persp3d-origin="128 : 85.333333 : 1"
       inkscape:vp_z="256 : 128 : 1"
       inkscape:vp_y="0 : 1000 : 0"
       inkscape:vp_x="0 : 128 : 1"
       sodipodi:type="inkscape:persp3d" />
    <linearGradient
       inkscape:collect="always"
       xlink:href="#path1082_2_"
       id="linearGradient2564"
       gradientUnits="userSpaceOnUse"
       gradientTransform="matrix(-0.1222773,0,0,0.1222704,312.36993,376.77832)"
       x1="541.33502"
       y1="104.50665"
       x2="606.91248"
       y2="303.14029" />
    <linearGradient
       inkscape:collect="always"
       xlink:href="#path1082_2_"
       id="linearGradient2649"
       gradientUnits="userSpaceOnUse"
       gradientTransform="matrix(-0.1222773,0,0,0.1222704,312.36993,376.77832)"
       x1="541.33502"
       y1="104.50665"
       x2="606.91248"
       y2="303.14029" />
  </defs>
  <sodipodi:namedview
     id="base"
     pagecolor="#ffffff"
     bordercolor="#666666"
     borderopacity="1.0"
     inkscape:pageopacity="0.0"
     inkscape:pageshadow="2"
     inkscape:zoom="5.6"
     inkscape:cx="47.846514"
     inkscape:cy="48.064922"
     inkscape:document-units="px"
     inkscape:current-layer="layer1"
     showgrid="false"
     inkscape:window-width="1280"
     inkscape:window-height="952"
     inkscape:window-x="0"
     inkscape:window-y="25" />
  <metadata
     id="metadata7">
    <rdf:RDF>
      <cc:Work
         rdf:about="">
        <dc:format>image/svg+xml</dc:format>
        <dc:type
           rdf:resource="http://purl.org/dc/dcmitype/StillImage" />
      </cc:Work>
    </rdf:RDF>
  </metadata>
  <g
     inkscape:label="Calque 1"
     inkscape:groupmode="layer"
     id="layer1"
     transform="translate(-216.54163,-313.56709)">
    <g
       id="g2642"
       transform="matrix(2.1694912,0,0,2.1694912,-253.24351,-516.40878)">
      <path
         id="path2518"
         d="M 246.04163,382.56706 C 243.41548,389.00568 241.82097,393.22328 238.89709,399.47051 C 240.6898,401.37077 242.89302,403.57556 246.46655,406.07488 C 242.62466,404.49396 240.00569,402.91089 238.04724,401.26384 C 234.30524,409.0721 228.4388,420.19026 216.54162,441.56707 C 225.89006,436.17006 233.13712,432.84114 239.89099,431.57049 C 239.60204,430.32495 239.44768,428.97137 239.45886,427.56609 L 239.46606,427.27081 C 239.61444,421.28 242.73165,416.67333 246.42334,416.98613 C 250.11502,417.29893 252.98883,422.41074 252.84046,428.40154 C 252.81251,429.52997 252.68132,430.61423 252.45874,431.6209 C 259.13992,432.92839 266.31864,436.24248 275.54163,441.56707 C 273.72279,438.21845 272.0937,435.20156 270.54334,432.32671 C 268.10127,430.43395 265.5553,427.97145 260.3595,425.30462 C 263.9308,426.23259 266.49039,427.30566 268.48353,428.50237 C 252.72058,399.15451 251.44709,395.25215 246.04163,382.56706 z"
         style="fill:#1793d1;fill-opacity:1;fill-rule:evenodd;stroke:none;stroke-width:1;stroke-linecap:round;stroke-linejoin:round;stroke-miterlimit:10;stroke-dasharray:none;stroke-opacity:1" />
      <path
         sodipodi:nodetypes="ccc"
         id="path2522"
         d="M 262.64732,417.63468 C 249.8594,400.27778 246.89529,386.28865 246.14449,382.94883 C 252.96594,398.68277 252.91935,398.87571 262.64732,417.63468 z"
         style="fill:#ffffff;fill-opacity:0.16568047;fill-rule:evenodd;stroke:none;stroke-width:36.09999847;stroke-linecap:butt;stroke-linejoin:round;stroke-miterlimit:10;stroke-opacity:1" />
      <path
         id="path2520"
         d="M 246.14966,382.81913 C 245.82162,383.62559 245.50203,384.40816 245.19898,385.15263 C 244.86326,385.97734 244.54399,386.76466 244.22669,387.53654 C 243.90941,388.30843 243.59496,389.06171 243.28321,389.80522 C 242.97145,390.54876 242.65884,391.28385 242.33973,392.02348 C 242.02064,392.76308 241.69956,393.51042 241.36024,394.27055 C 241.02091,395.03071 240.66672,395.80612 240.29432,396.61125 C 239.92188,397.41639 239.53154,398.25026 239.11316,399.1248 C 239.05521,399.24593 238.98488,399.38379 238.92591,399.50652 C 240.71305,401.39937 242.91348,403.58986 246.46656,406.07488 C 242.6346,404.49805 240.01844,402.9207 238.06165,401.27825 C 237.96006,401.48565 237.87103,401.67085 237.76636,401.88323 C 237.6286,402.16277 237.46319,402.48041 237.31983,402.76909 C 237.0684,403.28466 236.80568,403.81425 236.5348,404.36077 C 236.43069,404.56774 236.33932,404.7467 236.2323,404.95854 C 234.52213,408.39068 232.40052,412.49907 229.67114,417.60552 C 237.15345,413.38987 245.22396,407.30771 259.88417,412.54241 C 259.14913,411.15026 258.47339,409.84469 257.83875,408.61724 C 257.20413,407.38974 256.61452,406.24 256.06703,405.153 C 255.51958,404.06602 255.01368,403.04121 254.54017,402.07048 C 254.06666,401.09978 253.62774,400.18357 253.21498,399.30486 C 252.80218,398.42616 252.41349,397.58061 252.04823,396.7697 C 251.68294,395.95879 251.33492,395.18193 251.00391,394.4146 C 250.67287,393.64722 250.35598,392.89389 250.04603,392.14592 C 249.73605,391.39792 249.43346,390.65173 249.13135,389.89885 C 249.02338,389.62981 248.91537,389.34956 248.80726,389.0778 C 247.98021,387.13618 247.13097,385.1243 246.14966,382.81913 z"
         style="fill:url(#linearGradient2649);fill-opacity:1;fill-rule:evenodd;stroke:none;stroke-width:0.71416688;stroke-linecap:round;stroke-linejoin:round;stroke-miterlimit:10;stroke-dasharray:none;stroke-opacity:1" />
    </g>
  </g>
</svg>
