/* XPM */
static char *xlite_48x48[] = {
/* columns rows colors chars-per-pixel */
"48 48 97 2 ",
"   c #020201",
".  c #090700",
"X  c #0C0900",
"o  c #0A0A0A",
"O  c #120E00",
"+  c #161100",
"@  c #1C1600",
"#  c #1F1800",
"$  c #131313",
"%  c #1C1C1C",
"&  c #241D00",
"*  c #281F00",
"=  c #2B2200",
"-  c #322700",
";  c #352A00",
":  c #392E00",
">  c #3E3100",
",  c #242424",
"<  c gray16",
"1  c #323232",
"2  c #3E3E3E",
"3  c #423500",
"4  c #473900",
"5  c #4A3B00",
"6  c #564400",
"7  c #594600",
"8  c #5D4A00",
"9  c #604C00",
"0  c #665200",
"q  c #6B5300",
"w  c #6E5800",
"e  c #745D00",
"r  c #785D00",
"t  c gray26",
"y  c #4C4C4C",
"u  c #565656",
"i  c #5B5B5B",
"p  c #626262",
"a  c #6C6C6C",
"s  c #717171",
"d  c #787878",
"f  c #816700",
"g  c #866900",
"h  c #8C6D00",
"j  c #8C7000",
"k  c #907200",
"l  c #977900",
"z  c #9C7E00",
"x  c #A07E00",
"c  c #A58400",
"v  c #A98700",
"b  c #AE8A00",
"n  c #B18E00",
"m  c #B49200",
"M  c #BB9600",
"N  c #C49D00",
"B  c #C89E00",
"V  c #CDA400",
"C  c #D5A900",
"Z  c #DAAD00",
"A  c #DDB100",
"S  c #E0AF00",
"D  c #E4B500",
"F  c #EDBC00",
"G  c #F1BF00",
"H  c #F5C200",
"J  c #FFC700",
"K  c #FEC801",
"L  c #FFC80A",
"P  c #FFCB14",
"I  c #FFCC1C",
"U  c #FFCC20",
"Y  c #FFCF2C",
"T  c #FFD02C",
"R  c #FFD036",
"E  c #FFD23B",
"W  c #FFD244",
"Q  c #FFD549",
"!  c #FFD550",
"~  c #FFDA5E",
"^  c #828282",
"/  c #8A8A8A",
"(  c #939393",
")  c #9A9A9A",
"_  c #A0A0A0",
"`  c gray67",
"'  c #B3B3B3",
"]  c #BBBBBB",
"[  c #C3C3C3",
"{  c #CBCBCB",
"}  c #D2D2D2",
"|  c #DADADA",
" . c #E3E3E3",
".. c #EAEAEA",
"X. c #F5F5F5",
"o. c #FFFFFF",
"O. c None",
/* pixels */
"O.O.O.O.O.O.O.O.O.O.O.O.O.O.O.O.O.O.O.O.O.O.O.O.O.O.O.O.O.O.O.O.O.O.O.O.O.O.O.O.O.O.O.O.O.O.O.O.",
"O.O.O.O.O.O.O.O.O.O.O.O.O.O.O.O.O.O.O.O.O.O.O.O.O.O.O.O.O.O.O.O.O.O.O.O.O.O.O.O.O.O.O.O.O.O.O.O.",
"O.O.O.O.O.Q U J J J J J J J J J J J J J J J J J J J J J J J J J J J J J J J J J J U Q O.O.O.O.O.",
"O.O.O.O.P J J J J J J J J J J J J J J J J J J J J J J J J J J J J J J J J J J J J J J P O.O.O.O.",
"O.O.W L J J J J J J J J J J J J J J J J J J J J J J J J J J J J J J J J J J J J J J J J K Q O.O.",
"O.O.L J J J J J J J J J J J J J J J J J J J J J J J J J J J J J J J J J J J J J J J J J J L O.O.",
"O.I J J J J K J J J J J J J J H G J J J J J J J J J J K J J J H G J K K J J J J J J J J J J U O.",
"O.J J J J J J J J J J J J V 7 & # 4 M J J J J J J J J J J D w * @ : z H J J K J J J J J J J J O.",
"I J J J J J J J J J J J M O   1 1 .   l K K J J K J J J A =   , 2 o   0 K J J J J K J J J J J P ",
"J J J J J J J J J J J H @ $ ] o.o.| < X C J J J J J J J 5   ( o.o...y   v J J J J J J J J J J W ",
"J J J J J J J J J J J m   ^ o.o.o.o.' . f J J J J J J Z X y o.o.o.o.| o 5 K K J J J J J K J J R ",
"J J J J J J J J J J J k   ] o.o.o.o.| $ 8 K J J J J J N   / o.o.o.o.X.< - H J J J J J J J J J R ",
"J J J J J J J J J J J b   ( o.o.o.o.] . e K K J J J K C X i o.o.o.o. .$ 4 J J J J J J J J J J R ",
"J J J J J J J J J J J F X , } o.o...2 . B K J J K J J H > o ] o.o.X.a   l J J K J J J K J J J R ",
"J J J J J J J J J J J J z   $ i p ,   w J J J J J J J J B O . y a 1   > H J J J J J J J J J J R ",
"J J J J J J J J J J J J J n : X   & l K J J J J J J K J J V 4 X   # e G J J J J J J J J J J J R ",
"J J J J J J J J J J J J J J H D D G J J K J J J J J J J J J H D Z G J J J J J J J J J K J J J R ",
"J J J J J J J J J J J J H C N N N N V H J J J J J J K K J G B B N N V J J J J J J J J J K J J R ",
"J J J J J J J J J K J G 4             = Z K K K J K J K M O           : G J J J J J J J J J J R ",
"J J J J J J J J J J G 4   u / / / / a o & Z J K J J J H ; o ^ / / / i   j J J J J J J J J J J R ",
"J J J J J J J J J H 4   s X.o.o.o.o.o.(   = A K J J J F + y o.o.o.o.|   0 K J J J J J J J J J R ",
"J J J J J J J J G >   s o.o.o.o.o.o.o.o.) . & C J J J F + y o.o.o.o.| . 0 K J J J K J J J J J R ",
"J J J J J J J F 4   s X.o.o.o.o.o.o.o.o.o.( o & A J J F O y o.o.o.o.|   0 K J J J J J J J J J R ",
"J J J J J J G 4   s o.o.o.o.o.o.o.o.o.o.o.o.(   = A J F + y o.o.o.o.| . 0 K K n 4 6 B J J J J R ",
"J J J J J G >   s o.o.o.o.o.o.o.o.o.o.o.o.o.o.)   & Z F + y o.o.o.o.|   0 K z   $ o X M J J K R ",
"J J J J F 4   s X.o.o.o.o.o.o.o.o.o.o.o.o.o.o.o.( o * V + y o.o.o.o.|   0 l . < { ] $ + V J K R ",
"J J J G 4   a X.o.o.o.o.o.o.o.o.o.o.o.o.o.o.o.o.o./   &   y o.o.o.o.| . &   % } o.o.` o @ D J R ",
"J J J 4   a o.o.o.o.o.o.] ..o.o.o.o.X.] X.o.o.o.o.o.)     y o.o.o.o.|     < | o.o.o.o._   r K R ",
"J J C   i X.o.o.o.o.X.^   ^ o.o.o.o.]   u X.o.o.o.o.o./ o y o.o.o.o.| o , } o.o.o.o.o.[ . q K R ",
"J J C   u X.o.o.o.o.^     d o.o.o.o.'     i X.o.o.o.o.o.] { o.o.o.o.o.` | o.o.o.o.o.{ %   B J R ",
"J J K 6   a o.o.o.d   @   d o.o.o.o.`   &   u X.o.o.o.o.o.o.o.o.o.o.o.o.o.o.o.o.o.} % X v J K R ",
"J J J G 3   d X.^   : m   d o.o.o.o.'   l 7   u X.o.o.o.o.o.o.o.o.o.o.o.o.o.o.o.{ % . c J J J R ",
"J J J J D -   <   ; D V   d o.o.o.o.'   l H 7   i X.o.o.o.o.o.o.o.o.o.o.o.o.o.} %   v H K K J R ",
"J J J J J F 8 - 8 G J V   d o.o.o.o.'   z K H 9   u X.o.o.o.o.o.o.o.o.o.o.o.} $ X v K J K K J R ",
"J J J J J J J G J J J V   d o.o.o.o.'   z K K H 7   u X.o.o.o.o.o.o.o.o.o.{ % X c J J J J J J R ",
"J J J J J J J J J J J V   d o.o.o.o.`   z K J J H 7   i X.o.o.o.o.o.o.o.} %   v J J J J K J J R ",
"J J J J J J J J J J J V   d o.o.o.o.'   z J J J J H 8   u X.o.o.o.o.o.} % . c K J J J J J J J R ",
"J J J J J J J J J J J V   d o.o.o.o.'   z J J J J K H 6   i o.o.o.o.{ % . c J J J J K J J J J R ",
"J J J J J J J J J J J V   d o.o.o.o.'   z K J J J J J H 6   i X.o.} %   c H K J J J J J J J K Y ",
"! J J J J J J J J J J A   t [ { { [ a   n J J J J J J J H 7   u ' % X v J J K K J J J J J J K R ",
"O.L J K J K J J J J J K 9     . .     > H K J J J K J J J H 6     X c J J J J J J J J J J J L O.",
"O.W J K J J J J J J J J H b g g g g x F J J J J J J J J K J H b h V J J J J J J J J J J K J I O.",
"O.O.Y K J J J J J J J J J J K J J K J J J J J J J J J J J J J J J J J J J J J J K J J J J I O.O.",
"O.O.O.Y K J J J J J J J J K J J J J J J J J J J J J J J J J J J J J J J J J J J J J J J I O.O.O.",
"O.O.O.O.~ Y K J J J J J J J J J J J J J J K J J J J J J J J J J J J J J J J J K J J L Y O.O.O.O.",
"O.O.O.O.O.O.O.O.O.O.O.O.O.O.O.O.O.O.O.O.O.O.O.O.O.O.O.O.O.O.O.O.O.O.O.O.O.O.O.O.O.O.O.O.O.O.O.O.",
"O.O.O.O.O.O.O.O.O.O.O.O.O.O.O.O.O.O.O.O.O.O.O.O.O.O.O.O.O.O.O.O.O.O.O.O.O.O.O.O.O.O.O.O.O.O.O.O.",
"O.O.O.O.O.O.O.O.O.O.O.O.O.O.O.O.O.O.O.O.O.O.O.O.O.O.O.O.O.O.O.O.O.O.O.O.O.O.O.O.O.O.O.O.O.O.O.O."
};
