/* XPM */
static char *xlite_32x32[] = {
/* columns rows colors chars-per-pixel */
"32 32 208 2 ",
"   c #020202",
".  c #040402",
"X  c #070603",
"o  c #040404",
"O  c gray2",
"+  c #070706",
"@  c #070707",
"#  c #0A0800",
"$  c #0B0A03",
"%  c #0C0A00",
"&  c #0D0A00",
"*  c #0A0905",
"=  c #0B0A05",
"-  c #0B0A06",
";  c gray3",
":  c #0B0B09",
">  c #0B0B0B",
",  c #0C0B09",
"<  c #0C0B0A",
"1  c #0C0C0A",
"2  c #0D0C0A",
"3  c #0C0C0C",
"4  c #0D0D0C",
"5  c #0E0E0D",
"6  c #1A1500",
"7  c #1C1600",
"8  c #1C1700",
"9  c #1D1700",
"0  c #1F1900",
"q  c #131313",
"w  c gray8",
"e  c #141415",
"r  c #151515",
"t  c #201A00",
"y  c #241D00",
"u  c #282000",
"i  c #2E2500",
"p  c #312700",
"a  c #322800",
"s  c #3D3100",
"d  c #3F3300",
"f  c #202020",
"g  c #232323",
"h  c #272727",
"j  c #2D2D2D",
"k  c gray18",
"l  c #2F2F2F",
"z  c gray19",
"x  c #323232",
"c  c gray20",
"v  c #343434",
"b  c #353535",
"n  c gray22",
"m  c #3F3F3F",
"M  c #433400",
"N  c #473700",
"B  c #473900",
"V  c #493900",
"C  c #4B3C00",
"Z  c #4F3F00",
"A  c #594600",
"S  c #5B4900",
"D  c #5D4900",
"F  c #5C4A00",
"G  c #5F4A00",
"H  c #5E4B00",
"J  c #685400",
"K  c #685500",
"L  c #6C5600",
"P  c #735C00",
"I  c #7C6200",
"U  c gray26",
"Y  c gray28",
"T  c gray33",
"R  c #565656",
"E  c #646464",
"W  c #6D6D6D",
"Q  c gray44",
"!  c #717171",
"~  c #727272",
"^  c gray45",
"/  c #747474",
"(  c #767676",
")  c #777777",
"_  c #816700",
"`  c #816800",
"'  c #826800",
"]  c #846A00",
"[  c #856A00",
"{  c #866A00",
"}  c #866B00",
"|  c #876C00",
" . c #886B00",
".. c #886C00",
"X. c #8D7000",
"o. c #947700",
"O. c #997A00",
"+. c #997B00",
"@. c #9B7C00",
"#. c #9C7D00",
"$. c #9D7D00",
"%. c #9D7E00",
"&. c #A07D00",
"*. c #A17F00",
"=. c #AC8900",
"-. c #AC8A00",
";. c #AE8A00",
":. c #AF8B00",
">. c #B08B00",
",. c #B08C00",
"<. c #B18C00",
"1. c #B58F00",
"2. c #B68E00",
"3. c #B69000",
"4. c #B89000",
"5. c #BA9200",
"6. c #BC9500",
"7. c #C89D00",
"8. c #CAA000",
"9. c #CFA300",
"0. c #CEA400",
"q. c #CFA500",
"w. c #D3A600",
"e. c #D5AB00",
"r. c #D7AA00",
"t. c #D7AB00",
"y. c #D8AB00",
"u. c #DAAD00",
"i. c #DBAD00",
"p. c #DCAD00",
"a. c #DCAE00",
"s. c #DDAF00",
"d. c #E2B000",
"f. c #E2B200",
"g. c #E3B400",
"h. c #E4B400",
"j. c #E5B500",
"k. c #E6B600",
"l. c #E7B700",
"z. c #EAB900",
"x. c #ECBA00",
"c. c #EDBB00",
"v. c #EFBD00",
"b. c #F1BE00",
"n. c #F3BF00",
"m. c #F5C100",
"M. c #F6C100",
"N. c #F5C200",
"B. c #F7C200",
"V. c #F7C300",
"C. c #F8C300",
"Z. c #F9C400",
"A. c #FFC600",
"S. c #FEC700",
"D. c #FFC700",
"F. c #FFC800",
"G. c #FFC806",
"H. c #FFC708",
"J. c #FFCA16",
"K. c #FFCC18",
"L. c #FFCC1C",
"P. c #FFCC21",
"I. c #FFCD22",
"U. c #FFCD24",
"Y. c #FFCD25",
"T. c #FFCD27",
"R. c #FFCE28",
"E. c #FFCE2A",
"W. c #FFCE2B",
"Q. c #FFCE2D",
"!. c #FFD239",
"~. c #FFD549",
"^. c #888888",
"/. c #898989",
"(. c #909090",
"). c #959595",
"_. c gray60",
"`. c #9B9B9B",
"'. c gray67",
"]. c gray68",
"[. c #AEAEAE",
"{. c #AFAFAF",
"}. c gray69",
"|. c #B7B7B7",
" X c #BBBBBB",
".X c #BCBCBC",
"XX c gray74",
"oX c gray",
"OX c gray76",
"+X c #C3C3C3",
"@X c gray77",
"#X c gray81",
"$X c #D0D0D0",
"%X c gray82",
"&X c #D2D2D2",
"*X c #DADADA",
"=X c gray90",
"-X c gray93",
";X c #EEEEEE",
":X c #EFEFEF",
">X c gray94",
",X c gray97",
"<X c #F9F9F9",
"1X c #FBFBFB",
"2X c gray99",
"3X c #FEFEFE",
"4X c gray100",
"5X c None",
/* pixels */
"5X5X5X5X5X5X5X5X5X5X5X5X5X5X5X5X5X5X5X5X5X5X5X5X5X5X5X5X5X5X5X5X",
"5X5X5X5X5X5X5X5X5X5X5X5X5X5X5X5X5X5X5X5X5X5X5X5X5X5X5X5X5X5X5X5X",
"5X5XQ.D.D.D.D.D.D.D.D.D.D.D.D.D.D.D.D.D.D.D.D.D.D.D.D.D.D.E.5X5X",
"5XT.D.D.D.D.D.D.D.D.D.D.D.D.D.D.D.D.D.D.D.D.D.D.D.D.D.D.D.D.I.5X",
"5XD.D.D.D.D.D.D.F.c.5.9.D.D.D.D.D.D.D.D.f.2.p.F.D.D.D.D.D.D.D.5X",
"L.D.D.D.D.D.D.D.:.& g 3 V V.D.D.D.D.D.] @ h ; P D.D.D.D.D.D.D.J.",
"D.D.D.D.D.D.D.c.& '.3X-Xc ] D.D.D.D.8.4 #X3X*Xw 2.F.D.D.D.D.D.E.",
"D.D.D.D.D.D.D.5.f 3X3X3X_.M D.D.D.D. .T 3X3X3XE P D.D.D.D.D.D.I.",
"D.D.D.D.D.D.D.w.> -X3X3X~ S D.D.D.D.*.j 3X3X3Xm X.D.D.D.D.D.D.T.",
"D.D.D.D.D.D.D.D.Z z ).W - 0.D.D.D.D.V.u Y _.T 7 x.D.D.D.D.D.D.I.",
"D.D.D.D.D.D.D.D.C.| V H 0.D.D.D.D.D.D.x.P M L f.D.D.D.D.D.D.D.T.",
"A.D.D.D.D.D.D.F.V.y.t.y.k.D.D.D.D.D.F.Z.y.y.t.V.D.D.D.D.D.D.D.I.",
"A.D.D.D.D.D.D.p.0 @ @ @ . ' F.D.D.D.c.y @ > @ 6 g.D.D.D.D.D.D.T.",
"A.D.D.D.D.D.p.7 ~ 1X3X3X$Xw ' F.D.D.,.h 1X3X1Xv #.D.D.D.D.D.D.I.",
"A.D.D.D.D.p.7 ^ 3X3X3X3X3X$Xw ] D.D.:.z 3X3X3Xm O.D.D.D.D.D.D.T.",
"A.D.D.D.y.7 / 3X3X3X3X3X3X3X$Xr ' D.:.z 3X3X3Xm O.D.3.] k.D.D.I.",
"D.D.D.p.7 ~ 3X3X3X3X3X3X3X3X3X$Xe ' -.x 3X3X3Xm O.o.4 U y x.D.T.",
"D.D.p.6 ) 3X3X3X3X3X3X3X3X3X3X3X$Xe s x 3X3X3XU s 4 @X3XT a b.T.",
"D.C.0 ~ 3X3X3X>X/.3X3X3X+X|.3X3X3X$Xe z 3X3X3XU 3 +X3X3X1Xj #.T.",
"D.d.@ =X3X3X>Xn   ,X3X3X) @ '.3X3X3X$X(.3X3X3X`.@X3X3X3X X, 7.I.",
"D.D.A l >X>Xn a   ,X3X3X) i ; '.3X3X3X3X3X3X3X3X3X3X3X.X, #.D.T.",
"D.D.C.V v z V e.  ,X3X3X) J :.; }.3X3X3X3X3X3X3X3X3X.X, #.D.D.I.",
"D.D.D.V.] ..V.p.  ,X3X3X/ J D.>.; {.3X3X3X3X3X3X3X.X, #.D.D.D.T.",
"D.D.D.D.D.D.D.p.  1X3X3X) L D.D.,.- {.3X3X3X3X3X.X2 #.D.D.D.D.I.",
"D.D.D.D.D.D.D.p.  ,X3X3X) L D.D.D.:.- {.3X3X3X.X4 #.D.D.D.D.D.T.",
"A.D.D.D.D.D.F.p.  ,X3X3X) J D.D.D.D.:.; }.3X.X2 @.D.D.D.D.D.D.I.",
"W.D.D.D.D.D.D.b.# ) /./.j ] D.D.D.D.D.:.; ~ 2 #.D.D.D.D.D.D.D.K.",
"5XG.D.D.D.D.D.D.6.D A A I V.D.D.D.D.D.F.6.G >.D.D.D.D.D.D.D.D.5X",
"5X~.D.D.D.D.D.D.D.D.D.D.D.D.D.D.D.D.D.D.D.D.D.D.D.D.D.D.D.D.!.5X",
"5X5X5XI.D.D.D.D.D.D.D.D.D.D.D.D.D.D.D.D.D.D.D.D.D.D.D.D.H.5X5X5X",
"5X5X5X5X5X5X5X5X5X5X5X5X5X5X5X5X5X5X5X5X5X5X5X5X5X5X5X5X5X5X5X5X",
"5X5X5X5X5X5X5X5X5X5X5X5X5X5X5X5X5X5X5X5X5X5X5X5X5X5X5X5X5X5X5X5X"
};
