/* XPM */
static char *xlite_16x16[] = {
/* columns rows colors chars-per-pixel */
"16 16 103 2 ",
"   c #5D4B03",
".  c #534818",
"X  c #61500E",
"o  c #6D580C",
"O  c #715B0A",
"+  c #735D0B",
"@  c #645415",
"#  c #6C5B17",
"$  c #65561D",
"%  c #66561D",
"&  c #6F5D18",
"*  c #69591C",
"=  c #7B6309",
"-  c #7A630B",
";  c #5D532E",
":  c #5A5439",
">  c #5E583E",
",  c #655A33",
"<  c #60593B",
"1  c #6F653B",
"2  c #54534E",
"3  c #5D594A",
"4  c #5E5C56",
"5  c #706744",
"6  c #65635D",
"7  c #6B6A64",
"8  c DimGray",
"9  c #757472",
"0  c #7B7B7B",
"q  c #7F7E78",
"w  c #7C7C7C",
"e  c #896F0B",
"r  c #907202",
"t  c #907302",
"y  c #957501",
"u  c #957600",
"i  c #957602",
"p  c #9A7A00",
"a  c #807E79",
"s  c #A98500",
"d  c #B48E00",
"f  c #B58E00",
"g  c #C29900",
"h  c #C69D00",
"j  c #C99E00",
"k  c #CBA000",
"l  c #CEA200",
"z  c #CFA300",
"x  c #D3A700",
"c  c #DDAD00",
"v  c #DFAF00",
"b  c #D9AC12",
"n  c #E0B000",
"m  c #E9B600",
"M  c #EAB700",
"N  c #EBB800",
"B  c #ECBA00",
"V  c #EEBB00",
"C  c #F3BE00",
"Z  c #F5BE00",
"A  c #F7C200",
"S  c #F8C200",
"D  c #FBC400",
"F  c #FCC500",
"G  c #FEC600",
"H  c #FFC600",
"J  c #FEC700",
"K  c #FFC700",
"L  c #FFC807",
"P  c #FFC808",
"I  c #FFC80A",
"U  c #FFC80B",
"Y  c #FFC90D",
"T  c #FFC90E",
"R  c #FFC910",
"E  c #FFC911",
"W  c #FCC812",
"Q  c #FECA12",
"!  c #FFCA12",
"~  c #FFCA13",
"^  c #FFC914",
"/  c #FFCA14",
"(  c #818181",
")  c gray51",
"_  c #838383",
"`  c gray57",
"'  c gray58",
"]  c #9F9F9F",
"[  c #A1A0A0",
"{  c #A1A1A0",
"}  c gray63",
"|  c #A4A4A4",
" . c #B6B6B6",
".. c gray75",
"X. c #C5C5C5",
"o. c #EAEAEA",
"O. c gray92",
"+. c gray95",
"@. c #F3F3F3",
"#. c gray98",
"$. c #FEFEFE",
"%. c gray100",
"&. c None",
/* pixels */
"&.&.&.&.&.&.&.&.&.&.&.&.&.&.&.&.",
"&.P K K K K K K K K K K K K L &.",
"P K K K s o z K K n O i K K K Y ",
"K K K m 9 #., K K # +.' j K K ~ ",
"K K K C 3 ..* K K -  .7 c K K ~ ",
"K K K K x y N K K S p h K K K ~ ",
"K K K d 6 ) : v K - ) 2 c K K ~ ",
"K K d a $.$.@.> v & $.] j z A ~ ",
"K f a $.$.$.$.@.> . $.[   ) @ ~ ",
"Z 4 $.X.[ $.w o.@.8 $. .| $.0 b ",
"K + ` X w $.< ; O.$.$.$.$.] t ~ ",
"K K g N w $.1 N ; o.$.$.[ t K ~ ",
"K K K N w $.1 K N ; O.[ t K K ~ ",
"^ K K D $ 5 e K K N $ i K K K Y ",
"&./ K K K K K K K K K K K K P &.",
"&.&.&.&.&.&.&.&.&.&.&.&.&.&.&.&."
};
