<?xml version="1.0" encoding="UTF-8" standalone="no"?>
<!-- Created with Inkscape (http://www.inkscape.org/) -->
<svg
   xmlns:dc="http://purl.org/dc/elements/1.1/"
   xmlns:cc="http://web.resource.org/cc/"
   xmlns:rdf="http://www.w3.org/1999/02/22-rdf-syntax-ns#"
   xmlns:svg="http://www.w3.org/2000/svg"
   xmlns="http://www.w3.org/2000/svg"
   xmlns:xlink="http://www.w3.org/1999/xlink"
   xmlns:sodipodi="http://sodipodi.sourceforge.net/DTD/sodipodi-0.dtd"
   xmlns:inkscape="http://www.inkscape.org/namespaces/inkscape"
   width="32"
   height="32"
   id="svg2"
   sodipodi:version="0.32"
   inkscape:version="0.45.1"
   version="1.0"
   sodipodi:docbase="/home/phrodo_00/Desktop/zatacka"
   sodipodi:docname="kurve.svg"
   inkscape:output_extension="org.inkscape.output.svg.inkscape">
  <defs
     id="defs4">
    <linearGradient
       inkscape:collect="always"
       id="linearGradient3170">
      <stop
         style="stop-color:#eeeeec;stop-opacity:1;"
         offset="0"
         id="stop3172" />
      <stop
         style="stop-color:#eeeeec;stop-opacity:0;"
         offset="1"
         id="stop3174" />
    </linearGradient>
    <linearGradient
       id="linearGradient3162">
      <stop
         style="stop-color:#73d216;stop-opacity:1;"
         offset="0"
         id="stop3164" />
      <stop
         style="stop-color:#73d216;stop-opacity:0;"
         offset="1"
         id="stop3166" />
    </linearGradient>
    <linearGradient
       inkscape:collect="always"
       xlink:href="#linearGradient3170"
       id="linearGradient3178"
       x1="8.3035717"
       y1="7.1785712"
       x2="25"
       y2="30.035715"
       gradientUnits="userSpaceOnUse" />
    <linearGradient
       inkscape:collect="always"
       xlink:href="#linearGradient3170"
       id="linearGradient3188"
       x1="9.1071424"
       y1="4.5"
       x2="32.15625"
       y2="24.767857"
       gradientUnits="userSpaceOnUse" />
    <linearGradient
       inkscape:collect="always"
       xlink:href="#linearGradient3170"
       id="linearGradient3198"
       gradientUnits="userSpaceOnUse"
       x1="9.1071424"
       y1="4.5"
       x2="32.15625"
       y2="24.767857" />
  </defs>
  <sodipodi:namedview
     id="base"
     pagecolor="#ffffff"
     bordercolor="#666666"
     borderopacity="1.0"
     inkscape:pageopacity="0.0"
     inkscape:pageshadow="2"
     inkscape:zoom="11.2"
     inkscape:cx="18.287631"
     inkscape:cy="14.960182"
     inkscape:document-units="px"
     inkscape:current-layer="layer1"
     width="32px"
     height="32px"
     inkscape:object-bbox="true"
     showgrid="true"
     objecttolerance="10000"
     gridtolerance="10000"
     guidetolerance="10000"
     inkscape:window-width="872"
     inkscape:window-height="621"
     inkscape:window-x="4"
     inkscape:window-y="44" />
  <metadata
     id="metadata7">
    <rdf:RDF>
      <cc:Work
         rdf:about="">
        <dc:format>image/svg+xml</dc:format>
        <dc:type
           rdf:resource="http://purl.org/dc/dcmitype/StillImage" />
      </cc:Work>
    </rdf:RDF>
  </metadata>
  <g
     inkscape:label="Capa 1"
     inkscape:groupmode="layer"
     id="layer1">
    <path
       style="fill:#ef2929;fill-rule:evenodd;stroke:#a40000;stroke-width:1px;stroke-linecap:butt;stroke-linejoin:miter;stroke-opacity:1"
       d="M 23.09375,2.5 C 18.924031,2.5 12.825595,6.5117505 14.491071,8.1071429 L 17.566964,10.964286 C 20.305803,13.783622 22.991339,10.65625 25.28125,10.65625 C 27.483879,10.65625 29.558933,11.166227 31.4375,12.03125 L 31.65625,4.40625 C 29.040833,3.2018458 26.16034,2.5 23.09375,2.5 z M 7.53125,16.075893 C 4.949716,14.08774 2.5,19.496965 2.5,23.0625 C 2.5,26.062622 3.1568518,28.928816 4.3125,31.5 L 11.8125,31.5 C 10.982436,29.653334 10.5,27.592238 10.5,25.4375 C 10.5,23.222736 13.143757,20.690117 10,18 L 7.53125,16.075893 z "
       id="path2162"
       sodipodi:nodetypes="cccsccccsccscc" />
    <path
       style="fill:#73d216;fill-rule:evenodd;stroke:#4e9a06;stroke-width:1.00000036px;stroke-linecap:butt;stroke-linejoin:miter;stroke-opacity:1"
       d="M 6.46875 4.59375 C 5.7955985 4.6785749 5.1344279 5.0401592 4.625 5.625 L 3.8125 6.53125 C 2.7936443 7.7009313 2.7993917 9.3715575 3.84375 10.28125 L 28.21875 31.5 L 31.5625 31.5 L 31.5625 25.375 L 8.34375 5.15625 C 7.8215708 4.7014037 7.1419015 4.5089251 6.46875 4.59375 z "
       id="rect2182" />
    <path
       sodipodi:type="inkscape:offset"
       inkscape:radius="-1.3939793"
       inkscape:original="M 6.46875 4.59375 C 5.7955985 4.6785749 5.1344279 5.0401592 4.625 5.625 L 3.8125 6.53125 C 2.7936443 7.7009313 2.7993917 9.3715575 3.84375 10.28125 L 28.21875 31.5 L 31.5625 31.5 L 31.5625 25.375 L 8.34375 5.15625 C 7.8215708 4.7014037 7.1419015 4.5089251 6.46875 4.59375 z "
       style="opacity:0.49489794;fill:url(#linearGradient3178);fill-opacity:1;fill-rule:evenodd;stroke:none;stroke-width:1.00000036px;stroke-linecap:butt;stroke-linejoin:miter;stroke-opacity:1"
       id="path2189"
       d="M 6.65625,5.96875 C 6.3582912,6.0062963 5.9914747,6.1822766 5.6875,6.53125 C 5.6772491,6.5418311 5.6668311,6.5522491 5.65625,6.5625 L 4.84375,7.46875 C 4.2583835,8.1407709 4.3411055,8.8625808 4.75,9.21875 L 28.71875,30.09375 L 30.15625,30.09375 L 30.15625,26 L 7.4375,6.21875 C 7.2201918,6.0294628 6.9544034,5.9311792 6.65625,5.96875 z " />
    <path
       sodipodi:type="inkscape:offset"
       inkscape:radius="-0.86724854"
       inkscape:original="M 23.09375 2.5 C 18.924031 2.5 12.834524 6.4983576 14.5 8.09375 L 17.5625 10.96875 C 20.30134 13.788086 22.991339 10.65625 25.28125 10.65625 C 27.483879 10.65625 29.558933 11.166227 31.4375 12.03125 L 31.65625 4.40625 C 29.040833 3.2018458 26.16034 2.5 23.09375 2.5 z M 6.5625 15.65625 C 4.3641829 15.40845 2.5 19.942657 2.5 23.0625 C 2.5 26.062622 3.1568518 28.928816 4.3125 31.5 L 11.8125 31.5 C 10.982436 29.653334 10.5 27.592238 10.5 25.4375 C 10.5 23.222736 13.143757 20.690117 10 18 L 7.53125 16.0625 C 7.2085583 15.813981 6.8765453 15.69165 6.5625 15.65625 z "
       style="opacity:0.32142857;fill:url(#linearGradient3198);fill-opacity:1;fill-rule:evenodd;stroke:#a40000;stroke-width:1px;stroke-linecap:butt;stroke-linejoin:miter;stroke-opacity:1"
       id="path3196"
       d="M 23.09375,3.375 C 21.286093,3.375 18.804221,4.3201033 17.09375,5.4375 C 16.238514,5.9961984 15.57192,6.5978166 15.28125,7.03125 C 15.135915,7.2479667 15.09612,7.3968226 15.09375,7.4375 C 15.09138,7.4781774 15.046226,7.4232256 15.09375,7.46875 L 18.15625,10.34375 C 18.16693,10.3539 18.17735,10.36432 18.1875,10.375 C 18.766855,10.971383 19.235405,11.17614 19.71875,11.25 C 20.202095,11.32386 20.732484,11.223182 21.3125,11.03125 C 22.472531,10.647387 23.740925,9.78125 25.28125,9.78125 C 27.163052,9.78125 28.931663,10.230239 30.59375,10.84375 L 30.75,5 C 28.377883,3.9837906 25.829363,3.375 23.09375,3.375 z M 6.46875,16.53125 C 6.2252632,16.503804 5.9598459,16.57414 5.59375,16.90625 C 5.2276541,17.23836 4.8057468,17.789804 4.46875,18.46875 C 3.7947565,19.826641 3.375,21.675313 3.375,23.0625 C 3.375,25.739194 3.9365559,28.295042 4.90625,30.625 L 10.625,30.625 C 10.043185,28.991789 9.625,27.267648 9.625,25.4375 C 9.625,23.985041 10.363601,22.78912 10.59375,21.71875 C 10.823899,20.64838 10.815984,19.83582 9.4375,18.65625 L 7,16.75 C 6.7961418,16.593 6.6294144,16.549361 6.46875,16.53125 z " />
  </g>
</svg>
