/* XPM */
static char *logo_50_xpm[] = {
/* columns rows colors chars-per-pixel */
"50 50 30 1 ",
"  c #00003C",
". c #030351",
"X c #0C0C65",
"o c #2E2E6F",
"O c #232360",
"+ c #4B4B75",
"@ c #6C6C77",
"# c #4E4E57",
"$ c #DBDBDB",
"% c #53538C",
"& c #6F6F92",
"* c #7272A6",
"= c #383882",
"- c #8D8D95",
"; c #B1B1B2",
": c #BEBECC",
"> c #DFDFE0",
", c #F9F9F9",
"< c #F0F0F0",
"1 c #E0E0DF",
"2 c #E7E7E7",
"3 c #B9B9CB",
"4 c #C1C1C1",
"5 c #D2D2D2",
"6 c #E5E5E5",
"7 c #D9D9D9",
"8 c #A6A6A6",
"9 c #C5C5C5",
"0 c None",
"q c #807F9C",
/* pixels */
"00000000000000000000000000000000000000000000000000",
"00000000000000000000000000000000000000000000000000",
"00000000000000000000000000000000000000000000000000",
"00000000000000000000000000000000000000000000000000",
"00000000000000000000000000000000000000000000000000",
"000000000000000000000#-2<<2-7400000000000000000000",
"000000000000-90008-<,<:-2--:<<<-8000-#000000000000",
"0000000007111000-<2<-oXXXXXOO%--<;000-1<8000000000",
"000000000>1>007,:@%X.XXX..X..+.+@3<400,,1000000000",
"00000007-<>00-1-+XX*XX..X.oo.O.  +;1#00<1-90000000",
"00000057-7007>-O...XXXXX..X..  . .O2;7009-7-000000",
"000000,40804>qX....XX.XXX.....   +OX2,70007,000000",
"0000#011207,@oXX.XXX.X.oo..  .   .  o21002,,040000",
"0000281:00:@*.X.%oX.XXX......   &o...*:-00-,8-8000",
"000018-008,2..XX%oX%X*o... ..    Oo-..->80047>0000",
"0040,00001<o.XX.X.XX..X.....O  ..%=..X%,20880,0700",
"0010,,,001%.....XX.X.......+o %O+.%..>=&1001110<00",
"00,8<140-;oO..............+>3+O.+o*OXoX=1900><8,00",
"00>$0000;-ooX.......... ooO-&:oO.X.X*XX=:<00086;00",
"70:<-,70<#O........OX .. . OO O3%oXo*XXX-,092#<;04",
"877,,<001#O.&+. ...+%o. &+ .  .oO=XXX*%.&100>,;8#8",
"8,0-,807>&.  .XO ..:<.  O. & +:O..XXX.X.@,800,-030",
"0<-08008;#    OO.%<,,1*O&o +=o%-X.XXX...@100000-,0",
"8-,40>00>#.O.    & &: O OO ..oOXX.XX%X..@100<0-128",
";9,,,-00,#O:.      oo .* ;%OX3X.X%X.X..X-,00-<114>",
"$-7,,0001@oo@  Oo  Oo@ ooo.O*,*=X.XX...o-1000>1--<",
"9,4840702;oo+ .  .+O. .o..oo=1%XXX..X:.o<-07090739",
"01,-08-081+....  OO....ooOXXX*XXX.X.Xo.+>00$70-,:0",
"07,,,,7001-X...3+3*X*XX.:=XXXX.X..... O;2007,,,,50",
"077<,,000-2-=XX=o=.XX1oXXX3=XXX...... &<9070,,<740",
"0--0940-00<#%XX..XX*X=XXXXXo.X....X2 +-<00-0440-20",
"00,,408>007>+Xo*=Xo%XX.XXXX=oX....  .@,400<800>,90",
"004,,<,<000<;&X.XXX*XXXXX==oO....  .->-000<,<,,700",
"0008<,,<07002;&O%..X.X.X..X....   O&<-0040<,,<7000",
"000008770<400:-@OX...........   .#@;<0081077000000",
"00000-777,7000-;-#=.......OO.  o#;2-0088,779-70000",
"00000-,,,,9790071>@&%O... . .@-@<<8004-81>,,700000",
"00000007-$8-,0000-1;#@-:-&q-@@<,#0000,<04-70000000",
"00000008899118000084-$,1-<<;--8000008,174580000000",
"00000000411110--800000080004000000-54,,,,500000000",
"00000000000800,,,,-800000000000->,,<00000000000000",
"0000000000000007444@2;7000092;6-777400000000000000",
"000000000000000000074$18008,;940000000000000000000",
"0000000000000000000<1;800008:1<0000000000000000000",
"00000000000000000000000000000000000000000000000000",
"00000000000000000000000000000000000000000000000000",
"00000000000000000000000000000000000000000000000000",
"00000000000000000000000000000000000000000000000000",
"00000000000000000000000000000000000000000000000000",
"00000000000000000000000000000000000000000000000000"
};
