/* XPM */
/* This icon was extracted from the PerlPrimer source with the following command:
perl -ne '$$found= 0 if /end_of_pixmap/ ;  print if $$found ;$$found = 1 if /perlprimer_icon =/' < perlprimer.pl
*/
static char * dna_icon2_xpm[] = {
"32 32 25 1",
" 	c #FFFFFF",
".	c #402E33",
"+	c #A0302D",
"@	c #918FC4",
"#	c #B89590",
"$	c #CAC7EE",
"%	c #E4B82A",
"&	c #969096",
"*	c #E3382B",
"=	c #924E32",
"-	c #E76029",
";	c #EFD4C7",
">	c #69647F",
",	c #F9FBF8",
"'	c #DD6C69",
")	c #80696A",
"!	c #C0817E",
"~	c #9F6160",
"{	c #E08B27",
"]	c #F7B6B3",
"^	c #D2D1CF",
"/	c #B3AEB2",
"(	c #F92C2B",
"_	c #AEACF1",
":	c #E7A19D",
"     *(;,,;:>@_>##!((;=((+      ",
"      -;,,/>@_@/^,;(-;)=.       ",
"      +*~&#/__&,,,-(({          ",
"      .!,::#.>*',;*(**          ",
"       ),;~&,'--,,~=++          ",
"        &/&,!(*%:^)             ",
"         +#,'*({(#&             ",
"        .(:,^+=**/^.            ",
"       +(%%],,#&&&)++           ",
"       +({*(!&>>....~           ",
"      +#+{(()$@@@>)!^^          ",
"     +%;^/))/$____::,,!(+       ",
"     ({(*;/&&&@)>)!#,,/*+       ",
"     +-((~^^,__@:],@$^,;=       ",
"      .=~&,,,___:]___,#+*+      ",
"      =*#/&&&&>.!]$_$^!(***     ",
"      +**+#__#:@@/^//,,]'%*     ",
"       ++./__::__,,,^+'#/{      ",
"          &/@#!@_$,^'*(-(+      ",
"          !,##>&&^/,]({{*+      ",
"          &,:@_@~'/^,,{{+       ",
"           /~>@@**-(~,:+        ",
"             ).&(%-(*,)         ",
"           )#^^,;%{*~/&)        ",
"           (-*+,,'(~))&/.       ",
"           {((*;,;+))!))+       ",
"           %-(',,,>)!&^^'=      ",
"       =*=!](*!,/>>)~#,,/*+     ",
"       **(;,''~.>>>&:];':(*     ",
"       *(*,,,^>>@@_$/^'**++     ",
"      +=*{,,/)~@__>^,,,-*       ",
"     *(''*!)#~.>@$]];,;((+      "};
