/* XPM */
static char *narcissu[] = {
/* columns rows colors chars-per-pixel */
"48 48 215 2",
"   c #5C885E9574AB",
".  c #575565FF67E2",
"X  c #5B60608C73FF",
"o  c #65D96FEB7030",
"O  c #62ED67007B3B",
"+  c #640A6FA5728A",
"@  c #67016BD27F41",
"#  c #6A3C6F6771CD",
"$  c #6DF870F96F2F",
"%  c #66D17207744A",
"&  c #6ACC743A75C5",
"*  c #6C2076437A7D",
"=  c #6E8779E27B60",
"-  c #77316E996EC1",
";  c #73D0772A7ACE",
":  c #73A57BFA7E1D",
">  c #7AEA7C3C7EB1",
",  c #67A8697C82BF",
"<  c #6ABD6E7C822F",
"1  c #7007740E873B",
"2  c #702179448162",
"3  c #75D778088FBE",
"4  c #74917D5883DD",
"5  c #768078BD8C7B",
"6  c #7D248019831C",
"7  c #7A4A7C688F8B",
"8  c #7D687FFA91CC",
"9  c #7642818D8449",
"0  c #7D2B8397861C",
"q  c #7D0B85738BF4",
"w  c #7ECC89C8865A",
"e  c #80668D0E8D4F",
"r  c #7D3483F0953A",
"t  c #837584828612",
"y  c #82FA86A989E7",
"u  c #85458C1B8D96",
"i  c #8BD088A88869",
"p  c #8A898B9F8E0F",
"a  c #8101880A91FB",
"s  c #84E08BD59524",
"d  c #88278DD5995E",
"f  c #8BE98EE592E0",
"g  c #8A6D8F3D9BC3",
"h  c #884193E58F2D",
"j  c #892C952C8F77",
"k  c #8690926A92CD",
"l  c #854A93F49AA2",
"z  c #8C0793E3960F",
"x  c #8B7A93099A07",
"c  c #8F989B579CC2",
"v  c #92538ABF8711",
"b  c #951E8D3D8B88",
"n  c #964191118FC4",
"m  c #9204925795FC",
"M  c #951796D89B12",
"N  c #95E79B1B9D53",
"B  c #9A0C9A579D1B",
"V  c #8F019538A16A",
"C  c #8E88A00FA7AC",
"Z  c #90CA965AA5E6",
"A  c #94589BECA3E6",
"S  c #963E9E64AC87",
"D  c #9CD897F8A826",
"F  c #9BEC9E0AA2E6",
"G  c #947EA3C4AA1B",
"H  c #9E47A381A5D5",
"J  c #9D3DA61DAD6A",
"K  c #9D04AA7AAEF2",
"L  c #9C00A59AB49A",
"P  c #9F93B1D2B8C8",
"I  c #A1E6980B9539",
"U  c #A3B29D28A00E",
"Y  c #B0489E3D9CED",
"T  c #A4E9A011A364",
"R  c #A43DA436A524",
"E  c #A565A5C0AADA",
"W  c #A59DA9F8AD8D",
"Q  c #AC32A664A69A",
"!  c #AA97A856AC0F",
"~  c #AFA7AA2FA7B5",
"^  c #AA98ABA3AE0C",
"/  c #A371A709B4C2",
"(  c #A589AC54BB2C",
")  c #AD88AD51B356",
"_  c #AA32AC51BBDE",
"`  c #A974B209AF19",
"'  c #A785B444B5B1",
"]  c #A1E5B379BAF5",
"[  c #A9FAB216B2AF",
"{  c #AFA3B29FB8C7",
"}  c #B4BFAA42A774",
"|  c #B785AD3EAA30",
" . c #B109B097B23C",
".. c #B4C4B2A7B622",
"X. c #B2C7B413B980",
"o. c #B2BEBBC9BDB0",
"O. c #BB45B619B763",
"+. c #BC46B743BD3E",
"@. c #BC53BC30BA8B",
"#. c #AE60B721C41A",
"$. c #B7BBB81BC0F6",
"%. c #B346B9A2C4C2",
"&. c #B325BF42CE1A",
"*. c #BB91BB4CC454",
"=. c #BDA0BED8C9EA",
"-. c #AFDDC398BC3A",
";. c #B469C4A9BF69",
":. c #BDD0C1D2BE44",
">. c #B6C0C1BEC38A",
",. c #B568C8BFCFB6",
"<. c #BCBFC302C473",
"1. c #BF89C660CC2C",
"2. c #BDC5CAD1C5CC",
"3. c #BE3DCA49CD2C",
"4. c #B899C9F1D120",
"5. c #C152B297AD1A",
"6. c #C0FEBAEDB89A",
"7. c #C45CBE19BC15",
"8. c #CCD0BCE6BCD3",
"9. c #C198BEEAC8C5",
"0. c #C877C264C0B0",
"q. c #CDB5C1E1BCED",
"w. c #D1A4C3F2BD79",
"e. c #C453C2D6C3EA",
"r. c #C398C53CCCE1",
"t. c #C54DCC53CD75",
"y. c #CD8DC53BC339",
"u. c #CCF7C6BACD23",
"i. c #D099CA94C7D6",
"p. c #CDA8CD2BCDE6",
"a. c #C7A0C7F6D3B3",
"s. c #C37FC9EBD3A9",
"d. c #CAA4CCFBD2A8",
"f. c #CCFCCE8BDA7B",
"g. c #C654D2BECE18",
"h. c #CCCDD36CCFF4",
"j. c #C186D374DA87",
"k. c #CCBFD43BD406",
"l. c #CE19D544DC29",
"z. c #CF28D995D5B4",
"x. c #CFE1DB12E097",
"c. c #D435C732C3B9",
"v. c #D66ACA65C7A7",
"b. c #D591CD34CBB4",
"n. c #DB79D082C886",
"m. c #DB05CE75CC5F",
"M. c #D5A9CE8CD2C0",
"N. c #DAC7D0A0D6D1",
"B. c #DA5FCC16DD38",
"V. c #D0E6D0EACFC2",
"C. c #DB2BD1D3CF57",
"Z. c #D523D56FD540",
"A. c #D633D550DBE5",
"S. c #D34CD9E0D7B2",
"D. c #D51DDC07DE65",
"F. c #DE55D3B6D2FA",
"G. c #DC49D6F4DD1A",
"H. c #DF0FDAD4D706",
"J. c #DC97DBD8DEEE",
"K. c #C7F2D6C2E24D",
"L. c #CCD4D718E285",
"P. c #CE36DAB6E341",
"I. c #D4D2D79AE4BD",
"U. c #D599DE37E326",
"Y. c #D317DBA3EC6D",
"T. c #D9A7D654E35C",
"R. c #DB28DFE0E317",
"E. c #DC30DE19EB4E",
"W. c #D81FE152E45D",
"Q. c #D31CE4B4EBD9",
"!. c #DBD4E1EDE4C3",
"~. c #DDAEE58CEB1A",
"^. c #DA3AEA00EFEF",
"/. c #D5C3E39AF27A",
"(. c #DE06E73CF45F",
"). c #DBDAEA06F37F",
"_. c #DD33EE31FDEE",
"`. c #DFE3F1FBFF13",
"'. c #E0EBCF33D06B",
"]. c #E3F9D580D520",
"[. c #E5ACD89DDB5B",
"{. c #E488D99AD585",
"}. c #E4EEDD48DCD6",
"|. c #EB0EDCDDDF30",
" X c #E89ED6DDE573",
".X c #E535DE54E370",
"XX c #EAC3DE99E49C",
"oX c #ECAADEF5ECC9",
"OX c #E7E4E3DDDFE7",
"+X c #E689E2CFE3E3",
"@X c #E664E3EAEEFA",
"#X c #E418EB3EEDDD",
"$X c #EC3EE2C6E5E8",
"%X c #EC8FE44FECE1",
"&X c #EDE1E9F5E68A",
"*X c #ED2CEB16ED4E",
"=X c #E3C0E6E8F388",
"-X c #E680ECF2F4F7",
";X c #E428EFE4FB79",
":X c #EC1CE5FBF39A",
">X c #EDC0EC19F50C",
",X c #ECA9EF0AFB48",
"<X c #E6F8F213F5D1",
"1X c #E55FF4FDFEF1",
"2X c #E853F9EAFFDA",
"3X c #ED61F346F6E4",
"4X c #EBE5F6E2FEC8",
"5X c #EDE3FACEFF84",
"6X c #F2C3E591EBFB",
"7X c #F229EC52EF7B",
"8X c #F238EC9CF4C8",
"9X c #F13FEDDEFA5D",
"0X c #F26FF738FD9C",
"qX c #F3FEFCB5FF77",
"wX c #FB10FF68FFDD",
/* pixels */
"r.P.I.L.L.I.x.I.L.I.P.I.D.I.I.x.W.W.l.s.r.f.I.I.D.P.P.D.P.P.I.x.P.P.D.I.U.U.W.R.D.W.W.D.D.U.U.3.",
"U.2X1X1X1X1X1X1X1X1X1X2X5X5XqXqX<Xl.$.=.a.I.(.1X2X2X2X4X1X2X2X1X4X4X2X2X5XqXqXqXqXqX5X5X5X5X5XW.",
"P.1X1X;X;X;X;X;X,X;X1X4X5X#X~.k.E F R W X.1.l.E.-X1X4X4X4X4X4X1X1X4X4X5XqX0XqX5XqX5XqX5X5X5X5XU.",
"P.1X<X1X1X1X1X1X4X4X4X4XqX5XS.B B F F R ! ..=.f.E.>X4XqXqX4X5X5X5X5XqX4XqX5X5XqX5XqXqX5XqX5XqXW.",
"I.qX1X4X4XqXqX4X5XqX4XqXqX~.J m M M B D T E _ =.f.(.,XqX4X4XqX5XqXqX5XqXqX5XqXqXqX5X5X5XqX3XqXW.",
"U.wX4XqX0X0X0X0XqXqX4XwXx.f u z f m M B M E ) $.a.T.:X4XqXqXqXqX4XqXqX5X5XqX5XqXqXqXqX5X5XqX5XW.",
"J.qXqXqXqX0XqXqX0X0XqXl.u u f u f f m f m T E  .r.f.@X4XqX4XqX5XqXqX5XqXqX5XqX5X5XqX5XqX5X5XqXW.",
"W.wXqXqXwXqXqXqXqXqX3Xe.z f f y y p p p f A A T ..r.T.,XqXqXqXqX5XqXqXqX5XqX5XqX5X5X5X5X5X5X5XW.",
"!.wXqXqXqXqXqXwXqXqX3X#XM u u p y y t t p b U O.+.*.u.>XqXqXqXqX5XqXqXqX5X5X5X5X5X5X2X2X2X2X2XQ.",
"!.wXqXqXqXqXqXqXqXqXqX3XJ w W z t 6 6 6 t t ~ '.N.d.*.-XqXqX5XqXqX5X5X5X5X5X2X2X2X<X2X2X1X`.2XP.",
"W.wXqXqXqXqXqXqXqXqXqXqX<.H o.6 6 > 6 > b b {.[.[.+XA.-XqXqXqXqXqX5X5X5X2X1X1X1X1X1X`.`.`.`.`.K.",
"W.qXqXqXqXqXqXqXqXqXqXwXD.l.R : t # T n | b v y.:X.Xe.(.qX5XqX5X5X5X2X2X2X1X1X`._.`.`.`.`.`.`.K.",
"!.wX5XqXqXqXqXqXqXqXqXqX!.#XB w 4 t v } 8.q.- O.8X! ) @XqX5X5X5X5X2X1X1X`.`._._.`._._._._._._.K.",
"!.qX5XqXqXqXqXqXqXqXqXqXqX#Xz.m # b Y 5.n.c.m.XX.XT ) f.qX5X5X5X2X1X`.`.`._._._.)._._._._._._.K.",
"!.qXqXqXqX5XqXqXqXqXwXqXwX3X3Xo.& $ I 8.q.c.m.O.$X+.R 9.1X5X2X2X1X`.`._._._._._._._._._._.).`.P.",
"R.wXqXqXqXqXqXqXqXqXqXqXqXqXwXt.; 6 4 i 8.v.c.v.$X$Xu.9.~.2X1X`.`.`._._._._.)._._._._._._._.`.P.",
"!.qX5XqXqXqXqXqXwXqXqXqXwXqXwXJ.> > ; ~ C.b.C.OX|.*X>XT.T.(.1X`.1X_._._._._._._._._._._._._.`.x.",
"R.qXqXqXqXqXqXqXqXqXwXqXqXqXwX3Xy & t c.c.b.].}.*X>X8X,X>X=X/.1X_._._._._._._._./._._._.`.`.`.P.",
"R.qX5XqXqXqXqX5XqXqXqXqXqXqXqXwXo.$ B C.q.n.].OX6X8X8X:X,X9XY.)._._._._._._._._._._._._.`.`.`.P.",
"!.qX5X5X5X5X5X5X5X5XqXqXqXqX0XwXt.& R v.7.y.n.{..X.X.X+X>X>X=XL.`.`.`._._._._._._._._._.`.`.`.P.",
"W.5X2X2X2X2X2X2X2X5X5X3X5X2XqX<Xz 6 O.c.@.-.2.g.k.z.S.S.XX7X:XE.(.1X1X1X`.`.`.`._.`.`.`.`.`.`.P.",
"W.5X2X1X2X2X1X2X2X1X2X2X5X5X<XK y m e.q.0.;.2.g.g.z.S.J.!.%X8X:XL.(.1X1X`.`.`.`.`.`.`.1X`.2X`.P.",
"D.5X2X1X2X1X2X`.1X1X1X4X5X^.K k z R y.c...` ;.;.g.k.S.Z.k.G.>X%XL.(.1X`.1X`.`.1X`.`.1X`.`.`.2XP.",
"W.5X2X5X2X2X2X2X2X1X1X2Xj.C l l z ! c.q.m H :.:.0.h.h.p.p.G.%X%X~.<X1X`.1X`.1X`.`.`.`.`.`.`.`.P.",
"W.2X2X2X2X2X2X1X1X2X`.,.C e G K M 7.c.7.; W XXN.].[.|.6Xb...N.%X,X1X1X1X1X`.1X`.`.`.`._._._.`.K.",
"W.2X2X1X1X2X2X1X1X1XQ.P G P <X3.{ y.v.R F G.[.b.F.F.[.oXu.=.A.XX%X-X,X4X1X`.`.1X`.`._._._._.`.K.",
"D.5X2X2X1X2X1X1X1X1XQ.K 4.2X5XW.i.8.b.l.-X[ y.m.C.].|.%Xf.<X>XXX|.oX@X4X1X_.`._.`._._._._._._.K.",
"D.2X1X1X1X<X2X2X1X2X^.j.2X2X5X^.q.q.*XP.c 0 x ! ..+.+.) F W.qX%XXX%X>X4X1X_.`._._._._._._.).`.K.",
"U.2X1X1X1X1X1X2X2X1X2X1X1X2X2XC.y.i.' 9 4 9 q q q a r d g 1.qX;XXXoX>X4X4X`.`._.`.`._.`._._.`.L.",
"U.2X4X4X2X2X4X2X4X1X1X1X1X5X#X0.Q w = : 4 4 9 q q a s d d %.qX4X,XXXoX0X4X1X;X`.`.1X`.1X`.`.`.K.",
"U.5X4X4X4X4X4X4X4X4X4X2X2X<X>.t = : : = 4 = = 4 4 q y s d J 1X4X-X@XoX>X4X4X1X1X1X1X1X2X1X1X1XL.",
"U.5X4X4X5X4X4X2X2X4X1X1X5X3.& 9 = : = = = * * = 4 7 q a s Z -X4X4X:X%X:X,XqX2X4X4X2X2X1X1X1X2XP.",
"U.5X4X4X4X4X4X1X4X1X4X1X5X<.: 9 = & & & & & * = 2 2 q e d V (.5X4X4X>X%X:X,X,X,X4X4X2X2X2X4X2XU.",
"U.5X4X4X4X4X4X4X4X4X4X5X-Xi.0 & = = & & + + % * 2 9 q r g S -XqX4X5X0X,XoX:X:X@X<X1X1X2X4X1X5XP.",
"I.4X<X1X1X1X,X1X4X4X2X,XS.0.W : = & % % + % * % = 4 q d g L 4X4X2X2XqX4X:XoXoXoX0X5X4X1X1X1X2XP.",
"I.4X1X1X,X1X1X4X4X4X4X~.y.C.<Xe o & % o % % % * 4 9 q l M ( 4X5X4X1X4XqX,X*X X XT.I.-X2X1X2X2XP.",
"I.2X;X1X1X1X1X1X<X5X2Xt.h ~ 3X;.* % % % & & + & = q s x C ( -X2X4X1X1X1X4X4X:XB.D 3 Z (.1X1X2XP.",
"x.2X1X1X1X1X1X4X1X2Xx.c u w t.qX3.. % % & & * 4 4 q k A L L Y.4X1X1X1X1X4X4X5X_ r 7 < #.qX`.1XP.",
"x.2X1X1X1X1X4X1X1XqX' j k 9 k.5XQ.R t = + + + & 4 q s S L &.1X1X1X1X`.1X1X1X1XW.7 1 < r -X2X1XP.",
"x.2X1X4X4X1X1X1X2X0XK z e >.5X1XD.F.C.v.@.q G ..u m W / 4.4X1X1X1X1X1X_.;X`.1X5Xj.< < X S 2X1XP.",
"I.4X1X4X1X4X1X1XqX2.z h >.qX1X1XS.C.C.H.H.^.4X7XF.G.XXoX;X1X;X1X`.1X;X1X_.1X1X;XqX_   < O _ qXL.",
"U.5X1X4X4X1X1X4X~.N z k k.5X4X<XJ.H.H.{.W.4X4X.X[..XXX@X;X;X1X1X1X;X1X1X1X;X;X-X1XqXZ O < 3 1XI.",
"U.5X4X4X4X4X4XwXo.j j k ~.qX5X^.R.{.}.XX4X4X4XXX{..XXX:X4X4X4X4X1X1X4X,X1X1X4X4X1X4X~.<   , (.U.",
"D.qX0X0X0X0XqX3XA j e H 0X0X0X#XH.OX+X>X0X4X,X$X}.XXoX,X0X0X0X4X0X4X4X0X4X0X0X0X4X0XqXf./ f.qXU.",
"!.wXqX0XqXqXqXwX` w h R.wX0X7X+X}.OX&X0XqXqX8X$XXX%X*X0XwX0X0XwX0XwX0X0X0XwX0XqXqX0X0XwXwXwXwXJ.",
"J.qXqX0XqX0X0XwX#Xo.S.wXqX8X+XOXOX*X3XqX5XqX*X$X$X*X:X0X0XqXqX0XqX0X0XqX0XqXqXqXqXqX0X0X3X4XwX!.",
"+XwXwXqXqXwXwXqXqXwXwXwXwX*XOX&X7XqXwXqXwXqX@X*X>X8X0XwXwXqXqXwXwXwXwXwXwXqXwXwXwXwXqXqXqXqXwX+X",
"t.!.W.W.W.W.W.W.W.J.J.W.S.h.C.h.D.W.W.W.D.W.k.M.F.A.T.R.W.W.W.W.W.W.W.J.U.W.W.W.D.U.W.W.W.W.E.t."
};
