/* XPM */
static char * uqm_hd_xpm[] = {
"32 32 23 1",
" 	c None",
".	c #080808",
"+	c #333333",
"@	c #424242",
"#	c #040404",
"$	c #5F5F5F",
"%	c #222222",
"&	c #808080",
"*	c #1C1C1C",
"=	c #161616",
"-	c #777777",
";	c #4D4D4D",
">	c #666666",
",	c #555555",
"'	c #999999",
")	c #CC0000",
"!	c #C0C0C0",
"~	c #990000",
"{	c #FF3333",
"]	c #A0A0A4",
"^	c #CCCCCC",
"/	c #D7D7D7",
"(	c #868686",
".....................++.........",
"....................+@++........",
"####@$##........%%%++%+.........",
"+##@$&$#.......+*=*#=%%+++......",
"-#+@&###.....%==#*##+**%=%+;....",
"$+;=+;##....+*==**%%+===##=+....",
"$+=##>$#....%*=**=*==**@@=##+...",
"#;+#+>$$....%##%=*%===%#@,=#+...",
"##$>>#@'...%#####==+=*);;@@*#++.",
"$@$&##!#...%=#####===*~{$#>=#+$+",
"#$&#####....%####+===@@,$@>>#,,.",
"............*###=**=@%>,;>@=#,..",
"...........%%==%%*%@;;;+>;%%*]..",
"..........%*%*====@@],%;&>%#=$..",
"......+..%******%%%>>^%@>>;*+]..",
".....+*%*##==*==*@,>,%=;&&#*,]..",
"....+**#####===**$;>=##*,'*=]...",
"..+@%*#%###=*%@*;,,@=####*=]....",
".%%=%==**=%==,@+,,&;=%=%,,,/....",
".+==**=***%=*%@++&',$+,]]]/.....",
"+***======+;*%%=,,,'../.........",
"...%====*;*;+;=#+;'.............",
"...=====+&&=*+=%%'..............",
"..%*==*;*;*=,(+*@...............",
"..%*==+&&===>$$+-...............",
"..%*=*%;*===$;%@(]..............",
"...*==%====*$@;&/...............",
"...%======@$%-(/................",
"....;;$-($@+-],.................",
".....;;;;..@]-..................",
"...........&,...................",
"..........''...................."};
