/* XPM */
static char *xminesweep[] = {
/* columns rows colors chars-per-pixel */
"64 54 2 1 ",
"  c gray100",
". c black",
/* pixels */
"                                                                ",
"                                                                ",
"                                                                ",
"                                                                ",
"                                                                ",
"                                                                ",
"                                                                ",
"                                                                ",
"                                                                ",
"             ..........                                         ",
"            ............                                        ",
"           ..............  ...                                  ",
"          ....        .........                                 ",
"         ....          .........                                ",
"        ....            .........      ......                   ",
"       ....            .........................                ",
"      ....             ............................             ",
"      ...  . .         .............................            ",
"      ....              .............................           ",
"       ...  .  .         ..............................         ",
"   .   ...                ........... .................         ",
"        .. .               ......  . ...................        ",
"      . ...  ..            ...... .. ....................       ",
"    .   ...                ...............................      ",
"    .  . .  ..             ....    .......................      ",
"         ..                ...... ........................      ",
"        . .   ..          .................................     ",
"                          .....  ..........................     ",
"      .     .             .................................     ",
"      . .                ..................................     ",
"          ..  .          ...... ............................    ",
"       .  .              ...................................    ",
"                         ............................ ......    ",
"                         ...................................    ",
"                          .................................     ",
"                          ............................ ....     ",
"                          ........................... .....     ",
"                           .......................... ....      ",
"                           .........................  ....      ",
"                           ......................... .....      ",
"                            ...................... ......       ",
"                             .................. ........        ",
"                              .........................         ",
"                              .........................         ",
"                                .....................           ",
"                                 ...................            ",
"                                  .................             ",
"                                     ...........                ",
"                                         ....                   ",
"                                                                ",
"                                                                ",
"                                                                ",
"                                                                ",
"                                                                "
};
