/* XPM */
static char * starfighter_xpm[] = {
"32 32 17 1",
" 	c None",
".	c #000000",
"+	c #510000",
"@	c #590000",
"#	c #650000",
"$	c #710000",
"%	c #7D0000",
"&	c #8A0000",
"*	c #960000",
"=	c #A20000",
"-	c #AE0000",
";	c #B60000",
">	c #C20000",
",	c #CE0000",
"'	c #DB0000",
")	c #E70000",
"!	c #F30000",
"                                ",
"             +++++              ",
"             @@@@@              ",
" ########    #####              ",
" $$$$$$$$    $$$$$ $$$$$ $$$$$  ",
" %%%%%%%%    %%%%% %%%%% %%%%%  ",
" &&&&&&&&    &&&&& &&&&& &&&&&  ",
" &&&&&&&&    &&&&& &&&&& &&&&&  ",
" *****       ***** ***** *****  ",
" *****       *****              ",
" =====       *****              ",
" ================= ===== =====  ",
" ----------------- ----- -----  ",
" ----------------- ----- -----  ",
" ;;;;;;;;;;;;;;;;; ;;;;; ;;;;;  ",
" ;;;;;;;;;;;;;;;;; ;;;;; ;;;;;  ",
"             >>>>>              ",
"             >>>>>              ",
"             ,,,,,              ",
"             ,,,,,              ",
"             ,,,,,              ",
"             '''''              ",
"             '''''              ",
"             )))))              ",
"             )))))              ",
"             )))))))))))))      ",
"             )))))))))))))      ",
"             !!!!!!!!!!!!!      ",
"             !!!!!!!!!!!!!      ",
"             !!!!!!!!!!!!!      ",
"                                ",
"                                "};
