<?xml version="1.0" encoding="UTF-8" standalone="no"?>
<!-- Created with Inkscape (http://www.inkscape.org/) -->

<svg
   xmlns:dc="http://purl.org/dc/elements/1.1/"
   xmlns:cc="http://creativecommons.org/ns#"
   xmlns:rdf="http://www.w3.org/1999/02/22-rdf-syntax-ns#"
   xmlns:svg="http://www.w3.org/2000/svg"
   xmlns="http://www.w3.org/2000/svg"
   version="1.1"
   width="256"
   height="256"
   id="svg2">
  <defs
     id="defs4" />
  <metadata
     id="metadata7">
    <rdf:RDF>
      <cc:Work
         rdf:about="">
        <dc:format>image/svg+xml</dc:format>
        <dc:type
           rdf:resource="http://purl.org/dc/dcmitype/StillImage" />
        <dc:title></dc:title>
      </cc:Work>
    </rdf:RDF>
  </metadata>
  <g
     transform="translate(0,-796.36218)"
     id="layer1">
    <g
       transform="matrix(1.1512419,0,0,1.1512419,204.85845,452.49245)"
       id="g4432">
      <path
         d="m 41.880089,425.0328 c -0.366193,47.69833 -58.091005,79.62364 -116.193504,72.16998 -58.102505,-7.45365 -122.496695,-60.75149 -94.214255,-99.16205 21.19041,-28.77883 73.279692,-94.01871 116.193505,-72.16999 35.913889,18.28485 94.552332,55.12551 94.214254,99.16206 z"
         id="path2985-3"
         style="fill:#00c8ff;fill-opacity:1;stroke:#000000;stroke-width:3.12299991;stroke-linejoin:round;stroke-miterlimit:4;stroke-opacity:1;stroke-dashoffset:0" />
      <path
         d="m -83.182275,438.05064 c 14.824567,25.33372 29.409415,28.91571 43.631859,-0.38248 20.280974,32.05899 28.717359,14.76975 37.0698725,-2.86887"
         id="path3757-0"
         style="fill:none;stroke:#000000;stroke-width:3.58999991;stroke-linecap:round;stroke-linejoin:round;stroke-miterlimit:4;stroke-opacity:1;stroke-dasharray:none" />
      <path
         d="m 59.599001,52.816238 a 9.5964489,9.5964489 0 1 1 -19.192898,0 9.5964489,9.5964489 0 1 1 19.192898,0 z"
         transform="matrix(0.91194568,0.41031095,-0.41031095,0.91194568,-103.80314,332.46496)"
         id="path3795-20"
         style="fill:#1a1a1a;fill-opacity:1;stroke:none" />
      <path
         d="m 59.599001,52.816238 a 9.5964489,9.5964489 0 1 1 -19.192898,0 9.5964489,9.5964489 0 1 1 19.192898,0 z"
         transform="matrix(0.91194568,0.41031095,-0.41031095,0.91194568,-39.021304,330.04305)"
         id="path3795-2-0"
         style="fill:#1a1a1a;fill-opacity:1;stroke:none" />
    </g>
  </g>
</svg>
