<?xml version="1.0" encoding="UTF-8" standalone="no"?>
<!-- Created with Inkscape (http://www.inkscape.org/) -->

<svg
   xmlns:dc="http://purl.org/dc/elements/1.1/"
   xmlns:cc="http://creativecommons.org/ns#"
   xmlns:rdf="http://www.w3.org/1999/02/22-rdf-syntax-ns#"
   xmlns:svg="http://www.w3.org/2000/svg"
   xmlns="http://www.w3.org/2000/svg"
   xmlns:xlink="http://www.w3.org/1999/xlink"
   xmlns:sodipodi="http://sodipodi.sourceforge.net/DTD/sodipodi-0.dtd"
   xmlns:inkscape="http://www.inkscape.org/namespaces/inkscape"
   width="210mm"
   height="297mm"
   id="svg2"
   version="1.1"
   inkscape:version="0.48.3.1 r9886"
   sodipodi:docname="Nouveau document 1">
  <defs
     id="defs4">
    <linearGradient
       id="linearGradient3822">
      <stop
         style="stop-color:#000017;stop-opacity:1;"
         offset="0"
         id="stop3824" />
      <stop
         style="stop-color:#000091;stop-opacity:1;"
         offset="1"
         id="stop3826" />
    </linearGradient>
    <linearGradient
       inkscape:collect="always"
       xlink:href="#linearGradient3822"
       id="linearGradient3830"
       x1="411.71527"
       y1="252.69826"
       x2="606.33405"
       y2="733.27625"
       gradientUnits="userSpaceOnUse" />
    <filter
       inkscape:collect="always"
       id="filter3891">
      <feGaussianBlur
         inkscape:collect="always"
         stdDeviation="4.0337806"
         id="feGaussianBlur3893" />
    </filter>
    <mask
       maskUnits="userSpaceOnUse"
       id="mask3897">
      <path
         sodipodi:nodetypes="cccccc"
         inkscape:connector-curvature="0"
         id="path3899"
         d="m 344.6287,528.56219 c -46.32638,-20.3689 -54.46427,7.4851 -65.07558,39.52997 -17.97613,14.72097 -50.29808,28.15856 -67.31956,35.01226 -8.1336,23.18468 -1.11741,22.44796 17.95188,24.84742 67.42266,-19.9616 395.35617,68.37944 519.48262,44.04768 C 631.47389,621.7132 457.89086,565.3875 344.6287,528.56219 z"
         style="color:#000000;fill:#f77913;fill-opacity:1;fill-rule:nonzero;stroke:none;stroke-width:3;marker:none;visibility:visible;display:inline;overflow:visible;enable-background:accumulate" />
    </mask>
    <filter
       inkscape:collect="always"
       id="filter3926">
      <feGaussianBlur
         inkscape:collect="always"
         stdDeviation="5.3103114"
         id="feGaussianBlur3928" />
    </filter>
    <mask
       maskUnits="userSpaceOnUse"
       id="mask3932">
      <path
         sodipodi:nodetypes="cccccc"
         inkscape:connector-curvature="0"
         id="path3934"
         d="m 344.6287,528.56219 c -46.32638,-20.3689 -54.46427,7.4851 -65.07558,39.52997 -17.97613,14.72097 -50.29808,28.15856 -67.31956,35.01226 -8.1336,23.18468 -1.11741,22.44796 17.95188,24.84742 67.42266,-19.9616 395.35617,68.37944 519.48262,44.04768 C 631.47389,621.7132 457.89086,565.3875 344.6287,528.56219 z"
         style="color:#000000;fill:#f77913;fill-opacity:1;fill-rule:nonzero;stroke:none;stroke-width:3;marker:none;visibility:visible;display:inline;overflow:visible;enable-background:accumulate" />
    </mask>
    <filter
       inkscape:collect="always"
       id="filter3949">
      <feGaussianBlur
         inkscape:collect="always"
         stdDeviation="2.4731553"
         id="feGaussianBlur3951" />
    </filter>
    <mask
       maskUnits="userSpaceOnUse"
       id="mask3955">
      <path
         id="path3957"
         d="m 254.28125,402.375 c -71.00804,0 -128.5625,57.55446 -128.5625,128.5625 0,44.02869 22.1302,82.88918 55.875,106.0625 58.45003,47.13607 154.95045,94.81754 87.09375,183.03125 60.31901,27.36612 139.3916,4.39242 185.875,-34.34375 35.98307,-104.46071 -90.37492,-118.80839 -88.375,-191.4375 10.59735,-18.69139 16.65625,-40.29142 16.65625,-63.3125 0,-71.00804 -57.55446,-128.5625 -128.5625,-128.5625 z"
         style="color:#000000;fill:#f1f7fa;fill-opacity:1;fill-rule:nonzero;stroke:none;stroke-width:3;marker:none;visibility:visible;display:inline;overflow:visible;enable-background:accumulate"
         inkscape:connector-curvature="0" />
    </mask>
    <filter
       inkscape:collect="always"
       id="filter4031"
       x="-0.22953668"
       width="1.4590734"
       y="-0.22953668"
       height="1.4590734">
      <feGaussianBlur
         inkscape:collect="always"
         stdDeviation="8.1977386"
         id="feGaussianBlur4033" />
    </filter>
    <filter
       inkscape:collect="always"
       id="filter4035"
       x="-0.7651223"
       width="2.5302446"
       y="-0.7651223"
       height="2.5302446">
      <feGaussianBlur
         inkscape:collect="always"
         stdDeviation="8.1977386"
         id="feGaussianBlur4037" />
    </filter>
    <filter
       inkscape:collect="always"
       id="filter4039"
       x="-0.37222165"
       width="1.7444433"
       y="-0.37222165"
       height="1.7444433">
      <feGaussianBlur
         inkscape:collect="always"
         stdDeviation="8.1977386"
         id="feGaussianBlur4041" />
    </filter>
    <filter
       inkscape:collect="always"
       id="filter4043"
       x="-1.5302445"
       width="4.0604891"
       y="-1.5302445"
       height="4.0604891">
      <feGaussianBlur
         inkscape:collect="always"
         stdDeviation="8.1977386"
         id="feGaussianBlur4045" />
    </filter>
    <filter
       inkscape:collect="always"
       id="filter4047"
       x="-0.41733943"
       width="1.8346789"
       y="-0.41733943"
       height="1.8346789">
      <feGaussianBlur
         inkscape:collect="always"
         stdDeviation="8.1977386"
         id="feGaussianBlur4049" />
    </filter>
    <filter
       inkscape:collect="always"
       id="filter4051"
       x="-1.2520182"
       width="3.5040364"
       y="-1.2520182"
       height="3.5040364">
      <feGaussianBlur
         inkscape:collect="always"
         stdDeviation="8.1977386"
         id="feGaussianBlur4053" />
    </filter>
    <filter
       inkscape:collect="always"
       id="filter4055"
       x="-0.62600916"
       width="2.2520183"
       y="-0.62600916"
       height="2.2520183">
      <feGaussianBlur
         inkscape:collect="always"
         stdDeviation="8.1977386"
         id="feGaussianBlur4057" />
    </filter>
    <filter
       inkscape:collect="always"
       id="filter4059"
       x="-1.2520183"
       width="3.5040365"
       y="-1.2520183"
       height="3.5040365">
      <feGaussianBlur
         inkscape:collect="always"
         stdDeviation="8.1977386"
         id="feGaussianBlur4061" />
    </filter>
    <filter
       inkscape:collect="always"
       id="filter4063"
       x="-0.68861004"
       width="2.3772201"
       y="-0.68861004"
       height="2.3772201">
      <feGaussianBlur
         inkscape:collect="always"
         stdDeviation="8.1977386"
         id="feGaussianBlur4065" />
    </filter>
    <filter
       inkscape:collect="always"
       id="filter4067"
       x="-1.3772201"
       width="3.7544402"
       y="-1.3772201"
       height="3.7544402">
      <feGaussianBlur
         inkscape:collect="always"
         stdDeviation="8.1977386"
         id="feGaussianBlur4069" />
    </filter>
    <filter
       inkscape:collect="always"
       id="filter4071"
       x="-1.0594001"
       width="3.1188002"
       y="-1.0594001"
       height="3.1188002">
      <feGaussianBlur
         inkscape:collect="always"
         stdDeviation="8.1977386"
         id="feGaussianBlur4073" />
    </filter>
    <filter
       inkscape:collect="always"
       id="filter4075"
       x="-0.72485271"
       width="2.4497054"
       y="-0.72485271"
       height="2.4497054">
      <feGaussianBlur
         inkscape:collect="always"
         stdDeviation="8.1977386"
         id="feGaussianBlur4077" />
    </filter>
    <filter
       inkscape:collect="always"
       id="filter4092">
      <feGaussianBlur
         inkscape:collect="always"
         stdDeviation="4.9337879"
         id="feGaussianBlur4094" />
    </filter>
    <mask
       maskUnits="userSpaceOnUse"
       id="mask4102">
      <path
         id="path4104"
         d="m 373.71875,217.90625 c -5.82132,0.0289 -11.6401,0.24826 -17.46875,0.625 -127.91104,4.79681 -246.83946,94.05165 -287.96875,215.125 -42.532604,116.80698 -9.285204,256.32584 81.84375,341 89.92985,88.00545 233.12884,113.98836 348.40625,63.78125 117.34403,-48.08889 198.95047,-170.54905 197.1875,-297.5 C 695.79622,490.06075 683.63444,439.23022 660.375,393.96875 607.47082,287.779 492.08558,217.31883 373.71875,217.90625 z m -0.1875,70 c 92.70874,-0.46009 183.09498,54.73499 224.53125,137.90625 18.21754,35.45025 27.71693,75.27668 27.65625,115.125 1.38081,99.4321 -62.52985,195.30398 -154.4375,232.96875 -90.289,39.32384 -202.43903,18.99122 -272.875,-49.9375 -71.37516,-66.31955 -97.43791,-175.57549 -64.125,-267.0625 32.2138,-94.82858 125.37843,-164.74299 225.5625,-168.5 4.56519,-0.29507 9.12805,-0.47737 13.6875,-0.5 z"
         style="color:#000000;fill:#ffbc0d;fill-opacity:1;fill-rule:nonzero;stroke:none;stroke-width:3;marker:none;visibility:visible;display:inline;overflow:visible;enable-background:accumulate"
         inkscape:connector-curvature="0" />
    </mask>
    <filter
       inkscape:collect="always"
       id="filter4116">
      <feGaussianBlur
         inkscape:collect="always"
         stdDeviation="22.442082"
         id="feGaussianBlur4118" />
    </filter>
    <mask
       maskUnits="userSpaceOnUse"
       id="mask4122">
      <path
         id="path4124"
         d="m 373.71875,217.90625 c -5.82132,0.0289 -11.6401,0.24826 -17.46875,0.625 -127.91104,4.79681 -246.83946,94.05165 -287.96875,215.125 -42.532604,116.80698 -9.285204,256.32584 81.84375,341 89.92985,88.00545 233.12884,113.98836 348.40625,63.78125 117.34403,-48.08889 198.95047,-170.54905 197.1875,-297.5 C 695.79622,490.06075 683.63444,439.23022 660.375,393.96875 607.47082,287.779 492.08558,217.31883 373.71875,217.90625 z m -0.1875,70 c 92.70874,-0.46009 183.09498,54.73499 224.53125,137.90625 18.21754,35.45025 27.71693,75.27668 27.65625,115.125 1.38081,99.4321 -62.52985,195.30398 -154.4375,232.96875 -90.289,39.32384 -202.43903,18.99122 -272.875,-49.9375 -71.37516,-66.31955 -97.43791,-175.57549 -64.125,-267.0625 32.2138,-94.82858 125.37843,-164.74299 225.5625,-168.5 4.56519,-0.29507 9.12805,-0.47737 13.6875,-0.5 z"
         style="color:#000000;fill:#ffbc0d;fill-opacity:1;fill-rule:nonzero;stroke:none;stroke-width:3;marker:none;visibility:visible;display:inline;overflow:visible;enable-background:accumulate"
         inkscape:connector-curvature="0" />
    </mask>
    <filter
       inkscape:collect="always"
       id="filter4150"
       x="-0.059238653"
       width="1.1184773"
       y="-0.11039007"
       height="1.2207801">
      <feGaussianBlur
         inkscape:collect="always"
         stdDeviation="2.0443651"
         id="feGaussianBlur4152" />
    </filter>
    <filter
       inkscape:collect="always"
       id="filter4154"
       x="-0.096085482"
       width="1.192171"
       y="-0.12782012"
       height="1.2556402">
      <feGaussianBlur
         inkscape:collect="always"
         stdDeviation="2.0443651"
         id="feGaussianBlur4156" />
    </filter>
  </defs>
  <sodipodi:namedview
     id="base"
     pagecolor="#ffffff"
     bordercolor="#666666"
     borderopacity="1.0"
     inkscape:pageopacity="0.0"
     inkscape:pageshadow="2"
     inkscape:zoom="0.78125"
     inkscape:cx="307.10856"
     inkscape:cy="522.25672"
     inkscape:document-units="px"
     inkscape:current-layer="layer1"
     showgrid="false"
     inkscape:window-width="1440"
     inkscape:window-height="841"
     inkscape:window-x="0"
     inkscape:window-y="27"
     inkscape:window-maximized="1" />
  <metadata
     id="metadata7">
    <rdf:RDF>
      <cc:Work
         rdf:about="">
        <dc:format>image/svg+xml</dc:format>
        <dc:type
           rdf:resource="http://purl.org/dc/dcmitype/StillImage" />
        <dc:title></dc:title>
      </cc:Work>
    </rdf:RDF>
  </metadata>
  <g
     inkscape:label="Calque 1"
     inkscape:groupmode="layer"
     id="layer1">
    <path
       sodipodi:type="arc"
       style="color:#000000;fill:url(#linearGradient3830);fill-opacity:1;fill-rule:nonzero;stroke:none;stroke-width:3;marker:none;visibility:visible;display:inline;overflow:visible;enable-background:accumulate"
       id="path3820"
       sodipodi:cx="389.91888"
       sodipodi:cy="557.38745"
       sodipodi:rx="256.57874"
       sodipodi:ry="256.57874"
       d="m 646.49762,557.38745 a 256.57874,256.57874 0 1 1 -513.15747,0 256.57874,256.57874 0 1 1 513.15747,0 z"
       transform="matrix(1.0314961,0,0,1.0314961,-24.402741,-31.697647)" />
    <path
       style="color:#000000;fill:#f1f7fa;fill-opacity:1;fill-rule:nonzero;stroke:none;stroke-width:3;marker:none;visibility:visible;display:inline;overflow:visible;enable-background:accumulate"
       d="M 254.28125 402.375 C 183.27321 402.375 125.71875 459.92946 125.71875 530.9375 C 125.71875 574.96619 147.84895 613.82668 181.59375 637 C 240.04378 684.13607 336.5442 731.81754 268.6875 820.03125 C 329.00651 847.39737 408.0791 824.42367 454.5625 785.6875 C 490.54557 681.22679 364.18758 666.87911 366.1875 594.25 C 376.78485 575.55861 382.84375 553.95858 382.84375 530.9375 C 382.84375 459.92946 325.28929 402.375 254.28125 402.375 z "
       id="path3759" />
    <path
       style="color:#000000;fill:#acb8be;fill-opacity:1;fill-rule:nonzero;stroke:none;stroke-width:3;marker:none;visibility:visible;display:inline;overflow:visible;enable-background:accumulate;filter:url(#filter3949)"
       d="m 220.875,398.09375 c -59.87706,14.10962 -104.4375,67.87462 -104.4375,132.0625 0,46.46736 23.35489,87.48065 58.96875,111.9375 61.68748,49.74685 163.52142,100.08779 91.90625,193.1875 46.70783,21.19086 104.07253,13.75231 150.6875,-7.84375 -39.26911,11.46139 -82.22243,12.38758 -118.6875,-4.15625 71.61517,-93.09971 -30.21877,-143.44065 -91.90625,-193.1875 -35.61386,-24.45685 -58.96875,-65.47014 -58.96875,-111.9375 0,-52.09993 29.36067,-97.32674 72.4375,-120.0625 z"
       id="path3936"
       inkscape:connector-curvature="0"
       mask="url(#mask3955)" />
    <path
       style="color:#000000;fill:#ffbc0d;fill-opacity:1;fill-rule:nonzero;stroke:none;stroke-width:3;marker:none;visibility:visible;display:inline;overflow:visible;enable-background:accumulate"
       d="M 373.71875 217.90625 C 367.89743 217.93514 362.07865 218.15451 356.25 218.53125 C 228.33896 223.32806 109.41054 312.5829 68.28125 433.65625 C 25.748646 550.46323 58.996046 689.98209 150.125 774.65625 C 240.05485 862.6617 383.25384 888.64461 498.53125 838.4375 C 615.87528 790.34861 697.48172 667.88845 695.71875 540.9375 C 695.79622 490.06075 683.63444 439.23022 660.375 393.96875 C 607.47082 287.779 492.08558 217.31883 373.71875 217.90625 z M 373.53125 287.90625 C 466.23999 287.44616 556.62623 342.64124 598.0625 425.8125 C 616.28004 461.26275 625.77943 501.08918 625.71875 540.9375 C 627.09956 640.3696 563.1889 736.24148 471.28125 773.90625 C 380.99225 813.23009 268.84222 792.89747 198.40625 723.96875 C 127.03109 657.6492 100.96834 548.39326 134.28125 456.90625 C 166.49505 362.07767 259.65968 292.16326 359.84375 288.40625 C 364.40894 288.11118 368.9718 287.92888 373.53125 287.90625 z "
       id="path3756" />
    <path
       id="path4106"
       d="m 337.71875,217.90625 c -5.82132,0.0289 -11.6401,0.24826 -17.46875,0.625 -127.91104,4.79681 -246.83946,94.05165 -287.96875,215.125 -42.532604,116.80698 -9.285204,256.32584 81.84375,341 89.92985,88.00545 233.12884,113.98836 348.40625,63.78125 117.34403,-48.08889 198.95047,-170.54905 197.1875,-297.5 C 659.79622,490.06075 647.63444,439.23022 624.375,393.96875 571.47082,287.779 456.08558,217.31883 337.71875,217.90625 z m -0.1875,70 c 92.70874,-0.46009 183.09498,54.73499 224.53125,137.90625 18.21754,35.45025 27.71693,75.27668 27.65625,115.125 1.38081,99.4321 -62.52985,195.30398 -154.4375,232.96875 -90.289,39.32384 -202.43903,18.99122 -272.875,-49.9375 -71.37516,-66.31955 -97.43791,-175.57549 -64.125,-267.0625 32.2138,-94.82858 125.37843,-164.74299 225.5625,-168.5 4.56519,-0.29507 9.12805,-0.47737 13.6875,-0.5 z"
       style="color:#000000;fill:#ffe296;fill-opacity:1;fill-rule:nonzero;stroke:none;stroke-width:3;marker:none;visibility:visible;display:inline;overflow:visible;enable-background:accumulate;filter:url(#filter4116)"
       inkscape:connector-curvature="0"
       mask="url(#mask4122)" />
    <path
       style="color:#000000;fill:#b58300;fill-opacity:1;fill-rule:nonzero;stroke:none;stroke-width:3;marker:none;visibility:visible;display:inline;overflow:visible;enable-background:accumulate;filter:url(#filter4092)"
       d="m 408.87165,212.09606 c -5.82132,0.0289 -11.6401,0.24826 -17.46875,0.625 -44.14378,1.65544 -114.38372,15.16877 -153.55915,34.77894 24.7105,-7.53044 50.37119,-11.99241 76.40625,-12.96875 5.82865,-0.37674 11.64743,-0.59611 17.46875,-0.625 118.36683,-0.58742 233.75207,69.87275 286.65625,176.0625 23.25944,45.26147 35.42122,96.092 35.34375,146.96875 1.66831,120.13465 -49.62069,227.169 -156.90268,280.04278 10.65874,-3.27407 26.59534,0.12115 36.86808,-4.35297 117.34403,-48.08889 198.95047,-170.54905 197.1875,-297.5 C 730.94912,484.25056 718.78734,433.42003 695.5279,388.15856 642.62372,281.96881 527.23848,211.50864 408.87165,212.09606 z m -122.58798,93.60067 c -80.89035,9.10858 -167.71005,89.81199 -194.00242,167.20952 -33.31291,91.48701 -7.25016,200.74295 64.125,267.0625 70.43597,68.92872 209.7389,87.45115 300.0279,48.12731 6.77237,-2.77539 9.76994,-11.29495 16.22336,-14.68058 -84.03194,23.58871 -176.32825,6.16998 -239.09836,-55.25692 -71.37516,-66.31955 -97.43791,-175.57549 -64.125,-267.0625 20.46516,-60.2438 61.01346,-115.84082 116.84952,-145.39933 z"
       id="path4079"
       inkscape:connector-curvature="0"
       sodipodi:nodetypes="scccsccccccscccccccc"
       mask="url(#mask4102)" />
    <path
       style="color:#000000;fill:#00001e;fill-opacity:1;fill-rule:nonzero;stroke:none;stroke-width:3;marker:none;visibility:visible;display:inline;overflow:visible;enable-background:accumulate"
       d="m 390.75,470.39286 c -35.32521,0 -58.95004,4.74404 -82.71875,31.29744 -7.80892,4.85384 -19.64995,8.75525 -33.03125,4.59412 -34.49237,-7.42791 -83.19698,12.88452 -110.6875,37.86561 l -40.0625,6.74761 -0.5,15.07446 6.0625,-5.77854 52.9375,9.61894 -0.1875,-0.32302 c 34.10264,20.28368 86.55574,32.62007 100.28125,-23.0065 2.11769,-19.45783 18.43234,-32.56444 27.8125,-35.67622 0.51918,0.21322 1.15826,0.29861 2.03125,0.21535 3.27873,-0.3127 14.81487,10.84665 25.25,16.65369 28.53622,15.88009 50.34175,-5.52402 53.28125,-36.64529 0.48405,-8.89529 6.3268,-13.32819 -0.46875,-20.63765 z"
       id="path3802"
       inkscape:connector-curvature="0" />
    <path
       style="color:#000000;fill:#f77913;fill-opacity:1;fill-rule:nonzero;stroke:none;stroke-width:3;marker:none;visibility:visible;display:inline;overflow:visible;enable-background:accumulate"
       d="m 344.6287,528.56219 c -46.32638,-20.3689 -54.46427,7.4851 -65.07558,39.52997 -17.97613,14.72097 -50.29808,28.15856 -67.31956,35.01226 -8.1336,23.18468 -1.11741,22.44796 17.95188,24.84742 67.42266,-19.9616 395.35617,68.37944 519.48262,44.04768 C 631.47389,621.7132 457.89086,565.3875 344.6287,528.56219 z"
       id="path3773"
       inkscape:connector-curvature="0"
       sodipodi:nodetypes="cccccc" />
    <path
       sodipodi:type="star"
       style="color:#000000;fill:#b7b7ff;fill-opacity:1;fill-rule:nonzero;stroke:none;stroke-width:3;marker:none;visibility:visible;display:inline;overflow:visible;enable-background:accumulate"
       id="path3832"
       sodipodi:sides="4"
       sodipodi:cx="447.14286"
       sodipodi:cy="441.6479"
       sodipodi:r1="49.615871"
       sodipodi:r2="6.5028812"
       sodipodi:arg1="-1.0427219"
       sodipodi:arg2="-0.25732371"
       inkscape:flatsided="false"
       inkscape:rounded="3.469447e-18"
       inkscape:randomized="0"
       d="M 472.14285,398.79074 453.43162,439.99295 490,466.64789 l -41.20221,-18.71123 -26.65494,36.56837 18.71123,-41.2022 -36.56837,-26.65494 41.2022,18.71123 z" />
    <path
       sodipodi:type="star"
       style="color:#000000;fill:#b7b7ff;fill-opacity:1;fill-rule:nonzero;stroke:none;stroke-width:3;marker:none;visibility:visible;display:inline;overflow:visible;enable-background:accumulate"
       id="path3834"
       sodipodi:sides="4"
       sodipodi:cx="508.57143"
       sodipodi:cy="692.36218"
       sodipodi:r1="14.069797"
       sodipodi:r2="1.8440514"
       sodipodi:arg1="1.9890207"
       sodipodi:arg2="2.7744188"
       inkscape:flatsided="false"
       inkscape:rounded="3.469447e-18"
       inkscape:randomized="0"
       d="m 502.85716,705.21932 3.99314,-12.19516 -11.136,-6.37626 12.19517,3.99315 6.37626,-11.13601 -3.99315,12.19517 11.136,6.37626 -12.19516,-3.99315 z" />
    <path
       sodipodi:type="star"
       style="color:#000000;fill:#b7b7ff;fill-opacity:1;fill-rule:nonzero;stroke:none;stroke-width:3;marker:none;visibility:visible;display:inline;overflow:visible;enable-background:accumulate"
       id="path3836"
       sodipodi:sides="4"
       sodipodi:cx="342.85714"
       sodipodi:cy="363.79075"
       sodipodi:r1="28.257201"
       sodipodi:r2="3.7035169"
       sodipodi:arg1="-1.2090671"
       sodipodi:arg2="-0.42366892"
       inkscape:flatsided="false"
       inkscape:rounded="3.469447e-18"
       inkscape:randomized="0"
       d="m 352.85715,337.36217 -6.62393,24.90603 23.0525,11.52254 -24.90603,-6.62392 -11.52254,23.05249 6.62392,-24.90602 -23.05249,-11.52255 24.90602,6.62392 z" />
    <path
       sodipodi:type="star"
       style="color:#000000;fill:#b7b7ff;fill-opacity:1;fill-rule:nonzero;stroke:none;stroke-width:3;marker:none;visibility:visible;display:inline;overflow:visible;enable-background:accumulate"
       id="path3838"
       sodipodi:sides="4"
       sodipodi:cx="249.28571"
       sodipodi:cy="375.21932"
       sodipodi:r1="8.601139"
       sodipodi:r2="1.1273043"
       sodipodi:arg1="2.4149503"
       sodipodi:arg2="3.2003485"
       inkscape:flatsided="false"
       inkscape:rounded="3.469447e-18"
       inkscape:randomized="0"
       d="m 242.85713,380.93362 5.30322,-5.78049 -4.58893,-6.36237 5.78048,5.30321 6.36238,-4.58893 -5.30322,5.78049 4.58893,6.36237 -5.78048,-5.30321 z" />
    <path
       sodipodi:type="star"
       style="color:#000000;fill:#b7b7ff;fill-opacity:1;fill-rule:nonzero;stroke:none;stroke-width:3;marker:none;visibility:visible;display:inline;overflow:visible;enable-background:accumulate"
       id="path3840"
       sodipodi:sides="4"
       sodipodi:cx="580"
       sodipodi:cy="473.79075"
       sodipodi:r1="28.329331"
       sodipodi:r2="3.7129707"
       sodipodi:arg1="2.1587989"
       sodipodi:arg2="2.9441971"
       inkscape:flatsided="false"
       inkscape:rounded="3.469447e-18"
       inkscape:randomized="0"
       d="m 564.28572,497.36217 12.07341,-22.84326 -19.93056,-16.44245 22.84326,12.07341 16.44245,-19.93056 -12.07341,22.84326 19.93056,16.44246 -22.84326,-12.07342 z" />
    <path
       sodipodi:type="star"
       style="color:#000000;fill:#b7b7ff;fill-opacity:1;fill-rule:nonzero;stroke:none;stroke-width:3;marker:none;visibility:visible;display:inline;overflow:visible;enable-background:accumulate"
       id="path3842"
       sodipodi:sides="4"
       sodipodi:cx="457.14286"
       sodipodi:cy="526.6479"
       sodipodi:r1="9.3131463"
       sodipodi:r2="1.2206232"
       sodipodi:arg1="2.1375255"
       sodipodi:arg2="2.9229237"
       inkscape:flatsided="false"
       inkscape:rounded="3.469447e-18"
       inkscape:randomized="0"
       d="m 452.14285,534.50503 3.80845,-7.59235 -6.66559,-5.26479 7.59235,3.80844 5.26479,-6.66559 -3.80844,7.59236 6.66559,5.26479 -7.59236,-3.80845 z" />
    <path
       sodipodi:type="star"
       style="color:#000000;fill:#b7b7ff;fill-opacity:1;fill-rule:nonzero;stroke:none;stroke-width:3;marker:none;visibility:visible;display:inline;overflow:visible;enable-background:accumulate"
       id="path3844"
       sodipodi:sides="4"
       sodipodi:cx="441.42857"
       sodipodi:cy="341.6479"
       sodipodi:r1="16.28822"
       sodipodi:r2="2.134808"
       sodipodi:arg1="1.3045443"
       sodipodi:arg2="2.0899424"
       inkscape:flatsided="false"
       inkscape:rounded="3.469447e-18"
       inkscape:randomized="0"
       d="m 445.71427,357.36217 -5.34487,-13.86075 -14.65513,2.43218 13.86076,-5.34487 -2.43219,-14.65513 5.34488,13.86076 14.65512,-2.43219 -13.86075,5.34488 z" />
    <path
       sodipodi:type="star"
       style="color:#000000;fill:#b7b7ff;fill-opacity:1;fill-rule:nonzero;stroke:none;stroke-width:3;marker:none;visibility:visible;display:inline;overflow:visible;enable-background:accumulate"
       id="path3846"
       sodipodi:sides="4"
       sodipodi:cx="220"
       sodipodi:cy="693.79075"
       sodipodi:r1="8.9499744"
       sodipodi:r2="1.1730242"
       sodipodi:arg1="2.070143"
       sodipodi:arg2="2.8555412"
       inkscape:flatsided="false"
       inkscape:rounded="3.469447e-18"
       inkscape:randomized="0"
       d="m 215.71429,701.64791 3.16035,-7.52615 -6.73178,-4.6167 7.52615,3.16035 4.6167,-6.73178 -3.16035,7.52615 6.73178,4.61671 -7.52615,-3.16036 z" />
    <path
       sodipodi:type="star"
       style="color:#000000;fill:#b7b7ff;fill-opacity:1;fill-rule:nonzero;stroke:none;stroke-width:3;marker:none;visibility:visible;display:inline;overflow:visible;enable-background:accumulate"
       id="path3848"
       sodipodi:sides="4"
       sodipodi:cx="294.28571"
       sodipodi:cy="327.36218"
       sodipodi:r1="14.445535"
       sodipodi:r2="1.8932972"
       sodipodi:arg1="1.7196863"
       sodipodi:arg2="2.5050844"
       inkscape:flatsided="false"
       inkscape:rounded="3.469447e-18"
       inkscape:randomized="0"
       d="m 292.14285,341.6479 0.62031,-13.16036 -12.76317,-3.26821 13.16036,0.62031 3.26821,-12.76317 -0.62031,13.16035 12.76317,3.26822 -13.16036,-0.62031 z" />
    <path
       sodipodi:type="star"
       style="color:#000000;fill:#b7b7ff;fill-opacity:1;fill-rule:nonzero;stroke:none;stroke-width:3;marker:none;visibility:visible;display:inline;overflow:visible;enable-background:accumulate"
       id="path3850"
       sodipodi:sides="4"
       sodipodi:cx="184.28571"
       sodipodi:cy="403.07647"
       sodipodi:r1="10.101525"
       sodipodi:r2="1.3239516"
       sodipodi:arg1="2.3561945"
       sodipodi:arg2="3.1415927"
       inkscape:flatsided="false"
       inkscape:rounded="3.469447e-18"
       inkscape:randomized="0"
       d="m 177.14285,410.21933 5.8189,-7.14285 -5.8189,-7.14286 7.14286,5.81891 7.14285,-5.81891 -5.8189,7.14286 5.8189,7.14285 -7.14285,-5.8189 z" />
    <path
       sodipodi:type="star"
       style="color:#000000;fill:#b7b7ff;fill-opacity:1;fill-rule:nonzero;stroke:none;stroke-width:3;marker:none;visibility:visible;display:inline;overflow:visible;enable-background:accumulate"
       id="path3852"
       sodipodi:sides="4"
       sodipodi:cx="584.28571"
       sodipodi:cy="538.07647"
       sodipodi:r1="10.546302"
       sodipodi:r2="1.3822461"
       sodipodi:arg1="2.0647377"
       sodipodi:arg2="2.8501359"
       inkscape:flatsided="false"
       inkscape:rounded="3.469447e-18"
       inkscape:randomized="0"
       d="m 579.28571,547.36219 3.67604,-8.88853 -7.96176,-5.39718 8.88853,3.67605 5.39719,-7.96177 -3.67605,8.88853 7.96176,5.39719 -8.88853,-3.67605 z" />
    <path
       sodipodi:type="star"
       style="color:#000000;fill:#b7b7ff;fill-opacity:1;fill-rule:nonzero;stroke:none;stroke-width:3;marker:none;visibility:visible;display:inline;overflow:visible;enable-background:accumulate"
       id="path3854"
       sodipodi:sides="4"
       sodipodi:cx="237.85714"
       sodipodi:cy="722.36218"
       sodipodi:r1="16.857748"
       sodipodi:r2="2.2094528"
       sodipodi:arg1="2.2058231"
       sodipodi:arg2="2.9912212"
       inkscape:flatsided="false"
       inkscape:rounded="3.469447e-18"
       inkscape:randomized="0"
       d="m 227.85715,735.93361 7.81548,-13.24044 -11.38691,-10.33099 13.24044,7.81548 10.33099,-11.38691 -7.81548,13.24044 11.38691,10.33099 -13.24044,-7.81548 z" />
    <path
       style="color:#000000;fill:#b7b7ff;fill-opacity:1;fill-rule:nonzero;stroke:none;stroke-width:3;marker:none;visibility:visible;display:inline;overflow:visible;enable-background:accumulate;filter:url(#filter4150)"
       d="m 191.12895,538.4895 c 25.11343,-13.54372 50.47827,-17.28006 72.01579,-23.0234 15.63879,9.36524 11.83985,32.31456 4.04061,44.44672 5.03625,-12.67633 -5.1282,-21.97889 -8.51357,-32.13498 -25.48923,-4.38082 -45.52918,7.09127 -67.54283,10.71166 z"
       id="path3858"
       inkscape:connector-curvature="0"
       sodipodi:nodetypes="ccccc" />
    <path
       style="color:#000000;fill:#b7b7ff;fill-opacity:1;fill-rule:nonzero;stroke:none;stroke-width:3;marker:none;visibility:visible;display:inline;overflow:visible;enable-background:accumulate;filter:url(#filter4154)"
       d="m 331.83511,496.27321 c 14.38305,-9.8354 35.82774,-17.17259 50.00255,-17.17259 3.20501,18.06419 -1.29264,29.30962 -7.57614,38.38579 4.40312,-10.85456 4.57673,-23.65694 1.75766,-30.7046 -16.86758,-1.00078 -30.16266,6.86238 -44.18407,9.4914 z"
       id="path3860"
       inkscape:connector-curvature="0"
       sodipodi:nodetypes="ccccc" />
    <path
       style="color:#000000;fill:#a33806;fill-opacity:1;fill-rule:nonzero;stroke:none;stroke-width:3;marker:none;visibility:visible;display:inline;overflow:visible;filter:url(#filter3891);enable-background:accumulate"
       d="m 317.9375,513.09375 c -24.47599,1.07594 -31.73951,25.04379 -40.53125,51.59375 -0.88883,0.72787 -1.80093,1.43454 -2.75,2.15625 10.71076,-5.60564 20.94293,-11.76291 28.75,-18.15625 4.42962,-13.3769 8.48063,-26.12738 14.53125,-35.59375 z M 226.75,593.375 c -9.14447,4.08892 -17.64649,7.57893 -24.125,10.1875 -9.03517,25.75459 -1.24554,24.92832 19.9375,27.59375 74.89614,-22.17425 439.17721,75.96632 577.0625,48.9375 -8.80122,-3.74452 -17.87204,-7.51623 -27.1875,-11.3125 -161.52595,2.14267 -457.23846,-73.35386 -523.875,-53.625 -19.44151,-2.4463 -27.58654,-1.96768 -21.8125,-21.78125 z"
       id="path3876"
       inkscape:connector-curvature="0"
       mask="url(#mask3897)" />
    <path
       style="color:#000000;fill:#fbcc86;fill-opacity:1;fill-rule:nonzero;stroke:none;stroke-width:3;marker:none;visibility:visible;display:inline;overflow:visible;filter:url(#filter3926);enable-background:accumulate"
       d="m 328.875,524.0625 c -10.25531,0.34119 -17.3011,4.92469 -22.71875,12.0625 7.91324,-0.42352 17.75433,1.69337 30.25,7.1875 112.67361,36.63395 282.379,91.69612 405.09375,142.25 15.08352,-0.5323 28.77196,-1.85789 40.65625,-4.1875 -123.65303,-52.60882 -305.25676,-111.5364 -423.75,-150.0625 -12.1165,-5.32741 -21.7441,-7.50907 -29.53125,-7.25 z m -73.40625,69.65625 c -13.27245,6.49014 -26.4956,11.91171 -35.5625,15.5625 -0.40004,1.14029 -0.73219,2.18614 -1.0625,3.21875 11.95148,-5.28789 25.29448,-11.74417 36.625,-18.78125 z"
       id="path3903"
       inkscape:connector-curvature="0"
       mask="url(#mask3932)" />
    <path
       style="color:#000000;fill:#b14e39;fill-opacity:1;fill-rule:nonzero;stroke:none;stroke-width:3;marker:none;visibility:visible;display:inline;overflow:visible;enable-background:accumulate"
       d="M 219.18316,603.6563 684.98052,677.36219 218.39757,610.04626 z"
       id="path3805"
       inkscape:connector-curvature="0"
       inkscape:transform-center-x="233.29148"
       inkscape:transform-center-y="-36.852945" />
    <path
       d="M 472.14285,398.79074 453.43162,439.99295 490,466.64789 l -41.20221,-18.71123 -26.65494,36.56837 18.71123,-41.2022 -36.56837,-26.65494 41.2022,18.71123 z"
       inkscape:randomized="0"
       inkscape:rounded="3.469447e-18"
       inkscape:flatsided="false"
       sodipodi:arg2="-0.25732371"
       sodipodi:arg1="-1.0427219"
       sodipodi:r2="6.5028812"
       sodipodi:r1="49.615871"
       sodipodi:cy="441.6479"
       sodipodi:cx="447.14286"
       sodipodi:sides="4"
       id="path3959"
       style="color:#000000;fill:#b7b7ff;fill-opacity:1;fill-rule:nonzero;stroke:none;stroke-width:3;marker:none;visibility:visible;display:inline;overflow:visible;enable-background:accumulate;filter:url(#filter4031)"
       sodipodi:type="star" />
    <path
       d="m 502.85716,705.21932 3.99314,-12.19516 -11.136,-6.37626 12.19517,3.99315 6.37626,-11.13601 -3.99315,12.19517 11.136,6.37626 -12.19516,-3.99315 z"
       inkscape:randomized="0"
       inkscape:rounded="3.469447e-18"
       inkscape:flatsided="false"
       sodipodi:arg2="2.7744188"
       sodipodi:arg1="1.9890207"
       sodipodi:r2="1.8440514"
       sodipodi:r1="14.069797"
       sodipodi:cy="692.36218"
       sodipodi:cx="508.57143"
       sodipodi:sides="4"
       id="path3961"
       style="color:#000000;fill:#b7b7ff;fill-opacity:1;fill-rule:nonzero;stroke:none;stroke-width:3;marker:none;visibility:visible;display:inline;overflow:visible;enable-background:accumulate;filter:url(#filter4035)"
       sodipodi:type="star" />
    <path
       d="m 352.85715,337.36217 -6.62393,24.90603 23.0525,11.52254 -24.90603,-6.62392 -11.52254,23.05249 6.62392,-24.90602 -23.05249,-11.52255 24.90602,6.62392 z"
       inkscape:randomized="0"
       inkscape:rounded="3.469447e-18"
       inkscape:flatsided="false"
       sodipodi:arg2="-0.42366892"
       sodipodi:arg1="-1.2090671"
       sodipodi:r2="3.7035169"
       sodipodi:r1="28.257201"
       sodipodi:cy="363.79075"
       sodipodi:cx="342.85714"
       sodipodi:sides="4"
       id="path3963"
       style="color:#000000;fill:#b7b7ff;fill-opacity:1;fill-rule:nonzero;stroke:none;stroke-width:3;marker:none;visibility:visible;display:inline;overflow:visible;enable-background:accumulate;filter:url(#filter4039)"
       sodipodi:type="star" />
    <path
       d="m 242.85713,380.93362 5.30322,-5.78049 -4.58893,-6.36237 5.78048,5.30321 6.36238,-4.58893 -5.30322,5.78049 4.58893,6.36237 -5.78048,-5.30321 z"
       inkscape:randomized="0"
       inkscape:rounded="3.469447e-18"
       inkscape:flatsided="false"
       sodipodi:arg2="3.2003485"
       sodipodi:arg1="2.4149503"
       sodipodi:r2="1.1273043"
       sodipodi:r1="8.601139"
       sodipodi:cy="375.21932"
       sodipodi:cx="249.28571"
       sodipodi:sides="4"
       id="path3965"
       style="color:#000000;fill:#b7b7ff;fill-opacity:1;fill-rule:nonzero;stroke:none;stroke-width:3;marker:none;visibility:visible;display:inline;overflow:visible;enable-background:accumulate;filter:url(#filter4043)"
       sodipodi:type="star" />
    <path
       d="m 564.28572,497.36217 12.07341,-22.84326 -19.93056,-16.44245 22.84326,12.07341 16.44245,-19.93056 -12.07341,22.84326 19.93056,16.44246 -22.84326,-12.07342 z"
       inkscape:randomized="0"
       inkscape:rounded="3.469447e-18"
       inkscape:flatsided="false"
       sodipodi:arg2="2.9441971"
       sodipodi:arg1="2.1587989"
       sodipodi:r2="3.7129707"
       sodipodi:r1="28.329331"
       sodipodi:cy="473.79075"
       sodipodi:cx="580"
       sodipodi:sides="4"
       id="path3967"
       style="color:#000000;fill:#b7b7ff;fill-opacity:1;fill-rule:nonzero;stroke:none;stroke-width:3;marker:none;visibility:visible;display:inline;overflow:visible;enable-background:accumulate;filter:url(#filter4047)"
       sodipodi:type="star" />
    <path
       d="m 452.14285,534.50503 3.80845,-7.59235 -6.66559,-5.26479 7.59235,3.80844 5.26479,-6.66559 -3.80844,7.59236 6.66559,5.26479 -7.59236,-3.80845 z"
       inkscape:randomized="0"
       inkscape:rounded="3.469447e-18"
       inkscape:flatsided="false"
       sodipodi:arg2="2.9229237"
       sodipodi:arg1="2.1375255"
       sodipodi:r2="1.2206232"
       sodipodi:r1="9.3131463"
       sodipodi:cy="526.6479"
       sodipodi:cx="457.14286"
       sodipodi:sides="4"
       id="path3969"
       style="color:#000000;fill:#b7b7ff;fill-opacity:1;fill-rule:nonzero;stroke:none;stroke-width:3;marker:none;visibility:visible;display:inline;overflow:visible;enable-background:accumulate;filter:url(#filter4051)"
       sodipodi:type="star" />
    <path
       d="m 445.71427,357.36217 -5.34487,-13.86075 -14.65513,2.43218 13.86076,-5.34487 -2.43219,-14.65513 5.34488,13.86076 14.65512,-2.43219 -13.86075,5.34488 z"
       inkscape:randomized="0"
       inkscape:rounded="3.469447e-18"
       inkscape:flatsided="false"
       sodipodi:arg2="2.0899424"
       sodipodi:arg1="1.3045443"
       sodipodi:r2="2.134808"
       sodipodi:r1="16.28822"
       sodipodi:cy="341.6479"
       sodipodi:cx="441.42857"
       sodipodi:sides="4"
       id="path3971"
       style="color:#000000;fill:#b7b7ff;fill-opacity:1;fill-rule:nonzero;stroke:none;stroke-width:3;marker:none;visibility:visible;display:inline;overflow:visible;enable-background:accumulate;filter:url(#filter4055)"
       sodipodi:type="star" />
    <path
       d="m 215.71429,701.64791 3.16035,-7.52615 -6.73178,-4.6167 7.52615,3.16035 4.6167,-6.73178 -3.16035,7.52615 6.73178,4.61671 -7.52615,-3.16036 z"
       inkscape:randomized="0"
       inkscape:rounded="3.469447e-18"
       inkscape:flatsided="false"
       sodipodi:arg2="2.8555412"
       sodipodi:arg1="2.070143"
       sodipodi:r2="1.1730242"
       sodipodi:r1="8.9499744"
       sodipodi:cy="693.79075"
       sodipodi:cx="220"
       sodipodi:sides="4"
       id="path3973"
       style="color:#000000;fill:#b7b7ff;fill-opacity:1;fill-rule:nonzero;stroke:none;stroke-width:3;marker:none;visibility:visible;display:inline;overflow:visible;enable-background:accumulate;filter:url(#filter4059)"
       sodipodi:type="star" />
    <path
       d="m 292.14285,341.6479 0.62031,-13.16036 -12.76317,-3.26821 13.16036,0.62031 3.26821,-12.76317 -0.62031,13.16035 12.76317,3.26822 -13.16036,-0.62031 z"
       inkscape:randomized="0"
       inkscape:rounded="3.469447e-18"
       inkscape:flatsided="false"
       sodipodi:arg2="2.5050844"
       sodipodi:arg1="1.7196863"
       sodipodi:r2="1.8932972"
       sodipodi:r1="14.445535"
       sodipodi:cy="327.36218"
       sodipodi:cx="294.28571"
       sodipodi:sides="4"
       id="path3975"
       style="color:#000000;fill:#b7b7ff;fill-opacity:1;fill-rule:nonzero;stroke:none;stroke-width:3;marker:none;visibility:visible;display:inline;overflow:visible;enable-background:accumulate;filter:url(#filter4063)"
       sodipodi:type="star" />
    <path
       d="m 177.14285,410.21933 5.8189,-7.14285 -5.8189,-7.14286 7.14286,5.81891 7.14285,-5.81891 -5.8189,7.14286 5.8189,7.14285 -7.14285,-5.8189 z"
       inkscape:randomized="0"
       inkscape:rounded="3.469447e-18"
       inkscape:flatsided="false"
       sodipodi:arg2="3.1415927"
       sodipodi:arg1="2.3561945"
       sodipodi:r2="1.3239516"
       sodipodi:r1="10.101525"
       sodipodi:cy="403.07647"
       sodipodi:cx="184.28571"
       sodipodi:sides="4"
       id="path3977"
       style="color:#000000;fill:#b7b7ff;fill-opacity:1;fill-rule:nonzero;stroke:none;stroke-width:3;marker:none;visibility:visible;display:inline;overflow:visible;enable-background:accumulate;filter:url(#filter4067)"
       sodipodi:type="star" />
    <path
       d="m 579.28571,547.36219 3.67604,-8.88853 -7.96176,-5.39718 8.88853,3.67605 5.39719,-7.96177 -3.67605,8.88853 7.96176,5.39719 -8.88853,-3.67605 z"
       inkscape:randomized="0"
       inkscape:rounded="3.469447e-18"
       inkscape:flatsided="false"
       sodipodi:arg2="2.8501359"
       sodipodi:arg1="2.0647377"
       sodipodi:r2="1.3822461"
       sodipodi:r1="10.546302"
       sodipodi:cy="538.07647"
       sodipodi:cx="584.28571"
       sodipodi:sides="4"
       id="path3979"
       style="color:#000000;fill:#b7b7ff;fill-opacity:1;fill-rule:nonzero;stroke:none;stroke-width:3;marker:none;visibility:visible;display:inline;overflow:visible;enable-background:accumulate;filter:url(#filter4071)"
       sodipodi:type="star" />
    <path
       d="m 227.85715,735.93361 7.81548,-13.24044 -11.38691,-10.33099 13.24044,7.81548 10.33099,-11.38691 -7.81548,13.24044 11.38691,10.33099 -13.24044,-7.81548 z"
       inkscape:randomized="0"
       inkscape:rounded="3.469447e-18"
       inkscape:flatsided="false"
       sodipodi:arg2="2.9912212"
       sodipodi:arg1="2.2058231"
       sodipodi:r2="2.2094528"
       sodipodi:r1="16.857748"
       sodipodi:cy="722.36218"
       sodipodi:cx="237.85714"
       sodipodi:sides="4"
       id="path3981"
       style="color:#000000;fill:#b7b7ff;fill-opacity:1;fill-rule:nonzero;stroke:none;stroke-width:3;marker:none;visibility:visible;display:inline;overflow:visible;enable-background:accumulate;filter:url(#filter4075)"
       sodipodi:type="star" />
  </g>
</svg>
