<?xml version="1.0" encoding="UTF-8" standalone="no"?>
<!-- Created with Inkscape (http://www.inkscape.org/) -->
<svg
   xmlns:dc="http://purl.org/dc/elements/1.1/"
   xmlns:cc="http://web.resource.org/cc/"
   xmlns:rdf="http://www.w3.org/1999/02/22-rdf-syntax-ns#"
   xmlns:svg="http://www.w3.org/2000/svg"
   xmlns="http://www.w3.org/2000/svg"
   xmlns:xlink="http://www.w3.org/1999/xlink"
   xmlns:sodipodi="http://sodipodi.sourceforge.net/DTD/sodipodi-0.dtd"
   xmlns:inkscape="http://www.inkscape.org/namespaces/inkscape"
   width="128.00000px"
   height="128.00000px"
   id="svg2"
   sodipodi:version="0.32"
   inkscape:version="0.44"
   sodipodi:docbase="/usr/share/icons"
   sodipodi:docname="fusesmbtool.svg">
  <defs
     id="defs4">
    <linearGradient
       id="linearGradient4280">
      <stop
         id="stop4282"
         offset="0.0000000"
         style="stop-color:#e0ca86;stop-opacity:1.0000000;" />
      <stop
         id="stop4284"
         offset="1.0000000"
         style="stop-color:#c1ae54;stop-opacity:1.0000000" />
    </linearGradient>
    <linearGradient
       id="linearGradient4257">
      <stop
         style="stop-color:#ffffff;stop-opacity:0.35353535;"
         offset="0.0000000"
         id="stop4259" />
      <stop
         style="stop-color:#ffffff;stop-opacity:0;"
         offset="1"
         id="stop4261" />
    </linearGradient>
    <linearGradient
       id="linearGradient3521">
      <stop
         style="stop-color:#f1d990;stop-opacity:1;"
         offset="0"
         id="stop3523" />
      <stop
         style="stop-color:#c1ae54;stop-opacity:1.0000000"
         offset="1.0000000"
         id="stop3525" />
    </linearGradient>
    <linearGradient
       id="linearGradient4215">
      <stop
         id="stop4216"
         offset="0.0000000"
         style="stop-color:#ffffff;stop-opacity:1.0000000;" />
      <stop
         id="stop4217"
         offset="1.0000000"
         style="stop-color:#ffffff;stop-opacity:0.0000000;" />
    </linearGradient>
    <linearGradient
       id="linearGradient4021">
      <stop
         id="stop4022"
         offset="0.0000000"
         style="stop-color:#000000;stop-opacity:1.0000000;" />
      <stop
         id="stop4023"
         offset="1.0000000"
         style="stop-color:#000000;stop-opacity:0.0000000;" />
    </linearGradient>
    <linearGradient
       inkscape:collect="always"
       xlink:href="#linearGradient4021"
       id="linearGradient1498"
       gradientUnits="userSpaceOnUse"
       gradientTransform="matrix(1.003601,7.272338e-2,-7.008894e-2,0.967246,-350.6462,-633.5339)"
       x1="669.54511"
       y1="721.82962"
       x2="635.25272"
       y2="702.53950" />
    <linearGradient
       inkscape:collect="always"
       xlink:href="#linearGradient4021"
       id="linearGradient1500"
       gradientUnits="userSpaceOnUse"
       gradientTransform="matrix(1.021754,7.403874e-2,-6.884375e-2,0.950062,-350.6462,-633.5339)"
       x1="648.31500"
       y1="764.89803"
       x2="610.28476"
       y2="743.14524" />
    <linearGradient
       inkscape:collect="always"
       xlink:href="#linearGradient4215"
       id="linearGradient1502"
       gradientUnits="userSpaceOnUse"
       gradientTransform="matrix(1.015426,7.358018e-2,-6.927283e-2,0.955983,-350.6462,-633.5339)"
       x1="622.78897"
       y1="706.90464"
       x2="604.71871"
       y2="699.02725" />
    <linearGradient
       inkscape:collect="always"
       xlink:href="#linearGradient4215"
       id="linearGradient1504"
       gradientUnits="userSpaceOnUse"
       gradientTransform="matrix(0.999243,7.240753e-2,-7.039472e-2,0.971465,-350.6462,-633.5339)"
       x1="623.41440"
       y1="721.56359"
       x2="605.99946"
       y2="712.01860" />
    <linearGradient
       inkscape:collect="always"
       xlink:href="#linearGradient4215"
       id="linearGradient1506"
       gradientUnits="userSpaceOnUse"
       gradientTransform="matrix(0.290003,2.101439e-2,-2.084741e-2,0.2877,55.8569,-27.13629)"
       x1="535.78689"
       y1="280.02427"
       x2="571.79692"
       y2="345.03880" />
    <linearGradient
       inkscape:collect="always"
       xlink:href="#linearGradient4215"
       id="linearGradient1508"
       gradientUnits="userSpaceOnUse"
       gradientTransform="matrix(0.280834,2.034989e-2,-2.152815e-2,0.297094,55.8569,-27.13629)"
       x1="509.06769"
       y1="327.76362"
       x2="544.86009"
       y2="399.38105" />
    <linearGradient
       inkscape:collect="always"
       xlink:href="#linearGradient4215"
       id="linearGradient1510"
       gradientUnits="userSpaceOnUse"
       gradientTransform="matrix(0.312565,2.264923e-2,-1.934263e-2,0.266933,55.8569,-27.13629)"
       x1="571.12997"
       y1="342.22995"
       x2="601.19987"
       y2="396.43265" />
    <linearGradient
       inkscape:collect="always"
       xlink:href="#linearGradient4215"
       id="linearGradient1512"
       gradientUnits="userSpaceOnUse"
       gradientTransform="matrix(0.300166,2.175073e-2,-2.014165e-2,0.27796,55.8569,-27.13629)"
       x1="564.74364"
       y1="417.18036"
       x2="586.06391"
       y2="459.92340" />
    <linearGradient
       id="linearGradient871"
       xlink:href="#linearGradient1012" />
    <linearGradient
       y2="24.174611"
       x2="53.211626"
       y1="180.92995"
       x1="77.291655"
       id="linearGradient1011"
       xlink:href="#linearGradient865"
       gradientUnits="userSpaceOnUse" />
    <linearGradient
       y2="40.053987"
       x2="38.977112"
       y1="-53.39077"
       x1="43.397979"
       id="linearGradient1010"
       xlink:href="#linearGradient865"
       gradientUnits="userSpaceOnUse" />
    <linearGradient
       y2="112.48578"
       x2="88.360744"
       y1="199.48994"
       x1="178.42355"
       id="linearGradient870"
       xlink:href="#linearGradient865"
       gradientTransform="scale(1.069323,0.935172)"
       gradientUnits="userSpaceOnUse" />
    <linearGradient
       x1="105.80702"
       y1="25.611177"
       x2="82.344438"
       y2="46.947097"
       id="linearGradient864"
       xlink:href="#linearGradient865"
       gradientTransform="scale(1.108489,0.902129)"
       gradientUnits="userSpaceOnUse" />
    <radialGradient
       fy="77.944687"
       fx="79.895966"
       r="68.379425"
       cy="77.944687"
       cx="79.895966"
       id="radialGradient858"
       xlink:href="#linearGradient1400"
       gradientUnits="userSpaceOnUse" />
    <radialGradient
       fy="325.76621"
       fx="240.38737"
       r="200.73203"
       cy="477.83306"
       cx="227.0055"
       id="radialGradient852"
       xlink:href="#linearGradient853"
       gradientUnits="userSpaceOnUse" />
    <linearGradient
       id="linearGradient849">
      <stop
         id="stop850"
         offset="0.00000000"
         style="stop-color:#ffffff;stop-opacity:1.0000000;" />
      <stop
         id="stop861"
         offset="0.38040140"
         style="stop-color:#1d1d1d;stop-opacity:0.56078434;" />
      <stop
         id="stop862"
         offset="0.51047200"
         style="stop-color:#000000;stop-opacity:0.30208334;" />
      <stop
         id="stop860"
         offset="0.64054263"
         style="stop-color:#000000;stop-opacity:0.21568628;" />
      <stop
         id="stop851"
         offset="1.0000000"
         style="stop-color:#000000;stop-opacity:0.00000000;" />
    </linearGradient>
    <linearGradient
       id="linearGradient853">
      <stop
         id="stop854"
         offset="0.0000000"
         style="stop-color:#e3f9ff;stop-opacity:1.0000000;" />
      <stop
         id="stop867"
         offset="0.36194703"
         style="stop-color:#73bee7;stop-opacity:1.0000000;" />
      <stop
         id="stop856"
         offset="0.62534887"
         style="stop-color:#438ec5;stop-opacity:1.0000000;" />
      <stop
         id="stop1185"
         offset="0.72607356"
         style="stop-color:#477daf;stop-opacity:1.0000000;" />
      <stop
         id="stop855"
         offset="1.0000000"
         style="stop-color:#020407;stop-opacity:1.0000000;" />
    </linearGradient>
    <linearGradient
       id="linearGradient865">
      <stop
         id="stop866"
         offset="0.00000000"
         style="stop-color:#ffffff;stop-opacity:1.0000000;" />
      <stop
         id="stop868"
         offset="1.0000000"
         style="stop-color:#ffffff;stop-opacity:0.00000000;" />
    </linearGradient>
    <linearGradient
       id="linearGradient1012">
      <stop
         id="stop1013"
         offset="0.00000000"
         style="stop-color:#000000;stop-opacity:0.30578512;" />
      <stop
         id="stop1014"
         offset="1.0000000"
         style="stop-color:#000000;stop-opacity:0.00000000;" />
    </linearGradient>
    <linearGradient
       id="linearGradient1400">
      <stop
         id="stop1401"
         offset="0.0000000"
         style="stop-color:#000000;stop-opacity:0.67843139;" />
      <stop
         id="stop1403"
         offset="0.56999999"
         style="stop-color:#000000;stop-opacity:0.32941177;" />
      <stop
         id="stop1402"
         offset="1.0000000"
         style="stop-color:#000000;stop-opacity:0.00000000;" />
    </linearGradient>
  </defs>
  <sodipodi:namedview
     id="base"
     pagecolor="#ffffff"
     bordercolor="#666666"
     borderopacity="1.0"
     inkscape:pageopacity="0.0"
     inkscape:pageshadow="2"
     inkscape:zoom="1.0247524"
     inkscape:cx="94.830263"
     inkscape:cy="41.421728"
     inkscape:document-units="px"
     inkscape:current-layer="layer1"
     showguides="true"
     inkscape:guide-bbox="true"
     inkscape:window-width="848"
     inkscape:window-height="580"
     inkscape:window-x="107"
     inkscape:window-y="122" />
  <metadata
     id="metadata7">
    <rdf:RDF>
      <cc:Work
         rdf:about="">
        <dc:format>image/svg+xml</dc:format>
        <dc:type
           rdf:resource="http://purl.org/dc/dcmitype/StillImage" />
      </cc:Work>
    </rdf:RDF>
  </metadata>
  <g
     inkscape:label="Layer 1"
     inkscape:groupmode="layer"
     id="layer1">
    <g
       id="g1998"
       transform="matrix(0.843019,0,0,0.843019,-10.88836,-11.55138)">
      <path
         transform="matrix(-1,0,0,0.357895,161.108,96.53647)"
         d="M 148.27539 77.944687 A 68.379425 68.379425 0 1 1  11.516541,77.944687 A 68.379425 68.379425 0 1 1  148.27539 77.944687 z"
         sodipodi:ry="68.379425"
         sodipodi:rx="68.379425"
         sodipodi:cy="77.944687"
         sodipodi:cx="79.895966"
         id="path1399"
         style="fill:url(#radialGradient858);fill-opacity:0.75;fill-rule:evenodd;stroke-width:1pt"
         sodipodi:type="arc" />
      <path
         transform="matrix(-0.336366,0,0,0.336366,157.2323,-71.67147)"
         d="M 397.32047 453.50235 A 172.74803 172.74803 0 1 1  51.824402,453.50235 A 172.74803 172.74803 0 1 1  397.32047 453.50235 z"
         sodipodi:ry="172.74803"
         sodipodi:rx="172.74803"
         sodipodi:cy="453.50235"
         sodipodi:cx="224.57243"
         id="path825"
         style="fill:url(#radialGradient852);fill-opacity:0.75;fill-rule:evenodd;stroke-width:1pt"
         sodipodi:type="arc" />
      <path
         sodipodi:nodetypes="ccczcccczzzcccccccccczzccccczccccccccccc"
         id="path846"
         d="M 91.943952,117.03581 C 84.284948,116.14558 84.208775,103.18341 91.818157,102.13406 C 96.599089,104.82427 101.04008,93.47225 103.47933,98.001425 C 101.46447,106.5821 112.41127,104.63849 114.50196,98.047756 C 117.61058,92.729429 116.05304,102.64178 117.24512,104.75099 C 120.02733,111.58379 111.41514,121.13187 105.06556,115.35456 C 100.52481,111.3202 96.358469,115.6092 91.943952,117.03581 z M 107.96562,121.75473 C 108.73337,124.72183 110.29504,124.98857 111.31438,121.86045 C 112.33373,118.89716 108.50403,119.44698 107.96562,121.75473 L 107.96562,121.75473 z M 49.982818,49.898019 C 43.655723,56.167346 41.785373,65.217142 39.681498,73.532547 C 41.244204,79.400936 45.959036,85.379243 40.528646,90.739656 C 37.056888,98.284355 25.882221,93.537222 28.666759,85.864266 C 28.525698,76.774856 27.412827,67.147991 31.780795,58.780133 C 34.173431,53.459489 38.701923,47.054976 45.241382,47.663886 C 46.967169,48.047458 48.498636,48.977769 49.982818,49.898019 z M 63.969861,70.878579 C 63.520991,63.585781 71.486023,64.209955 69.689745,55.497672 C 69.383739,48.105074 53.957423,51.788244 58.475757,42.969966 C 62.681519,36.379187 62.179994,32.996192 72.708441,31.295418 C 83.236892,29.128411 94.500955,26.59429 112.20987,39.655553 C 129.45255,52.71682 97.869116,42.359213 94.081877,47.152489 C 88.00037,52.275154 90.741692,63.488265 83.648006,65.841017 C 77.517271,69.770768 78.005156,77.896163 76.981514,84.264163 C 78.201433,89.48267 94.349571,85.777467 86.798716,92.936879 C 79.120808,94.884994 73.973817,87.154879 68.635295,83.0774 C 65.930949,80.520251 64.418728,77.705144 63.969861,70.878579 z M 117.12062,60.155184 C 123.64113,59.737374 126.31665,67.218846 125.74247,72.648318 C 122.18974,78.571673 130.00939,84.08854 133.87428,78.002064 C 138.04082,70.641878 131.2442,61.431784 124.88064,57.533739 C 122.06655,55.040931 116.52299,55.381138 117.12062,60.155184 z M 52.780226,122.63065 C 60.971226,122.50696 69.238634,120.64731 77.379324,122.35821 C 80.555107,126.62592 89.510091,129.60995 89.629666,134.07166 C 83.307415,138.49216 75.097188,134.34045 68.494613,132.62732 C 63.2525,131.038 55.802757,132.14073 53.094065,126.24725 C 52.712428,125.09269 52.514066,123.83695 52.780226,122.63065 z "
         style="fill:#0e7a0c;fill-opacity:0.59375;fill-rule:evenodd;stroke-width:1pt" />
      <path
         sodipodi:nodetypes="ccc"
         id="path869"
         d="M 53.69763,127.55721 C 76.386868,154.80402 151.8581,127.20663 134.36941,73.222512 C 119.57207,54.431607 88.454721,68.12285 53.69763,127.55721 z "
         style="fill:url(#linearGradient870);fill-opacity:0.75;fill-rule:evenodd;stroke-width:1pt" />
      <path
         transform="matrix(-1,0,0,1,162.4241,0)"
         sodipodi:nodetypes="ccc"
         id="path863"
         d="M 66.012956,31.409303 C 91.447606,15.908323 143.19392,38.838783 135.60664,82.029373 C 125.33475,95.725223 106.73377,25.695983 66.012956,31.409303 z "
         style="fill:url(#linearGradient864);fill-opacity:0.75;fill-rule:evenodd;stroke-width:1pt" />
      <path
         transform="matrix(-0.84058,0,0,0.565217,123.6862,34.59566)"
         d="M 100.76968 31.15876 A 49.665058 49.665058 0 1 1  1.4395676,31.15876 A 49.665058 49.665058 0 1 1  100.76968 31.15876 z"
         sodipodi:ry="49.665058"
         sodipodi:rx="49.665058"
         sodipodi:cy="31.15876"
         sodipodi:cx="51.104626"
         id="path868"
         style="fill:url(#linearGradient1010);fill-opacity:0.75;fill-rule:evenodd;stroke-width:1pt"
         sodipodi:type="arc" />
      <path
         transform="matrix(-0.876812,0,0,0.688406,127.3373,81.86188)"
         d="M 100.76968 31.15876 A 49.665058 49.665058 0 1 1  1.4395676,31.15876 A 49.665058 49.665058 0 1 1  100.76968 31.15876 z"
         sodipodi:ry="49.665058"
         sodipodi:rx="49.665058"
         sodipodi:cy="31.15876"
         sodipodi:cx="51.104626"
         id="path884"
         style="fill:url(#linearGradient1011);fill-opacity:0.75;fill-rule:evenodd;stroke-width:1pt"
         sodipodi:type="arc" />
    </g>
    <g
       id="g3667"
       transform="matrix(1.294455,0,0,1.311613,-206.0301,-53.45615)">
      <path
         id="path2872"
         d="M 212.68808,71.640452 L 203.00058,86.452952 L 201.96933,87.765452 C 201.98223,87.812191 202.01805,87.874509 202.03183,87.921702 L 201.78183,88.296702 C 202.59429,91.109076 205.41726,94.580266 210.12558,97.140452 C 212.43862,98.503868 215.07527,99.688416 218.50058,100.26545 L 229.25058,83.890452 C 229.22744,83.886673 229.21115,83.894259 229.18808,83.890452 L 229.59433,83.265452 C 216.26427,81.10799 212.68808,71.640452 212.68808,71.640452 z M 233.00058,83.796702 L 221.93808,100.7342 C 222.00637,100.75083 222.05766,100.77976 222.12558,100.7967 L 222.09433,100.82795 C 230.95509,103.0438 236.64237,107.96181 239.65683,113.20295 L 250.90683,95.234202 L 251.06308,95.015452 C 251.06307,95.015452 250.06886,93.083946 247.37558,90.890452 C 244.60674,88.174735 240.11872,84.997013 233.00058,83.796702 z M 199.34433,91.796702 L 188.18808,108.8592 C 188.18808,108.8592 189.65453,113.26974 195.43808,116.82795 C 197.87586,118.42327 201.04006,119.84995 205.34433,120.70295 L 216.81308,102.6092 C 213.73848,101.96048 211.1082,101.16389 208.71933,100.26545 C 204.26084,98.015781 201.01619,94.995228 199.34433,91.796702 z M 219.87558,103.89045 L 208.84433,120.7342 L 208.28183,121.45295 C 215.87243,123.1287 220.38355,126.47365 223.09433,129.20295 C 225.17785,131.46091 226.18808,133.3592 226.18808,133.3592 L 226.31308,133.1717 C 226.31345,133.17244 226.34433,133.20295 226.34433,133.20295 L 228.18808,130.26545 L 237.46933,115.95295 C 235.21802,111.13371 229.58402,105.92511 219.87558,103.89045 z "
         style="fill:black;fill-opacity:0.172;fill-rule:evenodd;stroke-width:1pt" />
      <g
         transform="translate(0,1.889299)"
         id="g2856">
        <path
           sodipodi:nodetypes="ccccc"
           id="path1758"
           d="M 232.75069,80.229386 L 221.68131,97.162148 C 230.54617,99.321058 236.26292,104.08772 239.29054,109.14717 L 250.64863,91.647263 C 250.64863,91.647263 245.96507,82.457686 232.75069,80.229386 z "
           style="fill:#1da000;fill-opacity:1;fill-rule:evenodd;stroke-width:1pt" />
        <path
           sodipodi:nodetypes="ccccc"
           id="path1759"
           d="M 212.42496,68.0509 L 201.5296,84.717714 C 202.74758,88.933854 208.02642,94.822013 218.31645,96.519343 L 229.34835,79.676718 C 216.01829,77.519256 212.42496,68.0509 212.42496,68.0509 z "
           style="fill:#e00;fill-opacity:1;fill-rule:evenodd;stroke-width:1pt" />
        <path
           sodipodi:nodetypes="ccccc"
           id="path1760"
           d="M 199.10379,88.212087 L 187.93089,105.2921 C 187.93089,105.2921 190.70362,114.14762 204.85651,116.88714 L 216.27171,99.453262 C 207.46239,97.639357 201.63461,93.053924 199.10379,88.212087 z "
           style="fill:#2576ae;fill-opacity:1;fill-rule:evenodd;stroke-width:1pt" />
        <path
           sodipodi:nodetypes="ccccc"
           id="path1761"
           d="M 219.61155,100.31999 L 208.22937,117.72531 C 221.90664,120.67027 225.92651,129.7786 225.92651,129.7786 L 237.21632,112.3666 C 234.96502,107.54736 229.31999,102.35465 219.61155,100.31999 z "
           style="fill:#eed630;fill-opacity:1;fill-rule:evenodd;stroke-width:1pt" />
        <path
           sodipodi:nodetypes="ccccc"
           id="path1762"
           d="M 233.79729,81.681953 L 221.83567,97.234871 C 230.69642,99.450714 236.40132,104.38076 239.41578,109.6219 L 250.82371,91.434164 C 250.82371,91.434164 247.00821,83.957966 233.79729,81.681953 z "
           style="fill:url(#linearGradient1498);fill-rule:evenodd;stroke-width:1pt" />
        <path
           sodipodi:nodetypes="ccccc"
           id="path1763"
           d="M 219.84569,102.58866 L 208.02195,117.8717 C 221.69391,120.89 226.10276,129.63409 226.10276,129.63409 L 237.0292,112.23297 C 234.79056,107.23893 229.55051,104.67329 219.84569,102.58866 z "
           style="fill:url(#linearGradient1500);fill-rule:evenodd;stroke-width:1pt" />
        <path
           sodipodi:nodetypes="ccccc"
           id="path1764"
           d="M 212.09475,70.842601 L 201.72671,84.200796 C 202.93345,88.571896 207.96681,94.963536 218.25425,96.696586 L 228.99541,80.320253 C 218.14969,78.549078 214.84933,73.708063 212.09475,70.842601 z "
           style="fill:url(#linearGradient1502);fill-rule:evenodd;stroke-width:1pt" />
        <path
           sodipodi:nodetypes="ccccc"
           id="path1765"
           d="M 199.05667,89.556684 L 188.18986,105.15107 C 188.18986,105.15107 190.93906,114.33148 205.08728,117.13532 L 216.55215,99.015954 C 207.74602,97.157919 201.57482,94.573392 199.05667,89.556684 z "
           style="fill:url(#linearGradient1504);fill-rule:evenodd;stroke-width:1pt" />
        <path
           style="fill:url(#linearGradient1506);fill-opacity:0.75;fill-rule:evenodd;stroke-width:1pt"
           d="M 202.79044,84.066394 L 209.34544,74.063366 C 210.48758,72.320437 212.72583,70.616139 214.31812,72.945839 C 215.96633,75.357353 219.75426,78.689609 224.85956,79.310785 C 225.90784,81.160175 217.8924,93.880084 215.24615,93.688331 C 212.59991,93.496576 203.38489,88.099687 202.79044,84.066394 z "
           id="path1766"
           sodipodi:nodetypes="czzccc" />
        <path
           style="fill:url(#linearGradient1508);fill-opacity:0.75;fill-rule:evenodd;stroke-width:1pt"
           d="M 197.44038,92.780228 C 198.46059,91.277773 200.59726,91.703542 201.59937,92.490455 C 202.41203,93.128593 208.10422,98.577672 210.18372,98.432789 C 212.26321,98.287903 202.8586,113.86286 200.38068,113.38774 C 197.90275,112.91261 188.50024,106.02427 189.78288,104.63936 C 191.06553,103.25444 196.45578,94.230218 197.44038,92.780228 z "
           id="path1767"
           sodipodi:nodetypes="czcccz" />
        <path
           style="fill:url(#linearGradient1510);fill-opacity:0.75;fill-rule:evenodd;stroke-width:1pt"
           d="M 224.19333,95.634432 L 230.97719,85.0912 C 232.83545,82.203157 234.79334,81.421309 238.09309,82.638592 C 241.35831,83.843137 245.36671,86.049434 248.83833,89.563791 C 248.91065,91.450039 238.23474,103.75793 235.59218,102.73044 C 232.94963,101.70296 223.73232,96.228029 224.19333,95.634432 z "
           id="path1768"
           sodipodi:nodetypes="czzccc" />
        <path
           style="fill:url(#linearGradient1512);fill-opacity:0.75;fill-rule:evenodd;stroke-width:1pt"
           d="M 210.07839,116.5521 L 217.24157,105.39608 C 218.5475,103.36222 221.35028,101.63086 223.94455,102.63051 C 226.61251,103.65855 231.29312,105.232 233.09564,108.90948 C 234.89816,112.58696 228.926,119.54349 228.30598,119.94192 C 227.68597,120.34035 224.74144,124.26498 222.57884,123.51714 C 220.41624,122.76928 212.41143,114.94773 210.07839,116.5521 z "
           id="path1769"
           sodipodi:nodetypes="czzcccc" />
      </g>
    </g>
  </g>
</svg>
