/* XPM */
static char * logo_xpm[] = {
"32 32 204 2",
"  	c None",
". 	c #000000",
"+ 	c #160F00",
"@ 	c #624400",
"# 	c #9D6E00",
"$ 	c #C68A00",
"% 	c #DC9900",
"& 	c #E09C00",
"* 	c #D19200",
"= 	c #B17C00",
"- 	c #7E5800",
"; 	c #362600",
"> 	c #010100",
", 	c #2E2000",
"' 	c #AA7700",
") 	c #FAAF00",
"! 	c #FFB200",
"~ 	c #D89700",
"{ 	c #654600",
"] 	c #040300",
"^ 	c #0A0700",
"/ 	c #916500",
"( 	c #FCB000",
"_ 	c #D29300",
": 	c #332300",
"< 	c #1B1300",
"[ 	c #CE9000",
"} 	c #F2AE12",
"| 	c #DFA92C",
"1 	c #F8B00A",
"2 	c #F8AD00",
"3 	c #5E4200",
"4 	c #1A1200",
"5 	c #DC9A00",
"6 	c #E1AA2A",
"7 	c #B29C6A",
"8 	c #D0A540",
"9 	c #948155",
"0 	c #C88E0A",
"a 	c #FEB100",
"b 	c #664700",
"c 	c #080600",
"d 	c #CC8F00",
"e 	c #FEB201",
"f 	c #AE9B70",
"g 	c #FBB105",
"h 	c #EBA400",
"i 	c #EAA70B",
"j 	c #453000",
"k 	c #8C6200",
"l 	c #F4AF0F",
"m 	c #BD9F5C",
"n 	c #E7A100",
"o 	c #120D00",
"p 	c #291C00",
"q 	c #FBAF00",
"r 	c #F9B009",
"s 	c #B89E62",
"t 	c #D4970A",
"u 	c #916600",
"v 	c #A27100",
"w 	c #AC9B73",
"x 	c #906E1D",
"y 	c #D0A440",
"z 	c #F7AD00",
"A 	c #171000",
"B 	c #0F0B00",
"C 	c #F7AC00",
"D 	c #A09783",
"E 	c #AF9C6F",
"F 	c #745100",
"G 	c #563C00",
"H 	c #EDAD19",
"I 	c #BB9F5E",
"J 	c #CFA542",
"K 	c #FFB201",
"L 	c #FDB103",
"M 	c #C38800",
"N 	c #B59D66",
"O 	c #EDAD18",
"P 	c #C5A250",
"Q 	c #CBA348",
"R 	c #D9A734",
"S 	c #E7AB21",
"T 	c #B39D69",
"U 	c #DDA830",
"V 	c #060400",
"W 	c #B88100",
"X 	c #FCB104",
"Y 	c #D7A738",
"Z 	c #F7B00B",
"` 	c #B99E60",
" .	c #D5A63A",
"..	c #D3A63D",
"+.	c #CAA34A",
"@.	c #CEA443",
"#.	c #F1AE14",
"$.	c #261B00",
"%.	c #CD8F00",
"&.	c #CA8D00",
"*.	c #AB9666",
"=.	c #DEA92E",
"-.	c #F9B008",
";.	c #AF9C6E",
">.	c #E8AC1F",
",.	c #3B2900",
"'.	c #D09100",
").	c #A17100",
"!.	c #483D25",
"~.	c #928056",
"{.	c #C28E16",
"].	c #7F5900",
"^.	c #1E1500",
"/.	c #CF9205",
"(.	c #B99E61",
"_.	c #E5AB24",
":.	c #3E2B00",
"<.	c #C08600",
"[.	c #755201",
"}.	c #838383",
"|.	c #828282",
"1.	c #888786",
"2.	c #463610",
"3.	c #4F3700",
"4.	c #956800",
"5.	c #F1A800",
"6.	c #765200",
"7.	c #503800",
"8.	c #ECA400",
"9.	c #7A5501",
"0.	c #967527",
"a.	c #9F6F00",
"b.	c #4D4940",
"c.	c #8B8B8B",
"d.	c #696969",
"e.	c #78653A",
"f.	c #B57F00",
"g.	c #634500",
"h.	c #9A6B00",
"i.	c #604300",
"j.	c #BF8500",
"k.	c #251A00",
"l.	c #F2A900",
"m.	c #0E0A00",
"n.	c #6A4A00",
"o.	c #BE8400",
"p.	c #433D30",
"q.	c #636363",
"r.	c #4B3910",
"s.	c #402D00",
"t.	c #030200",
"u.	c #513900",
"v.	c #1F1500",
"w.	c #C28800",
"x.	c #D79600",
"y.	c #221800",
"z.	c #FEB200",
"A.	c #EDA500",
"B.	c #090600",
"C.	c #302200",
"D.	c #8F6400",
"E.	c #C18700",
"F.	c #8E6300",
"G.	c #5F4300",
"H.	c #986A00",
"I.	c #785300",
"J.	c #463100",
"K.	c #312200",
"L.	c #4D3600",
"M.	c #412E00",
"N.	c #4E3600",
"O.	c #BA8200",
"P.	c #BD8400",
"Q.	c #845C00",
"R.	c #644600",
"S.	c #DA9800",
"T.	c #261A00",
"U.	c #2F2100",
"V.	c #211700",
"W.	c #EFA700",
"X.	c #F5AB00",
"Y.	c #765300",
"Z.	c #9B6C00",
"`.	c #342500",
" +	c #7D5700",
".+	c #F9AE00",
"++	c #EEA600",
"@+	c #704E00",
"#+	c #513800",
"$+	c #020100",
"%+	c #4C3500",
"&+	c #A97600",
"*+	c #795500",
"=+	c #B37D00",
"-+	c #2B1E00",
";+	c #0B0800",
">+	c #5F4200",
",+	c #AF7A00",
"'+	c #CB8E00",
")+	c #281C00",
"!+	c #150E00",
"~+	c #2A1E00",
"{+	c #201600",
"]+	c #050400",
"                                                                ",
"                          . . . . . . .                         ",
"                    . + @ # $ % & * = - ; > .                   ",
"                . , ' ) ! ! ! ! ! ! ! ! ! ~ { ]                 ",
"              ^ / ( ! ! ! ! ! ! ! ! ! ! ! ! ! _ : .             ",
"            < [ ! ! ! ! ! ! ! ! ! ! ! } | 1 ! ! 2 3 .           ",
"          4 5 ! ! ! ! ! ! ! ! ! ! ! 6 7 8 9 0 ! ! a b .         ",
"        c d ! ! ! ! ! ! ! ! ! ! ! e f g ! h i ! ! ! ( j .       ",
"      . k ! ! ! ! ! ! ! ! ! ! ! ! l m ! ! ! ! ! ! ! ! n o       ",
"      p q ! ! ! ! ! ! ! ! ! ! ! ! r s ! ! ! ! ! ! t ! ! u .     ",
"    . v ! ! ! ! ! ! ! ! ! ! ! ! ! ! w ! ! ! ! ! ! x y ! z A     ",
"    B C ! ! ! ! ! ! ! ! ! ! ! ! ! ! D 1 ! ! ! ! ! ! E ! ! F .   ",
"    G ! ! ! ! ! ! ! ! ! ! ! ! ! ! H I J K ! ! ! ! L f ! ! M .   ",
"  . / ! ! ! ! ! ! ! ! ! ! ! ! ! e N O l P Q R S 6 T U ! ! 2 V   ",
"  . W ! ! ! ! ! ! ! ! ! ! ! ! X I Y Z ` I  ...+.@.#.! ! ! ! $.  ",
"  . %.! ! ! ! ! ! ! ! ! ! ! &.*.=.-.;.>.! ! ! ! ! ! ! ! ! ! ,.  ",
"  . '.).!.~.{.! ! ! ! ! q ].^./.! (._.! ! ! ! ! ! ! ! ! ! ! :.  ",
"  . <.[.}.|.1.2.3.4.5.! 6.7.8.! 9.0.! ! ! ! ! ! ! ! ! ! ! ! ,   ",
"  . a.5 b.c.d.e.f.g.4 h.].i.! j.k.l.! ! ! ! ! ! ! ! ! ! ! a m.  ",
"  . n.! o.p.q.r.! ! 5 s.; t.u.v.w.! ! ! ! ! ! ! ! ! ! ! ! x..   ",
"    y.z.! A.a._ ! ! ! _ B.C.D.E.! ! ! ! ! ! ! ! ! ! ! ! ! F..   ",
"    . M ! ! ! ! ! ! ! G.H.I.J.( ! ! ! ! ! ! ! ! ! ! ! ! ! K.    ",
"      L.! ! ! ! ! ! ! M.$ a N.F.! ! ! ! ! ! ! ! ! ! ! ! O..     ",
"      . P.! ! ! ! ! ! Q.R.! S.T.! ! ! ! ! ! ! ! ! ! ! q U.      ",
"        V.W.! ! ! ! ! X.K.Y.Z.`.! ! ! ! ! ! ! ! ! ! !  +.       ",
"        . J..+! ! ! ! ! ++@+#+'.! ! ! ! ! ! ! ! ! ! ' $+        ",
"          . %+X.! ! ! ! ! ! ! ! ! ! ! ! ! ! ! ! ! &+V           ",
"            . C.x.! ! ! ! ! ! ! ! ! ! ! ! ! ! .+*+$+            ",
"                c *+A.! ! ! ! ! ! ! ! ! ! a =+-+.               ",
"                  . ;+>+,+h ! ! ! ! .+'+Q.)+.                   ",
"                      . . . !+~+, {+]+. .                       ",
"                                                                "};
