<?xml version="1.0" encoding="UTF-8" standalone="no"?>
<!-- Created with Inkscape (http://www.inkscape.org/) -->

<svg
   xmlns:dc="http://purl.org/dc/elements/1.1/"
   xmlns:cc="http://creativecommons.org/ns#"
   xmlns:rdf="http://www.w3.org/1999/02/22-rdf-syntax-ns#"
   xmlns:svg="http://www.w3.org/2000/svg"
   xmlns="http://www.w3.org/2000/svg"
   xmlns:xlink="http://www.w3.org/1999/xlink"
   xmlns:sodipodi="http://sodipodi.sourceforge.net/DTD/sodipodi-0.dtd"
   xmlns:inkscape="http://www.inkscape.org/namespaces/inkscape"
   id="svg3066"
   version="1.1"
   inkscape:version="0.47 r22583"
   width="256"
   height="256"
   sodipodi:docname="archpkg-gnome.svg">
  <metadata
     id="metadata3072">
    <rdf:RDF>
      <cc:Work
         rdf:about="">
        <dc:format>image/svg+xml</dc:format>
        <dc:type
           rdf:resource="http://purl.org/dc/dcmitype/StillImage" />
        <dc:title></dc:title>
      </cc:Work>
    </rdf:RDF>
  </metadata>
  <defs
     id="defs3070">
    <inkscape:perspective
       sodipodi:type="inkscape:persp3d"
       inkscape:vp_x="0 : 0.5 : 1"
       inkscape:vp_y="0 : 1000 : 0"
       inkscape:vp_z="1 : 0.5 : 1"
       inkscape:persp3d-origin="0.5 : 0.33333333 : 1"
       id="perspective3074" />
    <inkscape:perspective
       id="perspective3086"
       inkscape:persp3d-origin="0.5 : 0.33333333 : 1"
       inkscape:vp_z="1 : 0.5 : 1"
       inkscape:vp_y="0 : 1000 : 0"
       inkscape:vp_x="0 : 0.5 : 1"
       sodipodi:type="inkscape:persp3d" />
    <linearGradient
       y2="303.14029"
       x2="606.91248"
       y1="104.50665"
       x1="541.33502"
       gradientTransform="matrix(-0.3937741,0,0,0.393752,978.34967,416.9815)"
       gradientUnits="userSpaceOnUse"
       id="linearGradient2190"
       xlink:href="#path1082_2_"
       inkscape:collect="always" />
    <linearGradient
       gradientTransform="translate(287,-83)"
       x1="112.49854"
       y1="6.1372099"
       x2="112.49853"
       y2="129.3468"
       id="path1082_2_"
       gradientUnits="userSpaceOnUse">
      <stop
         style="stop-color:#ffffff;stop-opacity:0"
         offset="0"
         id="stop193" />
      <stop
         style="stop-color:#ffffff;stop-opacity:0.27450982;"
         offset="1"
         id="stop195" />
      <midPointStop
         offset="0"
         style="stop-color:#FFFFFF"
         id="midPointStop197" />
      <midPointStop
         offset="0.5"
         style="stop-color:#FFFFFF"
         id="midPointStop199" />
      <midPointStop
         offset="1"
         style="stop-color:#000000"
         id="midPointStop201" />
    </linearGradient>
  </defs>
  <sodipodi:namedview
     pagecolor="#ffffff"
     bordercolor="#666666"
     borderopacity="1"
     objecttolerance="10"
     gridtolerance="10"
     guidetolerance="10"
     inkscape:pageopacity="0"
     inkscape:pageshadow="2"
     inkscape:window-width="640"
     inkscape:window-height="483"
     id="namedview3068"
     showgrid="false"
     inkscape:zoom="0.92578125"
     inkscape:cx="128"
     inkscape:cy="123.67932"
     inkscape:window-x="294"
     inkscape:window-y="278"
     inkscape:window-maximized="0"
     inkscape:current-layer="svg3066" />
  <image
     xlink:href="file:///usr/share/icons/gnome/256x256/mimetypes/deb.png"
     width="243.2"
     height="243.2"
     id="image3076"
     x="6.4000001"
     y="6.4000001" />
  <g
     transform="matrix(2.254,0,0,2.254,-695.90669,-545.508)"
     id="g2932"
     inkscape:label="Layer 1">
    <g
       transform="matrix(1.8496673,0,0,1.8496673,-965.2056,-767.48504)"
       id="g2424">
      <g
         transform="matrix(0.125,0,0,0.125,615.71887,519.21715)"
         id="g2210">
        <path
           sodipodi:nodetypes="ccccccccsscccccc"
           id="path2518"
           d="m 764.75015,435.62318 c -8.45709,20.73453 -12.61263,32.84766 -22.02849,52.96583 5.77311,6.11949 11.88892,14.68864 23.3969,22.73729 -9.9239,-0.68414 -21.78549,-8.23048 -28.09236,-13.53452 -12.0505,25.14524 -29.96311,58.99083 -68.27605,127.8314 30.10513,-17.38022 53.44314,-28.10046 75.19287,-32.19238 -0.93052,-4.01105 -1.4276,-8.37004 -1.3916,-12.89551 l 0.0232,-0.95093 c 0.47782,-19.29241 10.51631,-34.12744 22.40479,-33.12012 11.88847,1.00732 21.14309,17.46907 20.66528,36.76148 -0.09,3.63391 -0.51248,7.12561 -1.22925,10.36743 21.51567,4.21055 44.63358,14.88303 74.33472,32.03003 -5.85729,-10.7837 -11.1035,-18.54045 -16.09619,-27.79843 -7.86429,-6.09536 -14.10453,-11.57713 -32.79541,-24.57218 11.50079,2.98838 18.27457,3.99574 24.69313,7.84955 -50.76203,-94.51003 -53.3941,-104.62866 -70.80153,-145.47894 z"
           style="fill:#1793d1;fill-opacity:1;fill-rule:evenodd;stroke:none" />
        <path
           sodipodi:nodetypes="ccc"
           id="path2522"
           d="M 818.22607,548.55277 C 777.04464,492.65769 767.49922,447.60796 765.0814,436.85262 c 21.96737,50.6686 21.81733,51.28995 53.14467,111.70015 z"
           style="fill:#ffffff;fill-opacity:0.16568047;fill-rule:evenodd;stroke:none" />
        <path
           id="path2520"
           d="m 765.12124,436.55089 c -1.0399,2.55654 -2.19238,5.05885 -3.1543,7.42188 -1.08115,2.65585 -2.13247,5.1217 -3.1543,7.60742 -1.02175,2.48575 -1.96482,5.02753 -2.96875,7.42187 -1.00399,2.39446 -1.9411,4.66893 -2.96875,7.05079 -1.02758,2.38177 -2.06156,4.78844 -3.1543,7.23632 -0.22169,0.52026 -0.51535,0.95734 -0.74218,1.48438 -0.89081,1.98163 -1.82121,4.04322 -2.78321,6.12305 -1.12925,2.52711 -2.21921,4.8166 -3.52539,7.60742 5.77311,6.11949 11.87093,14.77361 23.37891,22.82226 -9.9239,-0.68414 -21.71071,-8.24088 -28.01758,-13.54492 -1.53692,3.11872 -3.05623,6.51991 -4.82422,10.01953 -1.06556,2.10926 -2.3638,4.40907 -3.52539,6.67969 -0.75637,1.49896 -1.23801,2.694 -2.04101,4.26758 -0.0406,0.0788 -0.14484,0.10655 -0.18555,0.18555 -1.02029,1.97965 -4.2749,8.13046 -7.60742,14.47265 -2.4992,4.76903 -4.8528,9.34438 -7.79297,14.84375 24.06038,-13.57295 50.09779,-32.97077 97.22656,-16.14258 -2.36708,-4.48319 -4.45041,-8.66436 -6.49414,-12.61718 -2.0437,-3.95294 -3.98885,-7.63232 -5.75195,-11.13282 -1.76296,-3.50043 -3.48489,-6.89347 -5.00977,-10.01953 -1.52486,-3.12599 -2.93832,-6.07649 -4.26758,-8.90625 -1.32932,-2.8297 -2.53467,-5.36708 -3.71093,-7.97851 -1.17634,-2.6114 -2.27389,-5.13636 -3.33985,-7.60742 -1.06607,-2.4712 -1.97061,-5.01315 -2.96875,-7.42188 -0.56287,-1.35825 -1.11805,-2.72415 -1.66992,-4.08203 -0.41001,-0.9604 -0.88887,-2.18761 -1.29883,-3.1543 -2.95741,-6.97363 -6.01091,-14.08661 -9.64843,-22.63672 z"
           style="fill:url(#linearGradient2190);fill-opacity:1;fill-rule:evenodd;stroke:none" />
      </g>
    </g>
    <text
       xml:space="preserve"
       style="font-size:18.59000015px;font-style:normal;font-weight:bold;fill:#1793d1;fill-opacity:1;stroke:none;font-family:Bitstream Vera Sans;-inkscape-font-specification:Sans Bold"
       x="363.1713"
       y="308.8262"
       id="text2449"><tspan
         sodipodi:role="line"
         id="tspan2451"
         x="363.1713"
         y="308.8262">pkg</tspan></text>
  </g>
</svg>
