<?xml version="1.0" encoding="UTF-8" standalone="no"?>
<!-- Created with Inkscape (http://www.inkscape.org/) -->

<svg
   xmlns:dc="http://purl.org/dc/elements/1.1/"
   xmlns:cc="http://creativecommons.org/ns#"
   xmlns:rdf="http://www.w3.org/1999/02/22-rdf-syntax-ns#"
   xmlns:svg="http://www.w3.org/2000/svg"
   xmlns="http://www.w3.org/2000/svg"
   xmlns:xlink="http://www.w3.org/1999/xlink"
   xmlns:sodipodi="http://sodipodi.sourceforge.net/DTD/sodipodi-0.dtd"
   xmlns:inkscape="http://www.inkscape.org/namespaces/inkscape"
   width="128"
   height="128"
   id="svg2424"
   sodipodi:version="0.32"
   inkscape:version="0.47 r22583"
   version="1.0"
   sodipodi:docname="archpkg.svg"
   inkscape:output_extension="org.inkscape.output.svg.inkscape"
   inkscape:export-filename="/home/thayer/archlinux-logo-contest/archer-full-detail.png"
   inkscape:export-xdpi="90"
   inkscape:export-ydpi="90">
  <defs
     id="defs2426">
    <inkscape:perspective
       sodipodi:type="inkscape:persp3d"
       inkscape:vp_x="0 : 64 : 1"
       inkscape:vp_y="0 : 1000 : 0"
       inkscape:vp_z="128 : 64 : 1"
       inkscape:persp3d-origin="64 : 42.666667 : 1"
       id="perspective6755" />
    <linearGradient
       inkscape:collect="always"
       xlink:href="#path1082_2_"
       id="linearGradient2191"
       gradientUnits="userSpaceOnUse"
       gradientTransform="matrix(-0.3553811,0,0,0.3553612,957.52371,433.99907)"
       x1="541.33502"
       y1="104.50665"
       x2="606.91248"
       y2="303.14029" />
    <linearGradient
       gradientUnits="userSpaceOnUse"
       id="path1082_2_"
       y2="129.3468"
       x2="112.49853"
       y1="6.1372099"
       x1="112.49854"
       gradientTransform="translate(287,-83)">
      <stop
         id="stop193"
         offset="0"
         style="stop-color:#ffffff;stop-opacity:0" />
      <stop
         id="stop195"
         offset="1"
         style="stop-color:#ffffff;stop-opacity:0.27450982;" />
      <midPointStop
         id="midPointStop197"
         style="stop-color:#FFFFFF"
         offset="0" />
      <midPointStop
         id="midPointStop199"
         style="stop-color:#FFFFFF"
         offset="0.5" />
      <midPointStop
         id="midPointStop201"
         style="stop-color:#000000"
         offset="1" />
    </linearGradient>
    <linearGradient
       id="linearGradient3388">
      <stop
         style="stop-color:#000000;stop-opacity:0;"
         offset="0"
         id="stop3390" />
      <stop
         style="stop-color:#000000;stop-opacity:0.37113401;"
         offset="1"
         id="stop3392" />
    </linearGradient>
    <linearGradient
       inkscape:collect="always"
       id="linearGradient4346">
      <stop
         style="stop-color:#00bdec;stop-opacity:1"
         offset="0"
         id="stop4348" />
      <stop
         style="stop-color:#40bfde;stop-opacity:1"
         offset="1"
         id="stop4350" />
    </linearGradient>
    <linearGradient
       inkscape:collect="always"
       xlink:href="#linearGradient4346"
       id="linearGradient4352"
       x1="400.6142"
       y1="634.15063"
       x2="616.48553"
       y2="666.97791"
       gradientUnits="userSpaceOnUse" />
    <linearGradient
       inkscape:collect="always"
       id="linearGradient5323">
      <stop
         style="stop-color:#6e6e6e;stop-opacity:1"
         offset="0"
         id="stop5325" />
      <stop
         style="stop-color:#4d4d4d;stop-opacity:1"
         offset="1"
         id="stop5327" />
    </linearGradient>
    <linearGradient
       inkscape:collect="always"
       xlink:href="#linearGradient5323"
       id="linearGradient5329"
       x1="291.83591"
       y1="238.08237"
       x2="650.81366"
       y2="348.96875"
       gradientUnits="userSpaceOnUse" />
    <linearGradient
       inkscape:collect="always"
       xlink:href="#path1082_2_"
       id="linearGradient2216"
       gradientUnits="userSpaceOnUse"
       gradientTransform="matrix(-0.3937741,0,0,0.393752,978.34967,416.9815)"
       x1="541.33502"
       y1="104.50665"
       x2="606.91248"
       y2="303.14029" />
  </defs>
  <sodipodi:namedview
     id="base"
     pagecolor="#ffffff"
     bordercolor="#666666"
     borderopacity="1.0"
     gridtolerance="10000"
     guidetolerance="10"
     objecttolerance="10"
     inkscape:pageopacity="0.0"
     inkscape:pageshadow="2"
     inkscape:zoom="2"
     inkscape:cx="64"
     inkscape:cy="63"
     inkscape:document-units="px"
     inkscape:current-layer="g2210"
     inkscape:window-width="641"
     inkscape:window-height="715"
     inkscape:window-x="329"
     inkscape:window-y="348"
     showgrid="false"
     inkscape:window-maximized="0" />
  <metadata
     id="metadata2429">
    <rdf:RDF>
      <cc:Work
         rdf:about="">
        <dc:format>image/svg+xml</dc:format>
        <dc:type
           rdf:resource="http://purl.org/dc/dcmitype/StillImage" />
      </cc:Work>
    </rdf:RDF>
  </metadata>
  <g
     inkscape:label="Layer 1"
     inkscape:groupmode="layer"
     id="layer1"
     transform="translate(-269.51782,-201.60125)">
    <g
       id="g2424"
       transform="matrix(1.3473684,0,0,1.3473684,-632.88236,-513.34366)">
      <g
         id="g2210"
         transform="matrix(0.5,0,0,0.5,334.87507,312.81159)">
        <path
           style="fill:#1793d1;fill-opacity:1;fill-rule:evenodd;stroke:none;stroke-width:1;stroke-linecap:round;stroke-linejoin:round;stroke-miterlimit:10;stroke-dasharray:none;stroke-opacity:1"
           d="M 764.75015,450.82318 C 757.11762,469.53609 752.48341,481.79395 743.9856,499.9506 C 749.19583,505.47344 755.59919,511.88134 765.98514,519.14525 C 754.81922,514.55054 747.20757,509.94956 741.51562,505.16267 C 730.64005,527.85624 713.59008,560.16957 679.01265,622.29818 C 706.18254,606.61253 727.24508,596.93751 746.87422,593.24456 C 746.03442,589.62459 745.58581,585.6906 745.6183,581.60636 L 745.63923,580.74814 C 746.07045,563.33675 755.13019,549.94813 765.85955,550.85724 C 776.58889,551.76634 784.94119,566.62308 784.50996,584.03447 C 784.42874,587.31408 784.04745,590.46533 783.40057,593.39108 C 802.81846,597.1911 823.68237,606.82301 850.48765,622.29818 C 845.20144,612.56589 840.46674,603.79775 835.96084,595.44241 C 828.86332,589.94136 821.46383,582.78446 806.36298,575.0337 C 816.74244,577.73073 824.18153,580.84946 829.97428,584.32752 C 784.16156,499.03221 780.46036,487.69056 764.75015,450.82318 z"
           id="path2518" />
        <path
           style="fill:#ffffff;fill-opacity:0.16568047;fill-rule:evenodd;stroke:none;stroke-width:36.09999847;stroke-linecap:butt;stroke-linejoin:round;stroke-miterlimit:10;stroke-opacity:1"
           d="M 813.01216,552.74213 C 775.84593,502.29682 767.23119,461.63944 765.04911,451.93275 C 784.87466,497.66116 784.73924,498.22193 813.01216,552.74213 z"
           id="path2522"
           sodipodi:nodetypes="ccc" />
        <path
           style="fill:url(#linearGradient2191);fill-opacity:1;fill-rule:evenodd;stroke:none;stroke-width:0.71416688;stroke-linecap:round;stroke-linejoin:round;stroke-miterlimit:10;stroke-dasharray:none;stroke-opacity:1"
           d="M 765.08506,451.57674 C 764.13467,453.91316 763.20024,456.15945 762.32204,458.31685 C 761.3463,460.71375 760.39749,463.02291 759.47528,465.26628 C 758.55316,467.50966 757.66017,469.71989 756.75412,471.88078 C 755.84802,474.04179 754.91855,476.17821 753.9911,478.32785 C 753.06371,480.47739 752.13054,482.60756 751.14434,484.81676 C 750.15816,487.02606 749.12875,489.3006 748.0464,491.6406 C 746.96397,493.98063 745.82949,496.3832 744.61356,498.92494 C 744.44789,499.27124 744.23787,499.66261 744.06932,500.0134 C 749.26565,505.51772 755.67127,511.91713 766.00607,519.14526 C 754.86892,514.56238 747.24465,509.97815 741.55749,505.20454 C 741.26386,505.80395 741.02266,506.34913 740.7202,506.96283 C 739.60536,509.22507 738.36709,511.68367 737.1199,514.16344 C 736.81535,514.76897 736.55391,515.30186 736.24075,515.92173 C 736.09938,516.20544 735.92351,516.51413 735.78025,516.80087 C 730.8939,526.58101 724.88243,538.20676 717.19263,552.59461 C 738.92542,540.34349 762.40507,522.73952 804.98146,537.9422 C 802.84518,533.89612 800.88124,530.08075 799.03678,526.51333 C 797.19234,522.94579 795.47871,519.62516 793.88751,516.46597 C 792.29644,513.30683 790.82612,510.32833 789.44992,507.50707 C 788.07373,504.68586 786.79808,502.02303 785.59843,499.46917 C 784.39871,496.91537 783.26902,494.45792 782.20745,492.10111 C 781.1458,489.74432 780.15526,487.46554 779.19324,485.23541 C 778.23111,483.00515 777.28917,480.83663 776.38834,478.66276 C 775.48744,476.48882 774.62895,474.32013 773.75092,472.13197 C 773.40362,471.26668 773.05221,470.36973 772.70431,469.49454 C 770.3342,463.92812 767.89433,458.17612 765.08506,451.57674 z"
           id="path2520" />
        <text
           xml:space="preserve"
           style="font-size:41.6083107px;font-style:normal;font-weight:bold;fill:#1793d1;fill-opacity:1;stroke:none;font-family:Bitstream Vera Sans;-inkscape-font-specification:Sans Bold"
           x="771.76807"
           y="469.89441"
           id="text6757"><tspan
             sodipodi:role="line"
             id="tspan6759"
             x="771.76807"
             y="469.89441">pkg</tspan></text>
      </g>
    </g>
  </g>
</svg>
