<?xml version="1.0" encoding="UTF-8" standalone="no"?>
<!-- Created with Inkscape (http://www.inkscape.org/) -->
<svg
   xmlns:dc="http://purl.org/dc/elements/1.1/"
   xmlns:cc="http://creativecommons.org/ns#"
   xmlns:rdf="http://www.w3.org/1999/02/22-rdf-syntax-ns#"
   xmlns:svg="http://www.w3.org/2000/svg"
   xmlns="http://www.w3.org/2000/svg"
   xmlns:xlink="http://www.w3.org/1999/xlink"
   xmlns:sodipodi="http://sodipodi.sourceforge.net/DTD/sodipodi-0.dtd"
   xmlns:inkscape="http://www.inkscape.org/namespaces/inkscape"
   width="128"
   height="128"
   id="svg2334"
   sodipodi:version="0.32"
   inkscape:version="0.46"
   version="1.0"
   sodipodi:docname="archpkg-oxy.svg"
   inkscape:output_extension="org.inkscape.output.svg.inkscape"
   sodipodi:docbase="/home/david/sandbox">
  <defs
     id="defs2336">
    <inkscape:perspective
       sodipodi:type="inkscape:persp3d"
       inkscape:vp_x="0 : 64 : 1"
       inkscape:vp_y="0 : 1000 : 0"
       inkscape:vp_z="128 : 64 : 1"
       inkscape:persp3d-origin="64 : 42.666667 : 1"
       id="perspective250" />
    <linearGradient
       inkscape:collect="always"
       id="linearGradient2905">
      <stop
         style="stop-color:#000000;stop-opacity:1;"
         offset="0"
         id="stop2907" />
      <stop
         style="stop-color:#000000;stop-opacity:0;"
         offset="1"
         id="stop2909" />
    </linearGradient>
    <linearGradient
       y2="0.2393"
       x2="52.25"
       y1="47.2471"
       x1="52.25"
       gradientUnits="userSpaceOnUse"
       id="linearGradient3412">
      <stop
         id="stop3414"
         style="stop-color:#DDCC9D"
         offset="0" />
      <stop
         id="stop3416"
         style="stop-color:#DAC793"
         offset="0.1841" />
      <stop
         id="stop3418"
         style="stop-color:#D5BF84"
         offset="0.41502863" />
      <stop
         id="stop3420"
         style="stop-color:#D6C087"
         offset="0.43733528" />
      <stop
         id="stop3422"
         style="stop-color:#D9C58F"
         offset="0.44797528" />
      <stop
         id="stop3424"
         style="stop-color:#DECD9E"
         offset="0.45710954" />
      <stop
         id="stop3426"
         style="stop-color:#E5D7B3"
         offset="0.46575475" />
      <stop
         id="stop3430"
         style="stop-color:#F9F7EF"
         offset="0.4859" />
      <stop
         id="stop3432"
         style="stop-color:#FFFFFF"
         offset="0.4911" />
      <stop
         id="stop3434"
         style="stop-color:#FBF9F4"
         offset="0.4918" />
      <stop
         id="stop3436"
         style="stop-color:#EFE7D0"
         offset="0.4946" />
      <stop
         id="stop3438"
         style="stop-color:#E4D6B0"
         offset="0.4977" />
      <stop
         id="stop3440"
         style="stop-color:#DAC894"
         offset="0.5011" />
      <stop
         id="stop3442"
         style="stop-color:#D3BC7E"
         offset="0.5049" />
      <stop
         id="stop3444"
         style="stop-color:#CDB46D"
         offset="0.5094" />
      <stop
         id="stop3446"
         style="stop-color:#C9AD62"
         offset="0.515" />
      <stop
         id="stop3448"
         style="stop-color:#C7AA5B"
         offset="0.5227" />
      <stop
         id="stop3450"
         style="stop-color:#C6A959"
         offset="0.5444" />
      <stop
         id="stop3452"
         style="stop-color:#CDB46D"
         offset="0.716" />
      <stop
         id="stop3454"
         style="stop-color:#D2BB7B"
         offset="1" />
    </linearGradient>
    <linearGradient
       inkscape:collect="always"
       id="linearGradient3329">
      <stop
         style="stop-color:#000000;stop-opacity:1;"
         offset="0"
         id="stop3331" />
      <stop
         style="stop-color:#000000;stop-opacity:0;"
         offset="1"
         id="stop3333" />
    </linearGradient>
    <linearGradient
       inkscape:collect="always"
       id="linearGradient3319">
      <stop
         style="stop-color:#000000;stop-opacity:1;"
         offset="0"
         id="stop3321" />
      <stop
         style="stop-color:#000000;stop-opacity:0;"
         offset="1"
         id="stop3323" />
    </linearGradient>
    <clipPath
       id="XMLID_27_">
      <use
         xlink:href="#XMLID_13_"
         id="use189" />
    </clipPath>
    <linearGradient
       id="XMLID_26_"
       gradientUnits="userSpaceOnUse"
       x1="0.6016"
       y1="60.5801"
       x2="1.1021"
       y2="60.5801">
      <stop
         offset="0"
         style="stop-color:#544C3E"
         id="stop175" />
      <stop
         offset="1"
         style="stop-color:#000000"
         id="stop177" />
    </linearGradient>
    <linearGradient
       id="XMLID_25_"
       gradientUnits="userSpaceOnUse"
       x1="2.1997"
       y1="60.7158"
       x2="3.198"
       y2="60.6601">
      <stop
         offset="0"
         style="stop-color:#B39E7C"
         id="stop168" />
      <stop
         offset="1"
         style="stop-color:#544C3E"
         id="stop170" />
    </linearGradient>
    <linearGradient
       id="XMLID_24_"
       gradientUnits="userSpaceOnUse"
       x1="103.8984"
       y1="60.5801"
       x2="103.3984"
       y2="60.5801">
      <stop
         offset="0"
         style="stop-color:#544C3E"
         id="stop151" />
      <stop
         offset="0.2162"
         style="stop-color:#50483B"
         id="stop153" />
      <stop
         offset="0.4356"
         style="stop-color:#443D32"
         id="stop155" />
      <stop
         offset="0.6567"
         style="stop-color:#2F2B23"
         id="stop157" />
      <stop
         offset="0.8775"
         style="stop-color:#13110E"
         id="stop159" />
      <stop
         offset="1"
         style="stop-color:#000000"
         id="stop161" />
    </linearGradient>
    <linearGradient
       id="XMLID_23_"
       gradientUnits="userSpaceOnUse"
       x1="101.3027"
       y1="60.6592"
       x2="102.3008"
       y2="60.7148">
      <stop
         offset="0"
         style="stop-color:#544C3E"
         id="stop144" />
      <stop
         offset="1"
         style="stop-color:#B39E7C"
         id="stop146" />
    </linearGradient>
    <linearGradient
       id="XMLID_22_"
       gradientUnits="userSpaceOnUse"
       x1="57.9189"
       y1="46.3872"
       x2="54.502"
       y2="43.3394">
      <stop
         offset="0.2781"
         style="stop-color:#DEC985"
         id="stop123" />
      <stop
         offset="0.3585"
         style="stop-color:#E6D596"
         id="stop125" />
      <stop
         offset="0.5176"
         style="stop-color:#FAF5C3"
         id="stop127" />
      <stop
         offset="0.5562"
         style="stop-color:#FFFDCF"
         id="stop129" />
      <stop
         offset="0.5919"
         style="stop-color:#F8F2C0"
         id="stop131" />
      <stop
         offset="0.6775"
         style="stop-color:#EADCA0"
         id="stop133" />
      <stop
         offset="0.7495"
         style="stop-color:#E1CE8C"
         id="stop135" />
      <stop
         offset="0.7988"
         style="stop-color:#DEC985"
         id="stop137" />
    </linearGradient>
    <linearGradient
       id="XMLID_21_"
       gradientUnits="userSpaceOnUse"
       x1="52.25"
       y1="47.2471"
       x2="52.25"
       y2="0.2393">
      <stop
         offset="0"
         style="stop-color:#DDCC9D"
         id="stop78" />
      <stop
         offset="0.1841"
         style="stop-color:#DAC793"
         id="stop80" />
      <stop
         offset="0.3787"
         style="stop-color:#D5BF84"
         id="stop82" />
      <stop
         offset="0.4091"
         style="stop-color:#D6C087"
         id="stop84" />
      <stop
         offset="0.4286"
         style="stop-color:#D9C58F"
         id="stop86" />
      <stop
         offset="0.445"
         style="stop-color:#DECD9E"
         id="stop88" />
      <stop
         offset="0.4597"
         style="stop-color:#E5D7B3"
         id="stop90" />
      <stop
         offset="0.4733"
         style="stop-color:#EEE6CE"
         id="stop92" />
      <stop
         offset="0.4859"
         style="stop-color:#F9F7EF"
         id="stop94" />
      <stop
         offset="0.4911"
         style="stop-color:#FFFFFF"
         id="stop96" />
      <stop
         offset="0.4918"
         style="stop-color:#FBF9F4"
         id="stop98" />
      <stop
         offset="0.4946"
         style="stop-color:#EFE7D0"
         id="stop100" />
      <stop
         offset="0.4977"
         style="stop-color:#E4D6B0"
         id="stop102" />
      <stop
         offset="0.5011"
         style="stop-color:#DAC894"
         id="stop104" />
      <stop
         offset="0.5049"
         style="stop-color:#D3BC7E"
         id="stop106" />
      <stop
         offset="0.5094"
         style="stop-color:#CDB46D"
         id="stop108" />
      <stop
         offset="0.515"
         style="stop-color:#C9AD62"
         id="stop110" />
      <stop
         offset="0.5227"
         style="stop-color:#C7AA5B"
         id="stop112" />
      <stop
         offset="0.5444"
         style="stop-color:#C6A959"
         id="stop114" />
      <stop
         offset="0.716"
         style="stop-color:#CDB46D"
         id="stop116" />
      <stop
         offset="1"
         style="stop-color:#D2BB7B"
         id="stop118" />
    </linearGradient>
    <linearGradient
       id="XMLID_20_"
       gradientUnits="userSpaceOnUse"
       x1="12.0713"
       y1="4.1035"
       x2="50.6035"
       y2="26.3501">
      <stop
         offset="0.0118"
         style="stop-color:#AD9C80"
         id="stop59" />
      <stop
         offset="0.0414"
         style="stop-color:#FFE6BC"
         id="stop61" />
      <stop
         offset="0.0828"
         style="stop-color:#C4B091"
         id="stop63" />
      <stop
         offset="0.1361"
         style="stop-color:#DEC8A4"
         id="stop65" />
      <stop
         offset="1"
         style="stop-color:#B39E7C"
         id="stop67" />
    </linearGradient>
    <linearGradient
       id="XMLID_19_"
       gradientUnits="userSpaceOnUse"
       x1="12.9814"
       y1="12.5049"
       x2="37.9814"
       y2="12.5049"
       gradientTransform="matrix(2.08,0,0,1,-26.9995,0)">
      <stop
         offset="0"
         style="stop-color:#DEC8A4"
         id="stop52" />
      <stop
         offset="1"
         style="stop-color:#B39E7C"
         id="stop54" />
    </linearGradient>
    <linearGradient
       id="XMLID_18_"
       gradientUnits="userSpaceOnUse"
       x1="91.5723"
       y1="4.5991"
       x2="62.9014"
       y2="21.1523">
      <stop
         offset="0.0118"
         style="stop-color:#AD9C80"
         id="stop39" />
      <stop
         offset="0.0414"
         style="stop-color:#FFE6BC"
         id="stop41" />
      <stop
         offset="0.0828"
         style="stop-color:#C4B091"
         id="stop43" />
      <stop
         offset="0.1361"
         style="stop-color:#DEC8A4"
         id="stop45" />
      <stop
         offset="1"
         style="stop-color:#B39E7C"
         id="stop47" />
    </linearGradient>
    <linearGradient
       id="XMLID_17_"
       gradientUnits="userSpaceOnUse"
       x1="0.25"
       y1="13.2949"
       x2="104.25"
       y2="13.2949">
      <stop
         offset="0"
         style="stop-color:#8F6B32"
         id="stop28" />
      <stop
         offset="0.5"
         style="stop-color:#000000"
         id="stop30" />
      <stop
         offset="1"
         style="stop-color:#8F6B32"
         id="stop32" />
    </linearGradient>
    <linearGradient
       id="XMLID_16_"
       gradientUnits="userSpaceOnUse"
       x1="52.2495"
       y1="92.5801"
       x2="52.2495"
       y2="95.5801"
       gradientTransform="matrix(0.9834,0,0,1,863.02581,-820.29016)">
      <stop
         offset="0.27219999"
         style="stop-color:#c0ae8f;stop-opacity:1;"
         id="stop17" />
      <stop
         offset="1"
         style="stop-color:#c2af91;stop-opacity:0;"
         id="stop23" />
    </linearGradient>
    <radialGradient
       id="XMLID_15_"
       cx="7.5"
       cy="8.3301"
       r="126.4133"
       gradientUnits="userSpaceOnUse">
      <stop
         offset="0.2722"
         style="stop-color:#DBC298"
         id="stop4" />
      <stop
         offset="0.4545"
         style="stop-color:#C7B08A"
         id="stop6" />
      <stop
         offset="0.71829998"
         style="stop-color:#b99c6f;stop-opacity:1;"
         id="stop8" />
      <stop
         offset="0.88169998"
         style="stop-color:#b09469;stop-opacity:1;"
         id="stop10" />
      <stop
         offset="1"
         style="stop-color:#a48a5f;stop-opacity:1;"
         id="stop12" />
    </radialGradient>
    <radialGradient
       inkscape:collect="always"
       xlink:href="#XMLID_15_"
       id="radialGradient2622"
       gradientUnits="userSpaceOnUse"
       cx="7.5"
       cy="8.3301"
       r="126.4133" />
    <linearGradient
       inkscape:collect="always"
       xlink:href="#XMLID_17_"
       id="linearGradient2626"
       gradientUnits="userSpaceOnUse"
       x1="0.25"
       y1="13.2949"
       x2="104.25"
       y2="13.2949" />
    <linearGradient
       inkscape:collect="always"
       xlink:href="#XMLID_18_"
       id="linearGradient2628"
       gradientUnits="userSpaceOnUse"
       x1="91.5723"
       y1="4.5991"
       x2="62.9014"
       y2="21.1523" />
    <linearGradient
       inkscape:collect="always"
       xlink:href="#XMLID_19_"
       id="linearGradient2630"
       gradientUnits="userSpaceOnUse"
       gradientTransform="matrix(2.08,0,0,1,-26.9995,0)"
       x1="12.9814"
       y1="12.5049"
       x2="37.9814"
       y2="12.5049" />
    <linearGradient
       inkscape:collect="always"
       xlink:href="#XMLID_20_"
       id="linearGradient2632"
       gradientUnits="userSpaceOnUse"
       x1="12.0713"
       y1="4.1035"
       x2="50.6035"
       y2="26.3501" />
    <linearGradient
       inkscape:collect="always"
       xlink:href="#XMLID_22_"
       id="linearGradient2636"
       gradientUnits="userSpaceOnUse"
       x1="57.9189"
       y1="46.3872"
       x2="54.502"
       y2="43.3394" />
    <linearGradient
       inkscape:collect="always"
       xlink:href="#XMLID_23_"
       id="linearGradient2638"
       gradientUnits="userSpaceOnUse"
       x1="101.3027"
       y1="60.6592"
       x2="102.3008"
       y2="60.7148" />
    <linearGradient
       inkscape:collect="always"
       xlink:href="#XMLID_24_"
       id="linearGradient2640"
       gradientUnits="userSpaceOnUse"
       x1="103.8984"
       y1="60.5801"
       x2="103.3984"
       y2="60.5801" />
    <linearGradient
       inkscape:collect="always"
       xlink:href="#XMLID_25_"
       id="linearGradient2642"
       gradientUnits="userSpaceOnUse"
       x1="2.1997"
       y1="60.7158"
       x2="3.198"
       y2="60.6601" />
    <linearGradient
       inkscape:collect="always"
       xlink:href="#XMLID_26_"
       id="linearGradient2644"
       gradientUnits="userSpaceOnUse"
       x1="0.6016"
       y1="60.5801"
       x2="1.1021"
       y2="60.5801" />
    <linearGradient
       inkscape:collect="always"
       xlink:href="#XMLID_16_"
       id="linearGradient2720"
       gradientUnits="userSpaceOnUse"
       gradientTransform="matrix(0.9834,0,0,1,12.7401,15.70984)"
       x1="52.2495"
       y1="92.5801"
       x2="52.2495"
       y2="95.5801" />
    <linearGradient
       inkscape:collect="always"
       xlink:href="#linearGradient3319"
       id="linearGradient3325"
       x1="89.319756"
       y1="96.121475"
       x2="64.123497"
       y2="11.591212"
       gradientUnits="userSpaceOnUse" />
    <linearGradient
       inkscape:collect="always"
       xlink:href="#linearGradient3329"
       id="linearGradient3335"
       x1="53.139309"
       y1="48.294998"
       x2="53.139309"
       y2="0.23792115"
       gradientUnits="userSpaceOnUse" />
    <filter
       inkscape:collect="always"
       x="-0.10638171"
       width="1.2127634"
       y="-0.030991843"
       height="1.0619837"
       id="filter3337">
      <feGaussianBlur
         inkscape:collect="always"
         stdDeviation="0.62056"
         id="feGaussianBlur3339" />
    </filter>
    <linearGradient
       y2="0.2393"
       x2="52.25"
       y1="47.247101"
       x1="52.25"
       gradientUnits="userSpaceOnUse"
       id="linearGradient2449">
      <stop
         id="stop2451"
         style="stop-color:#DDCC9D"
         offset="0" />
      <stop
         id="stop2453"
         style="stop-color:#DAC793"
         offset="0.1841" />
      <stop
         id="stop2455"
         style="stop-color:#D5BF84"
         offset="0.3787" />
      <stop
         id="stop2457"
         style="stop-color:#D6C087"
         offset="0.4091" />
      <stop
         id="stop2459"
         style="stop-color:#D9C58F"
         offset="0.4286" />
      <stop
         id="stop2461"
         style="stop-color:#DECD9E"
         offset="0.445" />
      <stop
         id="stop2463"
         style="stop-color:#E5D7B3"
         offset="0.4597" />
      <stop
         id="stop2465"
         style="stop-color:#EEE6CE"
         offset="0.4733" />
      <stop
         id="stop2467"
         style="stop-color:#F9F7EF"
         offset="0.4859" />
      <stop
         id="stop2469"
         style="stop-color:#FFFFFF"
         offset="0.4911" />
      <stop
         id="stop2471"
         style="stop-color:#FBF9F4"
         offset="0.4918" />
      <stop
         id="stop2473"
         style="stop-color:#EFE7D0"
         offset="0.4946" />
      <stop
         id="stop2475"
         style="stop-color:#E4D6B0"
         offset="0.4977" />
      <stop
         id="stop2477"
         style="stop-color:#DAC894"
         offset="0.5011" />
      <stop
         id="stop2479"
         style="stop-color:#D3BC7E"
         offset="0.5049" />
      <stop
         id="stop2481"
         style="stop-color:#CDB46D"
         offset="0.5094" />
      <stop
         id="stop2483"
         style="stop-color:#C9AD62"
         offset="0.515" />
      <stop
         id="stop2485"
         style="stop-color:#C7AA5B"
         offset="0.5227" />
      <stop
         id="stop2487"
         style="stop-color:#C6A959"
         offset="0.5444" />
      <stop
         id="stop2489"
         style="stop-color:#CDB46D"
         offset="0.716" />
      <stop
         id="stop2491"
         style="stop-color:#D2BB7B"
         offset="1" />
    </linearGradient>
    <linearGradient
       inkscape:collect="always"
       xlink:href="#linearGradient3412"
       id="linearGradient3410"
       gradientUnits="userSpaceOnUse"
       x1="52.25"
       y1="47.2471"
       x2="52.25"
       y2="0.2393" />
    <linearGradient
       inkscape:collect="always"
       xlink:href="#XMLID_18_"
       id="linearGradient4717"
       gradientUnits="userSpaceOnUse"
       x1="91.5723"
       y1="4.5991"
       x2="62.9014"
       y2="21.1523" />
    <linearGradient
       inkscape:collect="always"
       xlink:href="#XMLID_19_"
       id="linearGradient4719"
       gradientUnits="userSpaceOnUse"
       gradientTransform="matrix(2.08,0,0,1,-26.9995,0)"
       x1="12.9814"
       y1="12.5049"
       x2="37.9814"
       y2="12.5049" />
    <linearGradient
       inkscape:collect="always"
       xlink:href="#XMLID_18_"
       id="linearGradient4722"
       gradientUnits="userSpaceOnUse"
       x1="91.5723"
       y1="4.5991"
       x2="62.9014"
       y2="21.1523" />
    <linearGradient
       id="linearGradient4695"
       gradientUnits="userSpaceOnUse"
       x1="91.572304"
       y1="4.5991001"
       x2="62.901402"
       y2="21.1523">
      <stop
         offset="0.0118"
         style="stop-color:#AD9C80"
         id="stop4697" />
      <stop
         offset="0.0414"
         style="stop-color:#FFE6BC"
         id="stop4699" />
      <stop
         offset="0.0828"
         style="stop-color:#C4B091"
         id="stop4701" />
      <stop
         offset="0.1361"
         style="stop-color:#DEC8A4"
         id="stop4703" />
      <stop
         offset="1"
         style="stop-color:#B39E7C"
         id="stop4705" />
    </linearGradient>
    <linearGradient
       id="linearGradient4709"
       gradientUnits="userSpaceOnUse"
       x1="12.9814"
       y1="12.5049"
       x2="37.9814"
       y2="12.5049"
       gradientTransform="matrix(2.08,0,0,1,-26.9995,0)">
      <stop
         offset="0"
         style="stop-color:#DEC8A4"
         id="stop4711" />
      <stop
         offset="1"
         style="stop-color:#B39E7C"
         id="stop4713" />
    </linearGradient>
    <linearGradient
       inkscape:collect="always"
       xlink:href="#XMLID_18_"
       id="linearGradient4735"
       gradientUnits="userSpaceOnUse"
       x1="91.5723"
       y1="4.5991"
       x2="62.9014"
       y2="21.1523"
       gradientTransform="translate(11.75,-34.29016)" />
    <linearGradient
       inkscape:collect="always"
       xlink:href="#XMLID_19_"
       id="linearGradient4737"
       gradientUnits="userSpaceOnUse"
       gradientTransform="matrix(2.08,0,0,1,-26.9995,0)"
       x1="12.9814"
       y1="12.5049"
       x2="37.9814"
       y2="12.5049" />
    <linearGradient
       inkscape:collect="always"
       xlink:href="#linearGradient3319"
       id="linearGradient2596"
       x1="74.117317"
       y1="96.009941"
       x2="26.034058"
       y2="34.491657"
       gradientUnits="userSpaceOnUse" />
    <linearGradient
       inkscape:collect="always"
       xlink:href="#linearGradient3319"
       id="linearGradient2627"
       x1="89.142334"
       y1="95.477242"
       x2="64"
       y2="11.331537"
       gradientUnits="userSpaceOnUse" />
    <linearGradient
       inkscape:collect="always"
       xlink:href="#linearGradient3319"
       id="linearGradient2637"
       gradientUnits="userSpaceOnUse"
       x1="89.802559"
       y1="95.826637"
       x2="64.170502"
       y2="11.327384" />
    <linearGradient
       inkscape:collect="always"
       xlink:href="#linearGradient3319"
       id="linearGradient2641"
       gradientUnits="userSpaceOnUse"
       x1="89.802559"
       y1="95.826637"
       x2="64.170502"
       y2="11.327384" />
    <linearGradient
       inkscape:collect="always"
       xlink:href="#linearGradient3319"
       id="linearGradient2643"
       gradientUnits="userSpaceOnUse"
       x1="77.858559"
       y1="159.03477"
       x2="52.226501"
       y2="74.535522" />
    <linearGradient
       inkscape:collect="always"
       xlink:href="#linearGradient3319"
       id="linearGradient2885"
       gradientUnits="userSpaceOnUse"
       x1="89.802559"
       y1="95.826637"
       x2="64.170502"
       y2="11.327384" />
    <linearGradient
       inkscape:collect="always"
       xlink:href="#linearGradient3319"
       id="linearGradient2887"
       gradientUnits="userSpaceOnUse"
       x1="89.802559"
       y1="95.826637"
       x2="64.170502"
       y2="11.327384" />
    <linearGradient
       inkscape:collect="always"
       xlink:href="#linearGradient3319"
       id="linearGradient2889"
       gradientUnits="userSpaceOnUse"
       x1="77.858559"
       y1="159.03477"
       x2="52.226501"
       y2="74.535522" />
    <linearGradient
       inkscape:collect="always"
       xlink:href="#linearGradient3319"
       id="linearGradient2893"
       gradientUnits="userSpaceOnUse"
       x1="89.802559"
       y1="95.826637"
       x2="64.170502"
       y2="11.327384"
       gradientTransform="matrix(1,0,0,1.0219202,0,-5.9743498e-2)" />
    <linearGradient
       inkscape:collect="always"
       xlink:href="#linearGradient3319"
       id="linearGradient2896"
       gradientUnits="userSpaceOnUse"
       x1="89.802559"
       y1="95.826637"
       x2="64.170502"
       y2="11.327384"
       gradientTransform="matrix(1,0,0,1.0219202,0,-5.9743498e-2)" />
    <linearGradient
       inkscape:collect="always"
       xlink:href="#linearGradient3319"
       id="linearGradient2898"
       gradientUnits="userSpaceOnUse"
       x1="51.695606"
       y1="156.95906"
       x2="52.226501"
       y2="74.535522" />
    <linearGradient
       inkscape:collect="always"
       xlink:href="#linearGradient2905"
       id="linearGradient2911"
       x1="89.095451"
       y1="88.02047"
       x2="89.095451"
       y2="11.680934"
       gradientUnits="userSpaceOnUse" />
    <linearGradient
       inkscape:collect="always"
       xlink:href="#linearGradient2905"
       id="linearGradient2915"
       gradientUnits="userSpaceOnUse"
       x1="89.095451"
       y1="88.02047"
       x2="89.095451"
       y2="11.680934" />
    <linearGradient
       inkscape:collect="always"
       xlink:href="#linearGradient2905"
       id="linearGradient2917"
       gradientUnits="userSpaceOnUse"
       x1="89.095451"
       y1="88.02047"
       x2="89.095451"
       y2="11.680934" />
    <filter
       inkscape:collect="always"
       x="-0.058352941"
       width="1.1167059"
       y="-0.27054545"
       height="1.5410909"
       id="filter3362">
      <feGaussianBlur
         inkscape:collect="always"
         stdDeviation="2.48"
         id="feGaussianBlur3364" />
    </filter>
    <linearGradient
       inkscape:collect="always"
       xlink:href="#linearGradient3329"
       id="linearGradient4449"
       gradientUnits="userSpaceOnUse"
       x1="79.650787"
       y1="208.5173"
       x2="79.650787"
       y2="126.83674" />
    <linearGradient
       inkscape:collect="always"
       xlink:href="#linearGradient3319"
       id="linearGradient4451"
       gradientUnits="userSpaceOnUse"
       gradientTransform="translate(-234.05234,-50.476077)"
       x1="254.55161"
       y1="130.54179"
       x2="254.19806"
       y2="46.396088" />
    <linearGradient
       inkscape:collect="always"
       xlink:href="#linearGradient3329"
       id="linearGradient4453"
       gradientUnits="userSpaceOnUse"
       x1="79.650787"
       y1="208.5173"
       x2="79.650787"
       y2="126.83674" />
    <linearGradient
       y2="303.14029"
       x2="606.91248"
       y1="104.50665"
       x1="541.33502"
       gradientTransform="matrix(-0.3937741,0,0,0.393752,978.34967,416.9815)"
       gradientUnits="userSpaceOnUse"
       id="linearGradient2216"
       xlink:href="#path1082_2_"
       inkscape:collect="always" />
    <linearGradient
       gradientUnits="userSpaceOnUse"
       y2="348.96875"
       x2="650.81366"
       y1="238.08237"
       x1="291.83591"
       id="linearGradient5329"
       xlink:href="#linearGradient5323"
       inkscape:collect="always" />
    <linearGradient
       id="linearGradient5323"
       inkscape:collect="always">
      <stop
         id="stop5325"
         offset="0"
         style="stop-color:#6e6e6e;stop-opacity:1" />
      <stop
         id="stop5327"
         offset="1"
         style="stop-color:#4d4d4d;stop-opacity:1" />
    </linearGradient>
    <linearGradient
       gradientUnits="userSpaceOnUse"
       y2="666.97791"
       x2="616.48553"
       y1="634.15063"
       x1="400.6142"
       id="linearGradient4352"
       xlink:href="#linearGradient4346"
       inkscape:collect="always" />
    <linearGradient
       id="linearGradient4346"
       inkscape:collect="always">
      <stop
         id="stop4348"
         offset="0"
         style="stop-color:#00bdec;stop-opacity:1" />
      <stop
         id="stop4350"
         offset="1"
         style="stop-color:#40bfde;stop-opacity:1" />
    </linearGradient>
    <linearGradient
       id="linearGradient3388">
      <stop
         id="stop3390"
         offset="0"
         style="stop-color:#000000;stop-opacity:0;" />
      <stop
         id="stop3392"
         offset="1"
         style="stop-color:#000000;stop-opacity:0.37113401;" />
    </linearGradient>
    <linearGradient
       gradientTransform="translate(287,-83)"
       x1="112.49854"
       y1="6.1372099"
       x2="112.49853"
       y2="129.3468"
       id="path1082_2_"
       gradientUnits="userSpaceOnUse">
      <stop
         style="stop-color:#ffffff;stop-opacity:0"
         offset="0"
         id="stop193" />
      <stop
         style="stop-color:#ffffff;stop-opacity:0.27450982;"
         offset="1"
         id="stop195" />
      <midPointStop
         offset="0"
         style="stop-color:#FFFFFF"
         id="midPointStop197" />
      <midPointStop
         offset="0.5"
         style="stop-color:#FFFFFF"
         id="midPointStop199" />
      <midPointStop
         offset="1"
         style="stop-color:#000000"
         id="midPointStop201" />
    </linearGradient>
    <linearGradient
       y2="303.14029"
       x2="606.91248"
       y1="104.50665"
       x1="541.33502"
       gradientTransform="matrix(-0.3937741,0,0,0.393752,978.34967,416.9815)"
       gradientUnits="userSpaceOnUse"
       id="linearGradient2190"
       xlink:href="#path1082_2_"
       inkscape:collect="always" />
    <inkscape:perspective
       id="perspective3047"
       inkscape:persp3d-origin="16 : 10.666667 : 1"
       inkscape:vp_z="32 : 16 : 1"
       inkscape:vp_y="0 : 1000 : 0"
       inkscape:vp_x="0 : 16 : 1"
       sodipodi:type="inkscape:persp3d" />
  </defs>
  <sodipodi:namedview
     id="base"
     pagecolor="#ffffff"
     bordercolor="#666666"
     borderopacity="1.0"
     inkscape:pageopacity="0.0"
     inkscape:pageshadow="2"
     inkscape:zoom="2.8284271"
     inkscape:cx="88.342624"
     inkscape:cy="69.816112"
     inkscape:document-units="px"
     inkscape:current-layer="layer1"
     inkscape:window-width="1024"
     inkscape:window-height="715"
     inkscape:window-x="121"
     inkscape:window-y="53"
     showguides="true"
     inkscape:guide-bbox="true"
     showgrid="false">
    <sodipodi:guide
       orientation="horizontal"
       position="161.92745"
       id="guide2594" />
    <sodipodi:guide
       orientation="horizontal"
       position="116.67262"
       id="guide2613" />
    <sodipodi:guide
       orientation="horizontal"
       position="32.173359"
       id="guide2615" />
    <sodipodi:guide
       orientation="vertical"
       position="63.63961"
       id="guide2617" />
    <sodipodi:guide
       orientation="vertical"
       position="89.095455"
       id="guide2619" />
  </sodipodi:namedview>
  <metadata
     id="metadata2339">
    <rdf:RDF>
      <cc:Work
         rdf:about="">
        <dc:format>image/svg+xml</dc:format>
        <dc:type
           rdf:resource="http://purl.org/dc/dcmitype/StillImage" />
      </cc:Work>
    </rdf:RDF>
  </metadata>
  <g
     inkscape:label="Livello 1"
     inkscape:groupmode="layer"
     id="layer1">
    <path
       style="opacity:0.7;fill:#000000;fill-opacity:1;fill-rule:evenodd;stroke:none;stroke-width:0.5;stroke-linecap:butt;stroke-linejoin:round;stroke-miterlimit:4;stroke-opacity:1;filter:url(#filter3362)"
       d="M 18.520833,94 L 109.47917,94 C 111.42971,94 113,95.4495 113,97.25 L 115,112.75 C 115,114.5505 113.42971,116 111.47917,116 L 16.520833,116 C 14.570292,116 13,114.5505 13,112.75 L 15,97.25 C 15,95.4495 16.570292,94 18.520833,94 z "
       id="rect4744"
       sodipodi:nodetypes="ccccccccc"
       transform="matrix(1,0,0,1.0909091,0,-10.545455)" />
    <polygon
       points="104.25,24.795 100.25,96.58 4.25,96.58 0.25,24.795 104.25,24.795 "
       id="polygon14"
       style="fill:url(#radialGradient2622)"
       transform="translate(11.875,15.70984)" />
    <path
       d="M 63.879,108.28984 C 107.397,108.28984 111.33,111.28984 111.33,111.28984 L 16.919,111.28984 C 16.919,111.28984 20.362,108.28984 63.879,108.28984 z"
       id="path25"
       style="fill:url(#linearGradient2720);opacity:0.8" />
    <polygon
       points="52.25,25.795 0.25,24.795 16.25,0.795 88.25,0.795 104.25,24.795 52.25,25.795 "
       id="polygon34"
       style="fill:url(#linearGradient2626)"
       transform="translate(11.875,15.70984)" />
    <g
       id="g36"
       transform="translate(11.875,15.70984)">
      <linearGradient
         id="linearGradient2425"
         gradientUnits="userSpaceOnUse"
         x1="91.572304"
         y1="4.5991001"
         x2="62.901402"
         y2="21.1523">
        <stop
           offset="0.0118"
           style="stop-color:#AD9C80"
           id="stop2427" />
        <stop
           offset="0.0414"
           style="stop-color:#FFE6BC"
           id="stop2429" />
        <stop
           offset="0.0828"
           style="stop-color:#C4B091"
           id="stop2431" />
        <stop
           offset="0.1361"
           style="stop-color:#DEC8A4"
           id="stop2433" />
        <stop
           offset="1"
           style="stop-color:#B39E7C"
           id="stop2435" />
      </linearGradient>
      <polygon
         points="52.25,0 88.096,0.58 104.25,24.58 52.25,23.5 52.25,0 "
         id="polygon49"
         style="fill:url(#linearGradient2628)" />
      <linearGradient
         id="linearGradient2438"
         gradientUnits="userSpaceOnUse"
         x1="12.9814"
         y1="12.5049"
         x2="37.9814"
         y2="12.5049"
         gradientTransform="matrix(2.08,0,0,1,-26.9995,0)">
        <stop
           offset="0"
           style="stop-color:#DEC8A4"
           id="stop2440" />
        <stop
           offset="1"
           style="stop-color:#B39E7C"
           id="stop2442" />
      </linearGradient>
      <polygon
         points="52,23.715 0,24.795 16.156,0.795 52,0.215 52,23.715 "
         id="polygon56"
         style="fill:url(#linearGradient2630)" />
    </g>
    <polygon
       points="52.25,23.5 0.25,24.58 16.406,0.58 52.25,0 52.25,23.5 "
       id="polygon69"
       style="fill:url(#linearGradient2632)"
       transform="translate(11.875,15.70984)" />
    <path
       d=""
       id="path71"
       style="fill:#eeeeec" />
    <polygon
       points="55.82,0.239 48.68,0.239 45.25,23.828 45.407,47.295 59.093,48.295 59.25,23.828 55.82,0.239 "
       id="polygon73"
       transform="translate(11.875,15.70984)"
       style="opacity:0.50000000000000000;filter:url(#filter3337);fill-opacity:1;fill:url(#linearGradient3335)" />
    <polygon
       style="fill:url(#linearGradient3410)"
       id="polygon120"
       points="55.25,0.239 49.25,0.239 46.368,23.828 46.5,47.295 52.075,46.81 58,46.295 58.032,40.853 58.132,23.828 55.25,0.239 "
       transform="translate(11.875,15.70984)" />
    <polygon
       points="52.075,46.81 58,46.295 58.032,40.853 52.075,46.81 "
       id="polygon139"
       style="fill:url(#linearGradient2636)"
       transform="translate(11.875,15.70984)" />
    <g
       id="g141"
       transform="translate(11.875,15.70984)">
      <linearGradient
         id="linearGradient2496"
         gradientUnits="userSpaceOnUse"
         x1="101.3027"
         y1="60.659199"
         x2="102.3008"
         y2="60.714802">
        <stop
           offset="0"
           style="stop-color:#544C3E"
           id="stop2498" />
        <stop
           offset="1"
           style="stop-color:#B39E7C"
           id="stop2500" />
      </linearGradient>
      <path
         d="M 99.36,95.555 C 99.33,96.104 99.529,96.566 99.803,96.58 C 100.077,96.594 100.327,96.158 100.358,95.609 L 104.247,25.821 C 104.277,25.272 104.078,24.81 103.804,24.795 C 103.53,24.78 103.28,25.216 103.249,25.766 L 99.36,95.555 z"
         id="path148"
         style="fill:url(#linearGradient2638)" />
      <linearGradient
         id="linearGradient2503"
         gradientUnits="userSpaceOnUse"
         x1="103.8984"
         y1="60.580101"
         x2="103.3984"
         y2="60.580101">
        <stop
           offset="0"
           style="stop-color:#544C3E"
           id="stop2505" />
        <stop
           offset="0.2162"
           style="stop-color:#50483B"
           id="stop2507" />
        <stop
           offset="0.4356"
           style="stop-color:#443D32"
           id="stop2509" />
        <stop
           offset="0.6567"
           style="stop-color:#2F2B23"
           id="stop2511" />
        <stop
           offset="0.8775"
           style="stop-color:#13110E"
           id="stop2513" />
        <stop
           offset="1"
           style="stop-color:#000000"
           id="stop2515" />
      </linearGradient>
      <path
         d="M 101.281,65.58 L 101.781,65.58 C 101.818,64.915 101.855,64.248 101.892,63.58 L 101.392,63.58 L 101.281,65.58 z M 100.612,77.58 L 101.113,77.58 C 101.149,76.923 101.186,76.256 101.224,75.58 L 100.723,75.58 L 100.612,77.58 z M 101.058,69.58 L 101.559,69.58 C 101.596,68.917 101.633,68.25 101.67,67.58 L 101.17,67.58 L 101.058,69.58 z M 100.835,73.58 L 101.336,73.58 C 101.372,72.92 101.41,72.253 101.447,71.58 L 100.946,71.58 L 100.835,73.58 z M 99.943,89.58 L 100.444,89.58 C 100.478,88.952 100.515,88.285 100.555,87.58 L 100.054,87.58 L 99.943,89.58 z M 99.721,93.58 L 100.221,93.58 C 100.252,93.018 100.29,92.346 100.332,91.58 L 99.832,91.58 L 99.721,93.58 z M 100.166,85.58 L 100.667,85.58 C 100.703,84.935 100.74,84.268 100.778,83.58 L 100.277,83.58 L 100.166,85.58 z M 100.39,81.58 L 100.89,81.58 C 100.926,80.928 100.963,80.261 101.001,79.58 L 100.501,79.58 L 100.39,81.58 z M 101.727,57.58 L 102.227,57.58 C 102.265,56.911 102.302,56.244 102.339,55.58 L 101.838,55.58 L 101.727,57.58 z M 101.504,61.58 L 102.004,61.58 C 102.041,60.913 102.078,60.246 102.115,59.58 L 101.615,59.58 L 101.504,61.58 z M 102.841,37.58 L 103.342,37.58 C 103.38,36.891 103.417,36.223 103.453,35.58 L 102.952,35.58 L 102.841,37.58 z M 103.064,33.58 L 103.564,33.58 C 103.603,32.873 103.64,32.205 103.675,31.58 L 103.175,31.58 L 103.064,33.58 z M 103.398,27.58 L 103.287,29.58 L 103.787,29.58 C 103.83,28.802 103.868,28.132 103.898,27.58 L 103.398,27.58 z M 102.618,41.58 L 103.119,41.58 C 103.156,40.898 103.193,40.231 103.23,39.58 L 102.729,39.58 L 102.618,41.58 z M 101.949,53.58 L 102.45,53.58 C 102.487,52.909 102.524,52.242 102.561,51.58 L 102.06,51.58 L 101.949,53.58 z M 102.396,45.58 L 102.896,45.58 C 102.934,44.903 102.971,44.236 103.008,43.58 L 102.507,43.58 L 102.396,45.58 z M 102.172,49.58 L 102.673,49.58 C 102.711,48.906 102.748,48.24 102.784,47.58 L 102.283,47.58 L 102.172,49.58 z"
         id="path163"
         style="opacity:0.5;fill:url(#linearGradient2640)" />
    </g>
    <g
       id="g165"
       transform="translate(11.875,15.70984)">
      <linearGradient
         id="linearGradient2519"
         gradientUnits="userSpaceOnUse"
         x1="2.1997001"
         y1="60.715801"
         x2="3.198"
         y2="60.660099">
        <stop
           offset="0"
           style="stop-color:#B39E7C"
           id="stop2521" />
        <stop
           offset="1"
           style="stop-color:#544C3E"
           id="stop2523" />
      </linearGradient>
      <path
         d="M 5.14,95.555 C 5.171,96.104 4.971,96.566 4.697,96.58 C 4.423,96.594 4.174,96.158 4.142,95.609 L 0.253,25.821 C 0.223,25.272 0.422,24.81 0.696,24.795 C 0.97,24.78 1.22,25.216 1.251,25.766 L 5.14,95.555 z"
         id="path172"
         style="fill:url(#linearGradient2642)" />
      <linearGradient
         id="linearGradient2526"
         gradientUnits="userSpaceOnUse"
         x1="0.60159999"
         y1="60.580101"
         x2="1.1021"
         y2="60.580101">
        <stop
           offset="0"
           style="stop-color:#544C3E"
           id="stop2528" />
        <stop
           offset="1"
           style="stop-color:#000000"
           id="stop2530" />
      </linearGradient>
      <path
         d="M 3.331,67.58 L 2.831,67.58 C 2.868,68.25 2.905,68.917 2.942,69.58 L 3.442,69.58 L 3.331,67.58 z M 3.554,71.58 L 3.054,71.58 C 3.092,72.253 3.129,72.92 3.166,73.58 L 3.666,73.58 L 3.554,71.58 z M 3.108,63.58 L 2.608,63.58 C 2.645,64.248 2.683,64.915 2.719,65.58 L 3.219,65.58 L 3.108,63.58 z M 3.776,75.58 L 3.276,75.58 C 3.314,76.256 3.351,76.923 3.387,77.58 L 3.887,77.58 L 3.776,75.58 z M 4,79.58 L 3.5,79.58 C 3.538,80.261 3.575,80.928 3.611,81.58 L 4.111,81.58 L 4,79.58 z M 2.885,59.58 L 2.385,59.58 C 2.422,60.246 2.459,60.913 2.496,61.58 L 2.996,61.58 L 2.885,59.58 z M 4.222,83.58 L 3.722,83.58 C 3.761,84.268 3.798,84.935 3.834,85.58 L 4.334,85.58 L 4.222,83.58 z M 4.445,87.58 L 3.945,87.58 C 3.985,88.285 4.022,88.952 4.056,89.58 L 4.556,89.58 L 4.445,87.58 z M 4.668,91.58 L 4.168,91.58 C 4.21,92.346 4.248,93.018 4.279,93.58 L 4.779,93.58 L 4.668,91.58 z M 1.771,39.58 L 1.271,39.58 C 1.307,40.231 1.344,40.898 1.382,41.58 L 1.882,41.58 L 1.771,39.58 z M 2.662,55.58 L 2.162,55.58 C 2.199,56.244 2.236,56.911 2.274,57.58 L 2.774,57.58 L 2.662,55.58 z M 1.548,35.58 L 1.048,35.58 C 1.084,36.223 1.121,36.891 1.159,37.58 L 1.659,37.58 L 1.548,35.58 z M 1.102,27.58 L 0.602,27.58 C 0.633,28.132 0.67,28.802 0.713,29.58 L 1.213,29.58 L 1.102,27.58 z M 1.325,31.58 L 0.825,31.58 C 0.86,32.205 0.897,32.873 0.937,33.58 L 1.437,33.58 L 1.325,31.58 z M 2.439,51.58 L 1.939,51.58 C 1.976,52.242 2.013,52.909 2.05,53.58 L 2.55,53.58 L 2.439,51.58 z M 1.993,43.58 L 1.493,43.58 C 1.53,44.236 1.567,44.903 1.604,45.58 L 2.104,45.58 L 1.993,43.58 z M 2.216,47.58 L 1.716,47.58 C 1.753,48.24 1.79,48.906 1.827,49.58 L 2.327,49.58 L 2.216,47.58 z"
         id="path179"
         style="opacity:0.5;fill:url(#linearGradient2644)" />
    </g>
    <g
       enable-background="new    "
       id="g183"
       transform="translate(11.875,15.70984)">
      <defs
         id="defs185">
        <path
           id="XMLID_13_"
           enable-background="new    "
           d="M 53.057,56.968 C 53.067,56.925 53.076,56.882 53.082,56.839 C 53.09,56.795 53.096,56.752 53.1,56.707 C 53.105,56.663 53.109,56.619 53.112,56.574 C 53.114,56.529 53.115,56.483 53.115,56.438 C 53.115,56.483 53.114,56.529 53.112,56.574 C 53.109,56.619 53.105,56.663 53.1,56.707 C 53.096,56.752 53.09,56.795 53.082,56.839 C 53.075,56.882 53.066,56.925 53.057,56.968 z" />
      </defs>
      <clipPath
         id="clipPath2537">
        <use
           xlink:href="#XMLID_13_"
           id="use2539"
           x="0"
           y="0"
           width="128"
           height="128" />
      </clipPath>
      <g
         clip-path="url(#XMLID_27_)"
         enable-background="new    "
         id="g191">
        <path
           d="M 53.057,56.968 C 53.067,56.925 53.076,56.882 53.082,56.839 C 53.09,56.795 53.096,56.752 53.1,56.707 C 53.105,56.663 53.109,56.619 53.112,56.574 C 53.114,56.529 53.115,56.483 53.115,56.438 C 53.115,56.483 53.114,56.529 53.112,56.574 C 53.109,56.619 53.105,56.663 53.1,56.707 C 53.096,56.752 53.09,56.795 53.082,56.839 C 53.075,56.882 53.066,56.925 53.057,56.968"
           id="path193"
           style="fill:#828282" />
      </g>
    </g>
    <g
       transform="matrix(1.3068,0,0,1.3068,-378.01053,-274.5821)"
       id="g3069"
       inkscape:label="Layer 1">
      <g
         transform="matrix(1.3473684,0,0,1.3473684,-632.88236,-513.34366)"
         id="g2424">
        <g
           transform="matrix(0.125,0,0,0.125,615.71887,519.21715)"
           id="g2210">
          <path
             sodipodi:nodetypes="ccccccccsscccccc"
             id="path2518"
             d="M 764.75015,435.62318 C 756.29306,456.35771 752.13752,468.47084 742.72166,488.58901 C 748.49477,494.7085 754.61058,503.27765 766.11856,511.3263 C 756.19466,510.64216 744.33307,503.09582 738.0262,497.79178 C 725.9757,522.93702 708.06309,556.78261 669.75015,625.62318 C 699.85528,608.24296 723.19329,597.52272 744.94302,593.4308 C 744.0125,589.41975 743.51542,585.06076 743.55142,580.53529 L 743.57461,579.58436 C 744.05243,560.29195 754.09092,545.45692 765.9794,546.46424 C 777.86787,547.47156 787.12249,563.93331 786.64468,583.22572 C 786.55468,586.85963 786.1322,590.35133 785.41543,593.59315 C 806.9311,597.8037 830.04901,608.47618 859.75015,625.62318 C 853.89286,614.83948 848.64665,607.08273 843.65396,597.82475 C 835.78967,591.72939 829.54943,586.24762 810.85855,573.25257 C 822.35934,576.24095 829.13312,577.24831 835.55168,581.10212 C 784.78965,486.59209 782.15758,476.47346 764.75015,435.62318 z"
             style="fill:#1793d1;fill-opacity:1;fill-rule:evenodd;stroke:none;stroke-width:1;stroke-linecap:round;stroke-linejoin:round;stroke-miterlimit:10;stroke-dasharray:none;stroke-opacity:1" />
          <path
             sodipodi:nodetypes="ccc"
             id="path2522"
             d="M 818.22607,548.55277 C 777.04464,492.65769 767.49922,447.60796 765.0814,436.85262 C 787.04877,487.52122 786.89873,488.14257 818.22607,548.55277 z"
             style="fill:#ffffff;fill-opacity:0.16568047;fill-rule:evenodd;stroke:none;stroke-width:36.09999847;stroke-linecap:butt;stroke-linejoin:round;stroke-miterlimit:10;stroke-opacity:1" />
          <path
             id="path2520"
             d="M 765.12124,436.55089 C 764.08134,439.10743 762.92886,441.60974 761.96694,443.97277 C 760.88579,446.62862 759.83447,449.09447 758.81264,451.58019 C 757.79089,454.06594 756.84782,456.60772 755.84389,459.00206 C 754.8399,461.39652 753.90279,463.67099 752.87514,466.05285 C 751.84756,468.43462 750.81358,470.84129 749.72084,473.28917 C 749.49915,473.80943 749.20549,474.24651 748.97866,474.77355 C 748.08785,476.75518 747.15745,478.81677 746.19545,480.8966 C 745.0662,483.42371 743.97624,485.7132 742.67006,488.50402 C 748.44317,494.62351 754.54099,503.27763 766.04897,511.32628 C 756.12507,510.64214 744.33826,503.0854 738.03139,497.78136 C 736.49447,500.90008 734.97516,504.30127 733.20717,507.80089 C 732.14161,509.91015 730.84337,512.20996 729.68178,514.48058 C 728.92541,515.97954 728.44377,517.17458 727.64077,518.74816 C 727.60017,518.82696 727.49593,518.85471 727.45522,518.93371 C 726.43493,520.91336 723.18032,527.06417 719.8478,533.40636 C 717.3486,538.17539 714.995,542.75074 712.05483,548.25011 C 736.11521,534.67716 762.15262,515.27934 809.28139,532.10753 C 806.91431,527.62434 804.83098,523.44317 802.78725,519.49035 C 800.74355,515.53741 798.7984,511.85803 797.0353,508.35753 C 795.27234,504.8571 793.55041,501.46406 792.02553,498.338 C 790.50067,495.21201 789.08721,492.26151 787.75795,489.43175 C 786.42863,486.60205 785.22328,484.06467 784.04702,481.45324 C 782.87068,478.84184 781.77313,476.31688 780.70717,473.84582 C 779.6411,471.37462 778.73656,468.83267 777.73842,466.42394 C 777.17555,465.06569 776.62037,463.69979 776.0685,462.34191 C 775.65849,461.38151 775.17963,460.1543 774.76967,459.18761 C 771.81226,452.21398 768.75876,445.101 765.12124,436.55089 z"
             style="fill:url(#linearGradient2190);fill-opacity:1;fill-rule:evenodd;stroke:none;stroke-width:0.71416688;stroke-linecap:round;stroke-linejoin:round;stroke-miterlimit:10;stroke-dasharray:none;stroke-opacity:1" />
        </g>
      </g>
    </g>
    <text
       xml:space="preserve"
       style="font-size:18.72000122px;font-style:normal;font-weight:bold;fill:#1793d1;fill-opacity:1;stroke:none;stroke-width:1px;stroke-linecap:butt;stroke-linejoin:miter;stroke-opacity:1;font-family:Bitstream Vera Sans;-inkscape-font-specification:Sans Bold"
       x="62.940823"
       y="81.825981"
       id="text2640"><tspan
         sodipodi:role="line"
         id="tspan2642"
         x="62.940823"
         y="81.825981">pkg</tspan></text>
  </g>
</svg>
