/* XPM */
static char *shareaza80[] = {
/* columns rows colors chars-per-pixel */
"80 80 228 2 ",
"   c #150202",
".  c #1C0202",
"X  c #230202",
"o  c #2A0202",
"O  c #2A0A09",
"+  c #340302",
"@  c #3D0202",
"#  c #380C0A",
"$  c #3A1615",
"%  c #440202",
"&  c #4B0101",
"*  c #480A09",
"=  c #540000",
"-  c #5C0000",
";  c #550D0B",
":  c #58120F",
">  c #471915",
",  c #5A1A16",
"<  c #4A150E",
"1  c #630101",
"2  c #6A0101",
"3  c #640B08",
"4  c #740201",
"5  c #7C0201",
"6  c #780B09",
"7  c #68120D",
"8  c #691A14",
"9  c #7A1A14",
"0  c #77120E",
"q  c #532518",
"w  c #68251D",
"e  c #74231A",
"r  c #772A16",
"t  c #552A27",
"y  c #57322F",
"u  c #683527",
"i  c #7B3528",
"p  c #71342D",
"a  c #784834",
"s  c #75482E",
"d  c #79410A",
"f  c #744A4A",
"g  c #840101",
"h  c #8C0101",
"j  c #840C09",
"k  c #880A08",
"l  c #940000",
"z  c #9C0000",
"x  c #9A0B08",
"c  c #89130E",
"v  c #8C1A14",
"b  c #861812",
"n  c #9B1712",
"m  c #A30000",
"M  c #A90000",
"N  c #A00806",
"B  c #B3140F",
"V  c #8A251B",
"C  c #91241C",
"Z  c #823915",
"A  c #932C21",
"S  c #893927",
"D  c #963828",
"F  c #843228",
"G  c #AB2218",
"H  c #DC0202",
"J  c #DA0806",
"K  c #D50F0C",
"L  c #E01B15",
"P  c #E1261C",
"I  c #D6382E",
"U  c #E33B2B",
"Y  c #E12A21",
"T  c #884734",
"R  c #9A4733",
"E  c #88553B",
"W  c #96573C",
"Q  c #954B2E",
"!  c #A45336",
"~  c #966E31",
"^  c #B07031",
"/  c #914F1E",
"(  c #C54539",
")  c #E64E37",
"_  c #E7633D",
"`  c #8E5849",
"'  c #AD5848",
"]  c #9A6646",
"[  c #936F4A",
"{  c #A86B47",
"}  c #A8744B",
"|  c #B47957",
" . c #AD744F",
".. c #986968",
"X. c #8B6161",
"o. c #A97776",
"O. c #E85745",
"+. c #E96747",
"@. c #EB7957",
"#. c #EA6D50",
"$. c #ED7E7B",
"%. c #EB7B76",
"&. c #EB7B6B",
"*. c #C67562",
"=. c #B49131",
"-. c #D5AE1B",
";. c #C49332",
":. c #D7B738",
">. c #D2B12E",
",. c #EEB436",
"<. c #CE9C19",
"1. c #E7CB19",
"2. c #EED519",
"3. c #EDD30F",
"4. c #DDC135",
"5. c #E9C929",
"6. c #EFD924",
"7. c #EED527",
"8. c #F0DB2C",
"9. c #EBC738",
"0. c #EED435",
"q. c #F1DC34",
"w. c #F1DE3C",
"e. c #F0D33B",
"r. c #DFC315",
"t. c #B98949",
"y. c #B48857",
"u. c #B48F4F",
"i. c #B78E64",
"p. c #BB9764",
"a. c #BFA467",
"s. c #BFAA57",
"d. c #C29756",
"f. c #C49546",
"g. c #EC885A",
"h. c #EE995D",
"j. c #EB8045",
"k. c #CBA547",
"l. c #D6B848",
"z. c #C8A65B",
"x. c #D5B757",
"c. c #CEB155",
"v. c #EFB945",
"b. c #EEB352",
"n. c #C89766",
"m. c #EE817A",
"M. c #EE8B77",
"N. c #EE9977",
"B. c #F09979",
"V. c #EF9369",
"C. c #C9A968",
"Z. c #D4B766",
"A. c #D6BB75",
"S. c #CAAC71",
"D. c #F1B86B",
"F. c #F1A777",
"G. c #F2B978",
"H. c #EEAE69",
"J. c #DDC147",
"K. c #DCC457",
"L. c #E9C846",
"P. c #F1CA4A",
"I. c #F1D948",
"U. c #E3CB57",
"Y. c #F1C956",
"T. c #F2D657",
"R. c #EAD64D",
"E. c #F2E044",
"W. c #F3E24B",
"Q. c #F5E65C",
"!. c #F3E354",
"~. c #DCC76D",
"^. c #F3C869",
"/. c #F3D669",
"(. c #F3C877",
"). c #F4D679",
"_. c #E7CF6F",
"`. c #F6E965",
"'. c #F6EA6C",
"]. c #F4E664",
"[. c #F7EC74",
"{. c #F7EC7A",
"}. c #F9F07C",
"|. c #B68686",
" X c #C89797",
".X c #C68C8A",
"XX c #EF8987",
"oX c #F09889",
"OX c #F09493",
"+X c #F19C9B",
"@X c #F19C93",
"#X c #EA9393",
"$X c #F1A686",
"%X c #F4B888",
"&X c #F2A598",
"*X c #F5BA99",
"=X c #DAA6A6",
"-X c #F2A4A4",
";X c #F4ACAC",
":X c #F3AAA5",
">X c #F4B6A8",
",X c #EAB5B5",
"<X c #F5B4B3",
"1X c #F6BBB5",
"2X c #F6BCBB",
"3X c #F8BCBC",
"4X c #E5AEA9",
"5X c #D5A499",
"6X c #F5C888",
"7X c #F5D685",
"8X c #F5C897",
"9X c #F6D696",
"0X c #E9D391",
"qX c #F7E984",
"wX c #FAF28B",
"eX c #F9F185",
"rX c #FBF597",
"tX c #F7E193",
"yX c #F6C6A7",
"uX c #F7C2BC",
"iX c #F8D7AD",
"pX c #FCF8A5",
"aX c #FBEDAF",
"sX c #DBC881",
"dX c #F6C2C2",
"fX c #F9C5C5",
"gX c #FADEC2",
"hX c None",
/* pixels */
"hXhXhXhXhXhXhXhXhXhXhXhXhXhXhXhXhXhXhXhXhXhXhXhXhXhXhXhXhXhXhXhXhXhXhXhXhXhXhXhXhXhXhXhXhXhXhXhXhXhXhXhXhXhXhXhXhXhXhXhXhXhXhXhXhXhXhXhXhXhXhXhXhXhXhXhXhXhXhXhX",
"hXhXhXhXhXhXhXhXhXhXhXhXhXhXhXhXhXhXhXhXhXhXhXhXhXhXhXhXhXhXhXhXhXhXhXhXhXhXhXhXhXhXhXhXhXhXhXhXhXhXhXhXhXhXhXhXhXhXhXhXhXhXhXhXhXhXhXhXhXhXhXhXhXhXhXhXhXhXhXhX",
"hXhXhXhXhXhXhXhXhXhXhXhXhXhXhXhXhXhXhXhXhXhXhXhXhXhXhXhXhXhXhXhXhXhXhXhXhXhXhXhXhXhXhXhXhXhXhXhXhXhXhXhXhXhXhXhXhXhXhXhXhXhXhXhXhXhXhXhXhXhXhXhXhXhXhXhXhXhXhXhX",
"hXhXhXhXhXhXhXhXhXhXhXhXhXhXhXhXhXhXhXhXhXhXhXhXhXhXhXhXhXhXhXhXhXhXhXhXhXhXhXhXhXhXhXhXhXhXhXhXhXhXhXhXhXhXhXhXhXhXhXhXhXhXhXhXhXhXhXhXhXhXhXhXhXhXhXhXhXhXhXhX",
"hXhXhXhXhXhXhXhXhXhXhXhXhXhXhXhXhXhXhXhXhXhXhXhXhXhXhXhXhXhXhXhXhXhXhXhXhXhXhXhXhXhXhXhXhXhXhXhXhXhXhXhXhXhXhXhXhXhXhXhXhXhXhXhXhXhXhXhXhXhXhXhXhXhXhXhXhXhXhXhX",
"hXhXhXhXhXhXhXhXhXhXhXhXhXhXhXhXhXhXhXhXhXhXhXhXhXhXhXhXhXhXhXhXhXhXhXhXhXhXhXhXhXhXhXhXhXhXhXhXhXhXhXhXhXhXhXhXhXhXhXhXhXhXhXhXhXhXhXhXhXhXhXhXhXhXhXhXhXhXhXhX",
"hXhXhXhXhXhXhXhXhXhXhXhXhXhXhXhXhXhXhXhXhXhXhXhXhXhXhXhXhXhXhXhXhXhXhXhXhXhXhXhXhXhXhXhXhX- - - - hXhXhXhXhXhXhXhXhXhXhXhXhXhXhXhXhXhXhXhXhXhXhXhXhXhXhXhXhXhXhX",
"hXhXhXhXhXhXhXhXhXhXhXhXhXhXhXhXhXhXhXhXhXhXhXhXhXhXhXhXhXhXhXhXhXhXhXhXhXhXhXhXhXhXhX- - - - - - - hXhXhXhXhXhXhXhXhXhXhXhXhXhXhXhXhXhXhXhXhXhXhXhXhXhXhXhXhXhX",
"hXhXhXhXhXhXhXhXhXhXhXhXhXhXhXhXhXhXhXhXhXhXhXhXhXhXhXhXhXhXhXhXhXhXhXhXhXhXhXhXhXhX- - - = % % - - - hXhXhXhXhXhXhXhXhXhXhXhXhXhXhXhXhXhXhXhXhXhXhXhXhXhXhXhXhX",
"hXhXhXhXhXhXhXhXhXhXhXhXhXhXhXhXhXhXhXhXhXhXhXhXhXhXhXhXhXhXhXhXhXhXhXhXhXhXhXhX- - 1 = % X . + = - - hXhXhXhXhXhXhXhXhXhXhXhXhXhXhXhXhXhXhXhXhXhXhXhXhXhXhXhXhX",
"hXhXhXhXhXhXhXhXhXhXhXhXhXhXhXhXhXhXhXhXhXhXhXhXhXhXhXhXhXhXhXhXhXhXhXhXhXhX- - - - = o $ O o + * - 3 3 hXhXhXhXhXhXhXhXhXhXhXhXhXhXhXhXhXhXhXhXhXhXhXhXhXhXhXhX",
"hXhXhXhXhXhXhXhXhXhXhXhXhXhXhXhXhXhXhXhXhXhXhXhXhXhXhXhXhXhXhXhXhXhXhXhXhX- - - - @ X y  Xt + # * * 3 8 e hXhXhXhXhXhXhXwXhXhXhXhXhXhXhXhXhXhXhXhXhXhXhXhXhXhXhX",
"hXhXhXhXhXhXhXhXhXhXhXhXhXhXhXhXhXhXhXhXhXhXhXhXhXhXhXhXhXhXhXhXhXhXhX- - - - & X X f ,XfXf o # < : 8 e i { hXhXhX'.`.E.q.eXpXrXwX!.'.hXhXhXhXhXhXhXhXhXhXhXhXhX",
"hXhXhXhXhXhXhXhXhXhXhXhXhXhXhXhXhXhXhXhXhXhXhXhXhXhXhXhXhXhXhXhXhX- - 1 = = o . O ..dXfXdXf # < > t u i E ^ 5.'.wXq.q.q.q.{.wX`.w.6.!.hXhXhXhXhXhXhXhXhXhXhXhXhX",
"hXhXhXhXhXhXhXhXhXhXhXhXhXhXhXhXhXhXhXhXhXhXhXhXhXhXhXhXhXhXhXhX- - - = % X   > |.fXfXfXdXX.> q u s a ` ] =.r.w.wX`.E.q.0.].[.w.2.w.eX[.eXwXwXhXhXhXhXhXhXhXhXhX",
"hXhXhXhXhXhXhXhXhXhXhXhXhXhXhXhXhXhXhXhXhXhXhXhXhXhXhXhXhXhX- - - - & X   X y  XfXfXfXdXdXo.t s s f [ } y.k.4.9.rXwXE.0.0.!.{.].7.q.[.E.].Q.I.`.hXhXhXhXhXhXhXhX",
"hXhXhXhXhXhXhXhXhXhXhXhXhXhXhXhXhXhXhXhXhXhXhXhXhXhXhXhX- - - - & + . . O f 4XfXdXdXuX2XiX|.y =.=.u.y.i.k.1.4.K.sX!.6.w.w.T.rXpX'.Q.`.6.W.W.2.q.w.`.hXhXhXhXhXhX",
"hXhXhXhXhXhXhXhXhXhXhXhXhXhXhXhXhXhXhXhXhXhXhXhXhXhXhX- - - - @ X . X O X.,XfXdX2X2X2X2XdX5X[ =.r.>.a.a.J.1.4.Z.S.J.w.`.`.wXpXhXhXhXrX'.eX[.q.2.6.`.hXhXhXhXhXhX",
"hXhXhXhXhXhXhXhXhXhXhXhXhXhXhXhXhXhXhXhXhXhXhXhXhX- - - - & o . . X $ |.dXdX2X2X2X2X2XuXdX4Xu.=.4.s.A.~.K.J.x.p.p.p.0XhXhXhXhXhXhXhXhXpXpXpX].0.E.pXhXhXhXhXhXhX",
"hXhXhXhXhXhXhXhXhXhXhXhXhXhXhXhXhXhXhXhXhXhXhX2 - - - = + . . X X t |.dXdXdX2X2X2X1XyXuXfX0X4.4.~.sX~.~.L.4.z.y. .[ [ hXhXhXhXhXhXhXhXhXpX}.].'.}.pXhXhXhXhXhXhX",
"hXhXhXhXhXhXhXhXhXhXhXhXhXhXhXhXhXhXhXhXhXhX1 - - - @ .   . X O p =XdXdX3X2X1X2XuX8X(.6XuXyXK.J.~.~.~.R.q.4.;.} ` T i T hXhXhXhXhXhXhXhXrXW.W.Q.E.Q.hXhXhXhXhXhX",
"hXhXhXhXhXhXhXhXhXhXhXhXhXhXhXhXhXhXhXhXhX- - - & X . . . X O f ,XdX2X2X1X1X1X2XyX(.7.U.iXgX_.].R.K.~.K.4.>.t.W D r 8 7 hXhXhXhXhXhXhXhXhX[.'.'.8.!.hXhXhXhXhXhX",
"hXhXhXhXhXhXhXhXhXhXhXhXhXhXhXhXhXhXhXhX- 1 = % . . . O X # ..2XdX3X2X,X<X<X1XuXyX6XP.).aXgX0XT.7.0.K.a.s.} W S V 9 7 3 - hXhXhXhXhXhXhXhXwX}.rX}.}.hXhXhXhXhXhX",
"hXhXhXhXhXhXhXhXhXhXhXhXhXhXhXhXhXhXhX- - = +   . X X X > |.dX2X1X<X<X<X<X>X1XyXyX9X9X9XtXgX0X~.K.K.a.i.] W Q V b j 2 3 - 3 hXhXhXhXhXhXhXW.6.'.`.q.hXhXhXhXhXhX",
"hXhXhXhXhXhXhXhXhXhXhXhXhXhXhXhXhX- - - = +   . . X X y  XfX3X3X<X<X;X;X<X1XyX8X^./.7X/.W.qX7XK.A.S.i.{ W S V b j j 5 2 = 3 hXhXhXhXhXhXhXQ.2.w.Q.E.hXhXhXhXhXhX",
"hXhXhXhXhXhXhXhXhXhXhXhXhXhXhXhX- - - = X   . . X O f 4X3X2X<X<X;X;X:X:X>X>X8X(.0.7./.tX).[./.U.Z.p. .W D V b j 5 g g 5 2 - 7 hXhXhXhXhXhX[.q.!.hXhXhXhXhXhXhXhX",
"hXhXhXhXhXhXhXhXhXhXhXhXhXhXhX- - - & X   O X X O X.,X3X2X<X<X;X;X;X;X>X>XyXyX).I.e./.aXaXqXI.1.l.u.} R V c 6 g g g g g 5 3 7 8 hXhXhXhXpX!.q.wXhXhXhXhXhXhXhXhX",
"hXhXhXhXhXhXhXhXhXhXhXhXhXhX- - - % .   X X X $ o.2X3X<X<X;X;X;X;X-X:X>X8X8XyX7X).qX9X).T.).e.1.:.t.{ D v 6 j g g g g h h 6 7 e ~ 2.E.wX'.w.E.hXhXhXhXhXhXhXhXhX",
"hXhXhXhXhXhXhXhXhXhXhXhXhX- - - @   . X X X t |.dX2X<X<X;X;X-X-X-X-X:X*X*XyX6XR.7XiXiX).T.T.9.l.u.} ! C b j g g g g h h h k 0 e / -.E.'.6.3.q.hXhXhXhXhXhXhXhXhX",
"hXhXhXhXhXhXhXhXhXhXhX- - - = +   X X o O p =X3X<X<X<X;X-X-X-X+X-X&X*X>X>X8X).T.9XiX9X9X9X^.Y.C.u.} Q V c j g g h g h h l x c 8 r Q C.hX8.3.8.hXhXhXhXhXhXhXhXhX",
"hXhXhXhXhXhXhXhXhXhX- - - = o   . X X O f ,X2X<X<X;X;X-X-X+X+X+X&X$XD.G.8X8X).7X).9X7X/.8X*X%Xn.u.{ Q r 0 6 g g h h h l l x x c e i E hXhXW.hXhXhXhXhXhXhXhXhXhX",
"hXhXhXhXhXhXhXhXhX- - - = X   X X X $ ..dX3X<X;X;X-X-X+X+X+X+X+X+XD.5.9.%X8X8X9X8XyX0X(.(.D.B.i.^ ! S 9 0 4 4 5 g h h l l x N N b 9 i W hXhXhXhXhXhXhXhXhXhXhXhX",
"hXhXhXhXhXhXhXhX- - - & X   . o X t |.3X<X<X;X-X-X-X+X+X@XOXOXOX@XG.L.Y.%XyXyXyX8X8X8X%XP.,.V.*.Q S C j 6 5 4 4 4 5 h h l z z N N 9 8 9 hXhXhXhXhXhXhXhXhXhXhXhX",
"hXhXhXhXhXhXhX- - - %     . o X y  X3X<X<X;X;X-X+X+X+XOXOXOXOXOXOX$X$X*X*X8X8X)././.6X%Xb.,.M.( V r b j j g 5 5 5 5 5 g h l z N N x 7 7 8 hXhXhXhXhXhXhXhXhXhXhX",
"hXhXhXhXhXhX- - = @ . . X X O f 4X3X<X;X;X-X-X+X+XOXOXOXXXoXoXoX@X&X&X&X*X^.0.e.T.I.^.D.B.V.#.( r 0 j g g g g g g g 5 5 g h h z z N h 1 1 3 hXhXhXhXhXhXhXhXhXhX",
"hXhXhXhX- - - - +   . . . $ X.,X3X;X;X-X-X-X+X+XOXOXXXXXXXoX$X$XoX$XD.G.*X(.e.0.I.I.(.%XB.&.O.( 9 0 6 g g g h h h h h h g g g h l z z 4 = 1 - hXhXhXhXhXhXhXhXhX",
"hXhXhXhX- - = X   . . X $ |.<X<X;X;X-X-X+X+XOXOXXX$.$.$.m.M.B.F.F.F.9.9.D.6X6X^.).).(.G.V.&.O.I b 4 5 g h h h h h h l l l l h h h h l l 2 = - hXhXhXhXhXhXhXhXhX",
"hXhXhX- - = X   . X X t .X3X<X;X;X-X-X+XOXOXOX$.$.%.%.$.$.M.B.F.oXF.v.5.P.6X6X^.6X7X/.Y.b.@.O.U b 6 5 g g h h h l h l l l l l l l l l l g 1 - - hXhXhXhXhXhXhXhX",
"hXhXhX- - = .   . . f 5X3X;X;X-X-X+X+X+XOXXX$.$.M.%.%.%.M.M.B.F.$X%X%XG.(.%X^.7.^.%X^.7.,.#.O.U b 4 5 h h h h l l l l l l z z z z z z l z 5 - - - hXhXhXhXhXhXhX",
"hXhXhXhX- - %   . X.4X<X<X;X-X-X+X+X+XXXXX$.$.$.&.$.$.m.B.B.D.v.D.%X6X%X8X*X6XY.^.$XH.,.,._ ) U C 6 6 h h h l h h l l l z z z z z m z m m l 4 - - hXhXhXhXhXhXhX",
"hXhXhXhX- - = * X.,X<X;X;X-X-X+X+XOXXXXX$.$.$.$.m.m.M.M.oXN.P.1.Y.(.Y.P.^.6X8X%XD.D.h.g.@.+._ U G 6 6 h h h l l l l z l z z z m m m m m m M g = - hXhXhXhXhXhXhX",
"hXhXhXhXhX- = - q f ...X+X+X+X+XOXXX$.$.$.$.XXXXM.M.h.v.F.$Xb.P.^.^.7.2.T.^.P.D.9.,.h.@.#.+._ ) G 6 j l l h l l l z l z z z z m m m m m M h 1 - - hXhXhXhXhXhXhX",
"hXhXhXhXhXhX- - %     $ t T ..*.$.$.$.$.%.M.B.N.N.M.h.L.H.G.D.%X6X^.P.0.Y.P.7.b.b.,.g.#._ _ _ U G 6 6 h l l l l l z z z z z m m m m m m h 2 = - hXhXhXhXhXhXhXhX",
"hXhXhXhXhXhX- - - @   X o o @ * , p ' *.&.M.H.F.F.N.$XF.P.9.(.8X6X).(.Y.Y.P.2.,.h.g.#.O.) ) U Y B j 5 h l l z l z z z z m m z m m M M h 1 = 1 hXhXhXhXhXhXhXhXhX",
"hXhXhXhXhXhXhX- - = o . o + # + + # * , i W *.h.N.oXoXF.9.5.^.6X)./.sX^.5.v.,.b.g.@.O.) U P L L K 5 5 h l l z l z z z z m z m m m M h 2 - - hXhXhXhXhXhXhXhXhXhX",
"hXhXhXhXhXhXhXhX- - = X o # % @ % * # < , s s a ] y.n.F.D.Y.(.6X6X^.%XF.H.V.V.g.g.@._ U Y L L L K 5 5 h l z z z z z m m m m m M m h 2 = - hXhXhXhXhXhXhXhXhXhXhX",
"hXhXhXhXhXhXhXhX7 3 3 % X O * % * * < ; , u u s E [ y.a.x.P.L.^.G.G.$XN.V.&.@.#._ _ U Y L L H J J h 5 h z l z z z m m m m m M M h 2 - = 1 hXhXhXhXhXhXhXhXhXhXhX",
"hXhXhXhXhXhXhXhXhX8 7 3 # O @ * * * ; ; 8 8 p a E y.a.Z.K.5.1.l.Z.H.h.g.@.#.O.O.) U P L L H H H J l 5 g z z z z m z m m M m m l 2 - - 1 hXhXhXhXhXhXhXhXhXhXhXhX",
"hXhXhXhXhXhXhXhXhXhXe 7 ; O O * * ; ; : 8 w p E ] y.C.~.U.9.4.l.C.i.t.;.f.' ! I Y P L K J H H H H l 5 g z z z z m m m M m M l 2 - - 1 hXhXhXhXhXhXhXhXhXhXhXhXhX",
"hXhXhXhXhXhXhXhXhXhXT e 7 ; O # * ; : : 8 i S ] } y.a.S.S.c.x.z.i.y.t.,.;.! D V v x B K J H H H H l 5 h z z m m m m m M M l 2 = - - hXhXhXhXhXhXhXhXhXhXhXhXhXhX",
"hXhXhXhXhXhXhXhX8.8.hXS 8 7 # o * ; : 8 w i W } u.;.z.C.C.S.h.>.u.| f.;.;.! F 9 0 3 4 g l m M H H M g g z m m m m m M M l 2 = - 1 hXhXhXhXhXhXhXhXhXhXhXhXhXhXhX",
"hXhXhXhXhXhXhXhX2.2.hXhXr 8 ; # # ; , e i E } u.:.1.l.C.l.z.:.>.d.|  .^ ! Q V b 0 5 5 5 5 5 g g l l g h z m m m m m M l 2 - - - hXhXhXhXhXhXhXhXhXhXhXhXhXhXhXhX",
"hXhXhXhXhXhXhXhXE.E.hXhXW e 7 d q < , r s ] y.z.l.4.x.C.:.k.k.d. .' ' ! R A v c k g h h g g g g g g g l m m m m M M l 2 = - - hXhXhXhXhXhXhXhXhXhXhXhXhXhXhXhXhX",
"hXhXhXhXhXhXhXhXhX[.Q.hXhXi 7 r q $ q s T { f.c.S.Z.C.C.n.d.f.d. .;.^ ! D C n c k l l l l l l l h h l z m m M m M l 2 = - - hXhXhXhXhXhXhXhXhXhXhXhXhXhXhXhXhXhX",
"hXhXhXhXhXhXhXhXE.Q.hXhXhXhXe 7 : > t a { | :.J.A.A.l.:.n.d.>.;.^ r.<.! A v c k h l l z z z z z z z m m m m M M l 2 - - 1 hXhXhXhXhXhXhXhXhXhXhXhXhXhXhXhXhXhXhX",
"hXhXhXhXhXhXhXhXE.8.wXhXhXhX~ Z e u u a t.d.Z._._.A.9.:.u.f.-.;.^ ^ ^ D C c c k h l l z z z z m m m m m m m M z 2 = - - hXhXhXhXhXhXhXhXhXhXhXhXhXhXhXhXhXhXhXhX",
"hXhXhXhXhXhXQ.W.Q.`.'.'.hXhXhX^ e i a [ >.4.Z._._.Z.c.d.| } ^ ! R G D C n c k l l l z z z z m z m m m m m M l 2 - - 1 hXhXhXhXhXhXhXhXhXhXhXhXhXhXhXhXhXhXhXhXhX",
"hXhXhXhXhXhX8.2.!.[.8.6.w.hXhXhXT T ] u.>.r.A.~._.L.:.f.} ' ! D D A C v k k h x z l z z z z z m m m M M M z 2 - - 1 hXhXhXhXhXhXhXhXhXhXhXhXhXhXhXhXhXhXhXhXhXhX",
"hXhXhXhXhXhXW.w.[.}.8.6.Q.hXhXhXp.] } u.s.s.~.A.Z.:.1.;.! R D A n n v c k k l x z z z z m z m m m m M m h 2 - - - hXhXhXhXhXhXhXhXhXhXhXhXhXhXhXhXhXhXhXhXhXhXhX",
"hXhXhXhXhXhXQ.'.wXpX}.[.hXhXhXhXhXd.u.p.a.~.U.x.n.f.;.^ R A A v c c k k k l l z z z m z m m m m M M z 4 - - - - hXhXhXhXhXhXhXhXhXhXhXhXhXhXhXhXhXhXhXhXhXhXhXhX",
"hXhXhXhXhXhX[.q.E.pXhXhXhXhXhXhX{.R.4.c.a.z.0.l.| { ! R F v b k j j h h z l z z z z m z m m m m z g 1 = - - - hXhXhXhXhXhXhXhXhXhXhXhXhXhXhXhXhXhXhXhXhXhXhXhXhX",
"hXhXhXhXhXhX'.8.w.rXhXhXhXhXQ.E.Q.6.3.>.z.s.>.=.' ! D V b b k j h h h l z z z z z m m m m m m h 2 - - - - hXhXhXhXhXhXhXhXhXhXhXhXhXhXhXhXhXhXhXhXhXhXhXhXhXhXhX",
"hXhXhXhXhXhXE.2.q.wXhXhXhXhXQ.w.`.w.6.J.u.} ] a S D A 9 0 j k g h l l z z z z z z m m m m l 4 - - - - hXhXhXhXhXhXhXhXhXhXhXhXhXhXhXhXhXhXhXhXhXhXhXhXhXhXhXhXhX",
"hXhXhXhXhXhX!.q.W.eXrXrX`.rXwXrXrX'.Q.). .W T u t 9 v 0 6 g k h l l l z z z z m z m m z 5 2 - - - - hXhXhXhXhXhXhXhXhXhXhXhXhXhXhXhXhXhXhXhXhXhXhXhXhXhXhXhXhXhX",
"hXhXhXhXhXhXhXhX}.E.E.}.eX!.w.'.rXeX[.rXS.S i 8 > : j 6 5 h l l l l z z z z m m m m g 2 - - - - hXhXhXhXhXhXhXhXhXhXhXhXhXhXhXhXhXhXhXhXhXhXhXhXhXhXhXhXhXhXhXhX",
"hXhXhXhXhXhXhXhXhX6.2.Q.'.2.3.w.hXhXhXhXhXT 8 7 * * 2 g g h l l z z z z z m z m h 2 1 = - - hXhXhXhXhXhXhXhXhXhXhXhXhXhXhXhXhXhXhXhXhXhXhXhXhXhXhXhXhXhXhXhXhXhX",
"hXhXhXhXhXhXhXhXhXE.w.hXhXq.q.Q.hXhXhXhXhXhX7 3 - % = 4 g h l z z z z z m m l 5 1 - - - hXhXhXhXhXhXhXhXhXhXhXhXhXhXhXhXhXhXhXhXhXhXhXhXhXhXhXhXhXhXhXhXhXhXhXhX",
"hXhXhXhXhXhXhXhXhXhXhXhXhXhXhXhXhXhXhXhXhXhXhX1 - = @ = 5 h l z z z m z z g 2 = = - - hXhXhXhXhXhXhXhXhXhXhXhXhXhXhXhXhXhXhXhXhXhXhXhXhXhXhXhXhXhXhXhXhXhXhXhXhX",
"hXhXhXhXhXhXhXhXhXhXhXhXhXhXhXhXhXhXhXhXhXhXhXhX- - & @ 2 g z z z m z h 2 - - - - hXhXhXhXhXhXhXhXhXhXhXhXhXhXhXhXhXhXhXhXhXhXhXhXhXhXhXhXhXhXhXhXhXhXhXhXhXhXhX",
"hXhXhXhXhXhXhXhXhXhXhXhXhXhXhXhXhXhXhXhXhXhXhXhX- - - % % 4 l z z l 4 1 - - - hXhXhXhXhXhXhXhXhXhXhXhXhXhXhXhXhXhXhXhXhXhXhXhXhXhXhXhXhXhXhXhXhXhXhXhXhXhXhXhXhX",
"hXhXhXhXhXhXhXhXhXhXhXhXhXhXhXhXhXhXhXhXhXhXhXhXhX- - = @ = h l g 1 - - - - hXhXhXhXhXhXhXhXhXhXhXhXhXhXhXhXhXhXhXhXhXhXhXhXhXhXhXhXhXhXhXhXhXhXhXhXhXhXhXhXhXhX",
"hXhXhXhXhXhXhXhXhXhXhXhXhXhXhXhXhXhXhXhXhXhXhXhXhXhX- - & @ 2 2 - - - - hXhXhXhXhXhXhXhXhXhXhXhXhXhXhXhXhXhXhXhXhXhXhXhXhXhXhXhXhXhXhXhXhXhXhXhXhXhXhXhXhXhXhXhX",
"hXhXhXhXhXhXhXhXhXhXhXhXhXhXhXhXhXhXhXhXhXhXhXhXhXhX- - = = = - - - hXhXhXhXhXhXhXhXhXhXhXhXhXhXhXhXhXhXhXhXhXhXhXhXhXhXhXhXhXhXhXhXhXhXhXhXhXhXhXhXhXhXhXhXhXhX",
"hXhXhXhXhXhXhXhXhXhXhXhXhXhXhXhXhXhXhXhXhXhXhXhXhXhXhX- 1 - - - - hXhXhXhXhXhXhXhXhXhXhXhXhXhXhXhXhXhXhXhXhXhXhXhXhXhXhXhXhXhXhXhXhXhXhXhXhXhXhXhXhXhXhXhXhXhXhX",
"hXhXhXhXhXhXhXhXhXhXhXhXhXhXhXhXhXhXhXhXhXhXhXhXhXhXhXhX- - - hXhXhXhXhXhXhXhXhXhXhXhXhXhXhXhXhXhXhXhXhXhXhXhXhXhXhXhXhXhXhXhXhXhXhXhXhXhXhXhXhXhXhXhXhXhXhXhXhX",
"hXhXhXhXhXhXhXhXhXhXhXhXhXhXhXhXhXhXhXhXhXhXhXhXhXhXhXhXhXhXhXhXhXhXhXhXhXhXhXhXhXhXhXhXhXhXhXhXhXhXhXhXhXhXhXhXhXhXhXhXhXhXhXhXhXhXhXhXhXhXhXhXhXhXhXhXhXhXhXhX",
"hXhXhXhXhXhXhXhXhXhXhXhXhXhXhXhXhXhXhXhXhXhXhXhXhXhXhXhXhXhXhXhXhXhXhXhXhXhXhXhXhXhXhXhXhXhXhXhXhXhXhXhXhXhXhXhXhXhXhXhXhXhXhXhXhXhXhXhXhXhXhXhXhXhXhXhXhXhXhXhX",
"hXhXhXhXhXhXhXhXhXhXhXhXhXhXhXhXhXhXhXhXhXhXhXhXhXhXhXhXhXhXhXhXhXhXhXhXhXhXhXhXhXhXhXhXhXhXhXhXhXhXhXhXhXhXhXhXhXhXhXhXhXhXhXhXhXhXhXhXhXhXhXhXhXhXhXhXhXhXhXhX",
"hXhXhXhXhXhXhXhXhXhXhXhXhXhXhXhXhXhXhXhXhXhXhXhXhXhXhXhXhXhXhXhXhXhXhXhXhXhXhXhXhXhXhXhXhXhXhXhXhXhXhXhXhXhXhXhXhXhXhXhXhXhXhXhXhXhXhXhXhXhXhXhXhXhXhXhXhXhXhXhX",
"hXhXhXhXhXhXhXhXhXhXhXhXhXhXhXhXhXhXhXhXhXhXhXhXhXhXhXhXhXhXhXhXhXhXhXhXhXhXhXhXhXhXhXhXhXhXhXhXhXhXhXhXhXhXhXhXhXhXhXhXhXhXhXhXhXhXhXhXhXhXhXhXhXhXhXhXhXhXhXhX"
};
