/* XPM */
static char *mom[] = {
/* columns rows colors chars-per-pixel */
"48 48 105 2",
"   c #0A459A",
".  c #074E9F",
"X  c #094A9D",
"o  c #154B9D",
"O  c #194E9F",
"+  c #19509F",
"@  c #074FA0",
"#  c #0654A3",
"$  c #0854A3",
"%  c #0459A7",
"&  c #035DA9",
"*  c #0A5DA9",
"=  c #1451A0",
"-  c #1D52A1",
";  c #105DA8",
":  c #2356A3",
">  c #2659A4",
",  c #2B5CA6",
"<  c #2E5FA8",
"1  c #0163AD",
"2  c #0B65AE",
"3  c #1762AB",
"4  c #1168AF",
"5  c #0067B0",
"6  c #0469B1",
"7  c #0A6DB3",
"8  c #116AB1",
"9  c #1372B5",
"0  c #1971B5",
"q  c #1E78B9",
"w  c #2363AA",
"e  c #2F62A9",
"r  c #3564AA",
"t  c #3B6AAE",
"y  c #396DB0",
"u  c #287EBC",
"i  c #3777B6",
"p  c #3D75B4",
"a  c #337EBB",
"s  c #406DAF",
"d  c #436FB0",
"f  c #4671B2",
"g  c #4C76B4",
"h  c #4F78B5",
"j  c #477FBA",
"k  c #4F7FB9",
"l  c #527AB7",
"z  c #547DB8",
"x  c #587FB9",
"c  c #3385BF",
"v  c #3A86BF",
"b  c #5581BA",
"n  c #5B82BB",
"m  c #6589BF",
"M  c #3B8AC2",
"N  c #448DC3",
"B  c #518DC2",
"V  c #588DC2",
"C  c #4A93C6",
"Z  c #5695C7",
"A  c #5096C8",
"S  c #5499CA",
"D  c #6A8DC1",
"F  c #6E91C3",
"G  c #6A9ECB",
"H  c #7394C5",
"J  c #7897C6",
"K  c #7498C7",
"L  c #7999C7",
"P  c #739ECA",
"I  c #7C9BC8",
"U  c #74A3CF",
"Y  c #6BA6D1",
"T  c #6FA9D2",
"R  c #73A7D1",
"E  c #73ABD3",
"W  c #7FB2D7",
"Q  c #819FCA",
"!  c #82A3CD",
"~  c #8AA5CE",
"^  c #80ACD2",
"/  c #8EA8D0",
"(  c #92ABD1",
")  c #9AB1D5",
"_  c #A4BADA",
"`  c #A8BDDB",
"'  c #B6C7E0",
"]  c #B7C8E1",
"[  c #BDCDE3",
"{  c #C0CFE5",
"}  c #C9D6E8",
"|  c #CEDAEB",
" . c #D2DDED",
".. c #D6E0EE",
"X. c #D9E2EF",
"o. c #DDE5F1",
"O. c #E0E7F2",
"+. c #E3E9F3",
"@. c #EAEFF6",
"#. c #ECF1F7",
"$. c #EEF2F8",
"%. c #F5F7FB",
"&. c #F7F9FC",
"*. c #FFFFFF",
"=. c None",
/* pixels */
"=.=.=.=.=.=.=.=.=.=.=.=.=.=.=.=.=.=.=.=.=.=.=.=.=.=.=.=.=.=.=.=.=.=.=.=.=.=.=.=.=.=.=.=.=.=.=.=.",
"=.=.=.=.=.=.=.=.=.=.=.=.=.=.=.=.=.=.=.=.=.=.=.=.=.=.=.=.=.=.=.=.=.=.=.=.=.=.=.=.=.=.=.=.=.=.=.=.",
"=.=.=.=.=.=.=.=.=.=.=.=.=.=.=.=.=.=.=.=.F b y e e y l H =.=.=.=.=.=.=.=.=.=.=.=.=.=.=.=.=.=.=.=.",
"=.=.=.=.=.=.=.=.=.=.=.=.=.=.=.=.P w . . X @ X X @ X X       > K =.=.=.=.=.=.=.=.=.=.=.=.=.=.=.=.",
"=.=.=.=.=.=.=.=.=.=.=.=.=.=.j $ @ @ @ @ @ X @ X X X               g =.=.=.=.=.=.=.=.=.=.=.=.=.=.",
"=.=.=.=.=.=.=.=.=.=.=.=.V # # # @ $ @ @ . @ X X X X X X X             n =.=.=.=.=.=.=.=.=.=.=.=.",
"=.=.=.=.=.=.=.=.=.=.=.3 # # # # # # @ @ @ . X X X X X X X   X           : =.=.=.=.=.=.=.=.=.=.=.",
"=.=.=.=.=.=.=.=.=.^ % % # # # # # @ @ @ @ @ @ @ @ X X X X X   X             Q =.=.=.=.=.=.=.=.=.",
"=.=.=.=.=.=.=.=.G % % % % # # # # # # # # @ @ . @ X . X X X   X X             m =.=.=.=.=.=.=.=.",
"=.=.=.=.=.=.=.R % % % % % # % # # # $ p ! =.=.=.=.=.=.! p X   X   X             L =.=.=.=.=.=.=.",
"=.=.=.=.=.=.=.& & % % % % % # # ; P =.=.=.=.=.=.=.=.=.=.=.=.K = X   X             =.=.=.=.=.=.=.",
"=.=.=.=.=.=.2 & & & & % % % % B =.=.=.=.=.=.=.=.=.=.=.=.=.=.=.=.n   X     X       o =.=.=.=.=.=.",
"=.=.=.=.=.a & & & & & % % & =.=.=.=.=.=.=.=.t , < I =.=.=.=.=.=.=.=.X X X           t =.=.=.=.=.",
"=.=.=.=.=.1 1 & & & & % 2 =.=.=.=.=.=.=.=.=.r +.' s =.=.=.=.=.=.=.=.=.X X   X         =.=.=.=.=.",
"=.=.=.=.0 1 1 & 1 & & & =.=.=.=.=.=.=.=.=.=.m *.#.: =.=.=.=.=.=.=.=.=.=.X X           : =.=.=.=.",
"=.=.=.=.8 8 8 8 8 4 8 G =.=.=.=.: : =.=.=.g / *.*.> K =.=.t h : =.=.=.=.F = = - - + O O =.=.=.=.",
"=.=.=.=.=.=.=.=.=.=.=.=.=.=.=.: ..O.f < e ~ @.*.*. .~ < : _ *.| o =.=.=.=.=.=.=.=.=.=.=.=.=.=.=.",
"=.=.=.=.=.=.=.=.=.=.=.=.=.=.=.: +.*.&.' &.*.*.*.*.*.*.&.@.*.*.Q z =.=.=.=.=.=.=.=.=.=.=.=.=.=.=.",
"=.=.=.=.=.=.=.=.=.=.=.=.=.=.=.=.h *.*.*.*.*.*.*.*.*.*.*.*.*.{ > =.=.=.=.=.=.=.=.=.=.=.=.=.=.=.=.",
"=.=.=.=.=.=.=.=.=.=.=.=.=.=.=.=.> [ *.*.*.*.*.%.&.*.*.*.*.*.( z =.=.=.=.=.=.=.=.=.=.=.=.=.=.=.=.",
"=.=.=.=.  m =.=.I   D =.=.=.=.=.e &.*.*.*.| h - - n o.*.*.*.&.e =.=.=.=.=.Q o m =.=.J   D =.=.=.",
"=.=.=.t   o =.=.>   : =.=.=.=.x ~ *.*.*.| : =.=.=.=.> +.*.*.*.~ d =.=.=.=.r   O =.=.:   > =.=.=.",
"=.=.=.o :   =.=.  :   =.h - s D +.*.*.*.h =.=.=.=.=.=.D *.*.*.$._ K d s =.o :   =.=.  :   =.=.=.",
"=.=.=.  F O =.=.o H   =., O.*.*.*.*.*.&.- =.=.=.=.=.=.e *.*.*.*.*.*.+.> =.  D O =.=.o H   =.=.=.",
"=.=.=.  =.h f F r =.  =., { %.*.*.*.*.&.- =.=.=.=.=.=.r *.*.*.*.+.[ ~ , =.  =.g g D t =.  =.=.=.",
"=.=.Q   =.=.o > K =.  J J r : t o.*.*.*.n =.=.=.=.=.H I *.*.*.| o h H =.I   =.! O > J =.  I =.=.",
"=.=.x   =.=.    =.=.  h =.=.=.D / *.*.*.+.> Q =.=.H r $.*.*.*.~ L =.=.=.l   =.=.    =.=.  l =.=.",
"=.=.g : =.=.: O =.=.- h =.=.=.=.r &.*.*.*.@.F r r I #.*.*.*.&.> =.=.=.=.g - =.=.O O =.=.O h =.=.",
"=.=.=.=.=.=.=.=.=.=.=.=.=.=.=.=.: ] *.*.*.*.*.*.*.*.*.*.*.*. .- =.=.=.=.=.=.=.=.=.=.=.=.=.=.=.=.",
"=.=.=.=.=.=.=.=.=.=.=.=.=.=.=.=.l *.*.*.*.*.*.*.*.*.*.*.*.*.*.H D =.=.=.=.=.=.=.=.=.=.=.=.=.=.=.",
"=.=.=.=.=.=.=.=.=.=.=.=.=.=.=.> @.*.$.` &.*.*.*.*.*.*.&.)  .*.%.r =.=.=.=.=.=.=.=.=.=.=.=.=.=.=.",
"=.=.=.=.=.=.=.=.=.=.=.=.=.=.=.:  .[ , t < ~ X.*.*.o.! < h : )  .: =.=.=.=.=.=.=.=.=.=.=.=.=.=.=.",
"=.=.=.=.=.=.=.=.=.=.=.=.=.=.=.=.- < =.=.=.F r *.*.l m =.=.=.s O =.=.=.=.=.=.=.=.=.=.=.=.=.=.=.=.",
"=.=.=.=.=.=.=.=.=.=.=.=.=.=.=.=.=.=.=.=.=.=.: &.*.> =.=.=.=.=.=.=.=.=.=.=.=.=.=.=.=.=.=.=.=.=.=.",
"=.=.=.=.=.5 5 5 5 5 5 5 7 =.=.=.=.=.=.=.=.=.< }  .: =.=.=.=.=.=.=.=.=.* % % % % # # # =.=.=.=.=.",
"=.=.=.=.=.c 5 5 5 5 5 5 5 6 =.=.=.=.=.=.=.=.D > > D =.=.=.=.=.=.=.=.* & % % % % % # i =.=.=.=.=.",
"=.=.=.=.=.=.7 5 5 5 5 5 5 5 5 A =.=.=.=.=.=.=.=.=.=.=.=.=.=.=.=.B & & % % & % % & * =.=.=.=.=.=.",
"=.=.=.=.=.=.=.5 5 5 5 5 5 5 5 5 7 E =.=.=.=.=.=.=.=.=.=.=.=.R 2 1 & & & & % % % # =.=.=.=.=.=.=.",
"=.=.=.=.=.=.=.E 5 5 5 5 5 5 5 5 5 5 6 M =.=.=.=.=.=.=.^ M 1 1 1 1 & & & & & % % U =.=.=.=.=.=.=.",
"=.=.=.=.=.=.=.=.Y 5 5 5 5 5 5 5 5 5 5 5 5 5 5 5 5 1 5 1 5 1 1 1 & 1 1 & & & & G =.=.=.=.=.=.=.=.",
"=.=.=.=.=.=.=.=.=.W 6 5 5 5 5 5 5 5 5 5 5 5 5 5 5 5 5 5 1 5 1 1 1 & & 1 1 * ^ =.=.=.=.=.=.=.=.=.",
"=.=.=.=.=.=.=.=.=.=.=.9 5 5 5 5 5 5 5 5 5 5 5 5 5 5 5 1 5 1 1 1 1 1 1 * 8 =.=.=.=.=.=.=.=.=.=.=.",
"=.=.=.=.=.=.=.=.=.=.=.=.S 5 5 5 5 5 5 5 5 5 5 5 5 5 5 5 5 5 1 1 1 1 1 Z =.=.=.=.=.=.=.=.=.=.=.=.",
"=.=.=.=.=.=.=.=.=.=.=.=.=.=.N 6 5 5 5 5 5 5 5 5 5 5 5 5 5 5 5 1 1 N =.=.=.=.=.=.=.=.=.=.=.=.=.=.",
"=.=.=.=.=.=.=.=.=.=.=.=.=.=.=.=.E q 5 5 5 5 5 5 5 5 5 5 5 5 q T =.=.=.=.=.=.=.=.=.=.=.=.=.=.=.=.",
"=.=.=.=.=.=.=.=.=.=.=.=.=.=.=.=.=.=.=.=.Y C c u u c C Y =.=.=.=.=.=.=.=.=.=.=.=.=.=.=.=.=.=.=.=.",
"=.=.=.=.=.=.=.=.=.=.=.=.=.=.=.=.=.=.=.=.=.=.=.=.=.=.=.=.=.=.=.=.=.=.=.=.=.=.=.=.=.=.=.=.=.=.=.=.",
"=.=.=.=.=.=.=.=.=.=.=.=.=.=.=.=.=.=.=.=.=.=.=.=.=.=.=.=.=.=.=.=.=.=.=.=.=.=.=.=.=.=.=.=.=.=.=.=."
};
