/* XPM */
static char *xhippo[] = {
/* width height num_colors chars_per_pixel */
"    37    38       14            1",
/* colors */
". c #000000",
"# c #00009a",
"a c #00659a",
"b c #309a65",
"c c #656565",
"d c #659acf",
"e c #9a9a65",
"f c None",
"g c #9a9acf",
"h c #cfcfcf",
"i c #ffff65",
"j c #efefef",
"k c #efefff",
"l c #ffffff",
/* pixels */
"fffffffffffffffffffffffffffffffffffff",
"fffffffffffffffffffffffffffffffffffff",
"fffffffffffffffffffff.........fffffff",
"fffffffffffffffffff..aaaaaaaaa..fffff",
"ffffffffffffffffff.aaahaaaaaaaaa..fff",
"fffffffffffffffff.aahaaaaaaaahaaaa.ff",
"ffffffffffffffff.aahaaaaaaaaaahaaa.ff",
"ffffffffff..fff.aahaaaaaaaaaaaahaa.ff",
"ffffffffff.a.f.aahaaaaaaaaaaaaaahaa.f",
"fffffffffff......aaa..aaaaaaaaaahaa.f",
"fffffffff..aaaaaa.aa.h.aaaaaaaaahaa.f",
"ffffffff..aa.haaaa..a..aaaaaaaaaaaa.f",
"ffffffff...aa.aaaaaa...aaaaaaaaaaaa.f",
"ffffffff.j.aaaaaaaaaa.aaaaaaaaaaaaa.f",
"fffffff....aaa.aaaaaa.aaaaaaaaaaaaa.f",
"fff.....aaaaa.j.aaaaaa.aaaaaaaaaaa.ff",
"ff.aaaaahaa....aaaaaaa.aaaaaaahaaa.ff",
"f.a..hahaaaaaaaaaaaaa..aaaaaahaaaa.ff",
"f.a..aaaaaahaaaa.aaha..aaaaahaaaaa.ff",
"f.aaaaaaaa..haaaa.haa..aaa.a.a.aaa.ff",
"f.a....aaa..haaaa.aa...aaa.....aaa.ff",
"f..a.aa.aaa.aaa.a.....aaaa..ee.hah..f",
"f...a.a..aaaaaaaaa.....aaa..eee....ff",
"f..a.a.a..aa.a.aa..eee.aaa..eee..cfff",
"fff.a..a...aaaaaa..eee.hah..e..cccccf",
"ffff.......aaaaa...eeee......ccccccff",
"fffff.....e.aaa....eeeeee..ccccccffff",
"fff..eeeeee.a.....eeeee..ccccccffffff",
"ff..eeeeeeee.....eeee..ccccccffffffff",
"ffff..eeeeeeeeeeeee..ccccccffffffffff",
"fffccc..eeeeeeeee..ccccccffffffffffff",
"ffcccccc..eeeee..ccccccffffffffffffff",
"ffffcccccc..e..ccccccffffffffffffffff",
"ffffffcccccc.ccccccffffffffffffffffff",
"ffffffffcccccccccffffffffffffffffffff",
"ffffffffffcccccffffffffffffffffffffff",
"ffffffffffffcffffffffffffffffffffffff",
"fffffffffffffffffffffffffffffffffffff"
};
