/* XPM */
static char * close_focus_xpm[] = {
"10 10 3 1",
" 	c None",
".	c #111111",
"+	c #CCCCCC",
"..........",
"..........",
"..+....+..",
"...+..+...",
"....++....",
"....++....",
"...+..+...",
"..+....+..",
"..........",
".........."};
