/* XPM */
static char * iconify_unfocus_xpm[] = {
"10 10 3 1",
" 	c None",
".	c #000000",
"+	c #666666",
"..........",
"..........",
"..........",
"..........",
"..........",
"..........",
"..++++++..",
"..++++++..",
"..........",
".........."};
