P1
# CREATOR: GIMP PNM Filter Version 1.1
60 80
1111111111111111111111111111111111111111111111111111111111111111111111
1111111111111110001111111111111111111111111111111111111111111111111111
1111000001111111111111111111111111111111111111111111111111111110011110
0010011111111111111111111111111111011110011111111110011000110001101111
1111111111111111111111111101001111111111001100000110100111111111111111
1111111111100111010100011111110010000000110000111111111111111111111111
1111101001000111111001000000001100000111111111111111111111111111001001
0001111110010000000001000000111111111111111111111111000010110001111110
0100000000010000001111111111111111111111111110101100001111100100000000
0100000011111111111111111111111000001011000011111001000001100111000011
1111111111111111111111111010010000111111111000011011110000100111111111
1111111111111000100100001111110011000110111100011100111111111111111111
1111110101000011110000001100011001111001101111111111111111111100000100
0001111001111000111000001100100011111111111111111111111111001001111000
0100000000000001110001111111111111111111111000001001011111000011111110
0000010001111111111111111111111101111011000111111100000110010000100111
1111111111111111111111111111010011111111111000000011111011111111111111
1111111111111101111110111111111111100000000001111111111111111111111111
1111111111101111111111101000000000011111111111111111111111111111111111
1011111111111001000000001010111111111111111111111111111111111011111111
1110001100001100100110111111111111111111111111111110011111111110000111
1100000100100111111111111111111111111111100111111111100000000000000100
0100111111111111111111111111111111111111110000000000000001100100011111
1111111111111111111111000111111110000000111111001000000011111111111111
1111111111000000011100000000110000001110000000111111111111111111111110
0000100010000000010000000000100000110011111111111111111111000000100110
0000001000000000001000110000011111111111111111110000000111000000000000
0000000001010000001111111111111111111100000000100000000100000000000001
1100000001111111111111111111100000001000000001000000000000001000000001
1001111111111111111000000010000000100000000000000010000110001100111111
1111111110000110100010001000000000000000101111111101000111111111111010
0110101000100010000000000000001100000011010001111111111110010100110000
1000100000000000000001000010011000011111111111100001001000011000100000
0000000000100000110100000111111111111000010010111110001000000000000000
1000001000100001111111111111000110111111100010000000000000001000001000
1000111111111111111100101111111000100000000000000100000010000111111111
1111111111111001111110001000000000000001000000110001111111111111111111
1110011111100010000000000000110000000100001111111111111111111110011111
0000100000000000001000000001000011111111111111111111100111110000100000
0000000010000111010000011111111111111111111001111100001000000000000011
1110001100000011111111111111111110011110000010000000000000110000000110
0111111111111111111111100111100001000000000000010000000000111100001111
1111111111111000110000010000000000000110000000101100000001111111111111
1110001100000100000000000001000011111111000000001111111111111110001000
0001000000000000010111000100110000111111111111111111100010000010000000
0000000110000001010000110000011111111111111100100000100000000000000000
0000011001110000001111111111001111000000010000000000000000000000001111
0000001111111111110001111100000100000000000000000000000000011001111111
1111111100001000000011000000000000000000000000000011111111111111111100
0100000000100000000000000000000000000000111111111111111111001100000000
1000000000000000000000000000001111111111111111111010000000010000000000
0000000000000000000011111111111111111110100000000100000000000000000000
0000000000111111111111111111111000000010000000000000000000000000000000
1111111111111111111100000000100000000000000000000000000000001111111111
1111111111000000001000000000000000000000000000000011111111111111111111
0000000100000000000000000000000000000000111111111111111111110000000100
0000000000000000000000000000001111111111111111111100000001000000000000
0000000000000000000111111111111111111111100000010000000000000000000000
0000000001111111111111111111111000000100000000000000000000000000000011
1111111111111111111111000001000000000000000000000000000001111111111111
1111111111110000001000000000000001000000000000111111111111111111111111
1111000010000000000111111100000000011000000000011111111111000001110001
0000001111111111111111111000000000011011111100010000000011111111111111
1111110000000000000000000011111110001000000000000000000001111111110000
0000000000000000001111111110000000000000000111111111111111111110000000
0111111111111111000000100000001111111111111111111111111110000011111111
1111111111110000001111111111111111111111111111111100011111111111111111
1110001111111111111111111111111111111111111111111111111111111111111111
1111111111111111111111111111111111111111