<?xml version="1.0" encoding="utf-8"?>
<!-- Generator: Adobe Illustrator 12.0.0, SVG Export Plug-In . SVG Version: 6.00 Build 51448)  -->
<!DOCTYPE svg PUBLIC "-//W3C//DTD SVG 1.1//EN" "http://www.w3.org/Graphics/SVG/1.1/DTD/svg11.dtd" [
	<!ENTITY ns_svg "http://www.w3.org/2000/svg">
	<!ENTITY ns_xlink "http://www.w3.org/1999/xlink">
]>
<svg  version="1.1" id="Layer_2" xmlns="&ns_svg;" xmlns:xlink="&ns_xlink;" width="178.199" height="167.107"
	 viewBox="0 0 178.199 167.107" overflow="visible" enable-background="new 0 0 178.199 167.107" xml:space="preserve">
<radialGradient id="XMLID_14_" cx="90.3389" cy="105.2529" r="67.8914" gradientUnits="userSpaceOnUse">
	<stop  offset="0" style="stop-color:#E41B73"/>
	<stop  offset="1" style="stop-color:#4F0F13"/>
</radialGradient>
<path fill="url(#XMLID_14_)" stroke="#4E1014" stroke-width="4" d="M165.412,84.867c0-14.392-11.668-26.06-26.059-26.06
	c-3.854,0-7.51,0.847-10.802,2.348c-2.6-0.758-5.345-1.173-8.191-1.173c-1.812,0-3.582,0.173-5.302,0.489
	c-4.144-8.9-13.163-15.073-23.628-15.073c-10.5,0-19.543,6.21-23.671,15.155c-1.865-0.374-3.793-0.571-5.768-0.571
	c-3.118,0-6.118,0.493-8.933,1.396c-3.527-1.782-7.511-2.791-11.731-2.791c-14.394,0-26.06,11.666-26.06,26.058
	c0,9.414,4.99,17.657,12.468,22.236c-0.205,1.24-0.315,2.514-0.315,3.812c0,11.475,8.306,21.003,19.231,22.917
	c0.081,11.947,9.788,21.611,21.755,21.611c1.542,0,3.043-0.164,4.493-0.468c3.83,6.214,10.695,10.354,18.531,10.354
	c7.535,0,14.173-3.832,18.079-9.651c1.117,0.177,2.259,0.271,3.425,0.271c12.018,0,21.757-9.741,21.757-21.759
	c0-0.628-0.033-1.244-0.084-1.86c10.966-1.881,19.313-11.43,19.313-22.934c0-0.879-0.053-1.746-0.15-2.6
	C160.785,101.904,165.412,93.929,165.412,84.867z"/>
<g>
	<radialGradient id="XMLID_15_" cx="91.4287" cy="143.3506" r="21.7573" gradientUnits="userSpaceOnUse">
		<stop  offset="0" style="stop-color:#E41B73"/>
		<stop  offset="1" style="stop-color:#4F0F13"/>
	</radialGradient>
	<circle fill="url(#XMLID_15_)" cx="91.428" cy="143.349" r="21.758"/>
	<radialGradient id="XMLID_16_" cx="68.4058" cy="133.4619" r="21.7593" gradientUnits="userSpaceOnUse">
		<stop  offset="0" style="stop-color:#E41B73"/>
		<stop  offset="1" style="stop-color:#4F0F13"/>
	</radialGradient>
	<circle fill="url(#XMLID_16_)" cx="68.406" cy="133.463" r="21.759"/>
	<radialGradient id="XMLID_17_" cx="112.9326" cy="133.9678" r="21.7585" gradientUnits="userSpaceOnUse">
		<stop  offset="0" style="stop-color:#E41B73"/>
		<stop  offset="1" style="stop-color:#4F0F13"/>
	</radialGradient>
	<circle fill="url(#XMLID_17_)" cx="112.933" cy="133.968" r="21.758"/>
	<radialGradient id="XMLID_18_" cx="50.6953" cy="110.6924" r="23.2761" gradientUnits="userSpaceOnUse">
		<stop  offset="0" style="stop-color:#E41B73"/>
		<stop  offset="1" style="stop-color:#4F0F13"/>
	</radialGradient>
	<circle fill="url(#XMLID_18_)" cx="50.696" cy="110.693" r="23.277"/>
	<radialGradient id="XMLID_19_" cx="91.4282" cy="71.458" r="26.0598" gradientUnits="userSpaceOnUse">
		<stop  offset="0" style="stop-color:#E41B73"/>
		<stop  offset="1" style="stop-color:#4F0F13"/>
	</radialGradient>
	<circle fill="url(#XMLID_19_)" cx="91.428" cy="71.458" r="26.06"/>
	<radialGradient id="XMLID_20_" cx="41.3252" cy="84.6475" r="26.0591" gradientUnits="userSpaceOnUse">
		<stop  offset="0" style="stop-color:#E41B73"/>
		<stop  offset="1" style="stop-color:#4F0F13"/>
	</radialGradient>
	<circle fill="url(#XMLID_20_)" cx="41.325" cy="84.646" r="26.059"/>
	<radialGradient id="XMLID_21_" cx="130.6445" cy="109.1748" r="23.2764" gradientUnits="userSpaceOnUse">
		<stop  offset="0" style="stop-color:#E41B73"/>
		<stop  offset="1" style="stop-color:#4F0F13"/>
	</radialGradient>
	<circle fill="url(#XMLID_21_)" cx="130.644" cy="109.174" r="23.276"/>
	<radialGradient id="XMLID_22_" cx="139.3525" cy="84.8682" r="26.0593" gradientUnits="userSpaceOnUse">
		<stop  offset="0" style="stop-color:#E41B73"/>
		<stop  offset="1" style="stop-color:#4F0F13"/>
	</radialGradient>
	<circle fill="url(#XMLID_22_)" cx="139.352" cy="84.867" r="26.059"/>
	<radialGradient id="XMLID_23_" cx="91.1748" cy="116.7656" r="23.2764" gradientUnits="userSpaceOnUse">
		<stop  offset="0" style="stop-color:#E41B73"/>
		<stop  offset="1" style="stop-color:#4F0F13"/>
	</radialGradient>
	<circle fill="url(#XMLID_23_)" cx="91.175" cy="116.764" r="23.277"/>
	<radialGradient id="XMLID_24_" cx="61.9893" cy="89.167" r="29.1855" gradientUnits="userSpaceOnUse">
		<stop  offset="0" style="stop-color:#E41B73"/>
		<stop  offset="1" style="stop-color:#4F0F13"/>
	</radialGradient>
	<circle fill="url(#XMLID_24_)" cx="61.99" cy="89.167" r="29.185"/>
	<radialGradient id="XMLID_25_" cx="120.3613" cy="89.167" r="29.186" gradientUnits="userSpaceOnUse">
		<stop  offset="0" style="stop-color:#E41B73"/>
		<stop  offset="1" style="stop-color:#4F0F13"/>
	</radialGradient>
	<circle fill="url(#XMLID_25_)" cx="120.361" cy="89.167" r="29.187"/>
</g>
<linearGradient id="XMLID_26_" gradientUnits="userSpaceOnUse" x1="84.3208" y1="34.73" x2="84.3208" y2="80.8819" gradientTransform="matrix(1.1184 0.0089 0.0089 1.0007 -5.4733 0.0697)">
	<stop  offset="0.0056" style="stop-color:#C5D880"/>
	<stop  offset="0.3876" style="stop-color:#96BE11"/>
	<stop  offset="1" style="stop-color:#239E2E"/>
</linearGradient>
<path fill="url(#XMLID_26_)" stroke="#4E1014" stroke-width="2" d="M1.989,79.717c21.329-62.92,69.017-49.58,86.891-45.724
	c0,0-0.346-13.27-13.031-23.447l11.738-9.204c0,0,16.064,16.563,12.858,33.702c61.332-6.308,77.429,42.03,76.732,59.644
	c-19.699-22.064-49.378,2.103-65.788-35.835c6.197,17.134-14.223,15.898-4.103,48.021c-19.049,0.998-47.186-27.625-38.548-51.301
	C45.409,79.633,30.881,57.917,1.989,79.717z"/>
</svg>
