/* XPM */
static char *fakenes[] = {
/* columns rows colors chars-per-pixel */
"32 32 55 1 ",
"  c #040404",
". c gray3",
"X c #0C0C0C",
"o c #111111",
"O c #161616",
"+ c gray11",
"@ c #330000",
"# c #000033",
"$ c #222222",
"% c gray16",
"& c gray20",
"* c #660000",
"= c #663333",
"- c #666633",
"; c #003366",
": c gray26",
"> c gray30",
", c #555555",
"< c #5F5F5F",
"1 c gray40",
"2 c #777777",
"3 c #800000",
"4 c #990000",
"5 c #CC0000",
"6 c red",
"7 c #996633",
"8 c #996666",
"9 c #999966",
"0 c #CC9966",
"q c #CCCC66",
"w c #0066CC",
"e c #FF7C80",
"r c #669999",
"t c #3399FF",
"y c #66CCFF",
"u c #808080",
"i c #868686",
"p c gray59",
"a c gray60",
"s c #A0A0A4",
"d c #B2B2B2",
"f c #CCCC99",
"g c #FFCC99",
"h c #FFFF99",
"j c #99CCCC",
"k c #C0C0C0",
"l c #CBCBCB",
"z c #D7D7D7",
"x c #FFFFCC",
"c c #CCECFF",
"v c gray89",
"b c #EAEAEA",
"n c #F1F1F1",
"m c #F8F8F8",
"M c gray100",
/* pixels */
"X++++++++++++++++++++++++++++++ ",
" ipppppppppppppppppppppppppppp2 ",
" inMMMMMMMMMMMMMMMMMMMMMMMMMMM2 ",
" iMMMMMMMMMMMMMMMMMMMMMMMMMMMM2 ",
" iMMMMMMMMMMc@..@MMcccMMMMMMMM2 ",
" iMMMMMMMMM<*6665or***2zMMMMMM2 ",
" iMMMMMMMM<5664 X@@X    vMMMMM2 ",
" iMMMMMMMM@665&ed@@56664pMMMMM2 ",
" iMMMMMMM2566* ,*XX5**36.MMMMM2 ",
" iMMMMMMM2563 * X0f.%0 4pMMMMM2 ",
" iMMMMMMz*6633Oo x&o-o53bMMMMM2 ",
" iMMMMMM15664=-- x&-2.42MMMMMM2 ",
" iMMMMM15665 +ctox&wp @MMMMMMM2 ",
" iMMMM15665 8+y# x% ; ooXbMMMM2 ",
" iMMMv*664  fow  g --gxxx7zMMM2 ",
" iMMMc*65  %xow  =0xxxxxxg-nMM2 ",
" iMMMdoO   gxgoogxxxxxxxxh-zMM2 ",
" iMMM+q7go  fxxxxxxxxxxxxgXzMM2 ",
" iMMM+gq--  8xxx=xxxxxxx=  .MM2 ",
" iMMM>g-x8o-x0&x0 -0008    nMM2 ",
" iMMMM2gxxxx0  -  . .     2MMM2 ",
" iMMMMM>xxxx:  .       00.MMMM2 ",
" iMMMMM1gxxxx&oX $8+..ghg<MMMM2 ",
" iMMMMMM+xxxxxxx lk--gh02MMMMM2 ",
" iMMMMMMs9xxxxxh 3zj+gg1MMMMMM2 ",
" iMMMMMMMs%0gxggg@  7h9aMMMMMM2 ",
" iMMMMMMMMMu1-++gq-70=pMMMMMMM2 ",
" iMMMMMMMMMMmzzz+ . <zMMMMMMMM2 ",
" iMMMMMMMMMMMMMMMMMMMMMMMMMMMM2 ",
" iMMMMMMMMMMMMMMMMMMMMMMMMMMMM2 ",
" 211111111111111111111111111111 ",
".                               "
};
