<?xml version="1.0" encoding="UTF-8" standalone="no"?>
<!-- Created with Sodipodi ("http://www.sodipodi.com/") -->

<svg
   xmlns:dc="http://purl.org/dc/elements/1.1/"
   xmlns:cc="http://creativecommons.org/ns#"
   xmlns:rdf="http://www.w3.org/1999/02/22-rdf-syntax-ns#"
   xmlns:svg="http://www.w3.org/2000/svg"
   xmlns="http://www.w3.org/2000/svg"
   xmlns:xlink="http://www.w3.org/1999/xlink"
   xmlns:sodipodi="http://sodipodi.sourceforge.net/DTD/sodipodi-0.dtd"
   xmlns:inkscape="http://www.inkscape.org/namespaces/inkscape"
   id="svg548"
   sodipodi:version="0.32"
   width="72pt"
   height="72pt"
   sodipodi:docname="maff2.svg"
   inkscape:version="0.48.4 r9939"
   inkscape:output_extension="org.inkscape.output.svg.inkscape"
   version="1.1">
  <metadata
     id="metadata27">
    <rdf:RDF>
      <cc:Work
         rdf:about="">
        <dc:format>image/svg+xml</dc:format>
        <dc:type
           rdf:resource="http://purl.org/dc/dcmitype/StillImage" />
        <dc:title />
      </cc:Work>
      <cc:Work
         rdf:about="">
        <dc:format>image/svg+xml</dc:format>
        <dc:type
           rdf:resource="http://purl.org/dc/dcmitype/StillImage" />
      </cc:Work>
    </rdf:RDF>
  </metadata>
  <defs
     id="defs550">
    <linearGradient
       id="linearGradient5224">
      <stop
         style="stop-color:#2aaf18;stop-opacity:1;"
         offset="0"
         id="stop5226" />
      <stop
         style="stop-color:#cbff87;stop-opacity:1;"
         offset="1"
         id="stop5228" />
    </linearGradient>
    <inkscape:perspective
       sodipodi:type="inkscape:persp3d"
       inkscape:vp_x="-50 : 600 : 1"
       inkscape:vp_y="0 : 1000 : 0"
       inkscape:vp_z="700 : 600 : 1"
       inkscape:persp3d-origin="300 : 400 : 1"
       id="perspective29" />
    <linearGradient
       id="linearGradient569">
      <stop
         style="stop-color:#c57700;stop-opacity:1;"
         offset="0.000000"
         id="stop570" />
      <stop
         style="stop-color:#ffa75f;stop-opacity:0;"
         offset="1.000000"
         id="stop571" />
    </linearGradient>
    <linearGradient
       id="linearGradient559">
      <stop
         style="stop-color:#945700;stop-opacity:1;"
         offset="0.000000"
         id="stop560" />
      <stop
         style="stop-color:#ffa75f;stop-opacity:0;"
         offset="1.000000"
         id="stop561" />
    </linearGradient>
    <linearGradient
       xlink:href="#linearGradient559"
       id="linearGradient562"
       x1="40.9153252"
       y1="31.7318363"
       x2="42.7533417"
       y2="35.4855690"
       gradientUnits="userSpaceOnUse"
       spreadMethod="pad"
       gradientTransform="matrix(1.2287685,0,0,0.7275398,-7.1389191,1.8739714)" />
    <linearGradient
       xlink:href="#linearGradient559"
       id="linearGradient566"
       x1="59.0300407"
       y1="48.8431816"
       x2="58.3435440"
       y2="23.6183739"
       gradientUnits="userSpaceOnUse"
       spreadMethod="pad"
       gradientTransform="matrix(0.5734264,0,0,1.5590094,-6.8541051,2.1587764)" />
    <linearGradient
       xlink:href="#linearGradient569"
       id="linearGradient568"
       x1="92.7804184"
       y1="64.9443817"
       x2="90.8925323"
       y2="42.8786545"
       gradientUnits="userSpaceOnUse"
       spreadMethod="pad"
       gradientTransform="matrix(0.7296653,0,0,1.2251888,-7.1389191,1.8739714)" />
    <linearGradient
       y2="69.142799"
       x2="35.370575"
       y1="19.295689"
       x1="60.644615"
       spreadMethod="pad"
       gradientUnits="userSpaceOnUse"
       id="linearGradient1753"
       xlink:href="#linearGradient632"
       inkscape:collect="always" />
    <linearGradient
       y2="54.628181"
       x2="73.916298"
       y1="17.443844"
       x1="85.637657"
       spreadMethod="pad"
       gradientTransform="scale(0.740666,1.350136)"
       gradientUnits="userSpaceOnUse"
       id="linearGradient1752"
       xlink:href="#linearGradient632"
       inkscape:collect="always" />
    <metadata
       id="metadata1706">
      <rdf:RDF>
        <cc:Work
           rdf:about="">
          <dc:format>image/svg+xml</dc:format>
          <dc:type
             rdf:resource="http://purl.org/dc/dcmitype/StillImage" />
        </cc:Work>
      </rdf:RDF>
    </metadata>
    <sodipodi:namedview
       inkscape:window-y="56"
       inkscape:window-x="103"
       inkscape:window-height="560"
       inkscape:window-width="812"
       inkscape:cy="73.007956"
       inkscape:cx="113.94414"
       inkscape:zoom="2.4559706"
       inkscape:pageshadow="2"
       inkscape:pageopacity="0.0"
       borderopacity="1.0"
       bordercolor="#666666"
       pagecolor="#ffffff"
       id="namedview1705" />
    <defs
       id="defs1694">
      <sodipodi:namedview
         id="namedview909" />
      <defs
         id="defs550-7">
        <linearGradient
           spreadMethod="pad"
           gradientUnits="objectBoundingBox"
           id="linearGradient632"
           y2="0.0000000"
           x2="1.0000000"
           y1="0.0000000"
           x1="0.0000000">
          <stop
             id="stop633"
             offset="0.000000"
             style="stop-color:#ffb700;stop-opacity:1;" />
          <stop
             id="stop634"
             offset="1.000000"
             style="stop-color:#ffd58f;stop-opacity:0;" />
        </linearGradient>
        <linearGradient
           xlink:href="#linearGradient1749"
           spreadMethod="pad"
           gradientUnits="objectBoundingBox"
           id="linearGradient556"
           y2="0.0000000"
           x2="1.0000000"
           y1="0.0000000"
           x1="0.0000000" />
        <linearGradient
           spreadMethod="pad"
           gradientUnits="userSpaceOnUse"
           y2="69.142799"
           x2="35.370575"
           y1="19.295689"
           x1="60.644615"
           xlink:href="#linearGradient632"
           id="linearGradient559-3" />
        <linearGradient
           gradientTransform="scale(0.740666,1.350136)"
           spreadMethod="pad"
           gradientUnits="userSpaceOnUse"
           y2="54.628181"
           x2="73.916298"
           y1="17.443844"
           x1="85.637657"
           id="linearGradient631"
           xlink:href="#linearGradient632" />
      </defs>
    </defs>
    <radialGradient
       gradientUnits="userSpaceOnUse"
       r="16.305307"
       fy="26.408607"
       fx="44.553200"
       cy="25.275284"
       cx="43.009949"
       gradientTransform="matrix(0.941354,0,0,0.862108,0.841869,2.153549)"
       id="radialGradient1757"
       xlink:href="#linearGradient1754"
       inkscape:collect="always" />
    <linearGradient
       gradientUnits="userSpaceOnUse"
       y2="80.488991"
       x2="14.134752"
       y1="68.726105"
       x1="11.511824"
       gradientTransform="scale(1.177439,0.849301)"
       id="linearGradient1748"
       xlink:href="#linearGradient1749"
       inkscape:collect="always" />
    <linearGradient
       id="linearGradient1749">
      <stop
         id="stop1751"
         style="stop-color:#ffffff;stop-opacity:0.61855668;"
         offset="0.0000000" />
      <stop
         id="stop1750"
         style="stop-color:#ffffff;stop-opacity:0.0000000;"
         offset="1.0000000" />
    </linearGradient>
    <linearGradient
       id="linearGradient1754">
      <stop
         id="stop1755"
         offset="0.0000000"
         style="stop-color:#ffe6ba;stop-opacity:1.0000000;" />
      <stop
         id="stop1756"
         offset="1.0000000"
         style="stop-color:#ffffff;stop-opacity:0.0000000;" />
    </linearGradient>
  </defs>
  <sodipodi:namedview
     id="base"
     showgrid="false"
     inkscape:zoom="3.9205143"
     inkscape:cx="67.82325"
     inkscape:cy="40.330759"
     inkscape:window-width="795"
     inkscape:window-height="711"
     inkscape:window-x="0"
     inkscape:window-y="30"
     inkscape:current-layer="svg548"
     inkscape:window-maximized="0" />
  <path
     style="fill:#000000;fill-opacity:0.3;fill-rule:evenodd;stroke:none;stroke-width:1pt;stroke-linecap:butt;stroke-linejoin:miter;stroke-opacity:1"
     d="M 41.126783,86.944379 C 40.267791,86.568459 6.0797264,81.723193 6.0797264,81.723193 L 2.987337,83.117462 L 2.1283386,79.619442 L 4.7053256,76.584302 L 2.1283386,75.664742 L 16.731279,64.779378 L 18.105647,65.755471 L 18.44926,63.449718 L 22.572446,63.047793 L 67.240265,72.39582 L 41.126783,86.944379 z "
     id="path594" />
  <path
     style="fill:#593a28;fill-opacity:1;fill-rule:evenodd;stroke:none;stroke-width:1pt;stroke-linecap:butt;stroke-linejoin:miter;stroke-opacity:1"
     d="M 16.673693,33.243336 C 19.97407,48.138049 19.287161,71.577094 13.758515,83.054094 L 40.68316,87.362945 L 73.900512,75.358259 C 72.191703,59.003214 70.767585,40.369694 74.185298,24.584221 L 80.04279,11.201955 L 74.138779,11.989068 L 74.926006,8.0531426 C 67.428537,2.8625904 57.937379,1.9442 48.161435,5.2979534 L 47.571062,9.6275486 L 41.863905,4.7075618 C 29.375972,5.2465936 18.027277,8.6337294 7.8178196,18.286692 L 16.673693,33.243336 z "
     id="path564"
     sodipodi:nodetypes="ccccccccccccc" />
  <path
     style="fill:url(#linearGradient562);fill-opacity:1;fill-rule:evenodd;stroke:none;stroke-width:1pt;stroke-linecap:butt;stroke-linejoin:miter;stroke-opacity:1"
     d="M 49.539129,19.270583 C 49.145515,19.270583 21.003251,29.307392 21.003251,29.307392 C 21.003251,29.307392 23.56169,48.003221 29.071993,48.396834 C 34.58239,48.790447 68.431717,22.025876 68.431717,22.025876"
     id="path558"
     sodipodi:nodetypes="cccc" />
  <path
     style="fill:#e9a93d;fill-opacity:1;fill-rule:evenodd;stroke:none;stroke-width:1pt;stroke-linecap:butt;stroke-linejoin:miter;stroke-opacity:1"
     d="M 20.806491,31.472123 L 38.911947,33.046576 C 36.895849,50.497649 36.58856,67.09427 39.699079,82.836533 C 39.699079,82.836533 21.200105,81.065415 21.200105,79.884575 C 21.200105,78.70383 26.217894,52.087231 20.806491,31.472123 z "
     id="path552"
     sodipodi:nodetypes="ccccc" />
  <path
     style="fill:#ffe6ba;fill-opacity:1;fill-rule:evenodd;stroke:none;stroke-width:1pt;stroke-linecap:butt;stroke-linejoin:miter;stroke-opacity:1"
     d="M 69.394996,23.885021 L 38.518334,33.44019 L 39.305561,83.033387 C 39.305561,83.033387 68.82533,72.012687 68.82533,70.831847 C 68.82533,69.651102 64.837951,35.955892 69.394996,23.885021 z "
     id="path553"
     sodipodi:nodetypes="ccccc" />
  <path
     style="fill:#e3c084;fill-opacity:1;fill-rule:evenodd;stroke:none;stroke-width:1pt;stroke-linecap:butt;stroke-linejoin:miter;stroke-opacity:1"
     d="M 50.326261,19.270678 L 42.847891,9.8243269 C 33.663927,11.08821 23.625606,12.352141 15.296094,20.451423 L 20.412878,29.897764 L 50.326261,19.270678 z "
     id="path556"
     sodipodi:nodetypes="ccccc" />
  <path
     style="fill:#e3b463;fill-opacity:1;fill-rule:evenodd;stroke:none;stroke-width:1pt;stroke-linecap:butt;stroke-linejoin:miter;stroke-opacity:1"
     d="M 49.539034,19.467532 L 69.612462,23.206622 L 71.186916,12.973148 C 64.079751,10.608282 57.542253,9.3826536 50.719874,11.005129 L 49.539034,19.467532 z "
     id="path557"
     sodipodi:nodetypes="ccccc" />
  <path
     style="fill:#c89134;fill-opacity:1;fill-rule:evenodd;stroke:none;stroke-width:1pt;stroke-linecap:butt;stroke-linejoin:miter;stroke-opacity:1"
     d="M 38.911947,33.046576 C 37.731107,30.422614 36.550362,27.798556 35.369522,25.174594 C 28.832024,22.217719 21.724859,20.400082 14.902481,23.993848 C 16.739311,26.486575 18.576047,28.979396 20.412878,31.472123 C 26.579266,31.996972 32.745559,32.521727 38.911947,33.046576 z "
     id="path554"
     sodipodi:nodetypes="ccccc" />
  <path
     style="fill:#e3c084;fill-opacity:1;fill-rule:evenodd;stroke:none;stroke-width:1pt;stroke-linecap:butt;stroke-linejoin:miter;stroke-opacity:1"
     d="M 38.518334,34.227322 L 43.241505,24.78098 C 53.343837,18.915263 63.730955,16.182567 73.548406,15.728252 C 72.039666,18.483451 70.53083,21.23865 69.02209,23.993848 L 38.518334,34.227322 z "
     id="path555"
     sodipodi:nodetypes="ccccc" />
  <path
     style="fill:url(#linearGradient566);fill-opacity:1;fill-rule:evenodd;stroke:none;stroke-width:1pt;stroke-linecap:butt;stroke-linejoin:miter;stroke-opacity:1"
     d="M 21.091305,31.756928 C 27.126457,32.281777 33.161609,32.806532 39.196761,33.331381 C 35.75664,51.06724 37.158255,66.823205 39.983893,82.850254 C 39.983893,82.850254 21.123473,81.079136 21.123473,79.898296 C 25.658665,49.125869 21.99492,37.572228 21.091305,31.756928 z "
     id="path565"
     sodipodi:nodetypes="ccccc" />
  <path
     style="fill:url(#linearGradient568);fill-opacity:1;fill-rule:evenodd;stroke:none;stroke-width:1pt;stroke-linecap:butt;stroke-linejoin:miter;stroke-opacity:1"
     d="M 59.426642,32.144566 L 38.518334,33.44019 L 39.305561,83.033387 C 39.305561,83.033387 68.82533,72.012687 68.82533,70.831847 C 67.740993,53.386042 59.426642,32.538179 59.426642,32.144566 z "
     id="path567"
     sodipodi:nodetypes="ccccc" />
  <path
     style="font-size:12px;fill:#ffffff;fill-opacity:0.70434804;fill-rule:evenodd;stroke-width:1pt"
     d="M 23.012112,70.804052 L 23.012112,77.880852 L 35.292412,79.754152 L 35.292412,72.677352 L 23.012112,70.804052 z "
     id="path573"
     sodipodi:nodetypes="ccccc" />
  <g
     id="g3199"
     transform="matrix(0.66359598,0,0,0.66359598,30.133636,31.869685)">
    <path
       transform="matrix(1.167023,0,0,1.167023,-0.886641,-13.66436)"
       d="m 22.5,64.0625 c 0,3.796958 -4.267286,6.875 -9.53125,6.875 -5.263964,0 -9.53125,-3.078042 -9.53125,-6.875 0,-3.796958 4.267286,-6.875 9.53125,-6.875 5.263964,0 9.53125,3.078042 9.53125,6.875 z"
       sodipodi:ry="6.875"
       sodipodi:rx="9.53125"
       sodipodi:cy="64.0625"
       sodipodi:cx="12.96875"
       id="path1728"
       style="fill:#000000;fill-opacity:0.39215686;fill-rule:nonzero;stroke:none"
       sodipodi:type="arc" />
    <path
       sodipodi:nodetypes="ccccccccccccccccccccc"
       id="path1102"
       d="m 13.665378,14.230243 c 0,0 6.719895,4.795241 10.499836,9.372517 3.989938,4.577276 7.349887,3.269482 7.349887,3.269482 4.199933,-2.397621 15.749753,-3.705413 20.789675,-2.615586 7.979876,1.52576 11.969814,-3.269482 11.969814,-3.269482 5.039921,-5.594449 7.979877,-7.919414 13.859784,-10.898275 0,0 4.409932,11.770137 0,34.874479 -3.14995,4.577277 -2.099967,9.154552 -0.839987,10.24438 2.449962,0.07265 6.579898,-2.688242 8.399869,-1.52576 -2.799956,4.504621 -4.759925,5.957724 -7.76988,6.321001 1.119984,2.324965 2.02997,3.778067 5.039923,5.231171 -2.169966,1.671068 -4.339932,1.598414 -6.509899,1.089826 -0.209996,2.470277 0.839987,4.06869 1.25998,6.103035 -3.14995,-0.363276 -4.619928,-1.598413 -5.66991,-3.705414 -1.32998,3.124173 -0.979984,5.594449 -0.209998,8.718621 -2.58996,-0.653897 -4.969923,-3.051517 -7.349886,-5.449136 0,0 -7.769878,6.538963 -19.109702,6.538965 C 27.945155,79.183961 18.495302,67.849756 18.495302,67.849756 l -4.409931,-8.936585 c 0,0 3.569944,-4.795241 3.569944,-7.410827 0,-2.615586 -3.149952,-33.784652 -3.149952,-33.784652"
       style="fill:#000000;fill-opacity:0.39215686;fill-rule:evenodd;stroke:none"
       inkscape:connector-curvature="0" />
    <path
       sodipodi:nodetypes="ccccccccccccccccccccc"
       id="path1752"
       d="m 11.193186,13.160483 c 0.398128,-2.587829 6.967233,4.777531 10.550381,8.957871 3.782212,4.18034 6.967233,2.985956 6.967233,2.985956 3.981275,-2.189702 14.929783,-3.384084 19.707314,-2.388765 7.564424,1.393447 11.346636,-2.985957 11.346636,-2.985957 4.777531,-5.109304 7.564425,-7.232651 13.13821,-9.9531891 0,0 4.18034,10.7494451 0,31.8502051 -2.985956,4.180341 -1.990638,8.36068 -0.796255,9.355999 2.322411,0.06635 6.237332,-2.45512 7.962551,-1.393447 -2.654183,4.113986 -4.512112,5.441077 -7.365361,5.772851 1.061675,2.123346 1.924285,3.450438 4.777532,4.77753 -2.056992,1.526155 -4.113984,1.459801 -6.170977,0.995318 -0.199064,2.256057 0.796255,3.715858 1.194382,5.573787 -2.985956,-0.331773 -4.379403,-1.459801 -5.374721,-3.384085 -1.260738,2.853248 -0.928964,5.109305 -0.199064,7.962552 -2.455121,-0.597192 -4.711177,-2.786893 -6.967233,-4.976594 0,0 -7.36536,5.971913 -18.114805,5.971914 -16.522294,0.59719 -25.480164,-9.754126 -25.480164,-9.754126 l -4.18034,-8.161616 c 0,0 3.384084,-4.379403 3.384084,-6.768168 C 8.6053566,30.080905 10.795058,18.336142 11.193186,13.160483 z"
       style="fill:none;stroke:#593a28;stroke-width:6.25;stroke-linecap:butt;stroke-linejoin:miter;stroke-miterlimit:4;stroke-opacity:1;stroke-dasharray:none"
       inkscape:connector-curvature="0" />
    <path
       sodipodi:nodetypes="ccccccccccccccccccccc"
       id="path1692"
       d="m 11.790378,13.558611 c 0,0 6.370041,4.379403 9.953189,8.559743 3.782212,4.18034 6.967233,2.985956 6.967233,2.985956 3.981275,-2.189702 14.929783,-3.384084 19.707314,-2.388765 7.564424,1.393447 11.346636,-2.985957 11.346636,-2.985957 4.777531,-5.109304 7.564425,-7.232651 13.13821,-9.9531891 0,0 4.18034,10.7494451 0,31.8502051 -2.985956,4.180341 -1.990638,8.36068 -0.796255,9.355999 2.322411,0.06635 6.237332,-2.45512 7.962551,-1.393447 -2.654183,4.113986 -4.512112,5.441077 -7.365361,5.772851 1.061675,2.123346 1.924285,3.450438 4.777532,4.77753 -2.056992,1.526155 -4.113984,1.459801 -6.170977,0.995318 -0.199064,2.256057 0.796255,3.715858 1.194382,5.573787 -2.985956,-0.331773 -4.379403,-1.459801 -5.374721,-3.384085 -1.260738,2.853248 -0.928964,5.109305 -0.199064,7.962552 -2.455121,-0.597192 -4.711177,-2.786893 -6.967233,-4.976594 0,0 -7.36536,5.971913 -18.114805,5.971914 -16.522294,0.59719 -25.480164,-9.754126 -25.480164,-9.754126 l -4.18034,-8.161616 c 0,0 3.384084,-4.379403 3.384084,-6.768168 0,-2.388766 -2.985957,-30.854887 -2.985957,-30.854887"
       style="fill:#ffc93f;fill-opacity:1;fill-rule:evenodd;stroke:none"
       inkscape:connector-curvature="0" />
    <g
       id="layer1"
       inkscape:label="Layer 1" />
    <path
       sodipodi:nodetypes="ccccccccccccccccccccc"
       id="path1753"
       d="m 11.790378,13.558611 c 0,0 6.370041,4.379403 9.953189,8.559743 3.782212,4.18034 6.967233,2.985956 6.967233,2.985956 3.981275,-2.189702 14.929783,-3.384084 19.707314,-2.388765 7.564424,1.393447 11.346636,-2.985957 11.346636,-2.985957 4.777531,-5.109304 7.564425,-7.232651 13.13821,-9.9531891 0,0 4.18034,10.7494451 0,31.8502051 -2.985956,4.180341 -1.990638,8.36068 -0.796255,9.355999 2.322411,0.06635 6.237332,-2.45512 7.962551,-1.393447 -2.654183,4.113986 -4.512112,5.441077 -7.365361,5.772851 1.061675,2.123346 1.924285,3.450438 4.777532,4.77753 -2.056992,1.526155 -4.113984,1.459801 -6.170977,0.995318 -0.199064,2.256057 0.796255,3.715858 1.194382,5.573787 -2.985956,-0.331773 -4.379403,-1.459801 -5.374721,-3.384085 -1.260738,2.853248 -0.928964,5.109305 -0.199064,7.962552 -2.455121,-0.597192 -4.711177,-2.786893 -6.967233,-4.976594 0,0 -7.36536,5.971913 -18.114805,5.971914 -16.522294,0.59719 -25.480164,-9.754126 -25.480164,-9.754126 l -4.18034,-8.161616 c 0,0 3.384084,-4.379403 3.384084,-6.768168 0,-2.388766 -2.985957,-30.854887 -2.985957,-30.854887"
       style="fill:url(#radialGradient1757);fill-opacity:1;fill-rule:evenodd;stroke:none"
       inkscape:connector-curvature="0" />
    <path
       transform="matrix(1.167023,0,0,1.167023,-1.199141,-16.16436)"
       d="m 22.5,64.0625 c 0,3.796958 -4.267286,6.875 -9.53125,6.875 -5.263964,0 -9.53125,-3.078042 -9.53125,-6.875 0,-3.796958 4.267286,-6.875 9.53125,-6.875 5.263964,0 9.53125,3.078042 9.53125,6.875 z"
       sodipodi:ry="6.875"
       sodipodi:rx="9.53125"
       sodipodi:cy="64.0625"
       sodipodi:cx="12.96875"
       id="path1062"
       style="fill:#000000;fill-opacity:1;fill-rule:nonzero;stroke:none"
       sodipodi:type="arc" />
    <path
       transform="matrix(0.90086,0,0,0.90086,0.841869,1.590511)"
       d="m 43.75,46.875 c 0,5.350259 -4.19733,9.6875 -9.375,9.6875 -5.17767,0 -9.375,-4.337241 -9.375,-9.6875 0,-5.350259 4.19733,-9.6875 9.375,-9.6875 5.17767,0 9.375,4.337241 9.375,9.6875 z"
       sodipodi:ry="9.6875"
       sodipodi:rx="9.375"
       sodipodi:cy="46.875"
       sodipodi:cx="34.375"
       id="path1686"
       style="fill:#fffffd;fill-opacity:1;fill-rule:nonzero;stroke:#000000;stroke-width:2.5;stroke-linecap:round;stroke-linejoin:round;stroke-miterlimit:4;stroke-opacity:1"
       sodipodi:type="arc" />
    <path
       transform="matrix(1.126075,0,0,1.126075,12.38414,-7.76999)"
       d="m 43.75,46.875 c 0,5.350259 -4.19733,9.6875 -9.375,9.6875 -5.17767,0 -9.375,-4.337241 -9.375,-9.6875 0,-5.350259 4.19733,-9.6875 9.375,-9.6875 5.17767,0 9.375,4.337241 9.375,9.6875 z"
       sodipodi:ry="9.6875"
       sodipodi:rx="9.375"
       sodipodi:cy="46.875"
       sodipodi:cx="34.375"
       id="path1685"
       style="fill:#fffffd;fill-opacity:1;fill-rule:nonzero;stroke:#000000;stroke-width:2.5;stroke-linecap:round;stroke-linejoin:round;stroke-miterlimit:4;stroke-opacity:1"
       sodipodi:type="arc" />
    <path
       transform="matrix(0.90086,0,0,0.90086,0.278832,3.842661)"
       d="m 63.4375,47.03125 c 0,2.50254 -1.748888,4.53125 -3.90625,4.53125 -2.157362,0 -3.90625,-2.02871 -3.90625,-4.53125 0,-2.50254 1.748888,-4.53125 3.90625,-4.53125 2.157362,0 3.90625,2.02871 3.90625,4.53125 z"
       sodipodi:ry="4.53125"
       sodipodi:rx="3.90625"
       sodipodi:cy="47.03125"
       sodipodi:cx="59.53125"
       id="path1688"
       style="fill:#000000;fill-opacity:1;fill-rule:nonzero;stroke:none"
       sodipodi:type="arc" />
    <path
       transform="matrix(0.90086,0,0,0.90086,-19.99052,1.027474)"
       d="m 63.4375,47.03125 c 0,2.50254 -1.748888,4.53125 -3.90625,4.53125 -2.157362,0 -3.90625,-2.02871 -3.90625,-4.53125 0,-2.50254 1.748888,-4.53125 3.90625,-4.53125 2.157362,0 3.90625,2.02871 3.90625,4.53125 z"
       sodipodi:ry="4.53125"
       sodipodi:rx="3.90625"
       sodipodi:cy="47.03125"
       sodipodi:cx="59.53125"
       id="path1687"
       style="fill:#000000;fill-opacity:1;fill-rule:nonzero;stroke:none"
       sodipodi:type="arc" />
    <path
       sodipodi:nodetypes="ccccccccccc"
       id="path1689"
       d="m 47.721391,60.239069 2.985957,0.497659 c 0,0 -2.886425,5.076127 -6.967233,5.275191 -4.080807,0.199064 -8.758806,-1.990638 -8.758806,-1.990638 0,0 3.284552,2.587829 5.27519,3.085489 1.990638,0.497659 5.637093,0.650494 6.831475,-0.04623 1.194383,-0.696723 3.342857,-2.182628 4.515161,-4.233642 0.398127,-0.995318 0.497659,-1.393446 0.497659,-1.393446 l 2.886426,0.199064 c 0,0 -0.796256,-1.891107 -3.384085,-1.791575 -2.58783,0.09953 -3.881744,0.398128 -3.881744,0.398128 z"
       style="fill:#000000;fill-opacity:1;fill-rule:evenodd;stroke:none"
       inkscape:connector-curvature="0" />
    <path
       id="path1690"
       d="m 11.989442,13.757674 c 0,0 2.189702,6.170977 3.782212,7.564424 1.59251,1.393446 3.185021,6.569105 3.185021,8.161616 0,1.59251 0.398127,7.564423 0.398127,7.564423 l -2.985957,-4.578467 -1.990637,8.758807 c 0,0 -3.981277,-11.943827 -3.782213,-15.925103 0.199064,-3.981276 1.393447,-11.5457 1.393447,-11.5457 z"
       style="fill:#ffe6ba;fill-opacity:1;fill-rule:evenodd;stroke:none"
       inkscape:connector-curvature="0" />
    <path
       id="path1691"
       d="m 72.90296,11.767037 c 0,0 -7.36536,8.559742 -7.962551,10.948508 -0.597192,2.388765 -1.194383,5.374722 -0.995319,7.763488 0.199063,2.388765 0.597191,4.379403 0.597191,4.379403 l 2.786893,-3.384084 1.990638,7.166296 c 0,0 4.180339,-3.981276 4.379403,-11.943827 C 73.898279,18.734269 72.90296,11.767037 72.90296,11.767037 z"
       style="fill:#ffe6ba;fill-opacity:1;fill-rule:evenodd;stroke:none"
       inkscape:connector-curvature="0" />
    <path
       transform="matrix(0.827592,0,0,0.829437,2.569876,4.172846)"
       d="m 22.5,64.0625 c 0,3.796958 -4.267286,6.875 -9.53125,6.875 -5.263964,0 -9.53125,-3.078042 -9.53125,-6.875 0,-3.796958 4.267286,-6.875 9.53125,-6.875 5.263964,0 9.53125,3.078042 9.53125,6.875 z"
       sodipodi:ry="6.875"
       sodipodi:rx="9.53125"
       sodipodi:cy="64.0625"
       sodipodi:cx="12.96875"
       id="path1744"
       style="fill:url(#linearGradient1748);fill-opacity:1;fill-rule:nonzero;stroke:none"
       sodipodi:type="arc" />
  </g>
</svg>
