<?xml version="1.0" encoding="UTF-8" standalone="no"?>
<!-- Created with Sodipodi ("http://www.sodipodi.com/") -->

<svg
   xmlns:dc="http://purl.org/dc/elements/1.1/"
   xmlns:cc="http://creativecommons.org/ns#"
   xmlns:rdf="http://www.w3.org/1999/02/22-rdf-syntax-ns#"
   xmlns:svg="http://www.w3.org/2000/svg"
   xmlns="http://www.w3.org/2000/svg"
   xmlns:xlink="http://www.w3.org/1999/xlink"
   xmlns:sodipodi="http://sodipodi.sourceforge.net/DTD/sodipodi-0.dtd"
   xmlns:inkscape="http://www.inkscape.org/namespaces/inkscape"
   id="svg548"
   sodipodi:version="0.32"
   width="72pt"
   height="72pt"
   sodipodi:docname="application-x-emerald-theme.svg"
   inkscape:version="0.48.4 r9939"
   inkscape:output_extension="org.inkscape.output.svg.inkscape"
   version="1.1">
  <metadata
     id="metadata27">
    <rdf:RDF>
      <cc:Work
         rdf:about="">
        <dc:format>image/svg+xml</dc:format>
        <dc:type
           rdf:resource="http://purl.org/dc/dcmitype/StillImage" />
        <dc:title></dc:title>
      </cc:Work>
      <cc:Work
         rdf:about="">
        <dc:format>image/svg+xml</dc:format>
        <dc:type
           rdf:resource="http://purl.org/dc/dcmitype/StillImage" />
      </cc:Work>
    </rdf:RDF>
  </metadata>
  <defs
     id="defs550">
    <linearGradient
       id="linearGradient5224">
      <stop
         style="stop-color:#2aaf18;stop-opacity:1;"
         offset="0"
         id="stop5226" />
      <stop
         style="stop-color:#cbff87;stop-opacity:1;"
         offset="1"
         id="stop5228" />
    </linearGradient>
    <inkscape:perspective
       sodipodi:type="inkscape:persp3d"
       inkscape:vp_x="-50 : 600 : 1"
       inkscape:vp_y="0 : 1000 : 0"
       inkscape:vp_z="700 : 600 : 1"
       inkscape:persp3d-origin="300 : 400 : 1"
       id="perspective29" />
    <linearGradient
       id="linearGradient569">
      <stop
         style="stop-color:#c57700;stop-opacity:1;"
         offset="0.000000"
         id="stop570" />
      <stop
         style="stop-color:#ffa75f;stop-opacity:0;"
         offset="1.000000"
         id="stop571" />
    </linearGradient>
    <linearGradient
       id="linearGradient559">
      <stop
         style="stop-color:#945700;stop-opacity:1;"
         offset="0.000000"
         id="stop560" />
      <stop
         style="stop-color:#ffa75f;stop-opacity:0;"
         offset="1.000000"
         id="stop561" />
    </linearGradient>
    <linearGradient
       xlink:href="#linearGradient559"
       id="linearGradient562"
       x1="40.9153252"
       y1="31.7318363"
       x2="42.7533417"
       y2="35.4855690"
       gradientUnits="userSpaceOnUse"
       spreadMethod="pad"
       gradientTransform="matrix(1.2287685,0,0,0.7275398,-7.1389191,1.8739714)" />
    <linearGradient
       xlink:href="#linearGradient559"
       id="linearGradient566"
       x1="59.0300407"
       y1="48.8431816"
       x2="58.3435440"
       y2="23.6183739"
       gradientUnits="userSpaceOnUse"
       spreadMethod="pad"
       gradientTransform="matrix(0.5734264,0,0,1.5590094,-6.8541051,2.1587764)" />
    <linearGradient
       xlink:href="#linearGradient569"
       id="linearGradient568"
       x1="92.7804184"
       y1="64.9443817"
       x2="90.8925323"
       y2="42.8786545"
       gradientUnits="userSpaceOnUse"
       spreadMethod="pad"
       gradientTransform="matrix(0.7296653,0,0,1.2251888,-7.1389191,1.8739714)" />
    <linearGradient
       y2="246.27766"
       x2="503.53174"
       y1="144.13815"
       x1="625.76263"
       gradientTransform="matrix(-0.3045862,0,0,0.3045691,929.97041,442.72079)"
       gradientUnits="userSpaceOnUse"
       id="linearGradient2191"
       xlink:href="#linearGradient3273"
       inkscape:collect="always" />
    <linearGradient
       gradientUnits="userSpaceOnUse"
       id="linearGradient3273"
       y2="129.3468"
       x2="112.49853"
       y1="6.1372099"
       x1="112.49854"
       gradientTransform="translate(287,-83)">
      <stop
         id="stop3275"
         offset="0"
         style="stop-color:#ffffff;stop-opacity:1" />
      <stop
         id="stop3277"
         offset="1"
         style="stop-color:#31baff;stop-opacity:1" />
      <midPointStop
         id="midPointStop3279"
         style="stop-color:#FFFFFF"
         offset="0" />
      <midPointStop
         id="midPointStop3281"
         style="stop-color:#FFFFFF"
         offset="0.5" />
      <midPointStop
         id="midPointStop3283"
         style="stop-color:#000000"
         offset="1" />
    </linearGradient>
  </defs>
  <sodipodi:namedview
     id="base"
     showgrid="false"
     inkscape:zoom="3.9205143"
     inkscape:cx="67.82325"
     inkscape:cy="40.330759"
     inkscape:window-width="795"
     inkscape:window-height="711"
     inkscape:window-x="0"
     inkscape:window-y="30"
     inkscape:current-layer="svg548"
     inkscape:window-maximized="0" />
  <path
     style="fill:#000000;fill-opacity:0.3;fill-rule:evenodd;stroke:none;stroke-width:1pt;stroke-linecap:butt;stroke-linejoin:miter;stroke-opacity:1"
     d="M 41.126783,86.944379 C 40.267791,86.568459 6.0797264,81.723193 6.0797264,81.723193 L 2.987337,83.117462 L 2.1283386,79.619442 L 4.7053256,76.584302 L 2.1283386,75.664742 L 16.731279,64.779378 L 18.105647,65.755471 L 18.44926,63.449718 L 22.572446,63.047793 L 67.240265,72.39582 L 41.126783,86.944379 z "
     id="path594" />
  <path
     style="fill:#593a28;fill-opacity:1;fill-rule:evenodd;stroke:none;stroke-width:1pt;stroke-linecap:butt;stroke-linejoin:miter;stroke-opacity:1"
     d="M 16.673693,33.243336 C 19.97407,48.138049 19.287161,71.577094 13.758515,83.054094 L 40.68316,87.362945 L 73.900512,75.358259 C 72.191703,59.003214 70.767585,40.369694 74.185298,24.584221 L 80.04279,11.201955 L 74.138779,11.989068 L 74.926006,8.0531426 C 67.428537,2.8625904 57.937379,1.9442 48.161435,5.2979534 L 47.571062,9.6275486 L 41.863905,4.7075618 C 29.375972,5.2465936 18.027277,8.6337294 7.8178196,18.286692 L 16.673693,33.243336 z "
     id="path564"
     sodipodi:nodetypes="ccccccccccccc" />
  <path
     style="fill:url(#linearGradient562);fill-opacity:1;fill-rule:evenodd;stroke:none;stroke-width:1pt;stroke-linecap:butt;stroke-linejoin:miter;stroke-opacity:1"
     d="M 49.539129,19.270583 C 49.145515,19.270583 21.003251,29.307392 21.003251,29.307392 C 21.003251,29.307392 23.56169,48.003221 29.071993,48.396834 C 34.58239,48.790447 68.431717,22.025876 68.431717,22.025876"
     id="path558"
     sodipodi:nodetypes="cccc" />
  <path
     style="fill:#e9a93d;fill-opacity:1;fill-rule:evenodd;stroke:none;stroke-width:1pt;stroke-linecap:butt;stroke-linejoin:miter;stroke-opacity:1"
     d="M 20.806491,31.472123 L 38.911947,33.046576 C 36.895849,50.497649 36.58856,67.09427 39.699079,82.836533 C 39.699079,82.836533 21.200105,81.065415 21.200105,79.884575 C 21.200105,78.70383 26.217894,52.087231 20.806491,31.472123 z "
     id="path552"
     sodipodi:nodetypes="ccccc" />
  <path
     style="fill:#ffe6ba;fill-opacity:1;fill-rule:evenodd;stroke:none;stroke-width:1pt;stroke-linecap:butt;stroke-linejoin:miter;stroke-opacity:1"
     d="M 69.394996,23.885021 L 38.518334,33.44019 L 39.305561,83.033387 C 39.305561,83.033387 68.82533,72.012687 68.82533,70.831847 C 68.82533,69.651102 64.837951,35.955892 69.394996,23.885021 z "
     id="path553"
     sodipodi:nodetypes="ccccc" />
  <path
     style="fill:#e3c084;fill-opacity:1;fill-rule:evenodd;stroke:none;stroke-width:1pt;stroke-linecap:butt;stroke-linejoin:miter;stroke-opacity:1"
     d="M 50.326261,19.270678 L 42.847891,9.8243269 C 33.663927,11.08821 23.625606,12.352141 15.296094,20.451423 L 20.412878,29.897764 L 50.326261,19.270678 z "
     id="path556"
     sodipodi:nodetypes="ccccc" />
  <path
     style="fill:#e3b463;fill-opacity:1;fill-rule:evenodd;stroke:none;stroke-width:1pt;stroke-linecap:butt;stroke-linejoin:miter;stroke-opacity:1"
     d="M 49.539034,19.467532 L 69.612462,23.206622 L 71.186916,12.973148 C 64.079751,10.608282 57.542253,9.3826536 50.719874,11.005129 L 49.539034,19.467532 z "
     id="path557"
     sodipodi:nodetypes="ccccc" />
  <path
     style="fill:#c89134;fill-opacity:1;fill-rule:evenodd;stroke:none;stroke-width:1pt;stroke-linecap:butt;stroke-linejoin:miter;stroke-opacity:1"
     d="M 38.911947,33.046576 C 37.731107,30.422614 36.550362,27.798556 35.369522,25.174594 C 28.832024,22.217719 21.724859,20.400082 14.902481,23.993848 C 16.739311,26.486575 18.576047,28.979396 20.412878,31.472123 C 26.579266,31.996972 32.745559,32.521727 38.911947,33.046576 z "
     id="path554"
     sodipodi:nodetypes="ccccc" />
  <path
     style="fill:#e3c084;fill-opacity:1;fill-rule:evenodd;stroke:none;stroke-width:1pt;stroke-linecap:butt;stroke-linejoin:miter;stroke-opacity:1"
     d="M 38.518334,34.227322 L 43.241505,24.78098 C 53.343837,18.915263 63.730955,16.182567 73.548406,15.728252 C 72.039666,18.483451 70.53083,21.23865 69.02209,23.993848 L 38.518334,34.227322 z "
     id="path555"
     sodipodi:nodetypes="ccccc" />
  <path
     style="fill:url(#linearGradient566);fill-opacity:1;fill-rule:evenodd;stroke:none;stroke-width:1pt;stroke-linecap:butt;stroke-linejoin:miter;stroke-opacity:1"
     d="M 21.091305,31.756928 C 27.126457,32.281777 33.161609,32.806532 39.196761,33.331381 C 35.75664,51.06724 37.158255,66.823205 39.983893,82.850254 C 39.983893,82.850254 21.123473,81.079136 21.123473,79.898296 C 25.658665,49.125869 21.99492,37.572228 21.091305,31.756928 z "
     id="path565"
     sodipodi:nodetypes="ccccc" />
  <path
     style="fill:url(#linearGradient568);fill-opacity:1;fill-rule:evenodd;stroke:none;stroke-width:1pt;stroke-linecap:butt;stroke-linejoin:miter;stroke-opacity:1"
     d="M 59.426642,32.144566 L 38.518334,33.44019 L 39.305561,83.033387 C 39.305561,83.033387 68.82533,72.012687 68.82533,70.831847 C 67.740993,53.386042 59.426642,32.538179 59.426642,32.144566 z "
     id="path567"
     sodipodi:nodetypes="ccccc" />
  <path
     style="font-size:12px;fill:#ffffff;fill-opacity:0.70434804;fill-rule:evenodd;stroke-width:1pt"
     d="M 23.012112,70.804052 L 23.012112,77.880852 L 35.292412,79.754152 L 35.292412,72.677352 L 23.012112,70.804052 z "
     id="path573"
     sodipodi:nodetypes="ccccc" />
  <g
     transform="matrix(0.4406898,0,0,0.4406898,-87.552793,-60.161259)"
     id="layer1"
     inkscape:label="Layer 1">
    <g
       id="g2210"
       transform="matrix(0.6736842,0,0,0.6736842,-181.68227,-91.871208)">
      <path
         style="color:#000000;fill:#002f77;fill-opacity:1;fill-rule:evenodd;stroke:none;stroke-width:4;marker:none;visibility:visible;display:inline;overflow:visible;enable-background:accumulate"
         d="M 63.993164,1.7814394 C 73.185552,19.459109 126.57211,125.52513 126.57211,125.52513 108.54089,122.34315 77.074639,102.54415 67.882251,102.89771 c 1.414214,-10.960157 2.828427,-23.688078 -3.18198,-23.688078 -6.010408,0 -6.363961,12.727922 -4.596194,23.334528 C 41.365746,102.89771 18.384776,121.28249 1.7677669,124.81802 20.859651,90.87689 57.275649,19.812663 63.993164,1.7814394 z"
         id="path2501"
         transform="matrix(1.484375,0,0,1.484375,669.75015,435.62319)"
         sodipodi:nodetypes="cccsccc"
         inkscape:connector-curvature="0" />
      <path
         style="fill:#31baff;fill-opacity:1;fill-rule:evenodd;stroke:none"
         d="m 764.75015,457.14022 c -6.5416,16.03826 -10.51344,26.54409 -17.79665,42.10559 4.46552,4.73346 9.95364,10.22547 18.85512,16.45114 -9.56996,-3.93798 -16.09367,-7.88133 -20.97207,-11.98403 -9.32111,19.44995 -23.93412,47.14471 -53.56936,100.39322 23.28647,-13.44368 41.33853,-21.73584 58.16205,-24.90096 -0.71977,-3.10256 -1.10426,-6.47427 -1.07641,-9.97474 l 0.0179,-0.73555 c 0.36959,-14.92277 8.13441,-26.39774 17.33021,-25.61857 9.19579,0.77917 16.35429,13.51241 15.9847,28.43518 -0.0696,2.81085 -0.39641,5.51169 -0.95083,8.01926 16.64247,3.25688 34.52428,11.51209 57.49826,24.77538 -4.53064,-8.34124 -8.58861,-15.85615 -12.45048,-23.01724 -6.08306,-4.71479 -12.42494,-10.84875 -25.36741,-17.49168 8.89592,2.31153 15.27173,4.9845 20.23652,7.96544 -39.26467,-73.10397 -42.43686,-82.82455 -55.90159,-114.42244 z"
         id="path2518"
         inkscape:connector-curvature="0" />
      <path
         style="fill:url(#linearGradient2191);fill-opacity:1;fill-rule:evenodd;stroke:none"
         d="m 765.03719,457.78607 c -0.81455,2.00247 -1.61541,3.9277 -2.3681,5.77674 -0.83628,2.05431 -1.64947,4.03342 -2.43986,5.95614 -0.79033,1.92274 -1.55568,3.81705 -2.33223,5.66909 -0.77659,1.85213 -1.57321,3.6832 -2.3681,5.52558 -0.79484,1.84231 -1.59463,3.66801 -2.43986,5.56145 -0.84524,1.89351 -1.72751,3.84296 -2.65515,5.8485 -0.92772,2.00556 -1.90005,4.06473 -2.94219,6.24318 -0.14199,0.2968 -0.32199,0.63223 -0.46644,0.93289 4.45361,4.71758 9.94366,10.20231 18.8013,16.39732 -9.54531,-3.92784 -16.07983,-7.85684 -20.95413,-11.94816 -0.25165,0.51374 -0.45838,0.981 -0.7176,1.50698 -0.9555,1.93889 -2.01679,4.04608 -3.08571,6.17142 -0.26102,0.51898 -0.48509,0.9757 -0.75349,1.50697 -0.12117,0.24316 -0.2719,0.50774 -0.39468,0.75349 -4.18794,8.38225 -9.34019,18.34632 -15.93088,30.6777 18.6265,-10.50005 38.75018,-25.58787 75.2411,-12.55812 -1.83095,-3.46777 -3.51417,-6.73781 -5.09501,-9.79534 -1.58081,-3.05761 -3.04952,-5.90363 -4.41328,-8.61128 -1.36366,-2.7076 -2.62382,-5.26038 -3.80332,-7.6784 -1.17949,-2.41797 -2.27281,-4.70019 -3.30099,-6.88902 -1.02825,-2.18879 -1.99647,-4.29499 -2.90631,-6.31495 -0.90991,-2.01993 -1.75886,-3.97299 -2.58339,-5.88437 -0.82461,-1.91149 -1.63192,-3.77006 -2.40398,-5.63322 -0.77214,-1.86322 -1.50793,-3.72193 -2.26046,-5.59733 -0.29766,-0.74162 -0.59884,-1.51036 -0.89701,-2.26047 -2.03135,-4.77081 -4.12249,-9.70066 -6.53023,-15.35679 z"
         id="path2520"
         inkscape:connector-curvature="0" />
    </g>
  </g>
</svg>
