<?xml version="1.0" encoding="UTF-8" standalone="no"?>
<!-- Created with Inkscape (http://www.inkscape.org/) -->

<svg
   xmlns:dc="http://purl.org/dc/elements/1.1/"
   xmlns:cc="http://creativecommons.org/ns#"
   xmlns:rdf="http://www.w3.org/1999/02/22-rdf-syntax-ns#"
   xmlns:svg="http://www.w3.org/2000/svg"
   xmlns="http://www.w3.org/2000/svg"
   xmlns:xlink="http://www.w3.org/1999/xlink"
   xmlns:sodipodi="http://sodipodi.sourceforge.net/DTD/sodipodi-0.dtd"
   xmlns:inkscape="http://www.inkscape.org/namespaces/inkscape"
   version="1.0"
   width="46"
   height="46"
   viewBox="0 0 95.833333 95.833333"
   id="svg2"
   inkscape:version="0.48.4 r9939"
   sodipodi:docname="keepassx3.svg">
  <metadata
     id="metadata34">
    <rdf:RDF>
      <cc:Work
         rdf:about="">
        <dc:format>image/svg+xml</dc:format>
        <dc:type
           rdf:resource="http://purl.org/dc/dcmitype/StillImage" />
        <dc:title></dc:title>
      </cc:Work>
    </rdf:RDF>
  </metadata>
  <sodipodi:namedview
     pagecolor="#ffffff"
     bordercolor="#666666"
     borderopacity="1"
     objecttolerance="10"
     gridtolerance="10"
     guidetolerance="10"
     inkscape:pageopacity="0"
     inkscape:pageshadow="2"
     inkscape:window-width="1440"
     inkscape:window-height="839"
     id="namedview32"
     showgrid="false"
     inkscape:zoom="11.313709"
     inkscape:cx="22.149869"
     inkscape:cy="24.725868"
     inkscape:window-x="0"
     inkscape:window-y="30"
     inkscape:window-maximized="1"
     inkscape:current-layer="svg2"
     fit-margin-top="0"
     fit-margin-left="0"
     fit-margin-right="0"
     fit-margin-bottom="0" />
  <defs
     id="defs4">
    <linearGradient
       id="linearGradient3255">
      <stop
         id="stop3257"
         style="stop-color:#226e23;stop-opacity:1"
         offset="0" />
      <stop
         id="stop3267"
         style="stop-color:#63ab3a;stop-opacity:1"
         offset="1" />
    </linearGradient>
    <clipPath
       id="clip0">
      <rect
         width="100"
         height="100"
         x="0"
         y="0"
         id="rect7" />
    </clipPath>
    <linearGradient
       x1="9.5115528"
       y1="84.508163"
       x2="81.182388"
       y2="15.300087"
       id="linearGradient3261"
       xlink:href="#linearGradient3255"
       gradientUnits="userSpaceOnUse" />
    <linearGradient
       inkscape:collect="always"
       xlink:href="#linearGradient3255"
       id="linearGradient3795"
       gradientUnits="userSpaceOnUse"
       x1="9.5115528"
       y1="84.508163"
       x2="81.182388"
       y2="15.300087" />
  </defs>
  <g
     transform="matrix(0.99639547,0,0,0.99921693,0.06220616,0.22060089)"
     id="g2179">
    <path
       d="M 0,0 65.275482,0 C 56.924454,0.849609 49.074387,5.383148 44.298965,12.290009 40.376999,17.698364 38.777893,24.407181 38.673691,31.008377 32.182602,24.17807 25.473648,17.557816 18.877045,10.829636 12.584518,10.911148 6.292725,11.025116 0,11.087418 L 0,0 z"
       id="path10"
       style="fill:none;stroke:#ffffff;stroke-width:0.1;stroke-linecap:butt;stroke-linejoin:miter;stroke-miterlimit:10"
       inkscape:connector-curvature="0" />
    <path
       d="m 65.275482,0 5.023728,0 c 9.496307,1.362915 18.028015,7.38327 22.496063,15.861679 4.514862,9.592865 4.261078,21.430389 -1.583618,30.408768 -5.235596,8.550781 -15.138428,13.762237 -25.14151,13.449814 1.500229,1.554672 2.97879,3.131958 4.470169,4.697097 3.716339,3.901825 7.346267,7.884903 11.063995,11.786454 -0.04758,6.455825 -0.174118,12.910843 -0.218796,19.367309 -7.026291,0.104767 -14.053878,-0.105346 -21.078735,0.07622 -4.282776,-4.470215 -8.574463,-8.932846 -12.763107,-13.491135 -1.651718,-1.789184 -3.342041,-3.542053 -5.017975,-5.306686 0.08171,2.706085 0.166778,5.413406 0.257843,8.120682 -3.914734,0.0218 -7.829102,0.0047 -11.743454,0.01149 -2.840408,3.227585 -5.677963,6.457932 -8.480423,9.719071 -6.11406,0.134872 -12.229736,0.0058 -18.34436,0.08243 C 2.807693,94.73494 1.402603,94.647522 0,94.52095 L 0,73.793869 C 5.894531,66.678589 12.933578,60.551834 19.267838,53.813934 12.924744,46.543365 5.877121,39.83519 0,32.192673 L 0,11.087418 c 6.292725,-0.0623 12.584518,-0.17627 18.877045,-0.257782 6.596603,6.72818 13.305557,13.348434 19.796646,20.178741 0.104202,-6.601196 1.703308,-13.310013 5.625274,-18.718368 C 49.074387,5.383148 56.924454,0.849609 65.275482,0 z"
       id="path14"
       style="fill:none;stroke:#000000;stroke-width:0.1;stroke-linecap:butt;stroke-linejoin:miter;stroke-miterlimit:10"
       inkscape:connector-curvature="0" />
    <path
       d="m 65.275482,0 5.023728,0 c 9.496307,1.362915 18.028015,7.38327 22.496063,15.861679 4.514862,9.592865 4.261078,21.430389 -1.583618,30.408768 -5.235596,8.550781 -15.138428,13.762237 -25.14151,13.449814 1.500229,1.554672 2.97879,3.131958 4.470169,4.697097 3.716339,3.901825 7.346267,7.884903 11.063995,11.786454 -0.04758,6.455825 -0.174118,12.910843 -0.218796,19.367309 -7.026291,0.104767 -14.053878,-0.105346 -21.078735,0.07622 -4.282776,-4.470215 -8.574463,-8.932846 -12.763107,-13.491135 -1.651718,-1.789184 -3.342041,-3.542053 -5.017975,-5.306686 0.08171,2.706085 0.166778,5.413406 0.257843,8.120682 -3.914734,0.0218 -7.829102,0.0047 -11.743454,0.01149 -2.840408,3.227585 -5.677963,6.457932 -8.480423,9.719071 -6.11406,0.134872 -12.229736,0.0058 -18.34436,0.08243 C 2.807693,94.73494 1.402603,94.647522 0,94.52095 L 0,73.793869 C 5.894531,66.678589 12.933578,60.551834 19.267838,53.813934 12.924744,46.543365 5.877121,39.83519 0,32.192673 L 0,11.087418 c 6.292725,-0.0623 12.584518,-0.17627 18.877045,-0.257782 6.596603,6.72818 13.305557,13.348434 19.796646,20.178741 0.104202,-6.601196 1.703308,-13.310013 5.625274,-18.718368 C 49.074387,5.383148 56.924454,0.849609 65.275482,0 z"
       id="path16"
       style="fill:#000000;fill-rule:nonzero;stroke:none"
       inkscape:connector-curvature="0" />
    <path
       d="M 50.15242,10.146301 C 56.463852,3.779266 66.468109,1.298157 74.944427,4.380051 87.817032,8.585358 95.293839,24.042618 91.03772,36.809372 88.071213,48.00174 76.775955,56.580963 65.066528,55.234451 c -2.913665,0.398712 -5.491836,-2.098236 -8.352279,-1.198349 0.749206,1.282379 1.70491,2.423935 2.744857,3.480683 6.162354,6.512222 12.301697,13.045837 18.343094,19.671325 -0.125869,4.690323 -0.09798,9.383591 -0.246917,14.074158 -5.293381,-0.01289 -10.586518,-0.07309 -15.879212,-0.01897 C 54.495316,83.988037 47.665543,76.394974 40.578583,69.04895 c -0.542435,0.01129 -1.627304,0.03389 -2.169739,0.04518 0.21936,3.870438 0.320953,7.745835 0.431046,11.621308 -3.251511,0.0042 -6.502823,-0.02452 -9.753586,0.03314 -2.61673,3.313675 -5.645905,6.273178 -8.248535,9.596847 -5.664551,0.21872 -11.335923,0.05029 -17.003418,0.0941 C 3.839096,84.871521 3.856171,79.304001 3.826889,73.736694 10.610611,66.972595 17.249252,60.059845 24.137238,53.402695 17.5242,45.780243 10.571915,38.441101 3.73671,31.011383 3.630005,25.300797 3.549255,19.589935 3.48996,13.87883 c 4.562545,0.03854 9.125015,-0.01514 13.68753,-0.04685 7.552567,7.610489 15.025452,15.299347 22.567124,22.920746 0.954361,-0.956039 1.908355,-1.912216 2.861251,-2.869903 -1.378936,-8.493775 1.268113,-17.726334 7.546555,-23.736527 z"
       id="path22"
       style="fill:none;stroke:#ffffff;stroke-width:0.1;stroke-linecap:butt;stroke-linejoin:miter;stroke-miterlimit:10"
       inkscape:connector-curvature="0" />
    <path
       d="M 50.15242,10.146301 C 56.463852,3.779266 66.468109,1.298157 74.944427,4.380051 87.817032,8.585358 95.293839,24.042618 91.03772,36.809372 88.071213,48.00174 76.775955,56.580963 65.066528,55.234451 c -2.913665,0.398712 -5.491836,-2.098236 -8.352279,-1.198349 0.749206,1.282379 1.70491,2.423935 2.744857,3.480683 6.162354,6.512222 12.301697,13.045837 18.343094,19.671325 -0.125869,4.690323 -0.09798,9.383591 -0.246917,14.074158 -5.293381,-0.01289 -10.586518,-0.07309 -15.879212,-0.01897 C 54.495316,83.988037 47.665543,76.394974 40.578583,69.04895 c -0.542435,0.01129 -1.627304,0.03389 -2.169739,0.04518 0.21936,3.870438 0.320953,7.745835 0.431046,11.621308 -3.251511,0.0042 -6.502823,-0.02452 -9.753586,0.03314 -2.61673,3.313675 -5.645905,6.273178 -8.248535,9.596847 -5.664551,0.21872 -11.335923,0.05029 -17.003418,0.0941 C 3.839096,84.871521 3.856171,79.304001 3.826889,73.736694 10.610611,66.972595 17.249252,60.059845 24.137238,53.402695 17.5242,45.780243 10.571915,38.441101 3.73671,31.011383 3.630005,25.300797 3.549255,19.589935 3.48996,13.87883 c 4.562545,0.03854 9.125015,-0.01514 13.68753,-0.04685 7.552567,7.610489 15.025452,15.299347 22.567124,22.920746 0.954361,-0.956039 1.908355,-1.912216 2.861251,-2.869903 -1.378936,-8.493775 1.268113,-17.726334 7.546555,-23.736527 z"
       id="path24"
       style="fill:#ffffff;fill-rule:nonzero;stroke:none"
       inkscape:connector-curvature="0" />
    <path
       d="m 62.03093,8.822037 c 7.760284,-2.433121 16.607666,1.633041 20.795105,8.41185 6.376617,9.518844 3.652542,24.211044 -6.422623,30.090469 -5.971649,3.92897 -13.995255,3.386765 -19.899948,-0.396484 -2.389588,3.143142 -5.589051,5.685913 -7.653076,9.045623 l 0.208557,0.586396 c 7.641998,7.580322 15.283661,15.165497 22.938797,22.734619 -0.08483,2.096183 -0.24919,4.314204 -0.314684,6.407856 -2.531549,0.0097 -4.326856,0.0075 -7.222273,0.0023 -2.692332,-2.714784 -3.455551,-3.349717 -5.145844,-5.044892 -5.051239,-5.725723 -10.545562,-11.035949 -15.696197,-16.667663 -3.041123,0.02882 -6.076141,0.232818 -9.103195,0.510727 -0.08843,3.480163 -0.01015,6.962005 -0.08478,10.443222 -2.969864,0.32106 -6.0513,0.321579 -8.905335,1.262069 -2.900482,2.966858 -5.72969,6.004639 -8.582046,9.018875 -2.815733,0.0068 -5.651554,0.0206 -8.4299655,0.02008 -0.00894,-2.1378 0.00424,-4.920121 -0.00408,-6.49437 0.309597,-0.34793 1.2757176,-1.365044 1.6296935,-1.729922 C 17.968979,69.342148 25.175034,61.041199 33.113449,53.475693 25.615842,44.908086 14.157324,33.711359 8.5294325,28.151435 c 0.012804,-4.17087 -0.00472,-4.859187 0.00277,-7.135544 2.3942865,0.0047 4.8537565,-0.02342 7.2482875,-0.01872 7.445465,7.641938 14.996063,15.183396 22.265839,22.994828 0.723632,0.810196 1.530563,1.543731 2.441543,2.141388 2.498322,-3.191086 5.549164,-5.981354 7.734879,-9.39505 C 47.55661,32.899078 46.247131,28.983536 47.500366,25.092606 48.759918,17.534698 54.486465,10.674881 62.03093,8.822037 z"
       id="path28"
       style="fill:url(#linearGradient3795);fill-opacity:1;fill-rule:nonzero;stroke:none"
       inkscape:connector-curvature="0"
       sodipodi:nodetypes="ccccccccccccccccccccccccccc" />
    <path
       sodipodi:type="arc"
       style="fill:#000000;fill-opacity:1;fill-rule:nonzero;stroke:none"
       id="path3002"
       sodipodi:cx="-27.355932"
       sodipodi:cy="19.067797"
       sodipodi:rx="14.381834"
       sodipodi:ry="7.262826"
       d="m -12.974098,19.067797 c 0,4.011148 -6.438967,7.262826 -14.381834,7.262826 -7.942868,0 -14.381834,-3.251678 -14.381834,-7.262826 0,-4.011148 6.438966,-7.262826 14.381834,-7.262826 7.907055,0 14.33109,3.223503 14.381541,7.216485"
       transform="matrix(0.58094339,0,0,1.150383,89.07744,1.1197345)"
       sodipodi:start="0"
       sodipodi:end="6.2768047"
       sodipodi:open="true" />
    <path
       d="m 69.909191,16.077847 c 5.032738,-2.312647 10.569857,3.235903 9.089517,7.860303 -0.858846,4.000819 -6.555355,6.918435 -10.220081,3.975514 -4.751514,-2.642761 -3.81736,-9.887812 1.130564,-11.835817 z"
       id="path40"
       style="fill:#ffffff;fill-rule:nonzero;stroke:none"
       inkscape:connector-curvature="0" />
  </g>
</svg>
