<?xml version="1.0" encoding="UTF-8" standalone="no"?>
<!-- Created with Sodipodi ("http://www.sodipodi.com/") -->

<svg
   xmlns:dc="http://purl.org/dc/elements/1.1/"
   xmlns:cc="http://creativecommons.org/ns#"
   xmlns:rdf="http://www.w3.org/1999/02/22-rdf-syntax-ns#"
   xmlns:svg="http://www.w3.org/2000/svg"
   xmlns="http://www.w3.org/2000/svg"
   xmlns:xlink="http://www.w3.org/1999/xlink"
   xmlns:sodipodi="http://sodipodi.sourceforge.net/DTD/sodipodi-0.dtd"
   xmlns:inkscape="http://www.inkscape.org/namespaces/inkscape"
   version="1"
   x="0.00000000"
   y="0.00000000"
   width="90.0000000"
   height="90.0000000"
   id="folder_svg_svg548"
   sodipodi:version="0.32"
   sodipodi:docname="folder.svg"
   inkscape:version="0.48.4 r9939"
   inkscape:output_extension="org.inkscape.output.svg.inkscape">
  <metadata
     id="metadata19">
    <rdf:RDF>
      <cc:Work
         rdf:about="">
        <dc:format>image/svg+xml</dc:format>
        <dc:type
           rdf:resource="http://purl.org/dc/dcmitype/StillImage" />
        <dc:title></dc:title>
      </cc:Work>
    </rdf:RDF>
  </metadata>
  <sodipodi:namedview
     id="base"
     inkscape:zoom="4.5222222"
     inkscape:cx="44.846686"
     inkscape:cy="32.244014"
     inkscape:window-width="1440"
     inkscape:window-height="839"
     inkscape:window-x="0"
     inkscape:window-y="30"
     inkscape:current-layer="layer1"
     showgrid="false"
     showguides="true"
     inkscape:guide-bbox="true"
     inkscape:window-maximized="1" />
  <defs
     id="defs550">
    <linearGradient
       spreadMethod="pad"
       gradientUnits="objectBoundingBox"
       id="linearGradient3340"
       y2="0.00000000"
       x2="1.00000000"
       y1="0.00000000"
       x1="0.00000000">
      <stop
         id="stop3342"
         offset="0.000000"
         style="stop-color:#ffb700;stop-opacity:1" />
      <stop
         id="stop3344"
         offset="1.000000"
         style="stop-color:#ffd58f;stop-opacity:0;" />
    </linearGradient>
    <linearGradient
       id="folder_svg_Gradient559"
       xlink:href="#linearGradient3340"
       x1="60.644615"
       y1="19.295689"
       x2="35.370575"
       y2="69.142799"
       gradientUnits="userSpaceOnUse"
       spreadMethod="pad" />
    <linearGradient
       inkscape:collect="always"
       xlink:href="#linearGradient3340"
       id="linearGradient3387"
       gradientUnits="userSpaceOnUse"
       gradientTransform="matrix(1.0509199,-0.1486035,0.1724016,1.4993733,-28.78467,5.713269)"
       spreadMethod="pad"
       x1="85.637657"
       y1="17.443844"
       x2="73.916298"
       y2="54.628181" />
    <linearGradient
       inkscape:collect="always"
       xlink:href="#linearGradient3340"
       id="linearGradient3296"
       gradientUnits="userSpaceOnUse"
       spreadMethod="pad"
       x1="60.644615"
       y1="19.295689"
       x2="35.370575"
       y2="69.142799" />
    <linearGradient
       y2="60.074455"
       x2="24.00971"
       y1="42.491718"
       x1="23.965548"
       gradientTransform="matrix(0.8596355,-0.1950217,0.1950217,0.8596355,-0.8662735,12.647971)"
       gradientUnits="userSpaceOnUse"
       id="linearGradient4754"
       xlink:href="#linearGradient4698"
       inkscape:collect="always" />
    <linearGradient
       y2="9.6428576"
       x2="31.785715"
       y1="39.642857"
       x1="31.607145"
       gradientTransform="matrix(0.8814798,0,0,0.8814798,-3.6430877,12.142879)"
       gradientUnits="userSpaceOnUse"
       id="linearGradient4752"
       xlink:href="#linearGradient4653"
       inkscape:collect="always" />
    <linearGradient
       gradientTransform="matrix(0.8814798,0,0,0.8814798,-3.6430877,12.142879)"
       y2="9.6428576"
       x2="31.785715"
       y1="39.642857"
       x1="31.607145"
       gradientUnits="userSpaceOnUse"
       id="linearGradient4735"
       xlink:href="#linearGradient4653"
       inkscape:collect="always" />
    <linearGradient
       gradientTransform="matrix(0.8596355,-0.1950217,0.1950217,0.8596355,-0.8662735,12.647971)"
       y2="60.074455"
       x2="24.00971"
       y1="42.491718"
       x1="23.965548"
       gradientUnits="userSpaceOnUse"
       id="linearGradient4731"
       xlink:href="#linearGradient4698"
       inkscape:collect="always" />
    <linearGradient
       gradientUnits="userSpaceOnUse"
       y2="60.074455"
       x2="24.00971"
       y1="42.491718"
       x1="23.965548"
       id="linearGradient4704"
       xlink:href="#linearGradient4698"
       inkscape:collect="always" />
    <linearGradient
       y2="9.6428576"
       x2="31.785715"
       y1="39.642857"
       x1="31.607145"
       gradientUnits="userSpaceOnUse"
       id="linearGradient4675"
       xlink:href="#linearGradient4653"
       inkscape:collect="always" />
    <linearGradient
       id="linearGradient4653"
       inkscape:collect="always">
      <stop
         id="stop4655"
         offset="0"
         style="stop-color:#ed0000;stop-opacity:1" />
      <stop
         id="stop4657"
         offset="1"
         style="stop-color:#558ada;stop-opacity:1" />
    </linearGradient>
    <linearGradient
       id="linearGradient4698"
       inkscape:collect="always">
      <stop
         id="stop4700"
         offset="0"
         style="stop-color:#2aaf18;stop-opacity:1;" />
      <stop
         id="stop4702"
         offset="1"
         style="stop-color:#34674b;stop-opacity:1" />
    </linearGradient>
  </defs>
  <path
     d="M 32.5076 12.1608 C 32.0388 12.0045 25.3201 7.94201 25.0076 12.942 C 24.6951 17.942 23.7434 54.4234 26.2434 59.4235 C 27.3371 62.5485 30.1496 67.236 35.1496 70.5173 C 39.2121 73.1735 62.9754 88.0916 64.8504 88.2478 C 66.7254 88.4041 70.6317 89.6541 71.4129 84.3416 C 72.1942 79.029 74.9934 64.7445 75.3535 59.0032 C 75.1973 53.847 77.3856 50.4095 72.8268 45.8031 C 69.7018 43.9281 38.2679 19.4101 36.5491 18.3164 C 34.8304 17.2226 33.3974 16.6862 32.5076 12.1608 z "
     transform="matrix(1.418885,-0.200635,0.127692,1.110535,-25.22021,4.335069)"
     style="font-size:12;fill:#000009;fill-opacity:0.301471;fill-rule:evenodd;stroke-width:1pt;"
     id="folder_svg_path783"
     sodipodi:nodetypes="cccccccccc" />
  <path
     d="M 27.3438 9.06248 C 26.875 8.90623 20.1563 4.84373 19.8438 9.84373 C 19.5313 14.8437 21.7948 51.43 24.2948 56.43 C 25.3885 59.555 28.201 64.2425 33.201 67.5238 C 37.2635 70.18 63.75 84.2187 65.625 84.375 C 67.5 84.5312 71.4063 85.7812 72.1875 80.4687 C 72.9688 75.1562 75.2238 42.4099 75.0675 41.3162 C 74.9113 36.1599 71.1613 32.7225 69.4426 31.4724 C 66.3176 29.5974 36.7188 11.4062 35 10.3125 C 33.2813 9.21873 28.75 6.87498 27.3438 9.06248 z "
     transform="matrix(1.418885,-0.200635,0.127692,1.110535,-28.78467,5.713269)"
     style="font-size:12;fill:#593a28;fill-rule:evenodd;stroke-width:1pt"
     id="folder_svg_path554"
     sodipodi:nodetypes="cccccccccc" />
  <path
     style="font-size:12;fill:#f1e36c;fill-rule:evenodd;stroke-width:1pt;fill-opacity:1"
     d="M 15.4375 11.75 C 15.4375 11.75 14.955374 12.509219 14.5 13.15625 C 24.460667 17.797822 26.706214 19.210219 29.59375 21.625 C 32.431177 23.997877 31.349472 30.105742 33.4375 32.75 C 36.359933 36.450939 55.605226 41.487504 57.34375 42.15625 C 60.342094 43.309601 63.40772 46.240022 64.90625 49.375 C 71.606012 63.391132 73.261382 73.084807 74.28125 79 C 67.318619 67.833612 67.182803 49.379952 53.28125 44.3125 C 46.109171 42.681463 33.827697 37.555273 32.0625 36.9375 C 25.890899 34.777601 31.05433 25.5056 22.3125 21.0625 C 18.92126 19.338878 13.112841 16.443136 8.9375 14.375 C 6.5587755 14.254418 4.6687876 15.227876 5.375 17.46875 C 6.0556711 21.428432 11.851329 59.87863 20.8125 65.3125 C 29.791321 72.85998 74.644063 82.261137 75.8125 82.625 C 76.980781 82.98877 79.410443 82.477205 79.375 78.25 C 79.339554 74.022796 79.603258 42.0335 78.71875 40.21875 C 78.379429 37.268965 76.86369 33.958759 72.59375 32.09375 C 68.323808 30.22874 16.767705 11.561905 15.4375 11.75 z "
     id="folder_svg_path552" />
  <path
     style="font-size:12;fill:url(#linearGradient3387);fill-rule:evenodd;stroke-width:1pt;fill-opacity:1.0"
     d="M 30.5625 22.8125 C 32.195807 25.627614 31.636576 30.469327 33.4375 32.75 C 36.359933 36.450939 55.605226 41.487504 57.34375 42.15625 C 60.342094 43.309601 63.40772 46.240022 64.90625 49.375 C 68.719633 57.352729 70.860825 63.87889 72.21875 69.15625 C 74.238011 73.907829 75.659871 77.490767 75.625 77.1875 C 75.525247 76.31995 75.362792 39.667871 73.25 36.96875 C 71.431182 34.64527 39.764118 25.45247 30.5625 22.8125 z "
     id="folder_svg_path562" />
  <path
     style="font-size:12;fill:url(#linearGradient3296);fill-rule:evenodd;stroke-width:1pt;fill-opacity:1"
     d="M 32.2401 16.3592 C 34.0465 17.0528 40.7504 22.4843 42.7984 25.8628 C 43.6822 29.3984 42.4278 36.1872 46.8472 40.1647 C 51.2666 44.1421 62.0666 47.0499 63.6134 50.5854 C 65.1602 54.121 71.1434 74.6929 71.5854 76.6816 C 72.0273 78.6704 38.4557 61.3834 37.3508 56.3011 C 35.6801 51.1165 33.3449 40.666 32.2401 16.3592 z "
     id="folder_svg_path635"
     transform="matrix(1.418885,-0.200635,0.127692,1.110535,-41.88497,7.389349)"
     sodipodi:nodetypes="ccccccc" />
  <g
     id="layer1"
     inkscape:label="Layer 1"
     transform="translate(-83.697844,-31.091851)">
    <g
       transform="matrix(0.81223112,0,0,0.81223112,86.24332,59.275503)"
       id="g4745">
      <path
         style="color:#000000;fill:#000000;fill-opacity:0.29411765;stroke:none;stroke-width:2.64443946;marker:none;visibility:visible;display:inline;overflow:visible;enable-background:accumulate"
         d="m -1.2871657,25.468675 0.29729587,1.31045 10.48141143,46.200981 0.290382,1.279974 1.2799744,-0.290382 66.162487,-15.009989 1.279974,-0.290382 -0.290382,-1.279974 -10.48141,-46.200981 -0.297296,-1.31045 -1.279975,0.290382 -66.16248733,15.009988 z"
         id="path4743"
         inkscape:connector-curvature="0" />
      <rect
         y="20.642864"
         x="-1.281981"
         height="47.379539"
         width="67.842468"
         id="rect4651"
         style="color:#000000;fill:url(#linearGradient4752);fill-opacity:1;fill-rule:evenodd;stroke:none;stroke-width:3;marker:none;visibility:visible;display:inline;overflow:visible;enable-background:accumulate"
         transform="matrix(0.9752186,-0.2212435,0.2212435,0.9752186,0,0)" />
      <path
         sodipodi:type="arc"
         style="color:#000000;fill:#ffc93f;fill-opacity:1;stroke:none;stroke-width:3;marker:none;visibility:visible;display:inline;overflow:visible;enable-background:accumulate"
         id="path4649"
         sodipodi:cx="39.375"
         sodipodi:cy="41.160713"
         sodipodi:rx="7.4107141"
         sodipodi:ry="7.4107141"
         d="m 46.785714,41.160713 c 0,4.092825 -3.31789,7.410714 -7.410714,7.410714 -4.092824,0 -7.410714,-3.317889 -7.410714,-7.410714 0,-4.092824 3.31789,-7.410714 7.410714,-7.410714 4.092824,0 7.410714,3.31789 7.410714,7.410714 z"
         transform="matrix(0.9573831,-0.2171973,0.2171973,0.9573831,-10.54199,9.3196583)" />
      <path
         style="color:#000000;fill:url(#linearGradient4754);fill-opacity:1;stroke:#000000;stroke-width:0.8814798;stroke-linecap:round;stroke-linejoin:round;stroke-miterlimit:20;stroke-opacity:1;stroke-dasharray:none;stroke-dashoffset:0;marker:none;visibility:visible;display:inline;overflow:visible;enable-background:accumulate"
         d="m 10.693437,51.50707 c 4.111221,-4.645056 9.100865,-7.552511 11.096447,-8.00524 1.995582,-0.452729 9.593459,-0.400948 11.282028,-0.784027 1.68857,-0.383078 12.636551,-3.351019 15.399665,-3.977874 2.763114,-0.626856 16.912732,-1.577219 19.829353,-2.2389 2.91662,-0.66168 5.317276,-2.174749 6.698834,-2.488177 2.084478,4.207907 4.395778,17.241741 4.395778,17.241741 L 14.106317,66.550691 z"
         id="path4647"
         sodipodi:nodetypes="csssscccc"
         inkscape:connector-curvature="0" />
      <rect
         style="color:#000000;fill:none;stroke:#000000;stroke-width:2.64443946;stroke-opacity:1;marker:none;visibility:visible;display:inline;overflow:visible;enable-background:accumulate"
         id="rect4136"
         width="67.842468"
         height="47.379539"
         x="-1.281981"
         y="20.642864"
         transform="matrix(0.9752186,-0.2212435,0.2212435,0.9752186,0,0)" />
    </g>
  </g>
</svg>
