<?xml version="1.0" encoding="UTF-8" standalone="no"?>
<!-- Created with Sodipodi ("http://www.sodipodi.com/") -->

<svg
   xmlns:dc="http://purl.org/dc/elements/1.1/"
   xmlns:cc="http://creativecommons.org/ns#"
   xmlns:rdf="http://www.w3.org/1999/02/22-rdf-syntax-ns#"
   xmlns:svg="http://www.w3.org/2000/svg"
   xmlns="http://www.w3.org/2000/svg"
   xmlns:xlink="http://www.w3.org/1999/xlink"
   xmlns:sodipodi="http://sodipodi.sourceforge.net/DTD/sodipodi-0.dtd"
   xmlns:inkscape="http://www.inkscape.org/namespaces/inkscape"
   version="1"
   x="0.00000000"
   y="0.00000000"
   width="90.0000000"
   height="90.0000000"
   id="svg548"
   sodipodi:version="0.32"
   sodipodi:docname="folder-remote-ftp.svg"
   inkscape:version="0.48.4 r9939">
  <metadata
     id="metadata48">
    <rdf:RDF>
      <cc:Work
         rdf:about="">
        <dc:format>image/svg+xml</dc:format>
        <dc:type
           rdf:resource="http://purl.org/dc/dcmitype/StillImage" />
        <dc:title></dc:title>
      </cc:Work>
    </rdf:RDF>
  </metadata>
  <sodipodi:namedview
     id="base"
     showgrid="false"
     inkscape:zoom="2.6222222"
     inkscape:cx="45"
     inkscape:cy="45"
     inkscape:window-width="593"
     inkscape:window-height="455"
     inkscape:window-x="0"
     inkscape:window-y="61"
     inkscape:window-maximized="0"
     inkscape:current-layer="svg548" />
  <defs
     id="defs550">
    <linearGradient
       x1="0.00000000"
       y1="0.00000000"
       x2="1.00000000"
       y2="0.00000000"
       id="linearGradient637"
       gradientUnits="objectBoundingBox"
       spreadMethod="pad">
      <stop
         style="stop-color:#ffffff;stop-opacity:0;"
         offset="0.000000"
         id="stop638" />
      <stop
         style="stop-color:#ffffff;stop-opacity:1;"
         offset="1.000000"
         id="stop639" />
    </linearGradient>
    <linearGradient
       x1="0.00000000"
       y1="0.00000000"
       x2="1.00000000"
       y2="0.00000000"
       id="linearGradient632"
       gradientUnits="objectBoundingBox"
       spreadMethod="pad">
      <stop
         style="stop-color:#ffb700;stop-opacity:1;"
         offset="0.00000000"
         id="stop633" />
      <stop
         style="stop-color:#ffd58f;stop-opacity:0;"
         offset="1.00000000"
         id="stop634" />
    </linearGradient>
    <linearGradient
       x1="0.00000000"
       y1="0.00000000"
       x2="1.00000000"
       y2="0.00000000"
       id="linearGradient556"
       gradientUnits="objectBoundingBox"
       spreadMethod="pad">
      <stop
         style="stop-color:#000000;stop-opacity:1;"
         offset="0.00000000"
         id="stop557" />
      <stop
         style="stop-color:#bdf2ff;stop-opacity:0.384314;"
         offset="1.00000000"
         id="stop558" />
    </linearGradient>
    <linearGradient
       x1="60.6446152"
       y1="19.2956886"
       x2="35.3705750"
       y2="69.1427994"
       id="linearGradient559"
       xlink:href="#linearGradient632"
       gradientUnits="userSpaceOnUse"
       spreadMethod="pad" />
    <linearGradient
       x1="85.6376572"
       y1="17.4438438"
       x2="73.9162979"
       y2="54.6281815"
       id="linearGradient631"
       xlink:href="#linearGradient632"
       gradientUnits="userSpaceOnUse"
       gradientTransform="scale(0.740666,1.350136)"
       spreadMethod="pad" />
    <linearGradient
       xlink:href="#linearGradient637"
       id="linearGradient636"
       x1="0.19586445"
       y1="0.53615069"
       x2="1.19339025"
       y2="0.33466935"
       gradientUnits="objectBoundingBox"
       spreadMethod="pad" />
  </defs>
  <path
     d="M 32.5076 12.1608 C 32.0388 12.0045 25.3201 7.94201 25.0076 12.942 C 24.6951 17.942 23.7434 54.4234 26.2434 59.4235 C 27.3371 62.5485 30.1496 67.236 35.1496 70.5173 C 39.2121 73.1735 62.9754 88.0916 64.8504 88.2478 C 66.7254 88.4041 70.6317 89.6541 71.4129 84.3416 C 72.1942 79.029 74.9934 64.7445 75.3535 59.0032 C 75.1973 53.847 77.3856 50.4095 72.8268 45.8031 C 69.7018 43.9281 38.2679 19.4101 36.5491 18.3164 C 34.8304 17.2226 33.3974 16.6862 32.5076 12.1608 z "
     transform="matrix(1.418885,-0.200635,0.127692,1.110535,-25.42418,4.539042)"
     style="font-size:12;fill:#000009;fill-opacity:0.301471;fill-rule:evenodd;stroke-width:1pt;"
     id="path783" />
  <path
     d="M 27.3438 9.06248 C 26.875 8.90623 20.1563 4.84373 19.8438 9.84373 C 19.5313 14.8437 21.7948 51.43 24.2948 56.43 C 25.3885 59.555 28.201 64.2425 33.201 67.5238 C 37.2635 70.18 63.75 84.2187 65.625 84.375 C 67.5 84.5312 71.4063 85.7812 72.1875 80.4687 C 72.9688 75.1562 80.0121 45.1117 79.8558 44.018 C 79.6996 38.8617 76.4114 33.4873 74.6927 32.2372 C 71.5677 30.3622 37.2457 8.74632 35.5269 7.65262 C 33.8082 6.55886 28.75 6.87498 27.3438 9.06248 z "
     transform="matrix(1.418885,-0.200635,0.127692,1.110535,-28.98864,5.917244)"
     style="font-size:12;fill:#593a28;fill-rule:evenodd;stroke-width:1pt;"
     id="path554" />
  <path
     d="M 34.7347 11.5278 C 31.8242 11.9203 31.7279 18.5979 27.9688 13.75 C 25.6793 11.7389 22.2842 11.565 22.7529 14.69 C 22.9092 18.2838 23.8556 53.0977 29.6369 59.0352 C 35.2619 66.8477 65.625 80.7812 66.4063 81.25 C 67.1875 81.7187 68.9063 81.5625 69.2188 77.8125 C 69.5313 74.0625 76.8092 46.3935 76.3405 44.6747 C 76.3404 42.0185 75.5592 38.8935 72.7467 36.706 C 69.9342 34.5185 35.6722 11.5278 34.7347 11.5278 z "
     transform="matrix(1.418885,-0.200635,0.127692,1.110535,-28.98864,5.917244)"
     style="font-size:12;fill:#f1e36c;fill-rule:evenodd;stroke-width:1pt;"
     id="path552" />
  <path
     d="M 35.3959 15.4436 C 40.9841 18.8409 71.8791 39.6105 73.1291 42.2667 C 74.3791 44.923 66.7188 75.625 66.7188 76.4062 C 66.7188 77.1875 61.1313 48.9239 58.0063 46.8926 C 54.8813 44.8614 41.631 37.9363 40.381 33.2488 C 39.131 28.5613 31.7315 17.5287 34.1459 14.5061 "
     transform="matrix(1.418885,-0.200635,0.127692,1.110535,-28.98864,5.917244)"
     style="font-size:12;fill:url(#linearGradient631);fill-rule:evenodd;stroke-width:1pt;"
     id="path562" />
  <path
     d="M 65.6315 77.8438 C 61.7252 64.2501 61.1816 55.4139 59.1502 50.7265 C 57.2752 46.6639 56.6502 46.3515 53.8378 44.4766 C 48.994 42.1328 39.4397 36.434 39.2835 34.7152 C 37.0959 34.5589 39.2188 24.375 34.2188 20 C 30.9375 17.1875 22.5 9.8437 22.5 9.8437 L 28.125 10.9375 C 30 12.9687 38.4375 20 39.2188 21.4062 C 40.9375 22.3438 39.4397 29.4027 41.0022 31.7465 C 42.4085 35.6527 56.3377 42.4452 57.4315 43.3827 C 58.5252 44.3202 60.7128 47.4452 61.494 50.414 C 65.0307 63.6693 65.3959 72.4748 65.6315 77.8438 z "
     transform="matrix(1.418885,-0.200635,0.127692,1.110535,-28.98864,5.917244)"
     style="font-size:12;fill:#593a28;fill-rule:evenodd;stroke-width:1pt;"
     id="path553" />
  <path
     d="M 32.2401 16.3592 C 34.0465 17.0528 40.7504 22.4843 42.7984 25.8628 C 43.6822 29.3984 42.4278 36.1872 46.8472 40.1647 C 51.2666 44.1421 62.0666 47.0499 63.6134 50.5854 C 65.1602 54.121 71.1434 74.6929 71.5854 76.6816 C 72.0273 78.6704 38.4557 61.3834 37.3508 56.3011 C 35.6801 51.1165 33.3449 40.666 32.2401 16.3592 z "
     transform="matrix(1.418885,-0.200635,0.127692,1.110535,-42.08894,7.593317)"
     style="font-size:12;fill:url(#linearGradient559);fill-rule:evenodd;stroke-width:1pt;"
     id="path635" />
  <path
     sodipodi:type="arc"
     style="font-size:12;fill:none;fill-rule:evenodd;stroke:#000000;stroke-width:8.5;stroke-opacity:0.3;"
     id="path589"
     d="M 83.823837 45.390781 A 40.459526 40.459522 0 1 0 2.904785,45.390781 A 40.4595 40.4595 0 1 0 83.8238 45.3908 L 43.364311 45.390781 z"
     sodipodi:cx="43.364311"
     sodipodi:cy="45.390781"
     sodipodi:rx="40.459526"
     sodipodi:ry="40.459522"
     transform="matrix(0.547442,0.000000,0.000000,0.547442,2.536165,39.29691)" />
  <path
     sodipodi:type="arc"
     style="font-size:12;fill:#31baff;fill-rule:evenodd;stroke-width:1pt;"
     id="path573"
     d="M 83.823837 45.390781 A 40.459526 40.459522 0 1 0 2.904785,45.390781 A 40.4595 40.4595 0 1 0 83.8238 45.3908 L 43.364311 45.390781 z"
     sodipodi:cx="43.364311"
     sodipodi:cy="45.390781"
     sodipodi:rx="40.459526"
     sodipodi:ry="40.459522"
     transform="matrix(0.491751,0.000000,0.000000,0.491751,2.734277,39.50798)" />
  <path
     style="font-size:12;fill:#e48e6f;fill-rule:evenodd;stroke-width:1pt;"
     d="M 28.507 13.4277 L 33.5075 22.0666 L 21.4273 37.0306 C 21.4273 37.0306 27.3038 50.7498 31.5585 50.5779 C 28.9177 51.1396 28.922 62.4819 30.2424 66.003 C 34.3774 62.4315 14.8677 57.4856 16.5276 47.5264 C 18.1874 37.5671 17.0138 35.0166 12.4491 42.0711 C 7.88442 49.1255 7.05448 50.9929 7.46945 47.6731 C 7.88442 44.3534 6.46331 19.7781 28.507 13.4277 z "
     id="path576"
     sodipodi:nodetypes="ccccccccc"
     transform="matrix(0.581160,0.000000,0.000000,0.581160,-0.901719,36.17313)" />
  <path
     style="font-size:12;fill:#fffcac;fill-rule:evenodd;stroke-width:1pt;"
     d="M 30.7077 12.4007 L 37.7622 22.36 L 24.0682 36.8839 C 24.0682 36.8839 33.6125 50.1629 33.6125 50.5779 C 33.6125 50.9929 29.8778 61.3671 29.8778 61.3671 C 29.8778 61.3671 16.5988 54.3126 18.2587 44.3534 C 19.9185 34.3941 18.2587 30.6594 13.694 37.7139 C 9.12933 44.7683 7.05448 50.9929 7.46945 47.6731 C 7.88442 44.3534 9.5443 16.5504 30.7077 12.4007 z "
     id="path574"
     transform="matrix(0.581160,0.000000,0.000000,0.581160,-0.901719,36.17313)" />
  <path
     style="font-size:12;fill:#ffd87c;fill-rule:evenodd;stroke-width:1pt;"
     d="M 28.507 13.4277 L 33.5075 22.0666 L 21.4273 37.0306 C 21.4273 37.0306 27.3038 50.7498 31.5585 50.5779 C 28.9177 51.1396 27.6771 56.6723 28.9975 60.1934 C 27.5304 55.792 16.5276 56.2407 18.1875 46.2815 C 19.8473 36.3222 18.2587 30.6594 13.694 37.7139 C 9.12933 44.7683 7.05448 50.9929 7.46945 47.6731 C 7.88442 44.3534 6.46331 19.7781 28.507 13.4277 z "
     id="path575"
     sodipodi:nodetypes="ccccccccc"
     transform="matrix(0.581160,0.000000,0.000000,0.581160,-0.901719,36.17313)" />
  <path
     style="font-size:12;fill:#e48e6f;fill-rule:evenodd;stroke-width:1pt;"
     d="M 42.8405 18.697 C 42.8405 18.697 48.1222 22.5116 42.2536 28.0867 C 36.385 33.6619 28.1691 35.7159 35.2113 39.5304 C 42.2536 43.345 51.9367 43.9318 51.0564 37.183 C 50.1762 30.4342 49.0025 16.0562 42.8405 18.697 z "
     id="path577"
     transform="matrix(0.581160,0.000000,0.000000,0.581160,-0.901719,36.17313)" />
  <path
     style="font-size:12;fill:#fffbaa;fill-rule:evenodd;stroke-width:1pt;"
     d="M 42.8405 18.697 C 42.8405 18.697 48.1222 22.5116 42.2536 28.0867 C 36.385 33.6619 28.1691 35.7159 35.2113 39.5304 C 42.2536 43.345 51.9367 43.9318 51.0564 37.183 C 50.1762 30.4342 49.0025 16.0562 42.8405 18.697 z "
     id="path578"
     transform="matrix(0.562838,0.000000,0.000000,0.545587,0.375774,36.82686)" />
  <path
     style="font-size:12;fill:#ffd87c;fill-rule:evenodd;stroke-width:1pt;"
     d="M 42.8405 18.697 C 42.8405 18.697 48.1222 22.5116 42.2536 28.0867 C 36.385 33.6619 28.1691 35.7159 35.2113 39.5304 C 42.2536 43.345 51.9367 43.9318 51.0564 37.183 C 50.1762 30.4342 49.0025 16.0562 42.8405 18.697 z "
     id="path579"
     transform="matrix(0.480393,0.000000,0.000000,0.517128,3.055003,37.34984)" />
  <path
     style="font-size:12;fill:#e48e6f;fill-rule:evenodd;stroke-width:1pt;"
     d="M 77.1715 47.1595 C 77.1715 47.1595 63.087 45.1055 62.2067 45.6924 C 61.3264 46.2793 49.0024 47.453 50.1762 53.9084 C 51.3499 60.3638 55.4579 65.6455 50.1762 69.4601 C 44.8945 73.2746 39.0259 76.2089 44.3076 77.9695 C 49.5893 79.73 56.925 77.676 59.2724 75.622 C 61.6198 73.568 56.6316 72.3943 57.2184 66.5258 C 57.8053 60.6572 56.0447 56.8427 62.2067 58.8966 C 68.3687 60.9506 68.0753 63.2981 72.1832 58.8966 C 76.2912 54.4952 79.8124 53.3215 77.1715 47.1595 z "
     id="path580"
     transform="matrix(0.581160,0.000000,0.000000,0.581160,-0.901719,36.17313)" />
  <path
     style="font-size:12;fill:#fffcac;fill-rule:evenodd;stroke-width:1pt;"
     d="M 77.1715 47.1595 C 78.3452 45.6098 63.087 41.3862 62.2067 43.8328 C 61.3264 41.9402 46.3615 44.6636 47.5354 51.1189 C 48.7091 57.5744 53.6973 64.7157 48.4156 68.5303 C 43.1339 72.3448 39.0259 76.2089 44.3076 77.9695 C 49.5893 79.73 56.925 77.676 59.2724 75.622 C 61.6198 73.568 55.4579 72.3943 56.0447 66.5258 C 56.6316 60.6572 56.0447 55.293 62.2067 57.3469 C 68.3687 59.4009 68.0753 61.7484 72.1832 57.3469 C 76.2912 52.9455 79.8124 53.3215 77.1715 47.1595 z "
     id="path582"
     transform="matrix(0.581160,0.000000,0.000000,0.550201,-0.901719,37.58445)"
     sodipodi:nodetypes="cccccccccc" />
  <path
     style="font-size:12;fill:#ffd87c;fill-rule:evenodd;stroke-width:1pt;"
     d="M 77.1715 47.1595 C 77.1715 47.1595 63.087 45.1055 62.2067 45.6924 C 61.3264 46.2793 49.0024 47.453 50.1762 53.9084 C 51.3499 60.3638 55.4579 65.6455 50.1762 69.4601 C 44.8945 73.2746 39.0259 76.2089 44.3076 77.9695 C 49.5893 79.73 56.925 77.676 59.2724 75.622 C 61.6198 73.568 55.4579 72.3943 56.0447 66.5258 C 56.6316 60.6572 56.0447 55.293 62.2067 57.3469 C 68.3687 59.4009 68.0753 61.7484 72.1832 57.3469 C 76.2912 52.9455 79.8124 53.3215 77.1715 47.1595 z "
     id="path581"
     transform="matrix(0.581160,0.000000,0.000000,0.550201,-0.901719,37.58445)"
     sodipodi:nodetypes="cccccccccc" />
  <path
     transform="matrix(0.534797,0.000000,0.000000,0.534797,0.867607,37.31292)"
     style="font-size:12;fill:none;fill-rule:evenodd;stroke:#283d53;stroke-width:8.5;"
     d="M 83.8238 45.3908 C 83.8238 67.7244 65.698 85.8503 43.3643 85.8503 C 21.0307 85.8503 2.90479 67.7244 2.90479 45.3908 C 2.90479 23.0571 21.0307 4.93126 43.3643 4.93126 C 65.698 4.93126 83.8238 23.0571 83.8238 45.3908 z "
     id="path640" />
  <path
     transform="matrix(0.542561,-0.386341,0.533693,0.598266,-18.24334,58.18902)"
     style="font-size:12;fill-rule:evenodd;stroke-width:1pt;fill:url(#linearGradient636);"
     d="M 72.1832 30.4342 C 72.1832 40.1525 63.7044 48.0398 53.2571 48.0398 C 42.8099 48.0398 34.3311 40.1525 34.3311 30.4342 C 34.3311 20.7158 42.8099 12.8285 53.2571 12.8285 C 63.7044 12.8285 72.1832 20.7158 72.1832 30.4342 z "
     id="path588" />
</svg>
