<?xml version="1.0" encoding="UTF-8" standalone="no"?>
<!-- Created with Sodipodi ("http://www.sodipodi.com/") -->
<svg
   xmlns:dc="http://purl.org/dc/elements/1.1/"
   xmlns:cc="http://creativecommons.org/ns#"
   xmlns:rdf="http://www.w3.org/1999/02/22-rdf-syntax-ns#"
   xmlns:svg="http://www.w3.org/2000/svg"
   xmlns="http://www.w3.org/2000/svg"
   xmlns:xlink="http://www.w3.org/1999/xlink"
   xmlns:sodipodi="http://sodipodi.sourceforge.net/DTD/sodipodi-0.dtd"
   xmlns:inkscape="http://www.inkscape.org/namespaces/inkscape"
   id="svg548"
   sodipodi:version="0.32"
   width="72pt"
   height="72pt"
   sodipodi:docbase="/home/tweenk/dev/GartoonRedux/scalable/mimetypes"
   sodipodi:docname="application-x-archpkg.svg"
   inkscape:version="0.46"
   inkscape:output_extension="org.inkscape.output.svg.inkscape">
  <metadata
     id="metadata27">
    <rdf:RDF>
      <cc:Work
         rdf:about="">
        <dc:format>image/svg+xml</dc:format>
        <dc:type
           rdf:resource="http://purl.org/dc/dcmitype/StillImage" />
      </cc:Work>
      <cc:Work
         rdf:about="">
        <dc:format>image/svg+xml</dc:format>
        <dc:type
           rdf:resource="http://purl.org/dc/dcmitype/StillImage" />
      </cc:Work>
    </rdf:RDF>
  </metadata>
  <defs
     id="defs550">
    <linearGradient
       xlink:href="#linearGradient666"
       id="linearGradient665"
       x1="77.3604736"
       y1="65.4081421"
       x2="55.6024742"
       y2="83.4317398"
       gradientUnits="userSpaceOnUse"
       gradientTransform="matrix(-0.5673405,0.1106277,7.6339467e-2,0.3914974,82.37531,46.211719)"
       spreadMethod="pad" />
    <linearGradient
       xlink:href="#linearGradient660"
       id="linearGradient663"
       x1="24.8720913"
       y1="97.8506012"
       x2="54.9295425"
       y2="95.5566864"
       gradientUnits="userSpaceOnUse"
       gradientTransform="matrix(-0.5673405,0.1106277,7.6339467e-2,0.3914974,82.37531,46.211719)"
       spreadMethod="pad" />
    <linearGradient
       id="linearGradient666">
      <stop
         style="stop-color:#a6d7ff;stop-opacity:1;"
         offset="0.000000"
         id="stop667" />
      <stop
         style="stop-color:#ffffff;stop-opacity:0.396078;"
         offset="1.000000"
         id="stop668" />
    </linearGradient>
    <linearGradient
       inkscape:collect="always"
       xlink:href="#linearGradient666"
       id="linearGradient2424"
       gradientUnits="userSpaceOnUse"
       gradientTransform="matrix(-0.5673405,0.1106277,7.6339467e-2,0.3914974,118.96627,117.94415)"
       spreadMethod="pad"
       x1="77.3604736"
       y1="65.4081421"
       x2="55.6024742"
       y2="83.4317398" />
    <linearGradient
       id="linearGradient660">
      <stop
         style="stop-color:#3882d2;stop-opacity:1;"
         offset="0.000000"
         id="stop661" />
      <stop
         style="stop-color:#ffffff;stop-opacity:1;"
         offset="1.000000"
         id="stop662" />
    </linearGradient>
    <linearGradient
       inkscape:collect="always"
       xlink:href="#linearGradient660"
       id="linearGradient2422"
       gradientUnits="userSpaceOnUse"
       gradientTransform="matrix(-0.5673405,0.1106277,7.6339467e-2,0.3914974,118.96627,117.94415)"
       spreadMethod="pad"
       x1="24.8720913"
       y1="97.8506012"
       x2="54.9295425"
       y2="95.5566864" />
    <inkscape:perspective
       sodipodi:type="inkscape:persp3d"
       inkscape:vp_x="-50 : 600 : 1"
       inkscape:vp_y="0 : 1000 : 0"
       inkscape:vp_z="700 : 600 : 1"
       inkscape:persp3d-origin="300 : 400 : 1"
       id="perspective29" />
    <linearGradient
       id="linearGradient569">
      <stop
         style="stop-color:#c57700;stop-opacity:1;"
         offset="0.000000"
         id="stop570" />
      <stop
         style="stop-color:#ffa75f;stop-opacity:0;"
         offset="1.000000"
         id="stop571" />
    </linearGradient>
    <linearGradient
       id="linearGradient559">
      <stop
         style="stop-color:#945700;stop-opacity:1;"
         offset="0.000000"
         id="stop560" />
      <stop
         style="stop-color:#ffa75f;stop-opacity:0;"
         offset="1.000000"
         id="stop561" />
    </linearGradient>
    <linearGradient
       xlink:href="#linearGradient559"
       id="linearGradient562"
       x1="40.9153252"
       y1="31.7318363"
       x2="42.7533417"
       y2="35.4855690"
       gradientUnits="userSpaceOnUse"
       spreadMethod="pad"
       gradientTransform="matrix(1.2287685,0,0,0.7275398,-7.1389191,1.8739714)" />
    <linearGradient
       xlink:href="#linearGradient559"
       id="linearGradient566"
       x1="59.0300407"
       y1="48.8431816"
       x2="58.3435440"
       y2="23.6183739"
       gradientUnits="userSpaceOnUse"
       spreadMethod="pad"
       gradientTransform="matrix(0.5734264,0,0,1.5590094,-6.8541051,2.1587764)" />
    <linearGradient
       xlink:href="#linearGradient569"
       id="linearGradient568"
       x1="92.7804184"
       y1="64.9443817"
       x2="90.8925323"
       y2="42.8786545"
       gradientUnits="userSpaceOnUse"
       spreadMethod="pad"
       gradientTransform="matrix(0.7296653,0,0,1.2251888,-7.1389191,1.8739714)" />
    <linearGradient
       y2="246.27766"
       x2="503.53174"
       y1="144.13815"
       x1="625.76263"
       gradientTransform="matrix(-0.3045862,0,0,0.3045691,929.97041,442.72079)"
       gradientUnits="userSpaceOnUse"
       id="linearGradient2191"
       xlink:href="#linearGradient3273"
       inkscape:collect="always" />
    <linearGradient
       gradientUnits="userSpaceOnUse"
       id="linearGradient3273"
       y2="129.3468"
       x2="112.49853"
       y1="6.1372099"
       x1="112.49854"
       gradientTransform="translate(287,-83)">
      <stop
         id="stop3275"
         offset="0"
         style="stop-color:#ffffff;stop-opacity:1" />
      <stop
         id="stop3277"
         offset="1"
         style="stop-color:#31baff;stop-opacity:1" />
      <midPointStop
         id="midPointStop3279"
         style="stop-color:#FFFFFF"
         offset="0" />
      <midPointStop
         id="midPointStop3281"
         style="stop-color:#FFFFFF"
         offset="0.5" />
      <midPointStop
         id="midPointStop3283"
         style="stop-color:#000000"
         offset="1" />
    </linearGradient>
    <inkscape:perspective
       id="perspective2574"
       inkscape:persp3d-origin="64 : 42.666667 : 1"
       inkscape:vp_z="128 : 64 : 1"
       inkscape:vp_y="0 : 1000 : 0"
       inkscape:vp_x="0 : 64 : 1"
       sodipodi:type="inkscape:persp3d" />
    <linearGradient
       y2="246.27766"
       x2="503.53174"
       y1="144.13815"
       x1="625.76263"
       gradientTransform="matrix(-0.3045862,0,0,0.3045691,929.97041,442.72079)"
       gradientUnits="userSpaceOnUse"
       id="linearGradient2472"
       xlink:href="#linearGradient3273"
       inkscape:collect="always" />
    <linearGradient
       gradientUnits="userSpaceOnUse"
       id="linearGradient2460"
       y2="129.3468"
       x2="112.49853"
       y1="6.1372099"
       x1="112.49854"
       gradientTransform="translate(287,-83)">
      <stop
         id="stop2462"
         offset="0"
         style="stop-color:#ffffff;stop-opacity:1" />
      <stop
         id="stop2464"
         offset="1"
         style="stop-color:#31baff;stop-opacity:1" />
      <midPointStop
         id="midPointStop2466"
         style="stop-color:#FFFFFF"
         offset="0" />
      <midPointStop
         id="midPointStop2468"
         style="stop-color:#FFFFFF"
         offset="0.5" />
      <midPointStop
         id="midPointStop2470"
         style="stop-color:#000000"
         offset="1" />
    </linearGradient>
    <inkscape:perspective
       id="perspective18"
       inkscape:persp3d-origin="64 : 42.666667 : 1"
       inkscape:vp_z="128 : 64 : 1"
       inkscape:vp_y="0 : 1000 : 0"
       inkscape:vp_x="0 : 64 : 1"
       sodipodi:type="inkscape:persp3d" />
  </defs>
  <sodipodi:namedview
     id="base"
     showgrid="false"
     inkscape:zoom="3.9205143"
     inkscape:cx="67.82325"
     inkscape:cy="40.330759"
     inkscape:window-width="795"
     inkscape:window-height="711"
     inkscape:window-x="384"
     inkscape:window-y="36"
     inkscape:current-layer="svg548" />
  <path
     style="fill:#000000;fill-opacity:0.3;fill-rule:evenodd;stroke:none;stroke-width:1pt;stroke-linecap:butt;stroke-linejoin:miter;stroke-opacity:1"
     d="M 41.126783,86.944379 C 40.267791,86.568459 6.0797264,81.723193 6.0797264,81.723193 L 2.987337,83.117462 L 2.1283386,79.619442 L 4.7053256,76.584302 L 2.1283386,75.664742 L 16.731279,64.779378 L 18.105647,65.755471 L 18.44926,63.449718 L 22.572446,63.047793 L 67.240265,72.39582 L 41.126783,86.944379 z "
     id="path594" />
  <path
     style="fill:#593a28;fill-opacity:1;fill-rule:evenodd;stroke:none;stroke-width:1pt;stroke-linecap:butt;stroke-linejoin:miter;stroke-opacity:1"
     d="M 16.673693,33.243336 C 19.97407,48.138049 19.287161,71.577094 13.758515,83.054094 L 40.68316,87.362945 L 73.900512,75.358259 C 72.191703,59.003214 70.767585,40.369694 74.185298,24.584221 L 80.04279,11.201955 L 74.138779,11.989068 L 74.926006,8.0531426 C 67.428537,2.8625904 57.937379,1.9442 48.161435,5.2979534 L 47.571062,9.6275486 L 41.863905,4.7075618 C 29.375972,5.2465936 18.027277,8.6337294 7.8178196,18.286692 L 16.673693,33.243336 z "
     id="path564"
     sodipodi:nodetypes="ccccccccccccc" />
  <path
     style="fill:url(#linearGradient562);fill-opacity:1;fill-rule:evenodd;stroke:none;stroke-width:1pt;stroke-linecap:butt;stroke-linejoin:miter;stroke-opacity:1"
     d="M 49.539129,19.270583 C 49.145515,19.270583 21.003251,29.307392 21.003251,29.307392 C 21.003251,29.307392 23.56169,48.003221 29.071993,48.396834 C 34.58239,48.790447 68.431717,22.025876 68.431717,22.025876"
     id="path558"
     sodipodi:nodetypes="cccc" />
  <path
     style="fill:#e9a93d;fill-opacity:1;fill-rule:evenodd;stroke:none;stroke-width:1pt;stroke-linecap:butt;stroke-linejoin:miter;stroke-opacity:1"
     d="M 20.806491,31.472123 L 38.911947,33.046576 C 36.895849,50.497649 36.58856,67.09427 39.699079,82.836533 C 39.699079,82.836533 21.200105,81.065415 21.200105,79.884575 C 21.200105,78.70383 26.217894,52.087231 20.806491,31.472123 z "
     id="path552"
     sodipodi:nodetypes="ccccc" />
  <path
     style="fill:#ffe6ba;fill-opacity:1;fill-rule:evenodd;stroke:none;stroke-width:1pt;stroke-linecap:butt;stroke-linejoin:miter;stroke-opacity:1"
     d="M 69.394996,23.885021 L 38.518334,33.44019 L 39.305561,83.033387 C 39.305561,83.033387 68.82533,72.012687 68.82533,70.831847 C 68.82533,69.651102 64.837951,35.955892 69.394996,23.885021 z "
     id="path553"
     sodipodi:nodetypes="ccccc" />
  <path
     style="fill:#e3c084;fill-opacity:1;fill-rule:evenodd;stroke:none;stroke-width:1pt;stroke-linecap:butt;stroke-linejoin:miter;stroke-opacity:1"
     d="M 50.326261,19.270678 L 42.847891,9.8243269 C 33.663927,11.08821 23.625606,12.352141 15.296094,20.451423 L 20.412878,29.897764 L 50.326261,19.270678 z "
     id="path556"
     sodipodi:nodetypes="ccccc" />
  <path
     style="fill:#e3b463;fill-opacity:1;fill-rule:evenodd;stroke:none;stroke-width:1pt;stroke-linecap:butt;stroke-linejoin:miter;stroke-opacity:1"
     d="M 49.539034,19.467532 L 69.612462,23.206622 L 71.186916,12.973148 C 64.079751,10.608282 57.542253,9.3826536 50.719874,11.005129 L 49.539034,19.467532 z "
     id="path557"
     sodipodi:nodetypes="ccccc" />
  <path
     style="fill:#c89134;fill-opacity:1;fill-rule:evenodd;stroke:none;stroke-width:1pt;stroke-linecap:butt;stroke-linejoin:miter;stroke-opacity:1"
     d="M 38.911947,33.046576 C 37.731107,30.422614 36.550362,27.798556 35.369522,25.174594 C 28.832024,22.217719 21.724859,20.400082 14.902481,23.993848 C 16.739311,26.486575 18.576047,28.979396 20.412878,31.472123 C 26.579266,31.996972 32.745559,32.521727 38.911947,33.046576 z "
     id="path554"
     sodipodi:nodetypes="ccccc" />
  <path
     style="fill:#e3c084;fill-opacity:1;fill-rule:evenodd;stroke:none;stroke-width:1pt;stroke-linecap:butt;stroke-linejoin:miter;stroke-opacity:1"
     d="M 38.518334,34.227322 L 43.241505,24.78098 C 53.343837,18.915263 63.730955,16.182567 73.548406,15.728252 C 72.039666,18.483451 70.53083,21.23865 69.02209,23.993848 L 38.518334,34.227322 z "
     id="path555"
     sodipodi:nodetypes="ccccc" />
  <path
     style="fill:url(#linearGradient566);fill-opacity:1;fill-rule:evenodd;stroke:none;stroke-width:1pt;stroke-linecap:butt;stroke-linejoin:miter;stroke-opacity:1"
     d="M 21.091305,31.756928 C 27.126457,32.281777 33.161609,32.806532 39.196761,33.331381 C 35.75664,51.06724 37.158255,66.823205 39.983893,82.850254 C 39.983893,82.850254 21.123473,81.079136 21.123473,79.898296 C 25.658665,49.125869 21.99492,37.572228 21.091305,31.756928 z "
     id="path565"
     sodipodi:nodetypes="ccccc" />
  <path
     style="fill:url(#linearGradient568);fill-opacity:1;fill-rule:evenodd;stroke:none;stroke-width:1pt;stroke-linecap:butt;stroke-linejoin:miter;stroke-opacity:1"
     d="M 59.426642,32.144566 L 38.518334,33.44019 L 39.305561,83.033387 C 39.305561,83.033387 68.82533,72.012687 68.82533,70.831847 C 67.740993,53.386042 59.426642,32.538179 59.426642,32.144566 z "
     id="path567"
     sodipodi:nodetypes="ccccc" />
  <path
     style="font-size:12px;fill:#ffffff;fill-opacity:0.70434804;fill-rule:evenodd;stroke-width:1pt"
     d="M 23.012112,70.804052 L 23.012112,77.880852 L 35.292412,79.754152 L 35.292412,72.677352 L 23.012112,70.804052 z "
     id="path573"
     sodipodi:nodetypes="ccccc" />
  <g
     transform="matrix(0.48,0,0,0.48,-96.913109,-74.307107)"
     id="layer1"
     inkscape:label="Layer 1">
    <g
       id="g2210"
       transform="matrix(0.485813,0,0,0.4899771,-37.960379,5.5134739)">
      <path
         style="opacity:1;fill:#002f77;fill-opacity:1;fill-rule:evenodd;stroke:none;stroke-width:4;marker:none;marker-start:none;marker-mid:none;marker-end:none;visibility:visible;display:inline;overflow:visible;enable-background:accumulate"
         d="M 63.993164,1.7814394 C 73.185552,19.459109 126.57211,125.52513 126.57211,125.52513 C 108.54089,122.34315 77.074639,102.54415 67.882251,102.89771 C 69.296465,91.937553 70.710678,79.209632 64.700271,79.209632 C 58.689863,79.209632 58.33631,91.937554 60.104077,102.54416 C 41.365746,102.89771 18.384776,121.28249 1.7677669,124.81802 C 20.859651,90.87689 57.275649,19.812663 63.993164,1.7814394 z"
         id="path2501"
         transform="matrix(1.484375,0,0,1.484375,669.75015,435.62319)"
         sodipodi:nodetypes="cccsccc" />
      <path
         style="fill:#31baff;fill-opacity:1;fill-rule:evenodd;stroke:none"
         d="M 764.75015,457.14022 C 758.20855,473.17848 754.23671,483.68431 746.9535,499.24581 C 751.41902,503.97927 756.90714,509.47128 765.80862,515.69695 C 756.23866,511.75897 749.71495,507.81562 744.83655,503.71292 C 735.51544,523.16287 720.90243,550.85763 691.26719,604.10614 C 714.55366,590.66246 732.60572,582.3703 749.42924,579.20518 C 748.70947,576.10262 748.32498,572.73091 748.35283,569.23044 L 748.37077,568.49489 C 748.74036,553.57212 756.50518,542.09715 765.70098,542.87632 C 774.89677,543.65549 782.05527,556.38873 781.68568,571.3115 C 781.61606,574.12235 781.28927,576.82319 780.73485,579.33076 C 797.37732,582.58764 815.25913,590.84285 838.23311,604.10614 C 833.70247,595.7649 829.6445,588.24999 825.78263,581.0889 C 819.69957,576.37411 813.35769,570.24015 800.41522,563.59722 C 809.31114,565.90875 815.68695,568.58172 820.65174,571.56266 C 781.38707,498.45869 778.21488,488.73811 764.75015,457.14022 L 764.75015,457.14022 z"
         id="path2518" />
      <path
         style="fill:url(#linearGradient2191);fill-opacity:1;fill-rule:evenodd;stroke:none"
         d="M 765.03719,457.78607 C 764.22264,459.78854 763.42178,461.71377 762.66909,463.56281 C 761.83281,465.61712 761.01962,467.59623 760.22923,469.51895 C 759.4389,471.44169 758.67355,473.336 757.897,475.18804 C 757.12041,477.04017 756.32379,478.87124 755.5289,480.71362 C 754.73406,482.55593 753.93427,484.38163 753.08904,486.27507 C 752.2438,488.16858 751.36153,490.11803 750.43389,492.12357 C 749.50617,494.12913 748.53384,496.1883 747.4917,498.36675 C 747.34971,498.66355 747.16971,498.99898 747.02526,499.29964 C 751.47887,504.01722 756.96892,509.50195 765.82656,515.69696 C 756.28125,511.76912 749.74673,507.84012 744.87243,503.7488 C 744.62078,504.26254 744.41405,504.7298 744.15483,505.25578 C 743.19933,507.19467 742.13804,509.30186 741.06912,511.4272 C 740.8081,511.94618 740.58403,512.4029 740.31563,512.93417 C 740.19446,513.17733 740.04373,513.44191 739.92095,513.68766 C 735.73301,522.06991 730.58076,532.03398 723.99007,544.36536 C 742.61657,533.86531 762.74025,518.77749 799.23117,531.80724 C 797.40022,528.33947 795.717,525.06943 794.13616,522.0119 C 792.55535,518.95429 791.08664,516.10827 789.72288,513.40062 C 788.35922,510.69302 787.09906,508.14024 785.91956,505.72222 C 784.74007,503.30425 783.64675,501.02203 782.61857,498.8332 C 781.59032,496.64441 780.6221,494.53821 779.71226,492.51825 C 778.80235,490.49832 777.9534,488.54526 777.12887,486.63388 C 776.30426,484.72239 775.49695,482.86382 774.72489,481.00066 C 773.95275,479.13744 773.21696,477.27873 772.46443,475.40333 C 772.16677,474.66171 771.86559,473.89297 771.56742,473.14286 C 769.53607,468.37205 767.44493,463.4422 765.03719,457.78607 L 765.03719,457.78607 z"
         id="path2520" />
    </g>
  </g>
</svg>
