<?xml version="1.0" encoding="UTF-8" standalone="no"?>
<!-- Created with Inkscape (http://www.inkscape.org/) -->
<svg
   xmlns:dc="http://purl.org/dc/elements/1.1/"
   xmlns:cc="http://creativecommons.org/ns#"
   xmlns:rdf="http://www.w3.org/1999/02/22-rdf-syntax-ns#"
   xmlns:svg="http://www.w3.org/2000/svg"
   xmlns="http://www.w3.org/2000/svg"
   xmlns:xlink="http://www.w3.org/1999/xlink"
   xmlns:sodipodi="http://sodipodi.sourceforge.net/DTD/sodipodi-0.dtd"
   xmlns:inkscape="http://www.inkscape.org/namespaces/inkscape"
   width="89.999992"
   height="89.999992"
   id="svg2424"
   sodipodi:version="0.32"
   inkscape:version="0.46"
   version="1.0"
   sodipodi:docbase="/home/thayer/tmp/archlinux-logo-contest/archer/masters"
   sodipodi:docname="arch.svg"
   inkscape:output_extension="org.inkscape.output.svg.inkscape"
   inkscape:export-filename="/home/thayer/archlinux-logo-contest/archer-full-detail.png"
   inkscape:export-xdpi="90"
   inkscape:export-ydpi="90">
  <defs
     id="defs2426">
    <inkscape:perspective
       sodipodi:type="inkscape:persp3d"
       inkscape:vp_x="0 : 64 : 1"
       inkscape:vp_y="0 : 1000 : 0"
       inkscape:vp_z="128 : 64 : 1"
       inkscape:persp3d-origin="64 : 42.666667 : 1"
       id="perspective18" />
    <linearGradient
       gradientTransform="translate(287,-83)"
       x1="112.49854"
       y1="6.1372099"
       x2="112.49853"
       y2="129.3468"
       id="linearGradient3273"
       gradientUnits="userSpaceOnUse">
      <stop
         style="stop-color:#ffffff;stop-opacity:1"
         offset="0"
         id="stop3275" />
      <stop
         style="stop-color:#31baff;stop-opacity:1"
         offset="1"
         id="stop3277" />
      <midPointStop
         offset="0"
         style="stop-color:#FFFFFF"
         id="midPointStop3279" />
      <midPointStop
         offset="0.5"
         style="stop-color:#FFFFFF"
         id="midPointStop3281" />
      <midPointStop
         offset="1"
         style="stop-color:#000000"
         id="midPointStop3283" />
    </linearGradient>
    <linearGradient
       inkscape:collect="always"
       xlink:href="#linearGradient3273"
       id="linearGradient2191"
       gradientUnits="userSpaceOnUse"
       gradientTransform="matrix(-0.3045862,0,0,0.3045691,929.97041,442.72079)"
       x1="625.76263"
       y1="144.13815"
       x2="503.53174"
       y2="246.27766" />
  </defs>
  <sodipodi:namedview
     id="base"
     pagecolor="#ffffff"
     bordercolor="#666666"
     borderopacity="1.0"
     gridtolerance="10000"
     guidetolerance="10"
     objecttolerance="10"
     inkscape:pageopacity="0.0"
     inkscape:pageshadow="2"
     inkscape:zoom="2.8284271"
     inkscape:cx="39.450733"
     inkscape:cy="58.340314"
     inkscape:document-units="px"
     inkscape:current-layer="layer1"
     inkscape:window-width="775"
     inkscape:window-height="724"
     inkscape:window-x="323"
     inkscape:window-y="35"
     showgrid="false" />
  <metadata
     id="metadata2429">
    <rdf:RDF>
      <cc:Work
         rdf:about="">
        <dc:format>image/svg+xml</dc:format>
        <dc:type
           rdf:resource="http://purl.org/dc/dcmitype/StillImage" />
      </cc:Work>
    </rdf:RDF>
  </metadata>
  <g
     inkscape:label="Layer 1"
     inkscape:groupmode="layer"
     id="layer1"
     transform="translate(-288.68774,-220.25452)">
    <g
       transform="matrix(0.485813,0,0,0.4899771,-37.960379,5.5134739)"
       id="g2210">
      <path
         sodipodi:nodetypes="cccsccc"
         transform="matrix(1.484375,0,0,1.484375,669.75015,435.62319)"
         id="path2501"
         d="M 63.993164,1.7814394 C 73.185552,19.459109 126.57211,125.52513 126.57211,125.52513 C 108.54089,122.34315 77.074639,102.54415 67.882251,102.89771 C 69.296465,91.937553 70.710678,79.209632 64.700271,79.209632 C 58.689863,79.209632 58.33631,91.937554 60.104077,102.54416 C 41.365746,102.89771 18.384776,121.28249 1.7677669,124.81802 C 20.859651,90.87689 57.275649,19.812663 63.993164,1.7814394 z"
         style="opacity:1;fill:#002f77;fill-opacity:1;fill-rule:evenodd;stroke:none;stroke-width:4;marker:none;marker-start:none;marker-mid:none;marker-end:none;visibility:visible;display:inline;overflow:visible;enable-background:accumulate" />
      <path
         id="path2518"
         d="M 764.75015,457.14022 C 758.20855,473.17848 754.23671,483.68431 746.9535,499.24581 C 751.41902,503.97927 756.90714,509.47128 765.80862,515.69695 C 756.23866,511.75897 749.71495,507.81562 744.83655,503.71292 C 735.51544,523.16287 720.90243,550.85763 691.26719,604.10614 C 714.55366,590.66246 732.60572,582.3703 749.42924,579.20518 C 748.70947,576.10262 748.32498,572.73091 748.35283,569.23044 L 748.37077,568.49489 C 748.74036,553.57212 756.50518,542.09715 765.70098,542.87632 C 774.89677,543.65549 782.05527,556.38873 781.68568,571.3115 C 781.61606,574.12235 781.28927,576.82319 780.73485,579.33076 C 797.37732,582.58764 815.25913,590.84285 838.23311,604.10614 C 833.70247,595.7649 829.6445,588.24999 825.78263,581.0889 C 819.69957,576.37411 813.35769,570.24015 800.41522,563.59722 C 809.31114,565.90875 815.68695,568.58172 820.65174,571.56266 C 781.38707,498.45869 778.21488,488.73811 764.75015,457.14022 L 764.75015,457.14022 z"
         style="fill:#31baff;fill-opacity:1;fill-rule:evenodd;stroke:none" />
      <path
         id="path2520"
         d="M 765.03719,457.78607 C 764.22264,459.78854 763.42178,461.71377 762.66909,463.56281 C 761.83281,465.61712 761.01962,467.59623 760.22923,469.51895 C 759.4389,471.44169 758.67355,473.336 757.897,475.18804 C 757.12041,477.04017 756.32379,478.87124 755.5289,480.71362 C 754.73406,482.55593 753.93427,484.38163 753.08904,486.27507 C 752.2438,488.16858 751.36153,490.11803 750.43389,492.12357 C 749.50617,494.12913 748.53384,496.1883 747.4917,498.36675 C 747.34971,498.66355 747.16971,498.99898 747.02526,499.29964 C 751.47887,504.01722 756.96892,509.50195 765.82656,515.69696 C 756.28125,511.76912 749.74673,507.84012 744.87243,503.7488 C 744.62078,504.26254 744.41405,504.7298 744.15483,505.25578 C 743.19933,507.19467 742.13804,509.30186 741.06912,511.4272 C 740.8081,511.94618 740.58403,512.4029 740.31563,512.93417 C 740.19446,513.17733 740.04373,513.44191 739.92095,513.68766 C 735.73301,522.06991 730.58076,532.03398 723.99007,544.36536 C 742.61657,533.86531 762.74025,518.77749 799.23117,531.80724 C 797.40022,528.33947 795.717,525.06943 794.13616,522.0119 C 792.55535,518.95429 791.08664,516.10827 789.72288,513.40062 C 788.35922,510.69302 787.09906,508.14024 785.91956,505.72222 C 784.74007,503.30425 783.64675,501.02203 782.61857,498.8332 C 781.59032,496.64441 780.6221,494.53821 779.71226,492.51825 C 778.80235,490.49832 777.9534,488.54526 777.12887,486.63388 C 776.30426,484.72239 775.49695,482.86382 774.72489,481.00066 C 773.95275,479.13744 773.21696,477.27873 772.46443,475.40333 C 772.16677,474.66171 771.86559,473.89297 771.56742,473.14286 C 769.53607,468.37205 767.44493,463.4422 765.03719,457.78607 L 765.03719,457.78607 z"
         style="fill:url(#linearGradient2191);fill-opacity:1;fill-rule:evenodd;stroke:none" />
    </g>
  </g>
</svg>
