<?xml version="1.0" encoding="UTF-8" standalone="no"?>
<svg
   xmlns:dc="http://purl.org/dc/elements/1.1/"
   xmlns:cc="http://creativecommons.org/ns#"
   xmlns:rdf="http://www.w3.org/1999/02/22-rdf-syntax-ns#"
   xmlns:svg="http://www.w3.org/2000/svg"
   xmlns="http://www.w3.org/2000/svg"
   version="1.0"
   width="128"
   height="128"
   viewBox="0 0 468 468"
   preserveAspectRatio="xMidYMid meet"
   id="svg2">
  <metadata
     id="metadata">
    <rdf:RDF>
      <cc:Work
         rdf:about="">
        <dc:format>image/svg+xml</dc:format>
        <dc:type
           rdf:resource="http://purl.org/dc/dcmitype/StillImage" />
        <cc:license
           rdf:resource="http://artlibre.org/licence.php/lalgb.html" />
        <dc:title>Desktube Slick Icon</dc:title>
        <dc:date></dc:date>
        <dc:creator>
          <cc:Agent>
            <dc:title>Prurigro</dc:title>
          </cc:Agent>
        </dc:creator>
      </cc:Work>
      <cc:License
         rdf:about="http://artlibre.org/licence.php/lalgb.html">
        <cc:permits
           rdf:resource="http://creativecommons.org/ns#Reproduction" />
        <cc:permits
           rdf:resource="http://creativecommons.org/ns#Distribution" />
        <cc:permits
           rdf:resource="http://creativecommons.org/ns#DerivativeWorks" />
        <cc:requires
           rdf:resource="http://creativecommons.org/ns#ShareAlike" />
        <cc:requires
           rdf:resource="http://creativecommons.org/ns#Notice" />
        <cc:requires
           rdf:resource="http://creativecommons.org/ns#Attribution" />
      </cc:License>
    </rdf:RDF>
  </metadata>
  <g
     id="g4670">
    <path
       d="M 29.600003,390.48178 C 29.600003,409.15657 32.72697,427.83135 37.104723,432.33905 C 42.107869,437.49072 73.377534,440.06655 135.91686,440.06655 C 242.85912,440.06655 248.48766,437.49072 248.48766,386.61804 L 248.48766,356.35201 L 139.04383,356.35201 L 29.600003,356.35201 L 29.600003,390.48178 z"
       id="path10"
       style="opacity:1;fill:#000000" />
    <g
       id="g4666">
      <path
         style="opacity:1;fill:#000000"
         d="M 173.8125,34.90625 C 82.348723,34.906251 59.662641,37.316932 49.5,47.78125 C 38.555618,58.245567 37,87.223775 37,240.96875 L 37,421.28125 L 173.8125,421.28125 L 310.625,421.28125 L 310.625,336.78125 C 310.62499,286.06957 313.74705,252.25 318.4375,252.25 C 323.12794,252.25 326.25,266.72865 326.25,284.4375 L 326.25,316.65625 L 439.59375,316.65625 L 552.9375,316.65625 L 552.9375,228.09375 L 552.9375,139.5625 L 439.59375,139.5625 L 326.25,139.5625 L 326.25,175.78125 C 326.25002,195.90494 323.12795,212 318.4375,212 C 313.74704,212 310.625,183.01351 310.625,141.15625 C 310.62499,34.098229 312.18076,34.90625 173.8125,34.90625 z M 174,70.15625 C 228.5566,70.156248 272.84375,114.44342 272.84375,169 C 272.84374,223.5566 228.55659,267.84375 174,267.84375 C 119.44342,267.84376 75.15625,223.5566 75.15625,169 C 75.156248,114.44342 119.44341,70.15625 174,70.15625 z M 373.15625,179.8125 L 443.5,179.8125 L 513.875,179.8125 L 513.875,228.09375 L 513.875,276.40625 L 443.5,276.40625 L 373.15625,276.40625 L 373.15625,228.09375 L 373.15625,179.8125 z M 99,296.5625 C 106.63209,296.56251 112.8125,302.77416 112.8125,310.40625 C 112.8125,318.03833 106.63209,324.21875 99,324.21875 C 91.36791,324.21874 85.1875,318.03834 85.1875,310.40625 C 85.187498,302.77415 91.367911,296.5625 99,296.5625 z"
         transform="scale(0.8,0.8)"
         id="path8" />
      <path
         style="fill:#000000;fill-opacity:0;stroke:#000000;stroke-width:11.50772285;stroke-miterlimit:4;stroke-opacity:1"
         d="M 214.10526,178.57895 C 214.10526,199.23537 196.704,216 175.26315,216 C 153.82231,216 136.42105,199.23537 136.42105,178.57895 C 136.42105,157.92253 153.82231,141.1579 175.26315,141.1579 C 196.704,141.1579 214.10526,157.92253 214.10526,178.57895 z"
         id="path3304"
         transform="matrix(1.610587,0,0,1.6717485,-143.07655,-163.33909)" />
    </g>
  </g>
</svg>
