/* XPM */
static char * Magnetic_xpm[] = {
"32 32 4 1",
" 	c None",
".	c #000000",
"+	c #FF0000",
"@	c #FFFFFF",
"     ......                     ",
"   ..++++++.........            ",
"  .++++++..+++++++++..          ",
"  .++....+++++++++++++.         ",
" .++.  .+++++++++++++++.        ",
" .++. .+++++++++++++++++.       ",
" .++..++++++.......++++++.      ",
" .++..++++..++.    ..++++.      ",
"  .+.+++++.++.      .+++++.     ",
"  .+.++++..++.       .++++.     ",
"  .+.++++..++.       .++++.     ",
"   ..++++.++.        .++++.     ",
"   ..++++.++.        .++++.     ",
"   ..++++.@@.        .++++.     ",
"   ..++++.@@.        .++++.     ",
"   ..++++....        .++++.     ",
"     .++++.         .++++.      ",
"     .++++.         .++++.      ",
"     .++++.         .++++.      ",
"     .++++.         .++++.      ",
"      .++++.       .++++.       ",
"      .++++.       .++++.       ",
"      .++++.       .++++.       ",
"      .++++.       .++++.       ",
"       .@@@@.     .@@@@.        ",
"       .@@@@.     .@@@@.        ",
"       .@@@@.     .@@@@.        ",
"       .@@@@.     .@@@@.        ",
"       .@@@@.     .@@@@.        ",
"       ......     ......        ",
"                                ",
"                                "};
