/* XPM */
static char * bjjicon_xpm[] = {
"32 32 894 2",
"  	c #4E0C04",
". 	c #5C0301",
"+ 	c #6A0000",
"@ 	c #5E0100",
"# 	c #630001",
"$ 	c #6C0005",
"% 	c #680109",
"& 	c #5E0207",
"* 	c #640200",
"= 	c #680000",
"- 	c #640000",
"; 	c #620101",
"> 	c #610104",
", 	c #650809",
"' 	c #5C0000",
") 	c #5F0101",
"! 	c #630200",
"~ 	c #660300",
"{ 	c #590201",
"] 	c #5A0908",
"^ 	c #5B0400",
"/ 	c #5E0300",
"( 	c #640301",
"_ 	c #600001",
": 	c #600103",
"< 	c #630102",
"[ 	c #630100",
"} 	c #6D0200",
"| 	c #670000",
"1 	c #660000",
"2 	c #6B0005",
"3 	c #700003",
"4 	c #670001",
"5 	c #580805",
"6 	c #4E0A05",
"7 	c #4E0806",
"8 	c #500608",
"9 	c #400002",
"0 	c #340303",
"a 	c #370304",
"b 	c #350204",
"c 	c #310003",
"d 	c #2D0104",
"e 	c #2B0102",
"f 	c #2A0005",
"g 	c #300308",
"h 	c #320305",
"i 	c #2E0100",
"j 	c #320200",
"k 	c #340200",
"l 	c #350201",
"m 	c #3B0201",
"n 	c #460401",
"o 	c #4E0706",
"p 	c #520A0A",
"q 	c #550A0F",
"r 	c #57050A",
"s 	c #5C0100",
"t 	c #650000",
"u 	c #6A0200",
"v 	c #690000",
"w 	c #710003",
"x 	c #6D0005",
"y 	c #590003",
"z 	c #3C0301",
"A 	c #210000",
"B 	c #180000",
"C 	c #160000",
"D 	c #140000",
"E 	c #090000",
"F 	c #030000",
"G 	c #020000",
"H 	c #020002",
"I 	c #040003",
"J 	c #030002",
"K 	c #070100",
"L 	c #0F0000",
"M 	c #120000",
"N 	c #150000",
"O 	c #190001",
"P 	c #240001",
"Q 	c #390008",
"R 	c #550910",
"S 	c #5C0203",
"T 	c #630000",
"U 	c #6B0000",
"V 	c #680001",
"W 	c #5A0003",
"X 	c #3C0000",
"Y 	c #190000",
"Z 	c #040000",
"` 	c #050000",
" .	c #020102",
"..	c #030908",
"+.	c #030906",
"@.	c #030604",
"#.	c #040705",
"$.	c #070B05",
"%.	c #020401",
"&.	c #040401",
"*.	c #030300",
"=.	c #040304",
"-.	c #040403",
";.	c #040301",
">.	c #010000",
",.	c #030001",
"'.	c #0A0004",
").	c #190003",
"!.	c #52070C",
"~.	c #600306",
"{.	c #610301",
"].	c #590806",
"^.	c #3C0201",
"/.	c #101515",
"(.	c #43494B",
"_.	c #6D6E73",
":.	c #919196",
"<.	c #A0A2A5",
"[.	c #B3B5B5",
"}.	c #BFC1BE",
"|.	c #C7C8C3",
"1.	c #CFCEC9",
"2.	c #D4D3CA",
"3.	c #D2CEC5",
"4.	c #CFCAC2",
"5.	c #5B524B",
"6.	c #3C342E",
"7.	c #3C3531",
"8.	c #2A2828",
"9.	c #2E3133",
"0.	c #666D68",
"a.	c #8E968F",
"b.	c #67736B",
"c.	c #414947",
"d.	c #141517",
"e.	c #0E0002",
"f.	c #1C0000",
"g.	c #42080C",
"h.	c #510204",
"i.	c #5F0603",
"j.	c #4A0702",
"k.	c #270200",
"l.	c #070000",
"m.	c #111616",
"n.	c #A8B3B5",
"o.	c #F1F7FA",
"p.	c #FBFBFF",
"q.	c #FFFCFF",
"r.	c #FEF9FC",
"s.	c #FDFBFD",
"t.	c #FFFFFF",
"u.	c #FFFFFD",
"v.	c #FFFCF6",
"w.	c #FFFCF4",
"x.	c #FEFCF3",
"y.	c #F4F0E9",
"z.	c #6C6464",
"A.	c #3F383B",
"B.	c #4B454B",
"C.	c #3F383D",
"D.	c #41393A",
"E.	c #A59F98",
"F.	c #FFFCEF",
"G.	c #FDFFF0",
"H.	c #F9FCEF",
"I.	c #B8BAB0",
"J.	c #231A17",
"K.	c #240000",
"L.	c #4D0809",
"M.	c #5D0000",
"N.	c #4C0906",
"O.	c #170000",
"P.	c #4E5558",
"Q.	c #ECF3F6",
"R.	c #F4F8FA",
"S.	c #FAFDFC",
"T.	c #F6F1EF",
"U.	c #FEF8F2",
"V.	c #FAF7EC",
"W.	c #ECE7D9",
"X.	c #DFD8C6",
"Y.	c #DED3BD",
"Z.	c #DACDB7",
"`.	c #D2C5AF",
" +	c #C1B5A5",
".+	c #675E56",
"++	c #4E4A4A",
"@+	c #545156",
"#+	c #564B4F",
"$+	c #533E3B",
"%+	c #8D7769",
"&+	c #D4C0A8",
"*+	c #DDCEAF",
"=+	c #D9CEB0",
"-+	c #DDD7BF",
";+	c #5E5246",
">+	c #0E0000",
",+	c #3E0403",
"'+	c #6B0006",
")+	c #4A0204",
"!+	c #030102",
"~+	c #75777C",
"{+	c #FCFCFF",
"]+	c #F7FBFA",
"^+	c #F7FAF2",
"/+	c #F8F9E7",
"(+	c #E2DCC2",
"_+	c #C0B18F",
":+	c #CDB990",
"<+	c #DEC89B",
"[+	c #E7CC9C",
"}+	c #E9CE9D",
"|+	c #E5CC9F",
"1+	c #C4AF8A",
"2+	c #6A5940",
"3+	c #4D4234",
"4+	c #49433C",
"5+	c #493A37",
"6+	c #4D342B",
"7+	c #8B6B55",
"8+	c #DDBB97",
"9+	c #EBC89B",
"0+	c #E4C698",
"a+	c #E0C8A3",
"b+	c #837258",
"c+	c #180800",
"d+	c #0D0000",
"e+	c #350704",
"f+	c #650005",
"g+	c #3D0002",
"h+	c #070709",
"i+	c #99989D",
"j+	c #FFFDFF",
"k+	c #FAF9F5",
"l+	c #F3F6E2",
"m+	c #D3D2AF",
"n+	c #C3B48A",
"o+	c #F1D29E",
"p+	c #FDD79C",
"q+	c #FFD797",
"r+	c #FBD592",
"s+	c #FAD28E",
"t+	c #FAD395",
"u+	c #DDBA89",
"v+	c #735835",
"w+	c #503D28",
"x+	c #52463A",
"y+	c #494037",
"z+	c #4F3E2F",
"A+	c #8C6E51",
"B+	c #EDC293",
"C+	c #FCCF95",
"D+	c #F7CC92",
"E+	c #FCD8A7",
"F+	c #B09675",
"G+	c #180906",
"H+	c #290404",
"I+	c #5E0308",
"J+	c #380607",
"K+	c #060000",
"L+	c #090D0C",
"M+	c #A9AAAD",
"N+	c #FFF8FB",
"O+	c #FBF4EC",
"P+	c #D5D1B5",
"Q+	c #CCC196",
"R+	c #F2D8A6",
"S+	c #FBD9A2",
"T+	c #FDD499",
"U+	c #FED395",
"V+	c #FFD494",
"W+	c #FED292",
"X+	c #FAD096",
"Y+	c #DFBC8F",
"Z+	c #745C3F",
"`+	c #4D3F32",
" @	c #4F4848",
".@	c #44433D",
"+@	c #49432F",
"@@	c #87714D",
"#@	c #EFC791",
"$@	c #FFCE8C",
"%@	c #FDD08F",
"&@	c #FDD69F",
"*@	c #C4A681",
"=@	c #1C0F0B",
"-@	c #000000",
";@	c #27070A",
">@	c #610101",
",@	c #5C0202",
"'@	c #320405",
")@	c #040102",
"!@	c #0C1113",
"~@	c #B5B3B7",
"{@	c #FFFDFD",
"]@	c #F0EBD9",
"^@	c #CCBF97",
"/@	c #EED59F",
"(@	c #F6D49E",
"_@	c #F7D19A",
":@	c #FCD69D",
"<@	c #FFD59D",
"[@	c #FFD19A",
"}@	c #FFD399",
"|@	c #FBD298",
"1@	c #D6B686",
"2@	c #6E5939",
"3@	c #443A2F",
"4@	c #464147",
"5@	c #3F3C3A",
"6@	c #46422E",
"7@	c #7B6B4B",
"8@	c #E7C18D",
"9@	c #FED195",
"0@	c #FFD3A1",
"a@	c #D9B893",
"b@	c #1D120D",
"c@	c #000001",
"d@	c #210405",
"e@	c #610300",
"f@	c #330307",
"g@	c #050004",
"h@	c #100F15",
"i@	c #C3BEC1",
"j@	c #DEDCC3",
"k@	c #DECC99",
"l@	c #FAD898",
"m@	c #FDD69E",
"n@	c #FBD69D",
"o@	c #FCD79E",
"p@	c #FFD5A1",
"q@	c #FFD49F",
"r@	c #FFD39A",
"s@	c #FBD296",
"t@	c #D3B37C",
"u@	c #6D5932",
"v@	c #4C3F31",
"w@	c #4C464E",
"x@	c #453E3D",
"y@	c #4C4131",
"z@	c #7A6A53",
"A@	c #E8C496",
"B@	c #FED4A1",
"C@	c #FED8A7",
"D@	c #FCD5A7",
"E@	c #E0BE97",
"F@	c #1C130F",
"G@	c #000102",
"H@	c #200101",
"I@	c #600300",
"J@	c #310206",
"K@	c #060004",
"L@	c #121014",
"M@	c #C7C1C2",
"N@	c #FFFFFB",
"O@	c #D3CEB5",
"P@	c #E6D39F",
"Q@	c #FBD696",
"R@	c #FED499",
"S@	c #FCD69B",
"T@	c #FCD69C",
"U@	c #FFD49E",
"V@	c #FFD79C",
"W@	c #D6B480",
"X@	c #735D37",
"Y@	c #524536",
"Z@	c #534D52",
"`@	c #4E4543",
" #	c #7C6A53",
".#	c #E9C494",
"+#	c #FDD49C",
"@#	c #FDD6A0",
"##	c #FCD7A4",
"$#	c #E5C296",
"%#	c #1E1510",
"&#	c #220101",
"*#	c #2E0103",
"=#	c #060002",
"-#	c #151215",
";#	c #D0CBCA",
">#	c #FFFDF8",
",#	c #D6CFB8",
"'#	c #E9D2A0",
")#	c #FAD391",
"!#	c #FED599",
"~#	c #FED498",
"{#	c #FED69A",
"]#	c #FFD59B",
"^#	c #FFD49B",
"/#	c #FDD49B",
"(#	c #D0B07E",
"_#	c #745C3A",
":#	c #564739",
"<#	c #554C4D",
"[#	c #4D4240",
"}#	c #524335",
"|#	c #7B6952",
"1#	c #E7C08D",
"2#	c #FCD395",
"3#	c #FCD79B",
"4#	c #FDD79F",
"5#	c #E9C797",
"6#	c #211611",
"7#	c #240101",
"8#	c #5F0201",
"9#	c #2C0101",
"0#	c #080002",
"a#	c #161414",
"b#	c #D6CFCC",
"c#	c #FFFCFA",
"d#	c #D8CEBA",
"e#	c #EAD1A0",
"f#	c #FCD291",
"g#	c #FED495",
"h#	c #FED596",
"i#	c #FED697",
"j#	c #FFD599",
"k#	c #FFD499",
"l#	c #FED6A1",
"m#	c #CBAC80",
"n#	c #6D5436",
"o#	c #4F3F32",
"p#	c #4E4342",
"q#	c #493B38",
"r#	c #4B3B2F",
"s#	c #75624B",
"t#	c #E4BE8A",
"u#	c #FBD292",
"v#	c #FBD697",
"w#	c #FDD99C",
"x#	c #EDCA98",
"y#	c #231812",
"z#	c #260101",
"A#	c #600303",
"B#	c #2C0102",
"C#	c #171413",
"D#	c #D7D0CC",
"E#	c #FFFDFC",
"F#	c #D9D0C0",
"G#	c #E7CDA2",
"H#	c #FCD293",
"I#	c #FFD595",
"J#	c #FFD696",
"K#	c #FDD598",
"L#	c #FED59B",
"M#	c #F3CE9C",
"N#	c #B99A75",
"O#	c #78634A",
"P#	c #4E3F31",
"Q#	c #433733",
"R#	c #443531",
"S#	c #604F45",
"T#	c #7F6B55",
"U#	c #DBB581",
"V#	c #FBD293",
"W#	c #FAD796",
"X#	c #FBD89C",
"Y#	c #EDCC9A",
"Z#	c #251812",
"`#	c #250102",
" $	c #5F0103",
".$	c #2E0104",
"+$	c #171412",
"@$	c #D5CFC9",
"#$	c #FFFDFE",
"$$	c #E9E1D7",
"%$	c #D9C29C",
"&$	c #FAD397",
"*$	c #FED396",
"=$	c #FED293",
"-$	c #FFD493",
";$	c #FED695",
">$	c #FEDA9A",
",$	c #F5D096",
"'$	c #C6A578",
")$	c #9E8263",
"!$	c #7A6652",
"~$	c #47382C",
"{$	c #3A2F27",
"]$	c #3A2D24",
"^$	c #59493F",
"/$	c #8B7965",
"($	c #B79364",
"_$	c #E1BB82",
":$	c #F6D69C",
"<$	c #F2D29B",
"[$	c #EACA9B",
"}$	c #221711",
"|$	c #040100",
"1$	c #230101",
"2$	c #610107",
"3$	c #141412",
"4$	c #D4CFC9",
"5$	c #F6F1ED",
"6$	c #D2BE9F",
"7$	c #F3CE98",
"8$	c #FCD498",
"9$	c #FED496",
"0$	c #FED593",
"a$	c #FCD493",
"b$	c #FFDC9D",
"c$	c #DDBB85",
"d$	c #B49872",
"e$	c #4B341D",
"f$	c #39271B",
"g$	c #291C13",
"h$	c #2E241B",
"i$	c #2B1E15",
"j$	c #2D1E15",
"k$	c #3A2B18",
"l$	c #9B784E",
"m$	c #9E7B4A",
"n$	c #BB9C6D",
"o$	c #F7DAAB",
"p$	c #E0C59B",
"q$	c #261E13",
"r$	c #620107",
"s$	c #2F0102",
"t$	c #151612",
"u$	c #D3D1CB",
"v$	c #FDFCFF",
"w$	c #FCFAF9",
"x$	c #DCCBB3",
"y$	c #DEBC8D",
"z$	c #F8D39B",
"A$	c #FED99B",
"B$	c #FCD594",
"C$	c #FDD896",
"D$	c #F7D796",
"E$	c #C5A875",
"F$	c #836B48",
"G$	c #150200",
"H$	c #362721",
"I$	c #241712",
"J$	c #31281F",
"K$	c #25190F",
"L$	c #291C12",
"M$	c #2B1D0F",
"N$	c #6A4A29",
"O$	c #91714B",
"P$	c #492F0E",
"Q$	c #AE9370",
"R$	c #DDC3A1",
"S$	c #201A13",
"T$	c #010200",
"U$	c #210101",
"V$	c #630007",
"W$	c #2E0001",
"X$	c #141611",
"Y$	c #CFCCC8",
"Z$	c #FBFDFF",
"`$	c #FAFBFE",
" %	c #F3E8D6",
".%	c #D3B68A",
"+%	c #F2D19E",
"@%	c #F9D399",
"#%	c #FBD495",
"$%	c #FBD996",
"%%	c #EED192",
"&%	c #B9A170",
"*%	c #4F3A1F",
"=%	c #1D0B00",
"-%	c #2F201D",
";%	c #281D19",
">%	c #261E15",
",%	c #291F12",
"'%	c #2B2015",
")%	c #271C10",
"!%	c #57381E",
"~%	c #A08164",
"{%	c #432A16",
"]%	c #3B2314",
"^%	c #B59B82",
"/%	c #211C16",
"(%	c #000301",
"_%	c #240201",
":%	c #610203",
"<%	c #2D0101",
"[%	c #121410",
"}%	c #C8C4C1",
"|%	c #FEFDFF",
"1%	c #FAF9FC",
"2%	c #FFFDF2",
"3%	c #D5C09B",
"4%	c #F0CC9C",
"5%	c #FAD296",
"6%	c #FDDB99",
"7%	c #F6D592",
"8%	c #EBD092",
"9%	c #B09A69",
"0%	c #46341E",
"a%	c #150600",
"b%	c #312421",
"c%	c #241B18",
"d%	c #2A251F",
"e%	c #261F15",
"f%	c #2C2318",
"g%	c #2D2016",
"h%	c #54351F",
"i%	c #A7836D",
"j%	c #4D2E21",
"k%	c #200600",
"l%	c #533B2E",
"m%	c #18110C",
"n%	c #5C0300",
"o%	c #2F0401",
"p%	c #0F120F",
"q%	c #BEBBB8",
"r%	c #FFFBFE",
"s%	c #FBFAFF",
"t%	c #FCFEFB",
"u%	c #E8D6C0",
"v%	c #E9BD91",
"w%	c #FDD393",
"x%	c #FAD690",
"y%	c #F6D491",
"z%	c #F1D498",
"A%	c #B59D6B",
"B%	c #5A4824",
"C%	c #140600",
"D%	c #2C2217",
"E%	c #27201D",
"F%	c #2A2627",
"G%	c #1F1B19",
"H%	c #2B241D",
"I%	c #301D11",
"J%	c #5F3E29",
"K%	c #A27963",
"L%	c #4D2617",
"M%	c #311006",
"N%	c #200706",
"O%	c #100307",
"P%	c #030005",
"Q%	c #260106",
"R%	c #620100",
"S%	c #370302",
"T%	c #0B100F",
"U%	c #B3B2B0",
"V%	c #FEFDFC",
"W%	c #F2FDFC",
"X%	c #F0FEF9",
"Y%	c #E3E5C6",
"Z%	c #DFC18A",
"`%	c #FED28F",
" &	c #FED48C",
".&	c #FAD18D",
"+&	c #FFD99B",
"@&	c #CBAA75",
"#&	c #9D8156",
"$&	c #291000",
"%&	c #372210",
"&&	c #2C1B10",
"*&	c #352421",
"=&	c #2F201C",
"-&	c #2E1F15",
";&	c #35210E",
">&	c #7C6349",
",&	c #8C745A",
"'&	c #271306",
")&	c #241508",
"!&	c #1D130B",
"~&	c #0A0001",
"{&	c #090003",
"]&	c #290103",
"^&	c #3F0103",
"/&	c #0B0000",
"(&	c #0A0B0F",
"_&	c #A5A5A4",
":&	c #FCFEFD",
"<&	c #EEFCF9",
"[&	c #F0FFF4",
"}&	c #D0D4AB",
"|&	c #E7CE8D",
"1&	c #FBD08E",
"2&	c #FDD091",
"3&	c #FED397",
"4&	c #FCD49B",
"5&	c #EBC692",
"6&	c #A7865A",
"7&	c #927454",
"8&	c #3A1F06",
"9&	c #371D0C",
"0&	c #3B2216",
"a&	c #351D11",
"b&	c #311909",
"c&	c #59412A",
"d&	c #9D876A",
"e&	c #3D2E1D",
"f&	c #160D00",
"g&	c #181304",
"h&	c #241D15",
"i&	c #0D0201",
"j&	c #320103",
"k&	c #6B0002",
"l&	c #460205",
"m&	c #070407",
"n&	c #918E92",
"o&	c #F7FCF8",
"p&	c #ECF1DD",
"q&	c #C9BC8E",
"r&	c #F3CC8C",
"s&	c #FCCF90",
"t&	c #F9CE94",
"u&	c #FDD59D",
"v&	c #F5CE95",
"w&	c #FBD6A2",
"x&	c #DBB989",
"y&	c #A18157",
"z&	c #A58764",
"A&	c #5F3F25",
"B&	c #4F3019",
"C&	c #4C301D",
"D&	c #7E614D",
"E&	c #9D7D66",
"F&	c #4E2E1C",
"G&	c #3B1E13",
"H&	c #261006",
"I&	c #190904",
"J&	c #20110F",
"K&	c #100101",
"L&	c #370502",
"M&	c #630002",
"N&	c #460507",
"O&	c #130000",
"P&	c #7C747C",
"Q&	c #FFF7FF",
"R&	c #FCF7F4",
"S&	c #D8C9B3",
"T&	c #E2BD93",
"U&	c #FDC68C",
"V&	c #FECC8F",
"W&	c #F7CA8E",
"X&	c #FCD194",
"Y&	c #F9D194",
"Z&	c #F3CD92",
"`&	c #E8C18A",
" *	c #C8A370",
".*	c #BA9466",
"+*	c #AE885D",
"@*	c #957958",
"#*	c #644C38",
"$*	c #3E1B0E",
"%*	c #350A03",
"&*	c #40100F",
"**	c #3A0F14",
"=*	c #310C16",
"-*	c #1D0409",
";*	c #380701",
">*	c #5D0107",
",*	c #4B0C0B",
"'*	c #49444A",
")*	c #EEE8ED",
"!*	c #EBE0DB",
"~*	c #D1BEA7",
"{*	c #F6D4A9",
"]*	c #FECE99",
"^*	c #FDCC8E",
"/*	c #FCCE8E",
"(*	c #FED291",
"_*	c #FFD491",
":*	c #FED38F",
"<*	c #FACF8B",
"[*	c #FBD18E",
"}*	c #F9CE8E",
"|*	c #EFC587",
"1*	c #E5BA80",
"2*	c #A38861",
"3*	c #301E0D",
"4*	c #351B11",
"5*	c #33100B",
"6*	c #30080D",
"7*	c #300916",
"8*	c #260515",
"9*	c #1B010C",
"0*	c #110001",
"a*	c #170100",
"b*	c #3E0A04",
"c*	c #620000",
"d*	c #5D0009",
"e*	c #510D0A",
"f*	c #230100",
"g*	c #0E0100",
"h*	c #0A0709",
"i*	c #49484A",
"j*	c #6B6B5F",
"k*	c #939273",
"l*	c #B4AB7E",
"m*	c #C6B381",
"n*	c #D5BC8D",
"o*	c #DDC294",
"p*	c #E0C494",
"q*	c #E2C692",
"r*	c #E1C592",
"s*	c #DFC490",
"t*	c #DFC590",
"u*	c #DEC391",
"v*	c #D9BE8F",
"w*	c #A28E70",
"x*	c #33261B",
"y*	c #211109",
"z*	c #1F1109",
"A*	c #140807",
"B*	c #10060B",
"C*	c #0C030C",
"D*	c #0B0004",
"E*	c #110000",
"F*	c #230200",
"G*	c #470906",
"H*	c #65000D",
"I*	c #5A0805",
"J*	c #440C01",
"K*	c #060600",
"L*	c #0B0D01",
"M*	c #070D02",
"N*	c #090A03",
"O*	c #0C0604",
"P*	c #0E0504",
"Q*	c #100604",
"R*	c #110704",
"S*	c #120604",
"T*	c #100504",
"U*	c #0F0504",
"V*	c #0F0604",
"W*	c #110504",
"X*	c #130603",
"Y*	c #120201",
"Z*	c #0C0100",
"`*	c #010300",
" =	c #010501",
".=	c #200000",
"+=	c #3D0403",
"@=	c #560706",
"#=	c #6F0010",
"$=	c #610003",
"%=	c #580700",
"&=	c #400700",
"*=	c #1A0001",
"==	c #130300",
"-=	c #0F0402",
";=	c #090001",
">=	c #090002",
",=	c #0A0000",
"'=	c #0C0000",
")=	c #0A0002",
"!=	c #1A0000",
"~=	c #100000",
"{=	c #250000",
"]=	c #410204",
"^=	c #590405",
"/=	c #72000D",
"(=	c #710001",
"_=	c #53080E",
":=	c #4A0213",
"<=	c #43020B",
"[=	c #410003",
"}=	c #380104",
"|=	c #2D0106",
"1=	c #2A0204",
"2=	c #2A0202",
"3=	c #290202",
"4=	c #2B0202",
"5=	c #2C0201",
"6=	c #2A0101",
"7=	c #290101",
"8=	c #260202",
"9=	c #230203",
"0=	c #2A0303",
"a=	c #320100",
"b=	c #3A0200",
"c=	c #3F0100",
"d=	c #470305",
"e=	c #500105",
"f=	c #5F0003",
"g=	c #6E0002",
"h=	c #6B0004",
"i=	c #600105",
"j=	c #600109",
"k=	c #600107",
"l=	c #5E0003",
"m=	c #5F0207",
"n=	c #5B020C",
"o=	c #5C0408",
"p=	c #5B0305",
"q=	c #5A0404",
"r=	c #5B0504",
"s=	c #5A0405",
"t=	c #590506",
"u=	c #580507",
"v=	c #5A0506",
"w=	c #5A0302",
"x=	c #5E0102",
"y=	c #600203",
"z=	c #620002",
"A=	c #660001",
"  . + + @ . # $ % & * = - ; > , ' ) ! ~ { ] ^ / ( _ : < [ } | 1 ",
". 2 3 4 5 6 7 8 9 0 a b c d e f g h i j k l m n o p q r s t u 1 ",
"v w x y z A B C D E F F G H I J F G K E L M N N C O P Q R S T t ",
"U V W X Y E Z `  ...+.@.#.#.#.#.$.%.&.*.&.=.-.;.>.,.'.).d !.~.t ",
"{.].^.Y ` /.(._.:.<.[.}.|.1.2.3.4.5.6.7.8.9.0.a.b.c.d.e.f.g.h.t ",
"i.j.k.l.m.n.o.p.q.r.s.t.u.v.w.x.y.z.A.B.C.D.E.F.G.H.I.J.N K.L.- ",
"M.N.O.G P.Q.R.S.T.U.V.W.X.Y.Z.`. +.+++@+#+$+%+&+*+=+-+;+>+O.,+T ",
"'+)+D !+~+{+]+^+/+(+_+:+<+[+}+|+1+2+3+4+5+6+7+8+9+0+a+b+c+d+e+; ",
"f+g+D h+i+j+k+l+m+n+o+p+q+r+s+t+u+v+w+x+y+z+A+B+C+D+E+F+G+K H+; ",
"I+J+K+L+M+N+O+P+Q+R+S+T+U+V+W+X+Y+Z+`+ @.@+@@@#@$@%@&@*@=@-@;@>@",
",@'@)@!@~@{@]@^@/@(@_@:@<@[@}@|@1@2@3@4@5@6@7@8@9@}@0@a@b@c@d@>@",
"e@f@g@h@i@u.j@k@l@m@n@o@p@q@r@s@t@u@v@w@x@y@z@A@B@C@D@E@F@G@H@; ",
"I@J@K@L@M@N@O@P@Q@R@S@T@U@U@r@V@W@X@Y@Z@`@Y@ #.#+#@###$#%#-@&#; ",
"I@*#=#-#;#>#,#'#)#!#~#{#]#^#}@/#(#_#:#<#[#}#|#1#2#3#4#5#6#>.7#; ",
"8#9#0#a#b#c#d#e#f#g#h#i#R@j#k#l#m#n#o#p#q#r#s#t#u#v#w#x#y#F z#; ",
"A#B#l.C#D#E#F#G#H#W+I#J#q+K#L#M#N#O#P#Q#R#S#T#U#V#W#X#Y#Z#F `#; ",
" $.$` +$@$#$$$%$&$*$=$-$;$>$,$'$)$!$~${$]$^$/$($_$:$<$[$}$|$1$; ",
"2$.$` 3$4$j+5$6$7$8$9$0$a$b$c$d$e$f$g$h$i$j$k$l$m$n$o$p$q$-@1$; ",
"r$s$l.t$u$v$w$x$y$z$A$B$C$D$E$F$G$H$I$J$K$L$M$N$O$P$Q$R$S$T$U$; ",
"V$W$E X$Y$Z$`$ %.%+%@%#%$%%%&%*%=%-%;%>%,%'%)%!%~%{%]%^%/%(%_%; ",
":%<%` [%}%|%1%2%3%4%5%6%7%8%9%0%a%b%c%d%e%f%g%h%i%j%k%l%m%-@`#; ",
"n%o%>.p%q%r%s%t%u%v%w%x%y%z%A%B%C%D%E%F%G%H%I%J%K%L%M%N%O%P%Q%; ",
"R%S%` T%U%V%W%X%Y%Z%`% &.&+&@&#&$&%&&&*&=&-&;&>&,&'&)&!&~&{&]&; ",
"U ^&/&(&_&:&<&[&}&|&1&2&3&4&5&6&7&8&9&0&a&b&c&d&e&f&g&h&i&d+j&; ",
"k&l&L m&n&t.o&p&q&r&s&t&u&v&w&x&y&z&A&B&C&D&E&F&G&H&I&J&K&L L&R%",
"M&N&O&F P&Q&R&S&T&U&V&W&X&X&Y&Z&`& *.*+*@*#*$*%*&***=*-*M O&;*R%",
">*,*D K+'*)*!*~*{*]*^*/*(*_*:*<*[*}*|*1*2*3*4*5*6*7*8*9*0*a*b*c*",
"d*e*f*g*h*i*j*k*l*m*n*o*p*q*r*s*s*t*u*v*w*x*y*z*A*B*C*D*E*F*G*T ",
"H*I*J*Y g*Z K*L*M*N*O*P*Q*R*S*T*U*V*W*Q*X*Y*Z*K+`* =>.E .=+=@=t ",
"#=$=%=&=K.*=D a*==-=;=>=,=,=,='=,=E ~&)=M !=N ~=/&d+O&{=]=^=T t ",
"/=(=c*^ _=:=<=[=}=|=1=2=3=2=4=5=6=7=4=4=8=9=0=a=b=c=d=e=f=g=+ 1 ",
"h=v = - i=j=k=l=m=n=o=p=q=q=r=q=q=q=s=s=t=u=v=w=,@x=y=z=A=v = 1 "};
