<?xml version="1.0" encoding="UTF-8" standalone="no"?>
<!-- Created with Inkscape (http://www.inkscape.org/) -->
<svg
   xmlns:svg="http://www.w3.org/2000/svg"
   xmlns="http://www.w3.org/2000/svg"
   version="1.0"
   width="48"
   height="48"
   id="svg2260">
  <defs
     id="defs2262" />
  <g
     id="layer1">
    <g
       id="g2164">
      <path
         d="M 13.640624,45.553487 C 7.9099079,44.075217 4.0092541,39.926636 4.0000244,35.300131 C 3.9953357,32.948196 4.6640355,31.439967 6.438648,29.799931 C 9.008155,27.425274 12.62184,26.977204 15.862962,28.631386 C 17.409378,29.420636 17.913934,29.91995 18.472952,31.214273 C 19.426851,33.422876 19.06935,35.15215 17.270238,37.031904 C 16.2368,38.111666 15.937567,38.680945 16.103715,39.251157 C 16.533723,40.726965 17.07332,40.937682 20.666379,41.032919 L 24.156677,41.125436 L 25.338837,39.919091 L 26.520995,38.712743 L 26.623335,24.274924 C 26.743245,7.3588788 26.992488,8.4593866 23.041415,8.4593866 L 20.57453,8.4593866 L 20.57453,5.3219694 L 20.57453,2.1845523 L 32.287263,2.1845523 L 43.999997,2.1845523 L 43.999997,5.3219694 L 43.999997,8.4593866 L 40.968281,8.2985905 C 37.039762,8.2985905 38.081289,7.3549604 37.873336,23.47029 L 37.69314,37.434357 L 36.734314,39.294716 C 35.445524,41.795285 33.044901,43.981678 30.456044,45.012699 C 28.573851,45.762291 27.581123,45.875441 22.016097,45.974657 C 17.396952,46.057009 15.155679,45.944302 13.640624,45.553487 z"
         id="path2583"
         style="fill:#fd9494" />
      <path
         d="M 13.640624,45.553487 C 9.4703251,44.477733 6.2849156,42.072175 4.8444512,38.910788 C 3.9355611,36.916037 3.74322,34.29485 4.3790016,32.567706 C 5.0742118,30.679123 8.0938518,27.993964 9.4745849,28.036553 C 9.7321966,28.044499 9.3753546,28.302809 8.6816004,28.610576 C 6.8038726,29.443581 4.2429717,32.15971 5.9783556,31.477676 C 6.3040561,31.349669 6.9340173,31.720758 7.5645156,32.41203 C 8.6835213,33.638903 10.639706,33.989372 11.492656,33.115794 C 12.03359,32.561778 12.060731,30.366157 11.530797,30.030717 C 11.313913,29.893435 11.208783,29.393662 11.297169,28.92011 C 11.418729,28.26884 11.273365,28.021889 10.700422,27.906318 C 10.283823,27.822284 10.843641,27.730909 11.944462,27.703263 C 14.890654,27.629272 17.539955,29.054061 18.472952,31.214273 C 19.426851,33.422876 19.06935,35.15215 17.270238,37.031904 C 16.2368,38.111666 15.937567,38.680945 16.103715,39.251157 C 16.533723,40.726965 17.07332,40.937682 20.666379,41.032919 L 24.156677,41.125436 L 25.338837,39.919091 L 26.520995,38.712743 L 26.623335,24.274924 C 26.743245,7.3588788 26.992488,8.4593866 23.041415,8.4593866 L 20.57453,8.4593866 L 20.57453,5.3219694 L 20.57453,2.1845523 L 21.611575,2.1845523 C 22.181953,2.1845523 22.871202,2.4594295 23.14324,2.7953904 C 24.790685,4.8299353 32.311341,5.0531647 36.936714,3.2048108 C 37.86597,2.8334702 37.906049,2.7563871 37.297106,2.5117203 C 36.920276,2.3603152 38.274272,2.2247636 40.305981,2.210495 L 43.999997,2.1845523 L 43.999997,5.3219694 L 43.999997,8.4593866 L 40.915512,8.3668825 C 36.986993,8.3668825 37.962311,7.4144493 37.754358,23.529779 L 37.69314,37.434357 L 36.734314,39.294716 C 35.445524,41.795285 33.044901,43.981678 30.456044,45.012699 C 28.573851,45.762291 27.581123,45.875441 22.016097,45.974657 C 17.396952,46.057009 15.155679,45.944302 13.640624,45.553487 z M 26.100309,41.223755 C 26.937438,40.071105 26.663025,39.420478 25.711663,40.302273 C 25.363207,40.625247 24.597371,41.076695 24.009802,41.30549 C 23.155602,41.638112 23.047394,41.791635 23.469874,42.071511 C 24.315227,42.631529 25.310961,42.310615 26.100309,41.223755 z M 31.043778,19.668324 C 31.219185,18.274128 31.368005,15.767375 31.374492,14.097761 C 31.386118,11.104581 31.371403,11.054219 30.323005,10.498959 C 29.738201,10.189231 29.152907,9.9358182 29.022351,9.9358182 C 28.614316,9.9358182 29.081106,20.766619 29.537971,21.899653 C 30.16053,23.4436 30.662361,22.699976 31.043778,19.668324 z"
         id="path2581"
         style="fill:#fd5d5d" />
      <path
         d="M 13.640624,45.553487 C 7.9099079,44.075217 4.0092541,39.926636 4.0000244,35.300131 C 3.9963448,33.454247 4.6962942,31.259946 5.4386833,30.790028 C 5.6988357,30.625356 5.6563383,30.866502 5.3327857,31.390907 C 5.0355418,31.872674 4.6764294,32.663185 4.5347558,33.1476 C 4.3041951,33.935956 4.3672384,34.005201 5.1356983,33.807666 C 5.6078872,33.686287 6.7153892,33.841449 7.5968139,34.152469 C 8.5287871,34.481324 9.6852087,34.624617 10.360345,34.494898 C 11.71517,34.234584 13.366694,32.414099 13.366694,31.18098 C 13.366694,30.71641 13.698845,29.903831 14.104809,29.375249 L 14.842927,28.414189 L 13.834515,28.185861 C 12.217102,27.81964 12.046103,27.713152 13.025637,27.682137 C 13.531811,27.66611 14.808607,28.093272 15.862962,28.631386 C 17.409378,29.420636 17.913934,29.91995 18.472952,31.214273 C 19.426851,33.422876 19.06935,35.15215 17.270238,37.031904 C 16.23085,38.117882 15.937981,38.67766 16.109142,39.251157 C 16.510435,40.595733 16.986033,40.901262 18.892008,41.038909 L 20.754726,41.173435 L 18.862669,41.241712 C 17.125865,41.304387 16.970612,41.382468 16.970612,42.193269 C 16.970612,43.355157 17.513722,43.524637 21.237067,43.524637 C 26.239759,43.524637 28.503149,42.430129 28.503149,40.010977 C 28.503149,38.572575 27.310105,37.229181 26.823925,38.120137 C 26.657313,38.425463 26.567045,32.186689 26.623335,24.256191 C 26.743248,7.3614268 26.99221,8.4593866 23.041415,8.4593866 L 20.57453,8.4593866 L 20.57453,5.2470597 L 20.642822,2.3079012 L 22.008208,3.4685406 L 23.441886,4.9023484 L 32.322225,4.8673813 L 41.202567,4.8324142 L 42.601284,3.4335735 L 43.863413,2.1030252 L 43.999997,5.2470597 L 43.999997,8.4593866 L 40.871432,8.4593866 C 36.942913,8.4593866 37.913029,7.3549604 37.705076,23.47029 L 37.69314,37.434357 L 36.734314,39.294716 C 35.445524,41.795285 33.044901,43.981678 30.456044,45.012699 C 28.573851,45.762291 27.581123,45.875441 22.016097,45.974657 C 17.396952,46.057009 15.155679,45.944302 13.640624,45.553487 z M 30.847758,26.040587 C 31.5461,24.94901 32.100743,20.159689 32.104332,15.190181 L 32.107067,11.401399 L 30.935794,10.669989 C 29.523419,9.7880196 28.29875,9.7252897 28.001116,10.519668 C 27.692942,11.342184 27.764462,18.79418 28.113187,22.196853 C 28.388617,24.884332 29.176848,26.914782 29.944717,26.914782 C 30.133793,26.914782 30.54016,26.521394 30.847758,26.040587 z M 25.259623,40.018112 C 25.725156,39.510589 26.187135,39.095342 26.286242,39.095342 C 26.38535,39.095342 26.085548,39.510589 25.620015,40.018112 C 25.154479,40.525635 24.6925,40.940882 24.593392,40.940882 C 24.494284,40.940882 24.794087,40.525635 25.259623,40.018112 z M 10.580516,27.766317 C 10.931162,27.672732 11.417691,27.678887 11.661691,27.779994 C 11.905687,27.881101 11.618794,27.95767 11.024147,27.950148 C 10.429501,27.942626 10.229865,27.859902 10.580516,27.766317 z"
         id="path2579"
         style="fill:#fd2e2e" />
      <path
         d="M 13.640624,45.553487 C 7.7147521,44.024874 3.9190984,39.85555 4.064985,35.035155 L 4.1264246,33.005062 L 4.2614058,34.758324 C 4.4183852,36.797279 4.412309,36.795738 9.1573572,35.999617 L 11.975664,35.526764 L 14.280294,32.974035 C 15.547843,31.570035 16.590615,30.19047 16.59757,29.908336 C 16.604526,29.626202 16.326411,29.157642 15.979534,28.867092 C 15.632657,28.576542 15.898814,28.64128 16.570995,29.010955 C 17.353863,29.441504 18.039855,30.246622 18.47954,31.250931 C 19.42799,33.417338 19.063901,35.157843 17.270238,37.031904 C 15.910602,38.452489 15.732839,39.358232 16.62127,40.338597 C 16.781006,40.514865 16.478969,41.043128 15.950076,41.512519 C 14.362363,42.921618 15.239801,43.320539 20.241319,43.463509 C 25.016669,43.600016 26.838813,43.191967 29.002815,41.501487 C 30.760319,40.128549 31.386284,38.536841 31.386284,35.440757 C 31.386284,32.90879 31.356642,32.820508 30.506571,32.820508 C 29.192838,32.820508 29.020351,32.116575 30.228399,31.685262 C 31.974396,31.061885 32.107067,30.25912 32.107067,20.317812 C 32.107067,11.234864 32.101316,11.166291 31.272955,10.369267 C 30.786426,9.9011408 29.97273,9.5667103 29.320277,9.5667103 C 26.910016,9.5667103 27.062141,8.603091 27.056061,23.909132 C 27.053026,31.551015 26.931394,37.995515 26.785767,38.230242 C 26.64014,38.464969 26.567045,32.172539 26.623335,24.247062 C 26.743252,7.3626684 26.992073,8.4593866 23.041415,8.4593866 L 20.57453,8.4593866 L 20.647055,5.2296924 L 20.71958,1.9999983 L 20.843443,4.9193011 L 20.967303,7.8386039 L 22.368596,6.4371854 C 23.728318,5.077342 23.825372,5.0433051 25.640183,5.2898703 C 26.668842,5.4296271 28.341986,5.8676607 29.35828,6.2632783 C 31.693864,7.172462 33.395068,7.1740872 35.394879,6.269046 C 36.262489,5.8763961 37.864326,5.4413219 38.954512,5.3022144 C 40.616985,5.0900829 41.18369,4.8058868 42.468332,3.5400708 L 43.999997,2.0308498 L 43.999997,5.2451182 L 43.999997,8.4593866 L 40.767749,8.4351745 C 36.83923,8.4351745 37.913029,7.3549604 37.705076,23.47029 L 37.69314,37.434357 L 36.734314,39.294716 C 35.445524,41.795285 33.044901,43.981678 30.456044,45.012699 C 28.573851,45.762291 27.581123,45.875441 22.016097,45.974657 C 17.396952,46.057009 15.155679,45.944302 13.640624,45.553487 z M 18.146841,41.045125 C 18.694658,40.960282 19.505539,40.962552 19.9488,41.050164 C 20.392056,41.137775 19.943844,41.207189 18.952767,41.204421 C 17.961689,41.201649 17.59902,41.129965 18.146841,41.045125 z M 25.259623,40.018112 C 25.725156,39.510589 26.187135,39.095342 26.286242,39.095342 C 26.38535,39.095342 26.085548,39.510589 25.620015,40.018112 C 25.154479,40.525635 24.6925,40.940882 24.593392,40.940882 C 24.494284,40.940882 24.794087,40.525635 25.259623,40.018112 z M 4.3568988,32.553809 C 4.3568988,32.339455 4.6908739,31.771952 5.0990717,31.292691 L 5.8412445,30.421307 L 5.2081478,31.52863 C 4.3749004,32.986027 4.3568988,33.007708 4.3568988,32.553809 z M 10.580516,27.766317 C 10.931162,27.672732 11.417691,27.678887 11.661691,27.779994 C 11.905687,27.881101 11.618794,27.95767 11.024147,27.950148 C 10.429501,27.942626 10.229865,27.859902 10.580516,27.766317 z M 12.742866,27.766317 C 13.093513,27.672732 13.580042,27.678887 13.824042,27.779994 C 14.068038,27.881101 13.781144,27.95767 13.186498,27.950148 C 12.591851,27.942626 12.392216,27.859902 12.742866,27.766317 z"
         id="path2577"
         style="fill:#f50605" />
      <path
         d="M 13.603611,45.552097 C 7.6805343,44.021312 3.8887936,39.854407 4.0024879,35.001013 L 4.0501897,32.964598 L 4.2967998,35.37127 C 4.4324327,36.69494 4.8021909,38.285128 5.1184847,38.90502 C 5.6376739,39.922569 6.038294,40.118216 9.2408298,40.918227 C 11.191826,41.405596 13.567355,42.217586 14.519776,42.722646 C 16.072444,43.546012 16.706554,43.644098 20.653907,43.671497 C 25.787268,43.707131 26.490221,43.488878 30.121894,40.731877 C 32.108411,39.223804 32.919212,38.307899 33.844261,36.526998 L 35.026911,34.250156 L 34.94808,20.796872 C 34.904722,13.397567 34.995002,7.134803 35.148698,6.8796192 C 35.6041,6.1235129 37.727173,5.3804347 39.432064,5.3804347 C 40.852303,5.3804347 41.179924,5.2040086 42.510715,3.7225498 L 44,2.0646649 L 44,5.2035788 L 44,8.3424926 L 40.87197,8.3424926 C 36.938661,8.3424926 37.90561,7.1502354 37.697404,23.315745 L 37.685453,37.407685 L 36.725458,39.273837 C 35.435097,41.782192 33.031547,43.975393 30.439533,45.009625 C 28.555046,45.761551 27.561107,45.875053 21.989296,45.974578 C 17.364519,46.057187 15.120513,45.944129 13.603611,45.552097 z M 18.115322,41.029697 C 18.663807,40.944589 19.475677,40.946866 19.919478,41.034751 C 20.363275,41.122635 19.914516,41.192265 18.922231,41.189489 C 17.929945,41.186708 17.566833,41.114801 18.115322,41.029697 z M 16.396412,40.554872 C 16.273759,40.35123 15.706921,40.184614 15.136776,40.184614 C 14.033553,40.184614 12.607684,38.619003 12.607684,37.407655 C 12.607684,36.200466 13.88782,34.537754 15.777684,33.290284 C 18.345171,31.595529 18.472393,31.090957 16.730383,29.511819 L 15.313919,28.227788 L 16.537555,28.930036 C 17.30434,29.370094 18.017779,30.219471 18.448427,31.205005 C 19.397189,33.376227 19.033291,35.1243 17.242255,36.999165 C 15.659176,38.656333 15.689554,38.554205 16.377234,39.906921 C 16.864991,40.866377 16.879511,41.356963 16.396412,40.554872 z M 25.236777,39.999486 C 25.702877,39.490382 26.16542,39.073842 26.264647,39.073842 C 26.363876,39.073842 26.063709,39.490382 25.597608,39.999486 C 25.131504,40.508589 24.668962,40.925129 24.569733,40.925129 C 24.470504,40.925129 24.770673,40.508589 25.236777,39.999486 z M 26.602151,24.179328 C 26.722215,7.2423594 26.971339,8.3424926 23.015864,8.3424926 L 20.545971,8.3424926 L 20.618585,5.1027417 L 20.554448,2.0000003 L 20.814602,4.7567815 L 20.938011,7.6505722 L 22.197871,6.5155035 C 23.229141,5.5863821 23.771738,5.3804347 25.188357,5.3804347 C 26.640774,5.3804347 26.992715,5.5217975 27.377625,6.2597956 C 27.720277,6.916773 27.735696,7.3319758 27.438598,7.9016121 C 27.168555,8.4193687 27.039158,13.335896 27.035405,23.221005 C 27.032366,31.227321 26.910586,37.970591 26.764781,38.206049 C 26.618977,38.441506 26.545793,32.129483 26.602151,24.179328 z M 4.3085666,32.51194 C 4.3085666,32.296919 4.6429489,31.727649 5.0516444,31.246895 L 5.7947221,30.372798 L 5.1608535,31.483569 C 4.3265901,32.945504 4.3085666,32.967253 4.3085666,32.51194 z M 10.539772,27.709541 C 10.890846,27.615665 11.377968,27.621839 11.622265,27.723261 C 11.866559,27.824682 11.579316,27.90149 10.983944,27.893944 C 10.388573,27.886399 10.188693,27.803417 10.539772,27.709541 z M 12.704758,27.709541 C 13.055833,27.615665 13.542955,27.621839 13.787253,27.723261 C 14.031546,27.824682 13.744302,27.90149 13.148931,27.893944 C 12.553559,27.886399 12.353681,27.803417 12.704758,27.709541 z"
         id="path2575"
         style="fill:#cf0000" />
      <path
         d="M 13.640624,45.553487 C 9.7393467,44.547129 6.4311771,42.181686 5.0515828,39.412055 C 3.9653367,37.231344 4.2359081,37.260747 5.5281721,39.463849 C 6.1723725,40.562107 7.1859744,41.749243 7.7806209,42.101933 C 9.2611573,42.980048 12.585026,43.473999 18.772571,43.735409 C 23.359342,43.929194 24.346956,43.862068 26.850331,43.186383 C 31.492333,41.933468 33.190921,40.662257 35.51472,36.702011 L 36.810789,34.493234 L 36.686995,22.491357 C 36.618906,15.890325 36.431394,10.020726 36.270303,9.447804 C 35.910178,8.1670177 36.522472,6.858191 37.749693,6.2855097 C 39.00834,5.6981616 41.183834,5.7801947 42.117847,6.450223 C 42.913131,7.0207332 42.918821,7.0118772 42.918821,5.2035408 C 42.918821,4.0349238 43.112543,3.2176044 43.459409,2.9227681 C 43.932384,2.5207391 43.999997,2.8382376 43.999997,5.4613279 L 43.999997,8.4593866 L 41.417768,8.4593866 C 36.716613,8.4593866 37.913029,7.4390904 37.705076,23.55442 L 37.69314,37.434357 L 36.734314,39.294716 C 35.445524,41.795285 33.044901,43.981678 30.456044,45.012699 C 28.573851,45.762291 27.581123,45.875441 22.016097,45.974657 C 17.396952,46.057009 15.155679,45.944302 13.640624,45.553487 z M 18.146841,41.045125 C 18.694658,40.960282 19.505539,40.962552 19.9488,41.050164 C 20.392056,41.137775 19.943844,41.207189 18.952767,41.204421 C 17.961689,41.201649 17.59902,41.129965 18.146841,41.045125 z M 15.438947,39.387576 C 13.794288,37.514239 13.726956,36.483354 15.174581,35.34006 C 15.772489,34.867848 16.745547,34.093007 17.336932,33.618189 C 17.928317,33.143372 18.42498,32.395929 18.440628,31.957204 C 18.465748,31.252936 18.510425,31.275178 18.822125,32.147135 C 19.357818,33.645698 18.635773,35.815475 17.136367,37.212903 C 15.841075,38.4201 15.731023,39.241029 16.698455,40.479497 C 17.523406,41.535566 16.691726,40.814547 15.438947,39.387576 z M 25.259623,40.018112 C 25.725156,39.510589 26.187135,39.095342 26.286242,39.095342 C 26.38535,39.095342 26.085548,39.510589 25.620015,40.018112 C 25.154479,40.525635 24.6925,40.940882 24.593392,40.940882 C 24.494284,40.940882 24.794087,40.525635 25.259623,40.018112 z M 26.623335,24.256191 C 26.743248,7.3614268 26.99221,8.4593866 23.041415,8.4593866 L 20.57453,8.4593866 L 20.640618,5.2296924 L 20.570119,2.1365823 L 20.910912,4.9169185 L 21.115118,7.8338387 L 22.283183,6.8246863 C 24.108561,5.247651 25.788569,6.1386514 26.915795,8.3065408 C 27.713795,9.84126 27.108163,37.59913 26.799635,38.164589 C 26.646382,38.445469 26.567045,32.186689 26.623335,24.256191 z M 4.108178,35.219709 C 4.1102034,34.001653 4.1774813,33.547857 4.2576937,34.211273 C 4.3379025,34.874689 4.3362483,35.87128 4.2540141,36.42592 C 4.1717836,36.980561 4.1061562,36.437765 4.108178,35.219709 z M 4.3568988,32.553809 C 4.3568988,32.339455 4.6908739,31.771952 5.0990717,31.292691 L 5.8412445,30.421307 L 5.2081478,31.52863 C 4.3749004,32.986027 4.3568988,33.007708 4.3568988,32.553809 z M 17.128135,29.816844 C 16.074141,28.663654 16.073723,28.66139 17.030448,29.285326 C 17.558897,29.62996 18.080878,30.151115 18.190408,30.44345 C 18.477943,31.21087 18.313698,31.113988 17.128135,29.816844 z M 10.580516,27.766317 C 10.931162,27.672732 11.417691,27.678887 11.661691,27.779994 C 11.905687,27.881101 11.618794,27.95767 11.024147,27.950148 C 10.429501,27.942626 10.229865,27.859902 10.580516,27.766317 z M 12.742866,27.766317 C 13.093513,27.672732 13.580042,27.678887 13.824042,27.779994 C 14.068038,27.881101 13.781144,27.95767 13.186498,27.950148 C 12.591851,27.942626 12.392216,27.859902 12.742866,27.766317 z"
         id="path2573"
         style="fill:#a60101" />
      <path
         d="M 13.640624,45.553487 C 12.502889,45.260002 10.914361,44.676254 10.110565,44.256268 C 8.4168998,43.371328 5.9337967,41.165728 5.3750164,40.049948 C 5.1629151,39.626418 5.5904803,39.986985 6.325157,40.851207 C 7.0598373,41.715425 8.4176603,42.878115 9.3425409,43.434962 C 10.988641,44.426032 11.167024,44.45009 17.791628,44.574424 C 23.139395,44.674799 25.125334,44.572424 27.25819,44.086434 C 30.963299,43.242188 33.902226,41.189601 35.989997,37.988019 L 37.55453,35.588817 L 37.478076,21.619734 C 37.393811,9.9787644 37.157007,8.2359076 38.160162,7.574845 C 38.93879,7.0617419 42.663779,6.9310142 43.369311,7.4967701 C 44.753052,8.6063711 43.274679,8.3688158 40.939725,8.3668825 C 37.026358,8.3636423 37.997159,7.2708304 37.789206,23.38616 L 37.69314,37.434357 L 36.734314,39.294716 C 35.445524,41.795285 33.044901,43.981678 30.456044,45.012699 C 28.573851,45.762291 27.581123,45.875441 22.016097,45.974657 C 17.396952,46.057009 15.155679,45.944302 13.640624,45.553487 z M 18.322081,41.049499 C 18.768066,40.961519 19.497856,40.961519 19.943844,41.049499 C 20.389829,41.137476 20.024932,41.209459 19.132963,41.209459 C 18.240993,41.209459 17.876093,41.137476 18.322081,41.049499 z M 16.259883,40.399629 C 16.018658,40.10194 15.877169,39.692123 15.945459,39.488926 C 16.013754,39.285728 16.257094,39.529291 16.486213,40.030178 C 16.961141,41.068434 16.892558,41.180392 16.259883,40.399629 z M 25.259623,40.018112 C 25.725156,39.510589 26.187135,39.095342 26.286242,39.095342 C 26.38535,39.095342 26.085548,39.510589 25.620015,40.018112 C 25.154479,40.525635 24.6925,40.940882 24.593392,40.940882 C 24.494284,40.940882 24.794087,40.525635 25.259623,40.018112 z M 15.177699,38.183734 C 14.491116,37.336451 15.032432,36.406537 16.967484,35.109104 C 18.197191,34.284598 18.781638,33.638715 18.80102,33.082829 C 18.816668,32.634039 18.907256,32.462124 19.002321,32.700797 C 19.385302,33.662306 18.374536,36.026897 17.017629,37.343796 C 15.828487,38.497875 15.539247,38.629916 15.177699,38.183734 z M 26.70119,23.650018 C 26.70119,7.3606424 26.973946,8.4593866 22.930195,8.4593866 L 20.477325,8.4593866 L 21.393654,7.7211708 C 22.846973,6.5503395 24.340592,6.5033786 25.763624,8.0487237 L 27.061582,9.6192727 L 27.061582,23.619092 C 27.061582,31.318992 26.98049,37.618911 26.881386,37.618911 C 26.782279,37.618911 26.70119,31.332909 26.70119,23.650018 z M 10.580516,27.766317 C 10.931162,27.672732 11.417691,27.678887 11.661691,27.779994 C 11.905687,27.881101 11.618794,27.95767 11.024147,27.950148 C 10.429501,27.942626 10.229865,27.859902 10.580516,27.766317 z M 12.742866,27.766317 C 13.093513,27.672732 13.580042,27.678887 13.824042,27.779994 C 14.068038,27.881101 13.781144,27.95767 13.186498,27.950148 C 12.591851,27.942626 12.392216,27.859902 12.742866,27.766317 z"
         id="path2571"
         style="fill:#620101" />
    </g>
  </g>
</svg>
