P3
64 64
255
30 150 210 25 146 210 0 0 0 0 0 0 0 0 0 0 0 0 0 0 0 0 0 0 
0 0 0 0 0 0 0 0 0 0 0 0 0 0 0 0 0 0 0 0 0 0 0 0 
0 0 0 0 0 0 0 0 0 0 0 0 0 0 0 0 0 0 0 0 0 0 0 0 
0 0 0 0 0 0 0 0 0 0 0 0 0 0 0 0 0 0 0 0 0 36 149 220 
25 150 207 0 0 0 0 0 0 0 0 0 0 0 0 0 0 0 0 0 0 0 0 0 
0 0 0 0 0 0 0 0 0 0 0 0 0 0 0 0 0 0 0 0 0 0 0 0 
0 0 0 0 0 0 0 0 0 0 0 0 0 0 0 0 0 0 0 0 0 0 0 0 
0 0 0 0 0 0 0 0 0 0 0 0 0 0 0 0 0 0 25 146 210 22 146 209 

59 163 216 22 147 208 22 145 208 19 147 204 0 0 0 0 0 0 0 0 0 0 0 0 
0 0 0 0 0 0 0 0 0 0 0 0 0 0 0 0 0 0 0 0 0 0 0 0 
0 0 0 0 0 0 0 0 0 0 0 0 0 0 0 0 0 0 0 0 0 0 0 0 
0 0 0 0 0 0 0 0 0 0 0 0 0 0 0 0 0 0 0 0 0 33 151 211 
29 149 212 0 0 0 0 0 0 0 0 0 0 0 0 0 0 0 0 0 0 0 0 0 
0 0 0 0 0 0 0 0 0 0 0 0 0 0 0 0 0 0 0 0 0 0 0 0 
0 0 0 0 0 0 0 0 0 0 0 0 0 0 0 0 0 0 0 0 0 0 0 0 
0 0 0 0 0 0 0 0 0 0 0 0 19 147 204 22 147 208 22 146 209 26 150 212 

68 167 217 20 146 208 23 146 209 22 147 209 22 146 208 19 147 204 0 0 0 0 0 0 
0 0 0 0 0 0 0 0 0 0 0 0 0 0 0 0 0 0 0 0 0 0 0 0 
0 0 0 0 0 0 0 0 0 0 0 0 0 0 0 0 0 0 0 0 0 0 0 0 
0 0 0 0 0 0 0 0 0 0 0 0 0 0 0 0 0 0 0 0 0 29 148 209 
29 148 209 29 144 202 0 0 0 0 0 0 0 0 0 0 0 0 0 0 0 0 0 0 
0 0 0 0 0 0 0 0 0 0 0 0 0 0 0 0 0 0 0 0 0 0 0 0 
0 0 0 0 0 0 0 0 0 0 0 0 0 0 0 0 0 0 0 0 0 0 0 0 
0 0 0 0 0 0 19 147 204 22 146 208 23 146 209 23 146 209 22 146 209 0 0 0 

68 168 218 0 0 0 22 146 209 23 146 208 23 145 207 22 147 209 22 146 209 23 148 210 
0 0 0 0 0 0 0 0 0 0 0 0 0 0 0 0 0 0 0 0 0 0 0 0 
0 0 0 0 0 0 0 0 0 0 0 0 0 0 0 0 0 0 0 0 0 0 0 0 
0 0 0 0 0 0 0 0 0 0 0 0 0 0 0 0 0 0 25 150 207 30 150 211 
30 149 210 27 148 210 0 0 0 0 0 0 0 0 0 0 0 0 0 0 0 0 0 0 
0 0 0 0 0 0 0 0 0 0 0 0 0 0 0 0 0 0 0 0 0 0 0 0 
0 0 0 0 0 0 0 0 0 0 0 0 0 0 0 0 0 0 0 0 0 0 0 0 
19 145 206 22 147 208 22 147 209 23 145 207 23 146 208 23 146 208 0 0 0 0 0 0 

67 167 218 68 168 218 23 148 210 22 147 208 23 147 209 23 147 209 23 145 208 22 147 208 
22 146 209 22 144 210 0 0 0 0 0 0 0 0 0 0 0 0 0 0 0 0 0 0 
0 0 0 0 0 0 0 0 0 0 0 0 0 0 0 0 0 0 0 0 0 0 0 0 
0 0 0 0 0 0 0 0 0 0 0 0 0 0 0 0 0 0 29 152 211 30 149 210 
30 150 211 28 149 210 0 0 0 0 0 0 0 0 0 0 0 0 0 0 0 0 0 0 
0 0 0 0 0 0 0 0 0 0 0 0 0 0 0 0 0 0 0 0 0 0 0 0 
0 0 0 0 0 0 0 0 0 0 0 0 0 0 0 0 0 0 25 148 206 22 146 209 
22 147 209 23 145 207 23 147 209 23 147 209 22 146 209 22 146 207 0 0 0 0 0 0 

68 167 217 67 168 218 0 0 0 23 146 208 23 146 208 23 147 209 23 147 209 23 147 209 
23 146 208 23 147 208 23 146 208 21 147 208 0 0 0 0 0 0 0 0 0 0 0 0 
0 0 0 0 0 0 0 0 0 0 0 0 0 0 0 0 0 0 0 0 0 0 0 0 
0 0 0 0 0 0 0 0 0 0 0 0 0 0 0 29 152 209 29 149 209 30 150 211 
30 150 211 30 150 211 30 150 210 0 0 0 0 0 0 0 0 0 0 0 0 0 0 0 
0 0 0 0 0 0 0 0 0 0 0 0 0 0 0 0 0 0 0 0 0 0 0 0 
0 0 0 0 0 0 0 0 0 0 0 0 21 147 208 23 146 208 22 147 209 23 146 208 
23 147 209 23 147 209 23 147 209 22 146 208 22 145 208 0 0 0 0 0 0 0 0 0 

68 168 218 67 167 217 0 0 0 25 146 210 23 146 209 23 147 209 23 147 209 23 147 209 
23 147 209 23 147 209 23 146 208 23 147 209 21 146 207 22 145 207 14 136 166 0 0 0 
0 0 0 0 0 0 0 0 0 0 0 0 0 0 0 0 0 0 0 0 0 0 0 0 
0 0 0 0 0 0 0 0 0 0 0 0 0 0 0 30 147 209 30 149 210 30 150 211 
30 150 211 30 150 211 29 148 208 0 0 0 0 0 0 0 0 0 0 0 0 0 0 0 
0 0 0 0 0 0 0 0 0 0 0 0 0 0 0 0 0 0 0 0 0 0 0 0 
0 0 0 14 136 166 22 146 207 22 146 208 23 147 209 23 146 208 23 147 209 23 147 209 
23 147 209 23 147 209 23 147 209 23 147 208 19 147 204 0 0 0 0 0 0 0 0 0 

68 168 218 67 167 218 66 167 216 0 0 0 20 146 208 23 146 208 23 147 209 23 147 209 
23 147 209 23 147 209 23 147 209 23 147 209 23 146 208 23 147 209 23 147 209 23 145 207 
20 146 208 0 0 0 0 0 0 0 0 0 0 0 0 0 0 0 0 0 0 0 0 0 
0 0 0 0 0 0 0 0 0 0 0 0 0 0 0 29 152 209 30 150 211 30 150 211 
30 150 211 30 150 211 29 152 211 29 149 212 0 0 0 0 0 0 0 0 0 0 0 0 
0 0 0 0 0 0 0 0 0 0 0 0 0 0 0 0 0 0 0 0 0 22 147 209 
23 145 207 23 147 209 23 147 209 23 146 208 23 147 209 23 147 209 23 147 209 23 147 209 
23 147 209 23 147 209 23 146 208 22 146 208 0 0 0 0 0 0 0 0 0 0 0 0 

68 168 218 68 168 218 68 168 218 0 0 0 33 151 206 22 146 208 23 146 208 23 147 209 
23 147 209 23 147 209 23 147 209 23 147 209 23 147 209 23 147 209 23 147 209 22 146 208 
23 147 208 23 145 208 22 145 208 23 147 208 0 0 0 0 0 0 0 0 0 0 0 0 
0 0 0 0 0 0 0 0 0 0 0 0 29 144 202 30 150 211 30 150 211 30 150 211 
30 150 211 30 150 211 30 149 210 30 149 210 0 0 0 0 0 0 0 0 0 0 0 0 
0 0 0 0 0 0 0 0 0 0 0 0 23 148 210 22 147 208 23 145 208 23 146 209 
23 146 208 23 147 209 23 147 209 23 147 209 23 147 209 23 147 209 23 147 209 23 147 209 
23 147 209 23 146 208 22 146 208 0 0 0 0 0 0 0 0 0 0 0 0 0 0 0 

68 168 218 68 168 218 67 168 217 0 0 0 0 0 0 22 145 208 23 146 208 23 146 208 
23 147 209 23 147 209 23 147 209 23 147 209 23 147 209 23 147 209 23 147 209 23 147 209 
23 147 209 23 147 209 23 145 208 22 147 209 22 146 208 22 147 208 22 145 208 19 145 206 
0 0 0 0 0 0 0 0 0 0 0 0 29 152 211 30 150 211 30 150 211 30 150 211 
30 150 211 30 150 211 30 150 211 29 152 209 38 153 197 0 0 0 0 0 0 0 0 0 
19 145 206 22 146 209 22 146 208 22 147 209 23 146 208 23 146 208 23 147 209 23 147 209 
23 147 209 23 147 209 23 147 209 23 147 209 23 147 209 23 147 209 23 147 209 23 147 209 
23 147 209 23 147 209 21 144 207 0 0 0 0 0 0 0 0 0 0 0 0 0 0 0 

68 168 218 68 168 218 68 168 218 68 170 216 0 0 0 0 0 0 20 146 208 23 145 209 
22 147 209 23 147 209 23 147 209 23 147 209 23 147 209 23 147 209 23 147 209 23 147 209 
23 147 209 23 147 209 23 147 209 23 147 209 23 147 209 23 146 208 22 146 208 23 147 209 
23 147 209 0 0 0 0 0 0 33 151 210 29 152 211 30 150 211 30 150 211 30 150 211 
30 150 211 30 150 211 30 150 211 30 149 210 27 147 208 0 0 0 23 146 208 22 146 208 
23 146 209 23 147 208 23 146 208 23 147 209 23 147 209 23 147 209 23 147 209 23 147 209 
23 147 209 23 147 209 23 147 209 23 147 209 23 147 209 23 147 209 23 147 209 23 147 209 
23 145 208 22 147 208 0 0 0 0 0 0 0 0 0 0 0 0 0 0 0 0 0 0 

68 168 218 68 168 218 67 167 218 67 167 217 0 0 0 0 0 0 0 0 0 0 0 0 
22 146 209 22 147 208 23 146 208 23 147 209 23 147 209 23 147 209 23 147 209 23 147 209 
23 147 209 23 147 209 23 147 209 23 147 209 23 147 209 23 147 209 23 147 209 23 147 209 
21 146 207 0 0 0 0 0 0 30 147 209 30 149 210 30 150 211 30 150 211 30 150 211 
30 150 211 30 150 211 30 150 211 30 150 211 28 149 210 0 0 0 36 149 220 22 147 209 
23 147 209 23 147 209 23 147 209 23 147 209 23 147 209 23 147 209 23 147 209 23 147 209 
23 147 209 23 147 209 23 147 209 23 147 209 23 147 209 23 147 209 23 147 209 23 147 209 
22 147 208 23 145 207 0 0 0 0 0 0 0 0 0 0 0 0 0 0 0 0 0 0 

68 168 218 68 168 218 68 167 217 68 167 217 0 0 0 0 0 0 0 0 0 0 0 0 
0 0 0 22 146 209 22 147 209 22 146 207 23 147 209 23 147 209 23 147 209 23 147 209 
23 147 209 23 147 209 23 147 209 23 147 209 23 147 209 23 147 209 23 147 209 23 147 209 
22 145 208 0 0 0 32 147 231 29 148 209 30 150 211 30 150 211 30 150 211 30 150 211 
30 150 211 30 150 211 30 150 211 30 150 211 30 150 211 27 148 211 0 0 0 23 146 208 
23 147 209 23 147 209 23 147 209 23 147 209 23 147 209 23 147 209 23 147 209 23 147 209 
23 147 209 23 147 209 23 147 209 23 147 209 23 147 209 23 147 209 23 147 209 23 147 209 
22 146 209 0 0 0 0 0 0 0 0 0 0 0 0 0 0 0 0 0 0 0 0 0 

68 168 218 68 168 218 68 168 218 68 168 217 50 159 211 0 0 0 0 0 0 30 147 209 
21 144 207 0 0 0 19 145 206 23 147 208 22 146 209 23 146 208 23 147 209 23 147 209 
23 147 209 23 147 209 23 147 209 23 147 209 23 147 209 23 147 209 23 147 209 23 147 209 
22 146 209 0 0 0 27 148 210 30 149 210 30 150 211 30 150 211 30 150 211 30 150 211 
30 150 211 30 150 211 30 150 211 30 150 211 30 150 211 30 150 211 0 0 0 23 147 209 
23 147 209 23 147 209 23 147 209 23 147 209 23 147 209 23 147 209 23 147 209 23 147 209 
23 147 209 23 147 209 23 147 209 23 147 209 23 147 209 23 147 209 23 146 208 22 146 208 
14 152 210 0 0 0 0 0 0 0 0 0 0 0 0 0 0 0 0 0 0 0 0 0 

68 168 218 68 168 218 68 168 218 68 167 218 68 167 218 0 0 0 0 0 0 0 0 0 
23 146 208 22 146 208 22 146 209 0 0 0 21 147 208 22 147 209 22 146 208 23 147 209 
23 147 209 23 147 209 23 147 209 23 147 209 23 147 209 23 147 209 23 147 209 23 147 209 
20 146 208 0 0 0 29 148 209 30 150 211 30 150 211 30 150 211 30 150 211 30 150 211 
30 150 211 30 150 211 30 150 211 30 150 211 30 150 211 30 150 211 30 150 210 21 147 208 
23 147 209 23 147 209 23 147 209 23 147 209 23 147 209 23 147 209 23 147 209 23 147 209 
23 147 209 23 147 209 23 147 209 23 147 209 23 147 209 23 147 209 22 147 208 23 145 208 
0 0 0 0 0 0 0 0 0 0 0 0 0 0 0 0 0 0 0 0 0 0 0 0 

68 168 218 68 168 218 68 168 218 68 167 217 67 168 217 0 0 0 0 0 0 0 0 0 
21 142 208 23 147 209 23 146 208 22 147 208 22 146 209 22 146 209 22 146 208 22 146 208 
23 146 209 23 147 209 23 147 209 23 147 209 23 147 209 23 147 209 23 147 209 23 147 209 
23 146 208 33 151 206 30 150 211 30 150 211 30 150 211 30 150 211 30 150 211 30 150 211 
30 150 211 30 150 211 30 150 211 30 150 211 30 150 211 30 149 210 29 152 209 21 146 207 
23 147 209 23 147 209 23 147 209 23 147 209 23 147 209 23 147 209 23 147 209 23 147 209 
23 147 209 23 147 209 23 147 209 23 147 209 23 147 209 23 146 208 23 146 209 0 0 0 
0 0 0 0 0 0 0 0 0 0 0 0 0 0 0 0 0 0 0 0 0 0 0 0 

68 168 218 68 168 218 68 168 218 68 168 218 67 167 217 0 0 0 0 0 0 0 0 0 
0 0 0 23 147 209 22 146 208 23 147 209 23 146 208 22 147 208 22 147 208 22 146 209 
21 147 208 23 147 209 23 147 209 23 147 209 23 147 209 23 147 209 23 147 209 23 147 209 
22 145 208 31 150 211 30 150 211 30 150 211 30 150 211 30 150 211 30 150 211 30 150 211 
30 150 211 30 150 211 30 150 211 30 150 211 30 150 211 30 150 211 31 151 210 23 147 209 
23 147 209 23 147 209 23 147 209 23 147 209 23 147 209 23 147 209 23 147 209 23 147 209 
23 147 209 23 147 209 23 147 209 23 147 209 23 147 209 23 147 208 21 147 208 0 0 0 
0 0 0 0 0 0 0 0 0 0 0 0 0 0 0 0 0 0 0 0 0 0 0 0 

68 168 218 68 168 218 68 168 218 68 168 218 68 167 217 68 169 217 0 0 0 0 0 0 
0 0 0 0 0 0 22 145 207 23 146 208 23 147 209 23 147 209 23 147 209 23 147 209 
23 147 209 23 147 209 23 147 209 23 147 209 23 147 209 23 147 209 23 147 209 23 147 209 
23 147 208 31 151 210 30 150 211 30 150 211 30 150 211 30 150 211 30 150 211 30 150 211 
30 150 211 30 150 211 30 150 211 30 150 211 30 150 211 30 150 211 26 148 209 24 147 209 
22 146 208 23 147 209 23 147 209 23 147 209 23 147 209 23 147 209 23 147 209 23 147 209 
23 147 209 23 147 209 23 147 209 23 147 209 23 146 208 22 147 209 0 0 0 0 0 0 
0 0 0 0 0 0 0 0 0 0 0 0 0 0 0 0 0 0 0 0 0 0 0 0 

68 168 218 68 168 218 68 168 218 68 168 218 68 168 218 68 168 217 0 0 0 0 0 0 
0 0 0 0 0 0 23 147 208 22 147 208 23 147 209 23 147 209 23 147 209 23 147 209 
23 147 209 23 147 209 23 147 209 23 147 209 23 147 209 23 147 209 23 147 209 23 146 209 
24 147 208 25 148 210 30 150 211 30 150 211 30 150 211 30 150 211 30 150 211 30 150 211 
30 150 211 30 150 211 30 150 211 30 150 211 30 150 211 30 149 210 25 147 209 25 148 210 
23 146 209 23 147 209 23 147 209 23 147 209 23 147 209 23 147 209 23 147 209 23 147 209 
23 147 209 23 147 209 23 147 209 23 147 209 22 146 209 25 150 207 0 0 0 0 0 0 
0 0 0 0 0 0 0 0 0 0 0 0 0 0 0 0 0 0 0 0 0 0 0 0 

67 167 217 68 168 218 68 168 218 68 168 218 68 168 218 66 167 219 0 0 0 0 0 0 
0 0 0 0 0 0 0 0 0 22 146 208 23 146 208 23 147 209 23 147 209 23 147 209 
23 147 209 23 147 209 23 147 209 23 147 209 23 147 209 23 147 209 23 147 209 22 147 208 
23 145 208 24 146 208 29 152 211 30 150 211 30 150 211 30 150 211 30 150 211 30 150 211 
30 150 211 30 150 211 30 150 211 30 150 211 30 150 211 29 152 209 24 146 208 24 147 210 
24 147 209 22 146 209 23 147 209 23 147 209 23 147 209 23 147 209 23 147 209 23 147 209 
23 147 209 23 147 209 23 147 209 23 146 209 20 146 208 0 0 0 0 0 0 0 0 0 
0 0 0 0 0 0 0 0 0 0 0 0 0 0 0 0 0 0 0 0 0 0 0 0 

89 178 222 68 168 218 68 168 218 68 168 218 68 168 218 67 167 218 72 168 218 0 0 0 
0 0 0 0 0 0 0 0 0 22 147 209 23 146 208 23 147 209 23 147 209 23 147 209 
23 147 209 23 147 209 23 147 209 23 147 209 23 147 209 23 147 209 22 146 208 24 146 208 
23 146 209 23 147 209 29 149 212 30 150 211 30 150 211 30 150 211 30 150 211 30 150 211 
30 150 211 30 150 211 30 150 211 30 150 211 30 150 211 27 150 209 24 147 210 25 148 210 
25 147 209 23 147 208 23 147 209 23 147 209 23 147 209 23 147 209 23 147 209 23 147 209 
23 147 209 23 147 209 23 146 208 22 146 208 0 0 0 0 0 0 0 0 0 0 0 0 
0 0 0 0 0 0 0 0 0 0 0 0 0 0 0 0 0 0 0 0 0 0 0 0 

173 216 238 66 167 217 68 168 218 68 168 218 68 168 218 68 168 218 66 167 217 0 0 0 
0 0 0 0 0 0 0 0 0 0 0 0 23 147 209 22 146 208 23 147 209 23 147 209 
23 147 209 23 147 209 23 147 209 23 147 209 23 147 209 23 147 209 23 147 208 25 148 210 
24 147 209 23 147 208 22 146 209 28 150 208 29 152 211 30 150 211 30 150 211 30 150 211 
30 150 211 30 150 211 30 150 211 30 150 211 29 152 209 24 147 208 25 147 209 25 148 210 
25 148 210 24 147 209 22 146 208 23 147 209 23 147 209 23 147 209 23 147 209 23 147 209 
23 147 209 23 147 209 23 147 208 23 148 210 0 0 0 0 0 0 0 0 0 0 0 0 
0 0 0 0 0 0 0 0 0 0 0 0 0 0 0 0 0 0 0 0 0 0 0 0 

250 252 254 59 164 216 68 168 218 68 168 218 68 168 218 68 168 218 67 167 218 0 0 0 
0 0 0 0 0 0 0 0 0 0 0 0 23 145 214 23 146 208 23 147 209 23 147 209 
23 147 209 23 147 209 23 147 209 23 147 209 23 147 209 22 146 209 24 147 209 25 147 209 
24 147 209 24 148 210 24 147 209 23 145 207 27 148 211 29 148 209 30 149 210 30 150 211 
30 150 211 30 150 211 30 150 211 28 150 211 26 148 209 24 147 210 25 148 210 25 148 210 
25 148 210 24 147 210 23 146 208 23 147 209 23 147 209 23 147 209 23 147 209 23 147 209 
23 147 209 23 146 208 22 146 208 0 0 0 0 0 0 0 0 0 0 0 0 0 0 0 
0 0 0 0 0 0 0 0 0 0 0 0 0 0 0 0 0 0 0 0 0 0 0 0 

255 255 255 126 195 229 68 168 218 68 168 218 68 168 218 68 168 218 68 167 218 60 164 221 
0 0 0 0 0 0 0 0 0 0 0 0 0 0 0 20 146 208 22 147 209 23 147 209 
23 147 209 23 147 209 23 147 209 23 147 209 23 147 208 23 147 208 25 148 210 25 148 210 
25 148 210 25 148 210 24 146 208 24 147 209 25 146 210 38 153 197 29 152 209 30 149 210 
30 150 211 30 150 211 29 152 209 25 147 209 24 147 210 25 148 210 25 148 210 25 148 210 
25 148 210 24 148 210 24 147 209 22 146 208 23 147 209 23 147 209 23 147 209 23 147 209 
23 147 209 22 146 208 25 146 210 0 0 0 0 0 0 0 0 0 0 0 0 0 0 0 
0 0 0 0 0 0 0 0 0 0 0 0 0 0 0 0 0 0 0 0 0 0 0 0 

254 254 254 200 229 244 62 165 216 68 168 218 68 168 218 68 168 218 67 167 218 66 166 217 
0 0 0 0 0 0 0 0 0 0 0 0 0 0 0 0 0 0 24 147 208 23 146 208 
23 147 209 23 147 209 23 147 209 23 147 209 22 146 209 24 147 209 25 147 209 25 148 210 
25 148 210 25 148 210 25 148 210 25 147 209 24 147 210 24 147 209 26 145 208 25 146 210 
29 149 209 26 148 209 25 148 209 24 147 210 25 147 209 25 148 210 25 148 210 25 148 210 
25 148 210 25 148 210 25 148 210 23 147 208 23 147 209 23 147 209 23 147 209 22 146 208 
22 145 207 45 157 213 0 0 0 0 0 0 0 0 0 0 0 0 0 0 0 0 0 0 
0 0 0 0 0 0 0 0 0 0 0 0 0 0 0 0 0 0 0 0 0 0 0 0 

255 255 255 255 255 255 78 172 219 68 168 218 68 168 218 68 168 218 68 167 217 68 168 217 
0 0 0 0 0 0 0 0 0 0 0 0 0 0 0 0 0 0 45 156 213 23 146 208 
23 147 209 23 147 209 23 147 209 23 147 209 23 147 208 25 148 210 25 148 210 25 148 210 
25 148 210 25 148 210 25 148 210 25 148 210 25 148 210 24 146 208 24 148 210 25 148 209 
24 147 209 24 147 210 25 147 209 25 148 210 25 148 210 25 148 210 25 148 210 25 148 210 
25 148 210 25 148 210 25 148 209 24 147 209 22 146 209 22 146 208 20 146 208 50 159 214 
86 176 220 84 172 219 0 0 0 0 0 0 0 0 0 0 0 0 0 0 0 0 0 0 
0 0 0 0 0 0 0 0 0 0 0 0 0 0 0 0 0 0 0 0 0 0 0 0 

255 255 255 255 255 255 149 206 234 67 167 217 68 168 218 68 168 218 68 168 218 68 167 218 
0 0 0 0 0 0 0 0 0 0 0 0 0 0 0 0 0 0 0 0 0 45 157 213 
21 146 207 23 147 209 23 147 209 22 147 208 24 147 209 25 147 209 25 148 210 25 148 210 
25 148 210 25 148 210 25 148 210 25 148 210 25 148 210 25 148 210 25 148 210 25 148 210 
25 148 210 25 148 210 25 148 210 25 148 210 25 148 210 25 148 210 25 148 210 25 148 210 
25 148 210 25 148 210 25 148 210 25 147 209 20 146 208 46 157 214 84 175 220 89 178 222 
84 175 220 0 0 0 0 0 0 0 0 0 0 0 0 0 0 0 0 0 0 0 0 0 
0 0 0 0 0 0 0 0 0 0 0 0 0 0 0 0 0 0 0 0 0 0 0 0 

214 236 247 254 254 254 229 243 249 59 163 216 68 168 218 68 168 218 68 168 218 68 168 218 
68 167 216 0 0 0 0 0 0 0 0 0 0 0 0 0 0 0 0 0 0 56 162 216 
38 153 212 22 146 208 23 147 209 23 147 208 25 148 210 25 148 210 25 148 210 25 148 210 
25 148 210 25 148 210 25 148 210 25 148 210 25 148 210 25 148 210 25 148 210 25 148 210 
25 148 210 25 148 210 25 148 210 25 148 210 25 148 210 25 148 210 25 148 210 25 148 210 
25 148 210 24 147 210 23 147 209 38 153 212 70 169 218 89 178 222 86 176 220 84 175 220 
0 0 0 0 0 0 0 0 0 0 0 0 0 0 0 0 0 0 0 0 0 0 0 0 
0 0 0 0 0 0 0 0 0 0 0 0 0 0 0 0 0 0 0 0 0 0 0 0 

109 187 225 255 255 255 255 255 255 89 178 222 68 168 218 68 168 218 68 168 218 68 167 217 
67 167 218 0 0 0 0 0 0 0 0 0 0 0 0 0 0 0 0 0 0 0 0 0 
59 163 216 27 147 208 22 146 208 25 148 209 25 148 209 25 148 210 25 148 210 25 148 210 
25 148 210 25 148 210 25 148 210 25 148 210 25 148 210 25 148 210 25 148 210 25 148 210 
25 148 210 25 148 210 25 148 210 25 148 210 25 148 210 25 148 210 25 148 210 24 147 209 
23 147 209 41 155 213 65 166 217 70 169 218 68 168 218 84 175 220 89 178 222 84 172 219 
0 0 0 0 0 0 0 0 0 0 0 0 0 0 0 0 0 0 0 0 0 0 0 0 
0 0 0 0 0 0 0 0 0 0 0 0 0 0 0 0 0 0 0 0 0 0 0 0 

59 164 216 214 236 247 255 255 255 173 216 238 66 167 217 68 168 218 68 168 218 66 167 219 
60 164 221 0 0 0 0 0 0 0 0 0 0 0 0 0 0 0 0 0 0 0 0 0 
43 156 212 68 168 217 24 147 208 23 147 209 24 147 210 25 148 210 25 148 210 25 148 210 
25 148 210 25 148 210 25 148 210 25 148 210 25 148 209 23 147 214 23 145 214 23 148 210 
25 148 210 25 148 210 25 148 210 25 148 210 24 147 209 22 147 209 26 150 212 43 156 221 
66 167 217 68 168 218 66 166 223 66 166 223 70 169 218 72 168 218 84 175 220 0 0 0 
0 0 0 0 0 0 0 0 0 0 0 0 0 0 0 0 0 0 0 0 0 0 0 0 
0 0 0 0 0 0 0 0 0 0 0 0 0 0 0 0 0 0 0 0 0 0 0 0 

68 168 218 109 187 225 255 255 255 245 250 252 57 163 215 68 168 218 66 167 219 140 201 122 
186 222 68 245 250 10 0 0 0 0 0 0 0 0 0 0 0 0 0 0 0 0 0 0 
0 0 0 84 175 220 68 168 217 50 159 214 40 154 212 33 151 211 26 148 209 23 147 209 
23 147 209 24 147 209 24 147 209 24 147 210 24 147 210 121 192 123 186 222 68 93 178 165 
23 147 209 23 147 209 25 148 210 35 153 211 47 158 214 58 163 217 198 228 62 184 221 80 
59 164 226 64 166 219 198 228 62 184 221 80 59 164 226 68 168 217 68 167 217 0 0 0 
0 0 0 0 0 0 0 0 0 0 0 0 0 0 0 0 0 0 0 0 0 0 0 0 
0 0 0 0 0 0 0 0 0 0 0 0 0 0 0 0 0 0 0 0 0 0 0 0 

68 167 217 59 164 216 229 243 249 255 255 255 97 181 223 68 168 218 59 164 226 248 251 6 
255 255 0 255 255 0 255 255 0 0 0 0 0 0 0 0 0 0 0 0 0 0 0 0 
0 0 0 30 147 209 72 168 218 57 163 216 54 161 215 55 162 215 56 162 215 54 161 215 
50 159 214 46 157 214 43 157 213 41 155 213 40 155 214 154 208 97 255 255 0 126 193 132 
52 160 215 58 163 216 63 165 217 62 165 217 62 165 216 59 164 216 255 255 0 245 250 10 
52 160 230 62 165 217 255 255 0 251 253 2 52 160 230 61 164 216 25 146 210 0 0 0 
0 0 0 0 0 0 0 0 0 0 0 0 0 0 0 0 0 0 0 0 0 0 0 0 
0 0 0 0 0 0 0 0 0 0 0 0 0 0 0 0 0 0 0 0 0 0 0 0 

68 168 218 68 168 218 116 190 227 255 255 255 162 211 237 67 167 217 126 193 132 255 255 0 
248 251 6 255 255 0 255 255 0 0 0 0 0 0 0 0 0 0 0 0 0 255 255 0 
0 0 0 33 151 206 50 160 223 66 166 223 51 159 214 52 160 215 54 161 215 43 156 221 
49 158 218 56 162 213 56 162 213 56 162 213 55 161 218 167 213 101 255 255 0 126 193 132 
58 163 214 58 163 216 52 160 230 55 161 218 59 164 216 58 163 217 255 255 0 245 250 10 
52 160 230 62 165 217 93 178 165 93 178 165 62 165 217 50 159 211 33 151 206 9 140 230 
0 0 0 0 0 0 0 0 0 255 255 0 255 255 0 0 0 0 0 0 0 0 0 0 
0 0 0 255 255 0 255 255 0 255 255 0 0 0 0 0 0 0 0 0 0 0 0 0 

68 168 218 68 168 218 58 163 216 229 243 249 240 248 252 50 160 223 208 233 48 255 255 0 
126 193 132 245 250 10 255 255 0 255 255 0 0 0 0 0 0 0 0 0 0 255 255 0 
255 255 0 255 255 0 255 255 0 218 237 32 74 171 196 48 159 215 93 178 165 240 248 12 
255 255 0 255 255 0 255 255 0 242 249 10 42 155 226 167 213 101 254 254 0 255 255 0 
255 255 0 255 255 0 255 255 0 152 207 110 55 161 218 58 163 217 255 255 0 245 250 10 
52 160 230 58 163 217 255 255 0 254 254 0 32 147 231 240 248 12 255 255 0 208 233 48 
0 0 0 0 0 0 255 255 0 255 255 0 255 255 0 0 0 0 255 255 0 255 255 0 
255 255 0 255 255 0 255 255 0 255 255 0 0 0 0 0 0 0 0 0 0 0 0 0 

68 168 218 68 168 218 68 168 218 138 200 231 255 255 255 109 187 225 255 255 0 255 255 0 
66 166 223 167 213 101 255 255 0 255 255 0 0 0 0 0 0 0 0 0 0 255 255 0 
251 253 2 186 222 68 240 248 12 255 255 0 167 213 101 55 159 196 255 255 0 255 255 0 
184 221 80 140 201 122 140 201 122 126 193 132 49 158 218 167 213 101 255 255 0 186 222 68 
140 201 122 152 207 110 254 254 0 255 255 0 74 171 196 55 161 218 255 255 0 245 250 10 
50 160 223 58 163 217 255 255 0 240 248 12 0 131 250 154 208 97 255 255 0 240 248 12 
0 93 255 0 0 0 255 255 0 255 255 0 255 255 0 255 255 0 255 255 0 255 255 0 
255 255 0 255 255 0 255 255 0 255 255 0 0 0 0 0 0 0 0 0 0 0 0 0 

68 168 218 68 168 218 68 168 218 59 164 216 250 252 254 236 245 58 255 255 0 167 213 101 
52 160 230 66 167 219 255 255 0 255 255 0 255 255 0 0 0 0 0 0 0 255 255 0 
250 252 2 0 129 251 154 208 97 255 255 0 184 221 80 140 201 122 255 255 0 184 221 80 
43 156 221 50 159 214 48 159 215 50 159 214 48 159 215 167 213 101 255 255 0 126 193 132 
53 161 214 49 158 218 186 222 68 255 255 0 93 178 165 54 160 216 255 255 0 245 250 10 
50 160 223 55 161 218 255 255 0 248 251 6 0 131 250 0 131 250 248 251 6 255 255 0 
121 192 123 0 0 0 255 255 0 255 255 0 0 0 0 255 255 0 255 255 0 255 255 0 
255 255 0 255 255 0 255 255 0 255 255 0 0 0 0 0 0 0 0 0 0 0 0 0 

68 168 218 68 168 218 68 168 218 67 167 217 162 211 237 255 255 0 255 255 0 255 255 0 
255 255 0 255 255 0 254 254 0 255 255 0 255 255 0 0 0 0 0 127 255 255 255 0 
250 252 2 0 129 251 38 153 197 93 178 165 55 159 196 167 213 101 255 255 0 140 201 122 
48 159 213 48 159 215 47 158 214 48 159 215 48 159 215 167 213 101 255 255 0 126 193 132 
47 158 214 49 158 218 186 222 68 255 255 0 93 178 165 52 160 215 255 255 0 245 250 10 
42 155 226 55 161 218 255 255 0 250 252 2 0 129 251 26 150 212 208 233 48 255 255 0 
208 233 48 218 237 32 255 255 0 255 255 0 0 0 0 255 255 0 255 255 0 255 255 0 
255 255 0 255 255 0 255 255 0 255 255 0 0 0 0 0 0 0 0 0 0 0 0 0 

68 168 218 68 168 218 68 168 218 67 167 218 140 201 122 255 255 0 254 254 0 208 233 48 
208 233 48 208 233 48 240 248 12 255 255 0 255 255 0 0 0 0 23 145 214 255 255 0 
250 252 2 0 129 251 30 150 211 30 150 211 26 148 209 140 201 122 255 255 0 198 228 62 
36 149 220 46 157 214 47 158 214 47 158 214 47 158 214 167 213 101 255 255 0 126 193 132 
55 162 215 43 156 221 218 237 32 255 255 0 93 178 165 50 159 214 255 255 0 245 250 10 
42 155 226 52 160 215 255 255 0 250 252 2 0 129 251 30 150 211 55 159 196 255 255 0 
248 251 6 242 249 10 255 255 0 255 255 0 0 0 0 255 255 0 255 255 0 255 255 0 
255 255 0 255 255 0 255 255 0 255 255 0 0 0 0 0 0 0 0 0 0 0 0 0 

68 168 218 68 168 218 68 168 218 59 164 226 218 237 32 255 255 0 184 221 80 59 164 226 
59 164 226 59 164 226 74 171 196 255 255 0 255 255 0 250 252 2 23 147 214 255 255 0 
250 252 2 0 129 251 30 150 211 30 150 211 30 150 211 41 155 213 248 251 6 255 255 0 
208 233 48 152 207 110 152 207 110 140 201 122 43 156 221 167 213 101 255 255 0 126 193 132 
56 162 215 55 161 218 186 222 68 255 255 0 121 192 123 46 157 214 255 255 0 245 250 10 
42 155 226 48 159 215 255 255 0 250 252 2 0 129 251 30 150 211 9 140 230 218 237 32 
255 255 0 255 255 0 255 255 0 0 0 0 0 0 0 0 0 0 255 255 0 255 255 0 
255 255 0 255 255 0 255 255 0 255 255 0 0 0 0 0 0 0 0 0 0 0 0 0 

68 168 218 68 168 218 68 168 218 93 178 165 255 255 0 255 255 0 162 211 237 67 167 217 
68 168 218 68 168 218 66 166 223 208 233 48 255 255 0 240 248 12 0 131 250 255 255 0 
254 254 0 0 127 255 30 150 211 30 150 211 30 150 211 26 148 209 93 178 165 218 237 32 
255 255 0 255 255 0 255 255 0 242 249 10 42 155 226 170 215 87 255 255 0 140 201 122 
54 161 215 49 158 218 198 228 62 255 255 0 152 207 110 23 145 214 255 255 0 250 252 2 
42 155 226 40 155 214 255 255 0 254 254 0 0 127 255 30 150 211 30 150 211 154 208 97 
255 255 0 255 255 0 121 192 123 0 0 0 0 0 0 0 0 0 255 255 0 255 255 0 
255 255 0 255 255 0 255 255 0 255 255 0 0 0 0 0 0 0 0 0 0 0 0 0 

68 168 218 68 168 218 68 168 218 66 166 223 52 160 230 52 160 230 185 222 241 62 165 216 
68 168 218 68 168 218 68 168 217 59 164 226 0 125 255 0 127 255 33 151 210 0 125 255 
0 125 255 33 151 210 30 150 211 30 150 211 30 150 211 30 150 211 38 153 212 59 164 226 
42 155 226 32 147 231 32 147 231 36 149 220 48 159 213 43 156 221 42 155 226 43 156 221 
51 159 214 52 160 215 43 156 221 42 155 226 49 158 218 41 155 211 0 125 255 0 131 250 
45 157 213 25 147 210 0 125 255 0 125 255 33 151 210 30 150 211 30 150 211 23 147 214 
0 125 255 0 125 255 27 148 211 29 148 208 0 0 0 0 0 0 0 0 0 0 0 0 
0 0 0 0 0 0 0 0 0 0 0 0 0 0 0 0 0 0 0 0 0 0 0 0 

68 168 218 68 168 218 68 168 218 68 168 218 68 168 218 68 168 218 138 200 231 61 164 216 
68 168 218 68 168 218 68 168 218 68 168 218 50 159 214 30 149 210 30 150 211 30 150 211 
30 150 211 30 150 211 30 150 211 30 150 211 30 150 211 30 150 211 25 147 210 56 162 215 
65 165 215 42 156 213 42 155 211 45 157 213 47 158 214 47 157 214 47 158 214 47 158 214 
48 159 213 48 159 213 50 159 214 51 159 214 51 159 214 50 159 214 39 154 211 29 149 211 
28 150 208 30 150 211 30 150 211 30 150 211 30 150 211 30 150 211 30 150 211 30 150 211 
30 150 211 30 150 211 30 149 210 28 150 211 0 0 0 0 0 0 0 0 0 0 0 0 
0 0 0 0 0 0 0 0 0 0 0 0 0 0 0 0 0 0 0 0 0 0 0 0 

68 168 218 68 168 218 68 168 218 68 168 218 68 168 218 68 168 218 70 169 218 89 178 222 
68 168 218 68 168 218 67 166 216 65 166 217 22 146 207 30 150 211 30 150 211 30 150 211 
30 150 211 30 150 211 30 150 211 30 150 211 30 150 211 30 150 211 30 150 211 37 153 212 
62 166 216 54 161 215 41 155 213 42 156 213 43 156 212 43 157 213 45 157 213 47 158 214 
47 158 214 47 158 214 47 158 214 48 159 213 48 159 213 49 158 213 43 157 213 40 154 212 
27 150 209 30 150 211 30 150 211 30 150 211 30 150 211 30 150 211 30 150 211 30 150 211 
30 150 211 30 150 211 30 150 211 30 150 211 33 151 206 0 0 0 0 0 0 0 0 0 
0 0 0 0 0 0 0 0 0 0 0 0 0 0 0 0 0 0 0 0 0 0 0 0 

68 168 218 68 168 218 68 168 218 68 168 218 68 168 218 68 168 218 68 168 218 67 167 217 
68 168 218 68 168 218 68 168 218 45 157 213 30 150 211 30 150 211 30 150 211 30 150 211 
30 150 211 30 150 211 30 150 211 30 150 211 30 150 211 30 150 211 30 150 211 25 148 210 
54 160 216 66 166 217 42 156 213 40 154 212 41 155 213 42 156 213 42 156 213 43 156 212 
43 157 213 45 157 213 46 157 214 47 158 214 47 158 214 47 158 214 45 157 213 34 152 210 
30 149 210 30 150 211 30 150 211 30 150 211 30 150 211 30 150 211 30 150 211 30 150 211 
30 150 211 30 150 211 30 150 211 30 149 210 27 148 210 0 0 0 0 0 0 0 0 0 
0 0 0 0 0 0 0 0 0 0 0 0 0 0 0 0 0 0 0 0 0 0 0 0 

68 168 218 68 168 218 68 168 218 68 168 218 68 168 218 68 168 218 68 168 218 68 168 218 
68 168 218 67 167 216 62 165 216 25 147 209 30 150 211 30 150 211 30 150 211 30 150 211 
30 150 211 30 150 211 30 150 211 30 150 211 30 150 211 30 150 211 30 150 211 30 150 211 
37 155 212 66 167 219 59 163 216 39 154 211 39 154 211 39 154 211 40 154 212 41 155 213 
41 155 213 42 156 213 43 156 212 43 157 213 45 157 213 45 156 213 42 156 213 27 150 209 
30 150 211 30 150 211 30 150 211 30 150 211 30 150 211 30 150 211 30 150 211 30 150 211 
30 150 211 30 150 211 30 150 211 30 150 211 30 150 211 27 147 208 0 0 0 0 0 0 
0 0 0 0 0 0 0 0 0 0 0 0 0 0 0 0 0 0 0 0 0 0 0 0 

68 168 218 68 168 218 68 168 218 68 168 218 68 168 218 68 168 218 68 168 218 68 168 218 
68 168 218 68 168 218 37 153 212 30 150 211 30 150 211 30 150 211 30 150 211 30 150 211 
30 150 211 30 150 211 30 150 211 30 150 211 30 150 211 30 150 211 30 150 211 30 150 211 
29 148 208 65 166 217 72 168 218 37 153 212 37 153 212 37 153 212 38 153 212 39 154 211 
39 154 211 40 154 212 41 155 213 41 155 213 41 155 213 42 156 213 35 153 211 29 148 209 
30 150 211 30 150 211 30 150 211 30 150 211 30 150 211 30 150 211 30 150 211 30 150 211 
30 149 210 30 150 211 30 150 211 30 150 211 30 150 211 29 149 209 11 204 212 0 0 0 
0 0 0 0 0 0 0 0 0 0 0 0 0 0 0 0 0 0 0 0 0 0 0 0 

68 168 218 68 168 218 68 168 218 68 168 218 68 168 218 68 168 218 68 168 218 68 168 218 
67 167 217 61 164 216 27 150 209 30 150 211 30 150 211 30 150 211 30 150 211 30 150 211 
30 150 211 30 150 211 30 150 211 30 150 211 30 150 211 30 150 211 30 150 211 30 150 211 
28 149 210 68 170 216 68 168 218 52 160 215 34 152 210 35 153 211 36 152 211 37 153 212 
37 153 212 38 153 212 39 154 211 39 154 211 39 154 211 38 153 212 0 0 0 30 150 210 
30 150 211 30 150 211 30 150 211 30 150 211 30 150 211 30 150 211 30 150 211 27 150 209 
27 148 208 27 150 209 29 149 209 30 150 211 30 150 211 30 150 211 29 149 212 0 0 0 
0 0 0 0 0 0 0 0 0 0 0 0 0 0 0 0 0 0 0 0 0 0 0 0 

68 168 218 68 168 218 68 168 218 68 168 218 68 168 218 68 168 218 68 168 218 68 168 218 
68 168 218 30 150 211 30 150 211 30 150 211 30 150 211 30 150 211 30 150 211 30 150 211 
30 150 211 30 150 211 30 150 211 30 150 211 30 150 211 30 150 211 30 150 211 30 150 211 
27 148 210 0 0 0 66 167 216 67 166 216 30 151 210 33 151 211 34 152 210 34 152 210 
35 153 211 36 152 211 37 153 212 37 153 212 39 154 211 33 151 211 0 0 0 29 152 211 
30 150 211 30 150 211 30 150 211 30 150 211 30 150 211 30 150 211 30 150 211 30 150 211 
29 152 211 30 147 209 36 149 220 27 148 210 30 149 210 29 152 211 29 148 209 14 136 166 
0 0 0 0 0 0 0 0 0 0 0 0 0 0 0 0 0 0 0 0 0 0 0 0 

68 168 218 68 168 218 68 168 218 68 168 218 68 168 218 68 168 218 68 168 218 68 168 218 
58 163 217 30 149 210 30 150 211 30 150 211 30 150 211 30 150 211 30 150 211 30 150 211 
30 150 211 30 150 211 30 150 211 30 150 211 30 150 211 30 150 211 30 150 211 30 150 211 
30 151 210 0 0 0 65 165 215 67 167 218 41 155 213 30 150 210 31 150 211 33 151 211 
33 151 210 33 151 210 34 152 210 35 153 211 34 152 210 0 0 0 0 0 0 30 147 209 
30 150 211 30 150 211 30 150 211 30 150 211 30 150 211 30 150 211 30 150 211 30 150 211 
30 150 211 30 150 211 31 151 210 23 148 210 0 0 0 26 145 208 29 152 209 30 150 210 
0 0 0 0 0 0 0 0 0 0 0 0 0 0 0 0 0 0 0 0 0 0 0 0 

68 168 218 68 168 218 68 168 218 68 168 218 68 168 218 68 168 218 68 167 217 67 168 217 
27 147 208 30 150 211 30 150 211 30 150 211 30 150 211 30 150 211 30 150 211 30 150 211 
30 150 211 30 150 211 30 150 211 30 150 211 30 150 211 30 150 211 30 150 211 30 150 211 
27 147 208 0 0 0 0 0 0 62 165 216 54 160 216 27 150 209 27 150 209 29 149 209 
30 150 210 31 150 211 31 150 211 33 151 211 29 149 209 0 0 0 0 0 0 27 148 211 
30 150 211 30 150 211 30 150 211 30 150 211 30 150 211 30 150 211 30 150 211 30 150 211 
30 150 211 30 150 211 30 149 210 29 149 212 27 150 209 11 204 212 0 0 0 33 151 206 
64 146 235 0 0 0 0 0 0 0 0 0 0 0 0 0 0 0 0 0 0 0 0 0 

68 168 218 68 168 218 68 168 218 68 168 218 68 168 218 68 168 218 68 168 218 57 161 214 
30 149 210 30 150 211 30 150 211 30 150 211 30 150 211 30 150 211 30 150 211 30 150 211 
30 150 211 30 150 211 30 150 211 30 150 211 30 150 211 30 150 211 30 150 211 30 150 211 
30 149 210 0 0 0 0 0 0 61 163 215 65 166 217 30 149 210 27 148 210 27 148 210 
28 149 210 27 150 209 29 149 209 30 150 210 23 148 210 0 0 0 0 0 0 28 150 211 
30 150 211 30 150 211 30 150 211 30 150 211 30 150 211 30 150 211 30 150 211 30 150 211 
30 150 211 30 150 211 30 150 211 30 150 211 30 149 210 31 151 210 36 149 220 0 0 0 
0 0 0 0 0 0 0 0 0 0 0 0 0 0 0 0 0 0 0 0 0 0 0 0 

68 168 218 68 168 218 68 168 218 68 168 218 68 168 218 67 167 217 66 167 217 25 147 210 
30 150 211 30 150 211 30 150 211 30 150 211 30 150 211 30 150 211 30 150 211 30 150 211 
30 150 211 30 150 211 30 150 211 30 150 211 30 150 211 30 150 211 30 150 211 30 150 211 
28 149 210 0 0 0 0 0 0 0 0 0 61 164 216 42 155 211 24 147 209 25 148 209 
26 148 209 27 148 210 27 148 208 25 148 209 0 0 0 0 0 0 0 0 0 29 149 212 
30 150 211 30 150 211 30 150 211 30 150 211 30 150 211 30 150 211 30 150 211 30 150 211 
30 150 211 30 150 211 30 150 211 30 150 211 30 150 211 30 149 210 29 148 209 27 148 211 
0 0 0 0 0 0 0 0 0 0 0 0 0 0 0 0 0 0 0 0 0 0 0 0 

68 168 218 68 168 218 68 168 218 68 168 218 68 168 218 68 168 218 52 160 215 30 150 211 
30 150 211 30 150 211 30 150 211 30 150 211 30 150 211 30 150 211 30 150 211 30 150 211 
30 150 211 30 150 211 30 150 211 30 150 211 30 150 211 30 150 211 30 150 211 30 149 210 
28 149 210 19 147 204 0 0 0 0 0 0 58 163 214 57 162 215 20 146 208 23 146 209 
23 146 208 24 147 208 25 147 209 25 146 210 0 0 0 0 0 0 0 0 0 30 149 210 
30 149 210 30 150 211 30 150 211 30 150 211 30 150 211 30 150 211 30 150 211 30 150 211 
30 150 211 30 150 211 30 150 211 30 150 211 30 150 211 30 150 211 30 150 211 29 152 211 
27 148 208 0 0 0 0 0 0 0 0 0 0 0 0 0 0 0 0 0 0 0 0 0 

68 168 218 68 168 218 68 168 218 68 168 218 67 167 218 66 167 217 52 160 215 45 156 213 
26 148 209 30 150 211 30 150 211 30 150 211 30 150 211 30 150 211 30 150 211 30 150 211 
30 150 211 30 150 211 30 150 211 30 149 210 29 152 211 28 149 210 28 149 210 29 148 208 
29 149 212 14 136 166 0 0 0 0 0 0 0 0 0 61 164 216 27 148 208 23 147 209 
23 147 209 22 146 208 23 146 208 0 0 0 0 0 0 0 0 0 0 0 0 29 144 202 
29 148 208 28 149 210 28 149 210 29 152 211 30 149 210 30 150 211 30 150 211 30 150 211 
30 150 211 30 150 211 30 150 211 30 150 211 30 150 211 30 150 211 30 150 211 30 149 210 
28 150 208 23 148 210 40 155 214 0 0 0 0 0 0 0 0 0 0 0 0 0 0 0 

68 168 218 68 168 218 68 168 218 68 168 218 68 168 218 58 163 216 57 161 214 57 163 216 
54 161 215 47 158 214 25 147 210 27 150 209 30 150 211 30 150 211 30 150 211 30 150 211 
30 149 210 29 152 211 29 149 209 28 150 211 28 150 208 14 136 166 0 0 0 0 0 0 
0 0 0 0 0 0 0 0 0 0 0 0 0 0 0 56 162 216 42 156 213 22 146 208 
23 147 209 22 147 208 21 144 207 0 0 0 0 0 0 0 0 0 0 0 0 0 0 0 
0 0 0 0 0 0 11 204 212 28 150 208 28 150 211 29 149 209 29 152 211 30 149 210 
30 150 211 30 150 211 30 150 211 30 149 210 25 148 210 25 146 210 42 156 213 49 158 213 
54 161 215 56 162 216 57 161 214 0 0 0 0 0 0 0 0 0 0 0 0 0 0 0 

68 168 218 68 168 218 68 168 218 68 167 218 65 166 217 56 162 215 57 163 216 57 163 216 
56 162 215 57 163 216 56 162 216 51 159 214 33 151 211 27 147 208 30 150 211 29 148 209 
29 148 208 26 145 208 0 0 0 0 0 0 0 0 0 0 0 0 0 0 0 0 0 0 
0 0 0 0 0 0 0 0 0 0 0 0 0 0 0 0 0 0 54 161 215 20 146 208 
23 146 208 22 145 208 0 0 0 0 0 0 0 0 0 0 0 0 0 0 0 0 0 0 
0 0 0 0 0 0 0 0 0 0 0 0 0 0 0 0 0 0 26 145 208 25 150 207 
25 147 210 29 149 211 43 157 213 50 159 214 54 161 215 57 163 216 57 163 216 57 163 215 
57 162 215 57 163 216 56 162 215 56 162 216 0 0 0 0 0 0 0 0 0 0 0 0 

68 168 218 68 168 218 68 168 218 68 168 218 57 163 216 57 163 216 57 163 216 57 163 216 
57 163 216 57 163 216 57 163 216 57 163 215 57 163 215 52 160 215 51 162 214 0 0 0 
0 0 0 0 0 0 0 0 0 0 0 0 0 0 0 0 0 0 0 0 0 0 0 0 
0 0 0 0 0 0 0 0 0 0 0 0 0 0 0 0 0 0 59 164 216 24 147 209 
23 147 209 23 145 207 0 0 0 0 0 0 0 0 0 0 0 0 0 0 0 0 0 0 
0 0 0 0 0 0 0 0 0 0 0 0 0 0 0 65 165 215 68 167 218 67 167 218 
66 166 217 61 164 216 56 162 216 56 162 216 57 163 216 57 163 216 57 163 216 57 163 216 
57 163 216 57 163 216 57 162 215 57 161 214 0 0 0 0 0 0 0 0 0 0 0 0 

68 168 218 68 168 218 68 168 218 62 165 216 56 162 216 57 163 216 57 163 216 57 163 216 
57 163 216 57 163 215 56 162 216 56 162 216 62 165 217 67 167 216 68 168 218 67 167 217 
68 167 217 67 167 218 0 0 0 0 0 0 0 0 0 0 0 0 0 0 0 0 0 0 
0 0 0 0 0 0 0 0 0 0 0 0 0 0 0 0 0 0 55 159 196 37 153 212 
23 147 208 0 131 250 0 0 0 0 0 0 0 0 0 0 0 0 0 0 0 0 0 0 
0 0 0 68 170 216 68 167 216 67 167 217 67 167 216 68 167 218 67 168 217 68 167 217 
67 168 218 68 168 218 68 168 217 62 165 217 56 162 216 57 163 216 55 162 215 54 161 215 
56 162 215 57 163 216 57 163 216 56 162 215 57 162 215 0 0 0 0 0 0 0 0 0 

68 168 218 68 168 218 68 167 217 57 162 215 56 162 216 57 163 216 57 163 216 57 163 215 
56 162 216 57 163 215 62 166 216 68 168 218 68 168 217 68 168 218 68 168 218 68 168 218 
68 167 217 68 168 217 67 167 218 68 168 217 67 167 217 67 166 216 67 167 218 0 0 0 
0 0 0 0 0 0 0 0 0 0 0 0 0 0 0 0 0 0 0 0 0 37 153 212 
22 145 208 0 0 0 0 0 0 0 0 0 0 0 0 68 170 216 67 168 217 66 166 217 
67 168 217 67 167 217 67 168 218 68 167 217 68 168 218 68 168 218 66 167 217 62 165 216 
59 163 216 62 165 216 86 176 220 109 187 225 138 200 231 138 200 231 97 181 223 78 172 219 
57 163 216 57 163 216 57 163 216 57 163 216 57 162 215 59 164 226 0 0 0 0 0 0 

68 168 218 68 168 218 62 165 216 56 162 216 57 163 216 57 163 216 56 162 215 57 163 215 
62 166 216 68 168 218 67 167 217 68 168 218 68 168 218 68 168 218 68 168 218 68 168 218 
68 168 218 68 168 218 68 168 218 68 168 218 68 167 216 67 168 218 67 168 218 68 167 218 
68 168 217 67 167 217 68 167 217 68 167 217 67 167 217 66 166 217 70 169 218 27 148 211 
35 153 211 67 167 216 67 166 216 68 168 217 68 167 217 67 167 218 68 168 218 68 168 218 
66 167 217 62 165 216 57 163 215 78 172 219 116 190 227 149 206 234 173 216 238 214 236 247 
250 252 254 250 252 254 185 222 241 138 200 231 84 175 220 59 163 216 65 166 217 62 166 216 
57 163 215 56 162 215 57 163 216 57 163 216 56 162 216 56 163 214 0 0 0 0 0 0 

67 167 218 67 167 217 56 162 215 57 163 216 56 162 215 56 162 215 63 165 217 68 168 218 
67 167 217 68 168 218 68 168 218 68 168 218 68 168 218 68 168 218 68 168 218 68 168 218 
68 168 218 68 168 218 68 168 218 68 168 218 68 168 218 68 168 218 68 168 218 68 168 218 
68 168 218 68 168 218 68 168 218 68 168 218 68 168 217 67 168 218 67 168 217 68 168 218 
68 168 218 67 168 217 68 167 217 67 167 217 63 165 217 57 163 215 86 176 220 126 195 229 
173 216 238 214 236 247 250 252 254 255 255 255 255 255 255 255 255 255 200 229 244 138 200 231 
86 176 220 58 163 216 65 166 217 68 168 218 68 168 218 68 168 218 68 168 218 67 167 217 
68 168 218 63 165 217 56 162 215 56 162 215 57 163 216 56 162 215 51 162 214 0 0 0 

68 168 218 59 164 216 56 162 216 57 162 215 62 165 217 68 167 217 68 168 218 68 168 218 
68 168 218 68 168 218 68 168 218 68 168 218 68 168 218 68 168 218 68 168 218 68 168 218 
68 168 218 68 168 218 68 168 218 68 168 218 68 168 218 68 168 218 68 168 218 68 168 218 
68 168 218 68 168 218 68 168 218 68 168 218 68 168 218 68 168 218 68 168 218 67 167 217 
62 165 216 59 164 216 109 187 225 162 211 237 200 229 244 250 252 254 255 255 255 255 255 255 
255 255 255 255 255 255 250 252 254 185 222 241 116 190 227 62 165 217 63 165 217 68 168 218 
68 168 218 68 168 218 68 168 218 68 168 218 68 168 218 68 168 218 68 168 218 68 168 218 
68 168 218 68 168 218 68 167 217 62 165 217 57 162 215 56 162 215 56 162 215 0 0 0 

66 167 217 55 162 215 61 164 216 68 167 217 68 168 218 68 168 218 68 168 218 68 168 218 
68 168 218 68 168 218 68 168 218 68 168 218 68 168 218 68 168 218 68 168 218 68 168 218 
68 168 218 68 168 218 68 168 218 68 168 218 68 168 218 68 168 218 68 168 218 68 168 218 
68 168 218 68 168 218 68 168 218 68 168 218 65 166 217 57 163 215 97 181 223 149 206 234 
214 236 247 255 255 255 255 255 255 255 255 255 255 255 255 254 254 254 255 255 255 250 252 254 
173 216 238 109 187 225 58 163 216 65 166 217 68 168 218 68 168 218 68 168 218 68 168 218 
68 168 218 68 168 218 68 168 218 68 168 218 68 168 218 68 168 218 68 168 218 68 168 218 
68 168 218 68 168 218 68 168 218 68 168 218 68 167 217 61 164 216 56 162 215 56 164 215 

61 164 216 66 167 217 68 168 218 67 168 217 68 168 218 68 168 218 68 168 218 68 168 218 
68 168 218 68 168 218 68 168 218 68 168 218 68 168 218 68 168 218 68 168 218 68 168 218 
68 168 218 68 168 218 68 168 218 68 168 218 68 168 218 68 168 218 68 168 218 68 168 218 
68 168 218 68 168 218 68 168 218 116 190 227 185 222 241 240 248 252 255 255 255 250 252 254 
245 250 252 240 248 252 240 248 252 240 248 252 240 248 252 185 222 241 116 190 227 59 163 216 
66 167 217 68 168 218 68 168 218 68 168 218 68 168 218 68 168 218 68 168 218 68 168 218 
68 168 218 68 168 218 68 168 218 68 168 218 68 168 218 68 168 218 68 168 218 68 168 218 
68 168 218 68 168 218 68 168 218 68 168 218 67 168 217 68 168 218 66 166 217 58 163 214 

