<?xml version="1.0" encoding="UTF-8" standalone="no"?>
<!-- Created with Inkscape (http://www.inkscape.org/) -->

<svg
   xmlns:dc="http://purl.org/dc/elements/1.1/"
   xmlns:cc="http://creativecommons.org/ns#"
   xmlns:rdf="http://www.w3.org/1999/02/22-rdf-syntax-ns#"
   xmlns:svg="http://www.w3.org/2000/svg"
   xmlns="http://www.w3.org/2000/svg"
   xmlns:xlink="http://www.w3.org/1999/xlink"
   xmlns:sodipodi="http://sodipodi.sourceforge.net/DTD/sodipodi-0.dtd"
   xmlns:inkscape="http://www.inkscape.org/namespaces/inkscape"
   width="32"
   height="32"
   id="svg2424"
   sodipodi:version="0.32"
   inkscape:version="0.46+devel r22541"
   version="1.0"
   sodipodi:docname="32.svg"
   inkscape:output_extension="org.inkscape.output.svg.inkscape"
   inkscape:export-filename="/home/thayer/archlinux-logo-contest/archer-full-detail.png"
   inkscape:export-xdpi="90"
   inkscape:export-ydpi="90">
  <defs
     id="defs2426">
    <inkscape:perspective
       sodipodi:type="inkscape:persp3d"
       inkscape:vp_x="0 : 16 : 1"
       inkscape:vp_y="0 : 1000 : 0"
       inkscape:vp_z="32 : 16 : 1"
       inkscape:persp3d-origin="16 : 10.666667 : 1"
       id="perspective31" />
    <linearGradient
       inkscape:collect="always"
       xlink:href="#path1082_2_"
       id="linearGradient2190"
       gradientUnits="userSpaceOnUse"
       gradientTransform="matrix(-0.3937741,0,0,0.393752,1488.9747,393.2315)"
       x1="541.33502"
       y1="104.50665"
       x2="606.91248"
       y2="303.14029" />
    <linearGradient
       gradientUnits="userSpaceOnUse"
       id="path1082_2_"
       y2="129.3468"
       x2="112.49853"
       y1="6.1372099"
       x1="112.49854"
       gradientTransform="translate(287,-83)">
      <stop
         id="stop193"
         offset="0"
         style="stop-color:#ffffff;stop-opacity:0" />
      <stop
         id="stop195"
         offset="1"
         style="stop-color:#ffffff;stop-opacity:0.27450982;" />
      <midPointStop
         id="midPointStop197"
         style="stop-color:#FFFFFF"
         offset="0" />
      <midPointStop
         id="midPointStop199"
         style="stop-color:#FFFFFF"
         offset="0.5" />
      <midPointStop
         id="midPointStop201"
         style="stop-color:#000000"
         offset="1" />
    </linearGradient>
    <linearGradient
       id="linearGradient3388">
      <stop
         style="stop-color:#000000;stop-opacity:0;"
         offset="0"
         id="stop3390" />
      <stop
         style="stop-color:#000000;stop-opacity:0.37113401;"
         offset="1"
         id="stop3392" />
    </linearGradient>
    <linearGradient
       inkscape:collect="always"
       id="linearGradient4346">
      <stop
         style="stop-color:#00bdec;stop-opacity:1"
         offset="0"
         id="stop4348" />
      <stop
         style="stop-color:#40bfde;stop-opacity:1"
         offset="1"
         id="stop4350" />
    </linearGradient>
    <linearGradient
       inkscape:collect="always"
       xlink:href="#linearGradient4346"
       id="linearGradient4352"
       x1="400.6142"
       y1="634.15063"
       x2="616.48553"
       y2="666.97791"
       gradientUnits="userSpaceOnUse" />
    <linearGradient
       inkscape:collect="always"
       id="linearGradient5323">
      <stop
         style="stop-color:#6e6e6e;stop-opacity:1"
         offset="0"
         id="stop5325" />
      <stop
         style="stop-color:#4d4d4d;stop-opacity:1"
         offset="1"
         id="stop5327" />
    </linearGradient>
    <linearGradient
       inkscape:collect="always"
       xlink:href="#linearGradient5323"
       id="linearGradient5329"
       x1="291.83591"
       y1="238.08237"
       x2="650.81366"
       y2="348.96875"
       gradientUnits="userSpaceOnUse" />
    <linearGradient
       inkscape:collect="always"
       xlink:href="#path1082_2_"
       id="linearGradient2216"
       gradientUnits="userSpaceOnUse"
       gradientTransform="matrix(-0.3937741,0,0,0.393752,978.34967,416.9815)"
       x1="541.33502"
       y1="104.50665"
       x2="606.91248"
       y2="303.14029" />
    <inkscape:perspective
       id="perspective3617"
       inkscape:persp3d-origin="0.5 : 0.33333333 : 1"
       inkscape:vp_z="1 : 0.5 : 1"
       inkscape:vp_y="0 : 1000 : 0"
       inkscape:vp_x="0 : 0.5 : 1"
       sodipodi:type="inkscape:persp3d" />
    <inkscape:perspective
       id="perspective2904"
       inkscape:persp3d-origin="0.5 : 0.33333333 : 1"
       inkscape:vp_z="1 : 0.5 : 1"
       inkscape:vp_y="0 : 1000 : 0"
       inkscape:vp_x="0 : 0.5 : 1"
       sodipodi:type="inkscape:persp3d" />
  </defs>
  <sodipodi:namedview
     id="base"
     pagecolor="#ffffff"
     bordercolor="#666666"
     borderopacity="1.0"
     gridtolerance="10000"
     guidetolerance="10"
     objecttolerance="10"
     inkscape:pageopacity="0.0"
     inkscape:pageshadow="2"
     inkscape:zoom="1"
     inkscape:cx="114.39808"
     inkscape:cy="215.71706"
     inkscape:document-units="px"
     inkscape:current-layer="g2210"
     inkscape:window-width="1398"
     inkscape:window-height="999"
     inkscape:window-x="0"
     inkscape:window-y="23"
     showgrid="false"
     inkscape:window-maximized="1" />
  <metadata
     id="metadata2429">
    <rdf:RDF>
      <cc:Work
         rdf:about="">
        <dc:format>image/svg+xml</dc:format>
        <dc:type
           rdf:resource="http://purl.org/dc/dcmitype/StillImage" />
        <dc:title />
      </cc:Work>
    </rdf:RDF>
  </metadata>
  <g
     inkscape:label="Layer 1"
     inkscape:groupmode="layer"
     id="layer1"
     transform="translate(-309.51781,-259.60123)">
    <g
       id="g2424"
       transform="matrix(1.3473684,0,0,1.3473684,-632.88236,-513.34366)">
      <g
         id="g2210"
         transform="matrix(0.125,0,0,0.125,615.71887,519.21715)">
        <path
           style="fill:#1793d1;fill-opacity:1;fill-rule:evenodd;stroke:#116bb6;stroke-width:5.39772749;stroke-linecap:round;stroke-linejoin:miter;stroke-miterlimit:10;stroke-opacity:1;stroke-dasharray:none"
           d="m 764.75016,445.00172 c -7.68827,18.84957 -11.46602,29.86152 -20.0259,48.15076 5.24828,5.56317 10.80811,13.35331 21.2699,20.67026 -9.02172,-0.62194 -19.80498,-7.48225 -25.5385,-12.3041 -10.955,22.8593 -27.23919,53.62802 -62.06914,116.21036 27.3683,-15.8002 48.58467,-25.54588 68.35716,-29.2658 -0.84593,-3.64641 -1.29782,-7.60913 -1.26509,-11.7232 l 0.0211,-0.86448 c 0.43438,-17.53855 9.56028,-31.02494 20.36799,-30.1092 10.8077,0.91575 19.22099,15.88098 18.78662,33.41953 -0.0818,3.30355 -0.46589,6.47782 -1.11751,9.42494 19.55971,3.82777 40.57599,13.53002 67.57703,29.11821 -5.32482,-9.80337 -10.0941,-16.85496 -14.6329,-25.27131 -7.14935,-5.54123 -12.82231,-10.52465 -29.81401,-22.33834 10.45526,2.71671 16.61325,3.63249 22.44829,7.13596 -46.14729,-85.91821 -48.54008,-95.11697 -64.36502,-132.25359 z"
           id="path2518"
           sodipodi:nodetypes="ccccccccsscccccc" />
        <path
           style="fill:none;stroke:#90c2ec;stroke-width:0.80000001;stroke-linecap:butt;stroke-linejoin:miter;stroke-opacity:1;stroke-miterlimit:13;stroke-dasharray:none"
           d="M 3.0625,28.875 12.25,12.25 c 1.207876,1.042353 3.011053,1.191754 4.875,1.25 l -3.5625,-4 2.5,-6.0625001 C 18.677733,9.7009856 21.599245,16.008225 25.375,22.4375 24.476132,22.559466 23.397945,22.678889 22,22.301777 l 5.4375,4.385723 1.5625,2.5 c -2.681968,-1.978185 -5.694263,-3.185608 -8.875,-4 0.803556,-9.799747 -8.907918,-10.022858 -8,0 -3.2424079,0.67523 -6.1436278,2.203431 -9.0625,3.6875 z"
           id="path3631"
           transform="matrix(5.9375001,0,0,5.9375001,669.75014,435.62316)"
           sodipodi:nodetypes="cccccccccccc" />
        <path
           style="opacity:0.2;fill:#ffffff;fill-opacity:1;stroke:none"
           d="m 743.49319,512.48063 -19.37365,34.0366 c 22.1844,-8.57201 53.51613,-16.73081 76.12404,-8.90741 -12.63723,-25.03015 -24.03026,-49.2722 -35.05482,-74.94741 l -11.88718,28.4031 c -0.79725,2.35225 17.223,20.20979 23.83048,27.58716 -7.98915,-1.9113 -17.61088,1.58266 -33.63887,-6.17204 z"
           id="path3624"
           sodipodi:nodetypes="ccccccc" />
      </g>
    </g>
  </g>
</svg>
