<?xml version="1.0" encoding="UTF-8" standalone="no"?>
<!-- Created with Inkscape (http://www.inkscape.org/) -->

<svg
   xmlns:dc="http://purl.org/dc/elements/1.1/"
   xmlns:cc="http://creativecommons.org/ns#"
   xmlns:rdf="http://www.w3.org/1999/02/22-rdf-syntax-ns#"
   xmlns:svg="http://www.w3.org/2000/svg"
   xmlns="http://www.w3.org/2000/svg"
   xmlns:xlink="http://www.w3.org/1999/xlink"
   xmlns:sodipodi="http://sodipodi.sourceforge.net/DTD/sodipodi-0.dtd"
   xmlns:inkscape="http://www.inkscape.org/namespaces/inkscape"
   width="64"
   height="64"
   id="svg2424"
   sodipodi:version="0.32"
   inkscape:version="0.46+devel r22541"
   version="1.0"
   sodipodi:docname="64.svg"
   inkscape:output_extension="org.inkscape.output.svg.inkscape"
   inkscape:export-filename="/home/thayer/archlinux-logo-contest/archer-full-detail.png"
   inkscape:export-xdpi="90"
   inkscape:export-ydpi="90">
  <defs
     id="defs2426">
    <linearGradient
       id="linearGradient3616">
      <stop
         style="stop-color:#1793d1;stop-opacity:1;"
         offset="0"
         id="stop3618" />
      <stop
         style="stop-color:#3593d1;stop-opacity:1;"
         offset="1"
         id="stop3620" />
    </linearGradient>
    <inkscape:perspective
       sodipodi:type="inkscape:persp3d"
       inkscape:vp_x="0 : 32 : 1"
       inkscape:vp_y="0 : 1000 : 0"
       inkscape:vp_z="64 : 32 : 1"
       inkscape:persp3d-origin="32 : 21.333333 : 1"
       id="perspective31" />
    <linearGradient
       inkscape:collect="always"
       xlink:href="#path1082_2_"
       id="linearGradient2187"
       gradientUnits="userSpaceOnUse"
       gradientTransform="matrix(-0.3937741,0,0,0.3937521,978.34966,416.9815)"
       x1="541.33502"
       y1="104.50665"
       x2="606.91248"
       y2="303.14029" />
    <linearGradient
       gradientUnits="userSpaceOnUse"
       id="path1082_2_"
       y2="129.3468"
       x2="112.49853"
       y1="6.1372099"
       x1="112.49854"
       gradientTransform="translate(287,-83)">
      <stop
         id="stop193"
         offset="0"
         style="stop-color:#ffffff;stop-opacity:0" />
      <stop
         id="stop195"
         offset="1"
         style="stop-color:#ffffff;stop-opacity:0.27450982;" />
      <midPointStop
         id="midPointStop197"
         style="stop-color:#FFFFFF"
         offset="0" />
      <midPointStop
         id="midPointStop199"
         style="stop-color:#FFFFFF"
         offset="0.5" />
      <midPointStop
         id="midPointStop201"
         style="stop-color:#000000"
         offset="1" />
    </linearGradient>
    <linearGradient
       id="linearGradient3388">
      <stop
         style="stop-color:#000000;stop-opacity:0;"
         offset="0"
         id="stop3390" />
      <stop
         style="stop-color:#000000;stop-opacity:0.37113401;"
         offset="1"
         id="stop3392" />
    </linearGradient>
    <linearGradient
       inkscape:collect="always"
       id="linearGradient4346">
      <stop
         style="stop-color:#00bdec;stop-opacity:1"
         offset="0"
         id="stop4348" />
      <stop
         style="stop-color:#40bfde;stop-opacity:1"
         offset="1"
         id="stop4350" />
    </linearGradient>
    <linearGradient
       inkscape:collect="always"
       xlink:href="#linearGradient4346"
       id="linearGradient4352"
       x1="400.6142"
       y1="634.15063"
       x2="616.48553"
       y2="666.97791"
       gradientUnits="userSpaceOnUse" />
    <linearGradient
       inkscape:collect="always"
       id="linearGradient5323">
      <stop
         style="stop-color:#6e6e6e;stop-opacity:1"
         offset="0"
         id="stop5325" />
      <stop
         style="stop-color:#4d4d4d;stop-opacity:1"
         offset="1"
         id="stop5327" />
    </linearGradient>
    <linearGradient
       inkscape:collect="always"
       xlink:href="#linearGradient5323"
       id="linearGradient5329"
       x1="291.83591"
       y1="238.08237"
       x2="650.81366"
       y2="348.96875"
       gradientUnits="userSpaceOnUse" />
    <linearGradient
       inkscape:collect="always"
       xlink:href="#path1082_2_"
       id="linearGradient2216"
       gradientUnits="userSpaceOnUse"
       gradientTransform="matrix(-0.3937741,0,0,0.393752,978.34967,416.9815)"
       x1="541.33502"
       y1="104.50665"
       x2="606.91248"
       y2="303.14029" />
    <inkscape:perspective
       id="perspective2895"
       inkscape:persp3d-origin="0.5 : 0.33333333 : 1"
       inkscape:vp_z="1 : 0.5 : 1"
       inkscape:vp_y="0 : 1000 : 0"
       inkscape:vp_x="0 : 0.5 : 1"
       sodipodi:type="inkscape:persp3d" />
  </defs>
  <sodipodi:namedview
     id="base"
     pagecolor="#ffffff"
     bordercolor="#666666"
     borderopacity="1.0"
     gridtolerance="10000"
     guidetolerance="10"
     objecttolerance="10"
     inkscape:pageopacity="0.0"
     inkscape:pageshadow="2"
     inkscape:zoom="1"
     inkscape:cx="-129.1766"
     inkscape:cy="100.09701"
     inkscape:document-units="px"
     inkscape:current-layer="g2210"
     inkscape:window-width="1100"
     inkscape:window-height="822"
     inkscape:window-x="99"
     inkscape:window-y="42"
     showgrid="false"
     inkscape:window-maximized="0" />
  <metadata
     id="metadata2429">
    <rdf:RDF>
      <cc:Work
         rdf:about="">
        <dc:format>image/svg+xml</dc:format>
        <dc:type
           rdf:resource="http://purl.org/dc/dcmitype/StillImage" />
        <dc:title />
      </cc:Work>
    </rdf:RDF>
  </metadata>
  <g
     inkscape:label="Layer 1"
     inkscape:groupmode="layer"
     id="layer1"
     transform="translate(-269.51781,-265.60124)">
    <g
       id="g2424"
       transform="matrix(1.3473684,0,0,1.3473684,-632.88236,-513.34366)">
      <g
         id="g2210"
         transform="matrix(0.25,0,0,0.25,502.3126,469.21738)">
        <path
           style="fill:#1793d1;fill-opacity:1;fill-rule:evenodd;stroke:#116bb6;stroke-width:2.77463960999999992;stroke-linecap:butt;stroke-linejoin:miter;stroke-miterlimit:10;stroke-opacity:1;stroke-dasharray:none"
           d="m 764.37905,442.94801 c -7.90412,19.3788 -12.70324,32.07285 -21.50345,50.87561 5.39564,5.71936 12.02686,12.3553 22.7824,19.87769 -11.56326,-4.75821 -19.44577,-9.52292 -25.34027,-14.48016 -11.26259,23.50113 -28.91927,56.96432 -64.72714,121.30378 28.13672,-16.24383 49.94878,-26.26312 70.27641,-30.0875 -0.86968,-3.74878 -1.33425,-7.82276 -1.3006,-12.05234 l 0.0216,-0.88876 c 0.44658,-18.03097 9.82871,-31.89603 20.93986,-30.95457 11.11115,0.94146 19.76067,16.32687 19.31409,34.35784 -0.0841,3.39632 -0.47897,6.65971 -1.14887,9.68956 20.10887,3.93525 41.71522,13.90991 69.47436,29.93577 -5.47431,-10.07862 -10.3775,-19.15878 -15.04374,-27.81143 -7.35009,-5.69681 -15.01289,-13.10838 -30.6511,-21.13495 10.74881,2.79299 18.45263,6.0227 24.45152,9.62453 C 784.48116,492.87256 780.64826,481.1273 764.379,442.94801 z"
           id="path2518" />
        <path
           style="fill:none;stroke:#90c2ec;stroke-width:2.96875005;stroke-linecap:butt;stroke-linejoin:miter;stroke-miterlimit:13;stroke-opacity:1;stroke-dasharray:none"
           d="m 682.8581,612.87011 58.49422,-109.15174 c 2.96572,1.68827 15.34309,10.0775 29.82361,13.45289 -7.64912,-8.62064 -18.60491,-15.8459 -24.97544,-23.99384 l 18.34705,-43.10453 c 16.3151,39.07471 38.7113,85.58506 62.26632,125.69405 -6.29742,-0.61879 -16.07548,-5.50027 -24.08846,-6.43669 l 32.87332,23.58457 9.37655,19.37196 c -18.5869,-10.85651 -39.47605,-19.56709 -58.20577,-23.16329 6.86845,-57.0536 -49.54613,-63.64078 -43.88208,-1.11328 -20.22772,4.21241 -41.81995,15.60156 -60.02932,24.8599 z"
           id="path3631"
           sodipodi:nodetypes="cccccccccccc" />
        <path
           style="fill:#ffffff;stroke:none;stroke-width:1px;stroke-linecap:butt;stroke-linejoin:miter;stroke-opacity:1;fill-opacity:1;opacity:0.1"
           d="M 24.25,23.75 16.273286,38.423097 C 24.782431,35.13518 36.471182,31.40976 45.142767,34.410534 L 31.875,5.9999999 26.375,19 c -0.305797,0.902241 6.590604,6.420302 9.125,9.25 -3.148657,-1.06266 -4.732122,-0.986998 -11.25,-4.5 z"
           id="path3624"
           transform="matrix(2.96875,0,0,2.96875,669.75015,435.62319)"
           sodipodi:nodetypes="ccccccc" />
      </g>
    </g>
  </g>
</svg>
