/* XPM */
static char *spider[] = {
/* columns rows colors chars-per-pixel */
"48 48 61 1 ",
"  c black",
". c gray2",
"X c gray3",
"o c #0E0E0E",
"O c #111111",
"+ c #151515",
"@ c #181818",
"# c gray12",
"$ c gray13",
"% c #252525",
"& c #2A2A2A",
"* c #2C2C2C",
"= c gray20",
"- c #373737",
"; c #393939",
": c #3E3E3E",
"> c #414141",
", c #464646",
"< c #4B4B4B",
"1 c #4C4C4C",
"2 c #515151",
"3 c gray33",
"4 c gray35",
"5 c #5D5D5D",
"6 c #626262",
"7 c #676767",
"8 c gray42",
"9 c #6D6D6D",
"0 c gray44",
"q c #747474",
"w c gray47",
"e c #7E7E7E",
"r c #838383",
"t c gray52",
"y c #898989",
"u c gray55",
"i c gray57",
"p c #979797",
"a c #9A9A9A",
"s c gray61",
"d c #A2A2A2",
"f c #A4A4A4",
"g c gray67",
"h c #AFAFAF",
"j c gray69",
"k c #B7B7B7",
"l c gray73",
"z c gray",
"x c gray76",
"c c #C5C5C5",
"v c #C8C8C8",
"b c #CECECE",
"n c gray82",
"m c #D5D5D5",
"M c gray86",
"N c gainsboro",
"B c #E1E1E1",
"V c #E7E7E7",
"C c gray91",
"Z c #ECECEC",
"A c gray100",
/* pixels */
"AAAAAAAAAAAAAAAAAAAAAAAAAAAAAAAAAAAAAAAAAAAAAAAA",
"AAAAAAAAAAAAAAAAAAAAAAAAAAAAAAAAAAhmAAAAAAAAAAAA",
"AAAAAAABAAA7nAAAAAAAAAAAAAAAAAAAA=07AAB%aAAAAAAA",
"AAAAAA.-rBzh:9kAAAAAAAAAAAAAAAAf3MAAhe1f6AAAAAAA",
"AAAAAiiAa56AAx54lAAAAAAAAAAAAi66AA4986AA6hAAAAAA",
"AAAAA%AAtAg13AAct1BAAAAAAAAApyjA6,jgAV<AyXAAAAAA",
"AAAAV6A5jAAAl&>zfy2tAAlxlAN10j2&kAAAAAV>A7lAAAAA",
"AAAA5j0cAAAAAAAwwra%47   :#ereAAAAAAAAAA3M:AAAAA",
"AAAAwpAj#>:>:;:486-6  X .  @a91;>>::>:*8Av*AAAAA",
"AAAA-hA5hAVVVVBANae         3ihAABBVCCC.4A;qAAAA",
"AAAzoAj5AAAAAAAA.20         :r880AAAAAAA lA6dAAA",
"BAA@eA5NVAAAVA63vA1         @AAgk>;>VVAAZ1A7swAA",
":tm<fh<j&Akf:>lzA*         . iAABCAA2:sNvuqf2h9w",
"A4m,AiaAA;orAznxy             V6evclvng6wn-Athm6",
",A7&A:z$>jBAyC9VO             eCAA2pA4bN&kdtA km",
"AA*A0fOrAf;3uVVj .            <igAspAAeAwlA Aj8A",
"AA>Awy2AyuAd2M1f .            5qf9m%rv1,rpvr<zOA",
"idXB g8a6gfrA1jn .            -A5hAMzNy0wsNq8A*d",
"Mtxe3A3snAb<Bu8y@             qxwxjM1AAA9adA,Ahc",
"$AA MA<nm7xf80Vby             Ab995Zt72>razz4hxn",
"lA21xf99iNAAakrqA;           yd3dAA0VffN0sMmM*MM",
"-h,AMb,A&AAjnu9AAv*:      $:gA9fq<k>AAAj0gAAA+iA",
"AA-A5r3Af<vdrAysc4AAjwrtiwAZbsyAAC4A7lAv0fAAhjXA",
"ritAVn,Aqg92AAAw7A-isAAAun=Z6wAAAAv*hw@-rfAAkA:g",
"AexAAA2dgAAc-Af9AAAu8=jq-bBAAtlAAAzAAAVuwsMMqAAA",
"AAAC2c<AAAAA9vdAAAAAfAAABjAV4e7zA7jAAAsA9sjl5iAA",
"AA41jn<AAAAAz Bif&AAwAAAAh&3ksw0a5AAAdwA8gAAzt%x",
"A8gAAC2dwAAl7AAAAM3c<kNft8BAAAAAqaBAAlAA8fAAyAA8",
"%9AAAV;Arsx4AAAAAAA jkz<j9sAAAAAg#7A5jAA7kA1CAAA",
"ze=AAV>AA%bAABAAAAAZNAAAAvAAAAz%pA9hVAAA5fAaCAAA",
"AAv-AN*Av&hA>=ybAAA7nAAAAssAe%8AAAA5xAAAuxtAAAAA",
"AAA9lAaA#AAAAAu54ABlAAAAAA,y4AAAAAAA93CAAsAAAAAA",
"AAAl7AArpAAAAAAAf5xsAld06Ag7VAAAAAAAAl9AdwAAAAA8",
"AAAMMAiiAAAAAAAAA9e69CAAAs-vAAAAAAAxfci9;kAAAA9u",
"AAAB91*m3AAAAAAAAA:cnAAAAAA%AAAAAV4876eA.xAAAZ3C",
"AAAB0hMmhn*,NAAAAAzAAAAAAAAvAAAAC6dAAAAAA2VAA>CA",
"AAAkAAAAAAVV;7AAAgqAAAAAAAA8VAl6xAAAAAAAAC<Ab5AA",
"AAtrAAAAAAAAAl4AAdAAAAAAAAAg8l1zAAAAAAAAAAV5XAAA",
"AusAAAAAAAAAAAk3ArAAACAVAAAg91AAAAAAAAAAAAAA$BAA",
"y4kvmdAAAAAAAAA2c$mj<wg:c7zf hAAAAAAAAAAAAAAA4AA",
"db<ax33zAAAAAAAkO=b2ZAAAAz39eCAAAAAAAAAV3wvkzg A",
"AAAAAAk9;NAAAAAAepAAAAAAAAAA3MAAAAAAAA5<jjNmvCx3",
"AAAAAAAAB;7AAAAA7vAAAAAAAAAAitAAAAVfi&zAAAAAAAAA",
"AAAAAAAAAAl4AAAs8AAAAAAAAAAAA;BAAC45uAAAAAAAAAAA",
"AAAAAAAAAAAk4AAj4AABVAAACBAAA=AAC1CAAAAAAAAAAAAA",
"AAAAAAAAAAAAl5AylBt-=tdl3=idAylA<CAAAAAAAAAAAAAA",
"AAAAAAAAAAAAAz4rq4uAAAAAAAi47we4CAAAAAAAAAAAAAAA",
"AAAAAAAAAAAAAAz6dAAAAAAAAAAAVi6CAAAAAAAAAAAAAAAA"
};
