<?xml version="1.0" encoding="UTF-8" standalone="no"?>
<!-- Created with Inkscape (http://www.inkscape.org/) -->

<svg
   xmlns:dc="http://purl.org/dc/elements/1.1/"
   xmlns:cc="http://creativecommons.org/ns#"
   xmlns:rdf="http://www.w3.org/1999/02/22-rdf-syntax-ns#"
   xmlns:svg="http://www.w3.org/2000/svg"
   xmlns="http://www.w3.org/2000/svg"
   xmlns:sodipodi="http://sodipodi.sourceforge.net/DTD/sodipodi-0.dtd"
   xmlns:inkscape="http://www.inkscape.org/namespaces/inkscape"
   width="16px"
   height="16px"
   id="svg5690"
   version="1.1"
   inkscape:version="0.46+devel r22541"
   sodipodi:docname="16.svg">
  <defs
     id="defs5692">
    <inkscape:perspective
       sodipodi:type="inkscape:persp3d"
       inkscape:vp_x="0 : 8 : 1"
       inkscape:vp_y="0 : 1000 : 0"
       inkscape:vp_z="16 : 8 : 1"
       inkscape:persp3d-origin="8 : 5.3333333 : 1"
       id="perspective5698" />
    <inkscape:perspective
       id="perspective5684"
       inkscape:persp3d-origin="0.5 : 0.33333333 : 1"
       inkscape:vp_z="1 : 0.5 : 1"
       inkscape:vp_y="0 : 1000 : 0"
       inkscape:vp_x="0 : 0.5 : 1"
       sodipodi:type="inkscape:persp3d" />
  </defs>
  <sodipodi:namedview
     id="base"
     pagecolor="#ffffff"
     bordercolor="#666666"
     borderopacity="1.0"
     inkscape:pageopacity="0.0"
     inkscape:pageshadow="2"
     inkscape:zoom="1"
     inkscape:cx="-127.60279"
     inkscape:cy="29.700069"
     inkscape:current-layer="layer1"
     showgrid="true"
     inkscape:grid-bbox="true"
     inkscape:document-units="px"
     inkscape:window-width="1084"
     inkscape:window-height="799"
     inkscape:window-x="0"
     inkscape:window-y="23"
     inkscape:window-maximized="0" />
  <metadata
     id="metadata5695">
    <rdf:RDF>
      <cc:Work
         rdf:about="">
        <dc:format>image/svg+xml</dc:format>
        <dc:type
           rdf:resource="http://purl.org/dc/dcmitype/StillImage" />
        <dc:title />
      </cc:Work>
    </rdf:RDF>
  </metadata>
  <g
     id="layer1"
     inkscape:label="Layer 1"
     inkscape:groupmode="layer">
    <path
       sodipodi:nodetypes="ccccccccsscccccc"
       id="path2518"
       d="M 7.9737675,1.3856653 C 7.3786004,2.8448559 7.1088909,3.6063769 6.4462508,5.0221911 6.8525317,5.4528503 7.2601956,6.1468441 8.0700689,6.7132664 7.371675,6.6651216 6.5369171,6.202252 6.0930714,5.8289806 5.2450191,7.5985752 3.9844199,9.91225 1.2881503,14.756902 3.4067967,13.533769 5.0492066,12.779333 6.5798429,12.491366 6.5143573,12.209089 6.4793755,11.902324 6.4819094,11.583844 l 0.00167,-0.06692 c 0.033629,-1.357702 0.7400854,-2.4017168 1.5767345,-2.3308266 0.8366511,0.070893 1.4879449,1.2293846 1.4543195,2.5870866 -0.00635,0.255737 -0.036069,0.501463 -0.086508,0.729608 1.5141636,0.296316 3.1410836,1.047391 5.2312986,2.25411 C 14.24722,13.998 13.923487,13.565795 13.572129,12.914264 12.905003,12.28069 12.261231,11.713029 11.218682,11.071325 c 0.672956,0.0739 1.240602,0.212995 1.692306,0.484206 C 9.3386193,4.904393 9.1988589,4.2605004 7.9738109,1.3856653 z"
       style="fill:#1793d1;fill-opacity:1;fill-rule:evenodd;stroke:#116bb6;stroke-width:0.7;stroke-miterlimit:4;stroke-opacity:1;stroke-dasharray:none;stroke-linejoin:miter" />
    <path
       style="fill:none;stroke:#7bd6ff;stroke-width:0.58070743;stroke-linecap:butt;stroke-linejoin:miter;stroke-miterlimit:7;stroke-opacity:1;stroke-dasharray:none"
       d="M 2.6153537,13.542906 6.3052653,6.707496 8.6643891,7.0401929 6.9706592,5.0742564 7.9385048,2.8966037 l 3.8108922,7.7730103 -0.756129,-0.03024 -0.332697,0.695639 2.752311,2.268388 -3.4781955,-1.542504 C 9.9955437,9.7969716 9.1332814,8.8979221 7.9082596,8.6431873 6.2530057,8.9543987 5.9612066,10.528996 5.9725683,12.030647 l -3.3572146,1.512259"
       id="path6221"
       sodipodi:nodetypes="ccccccccccccc" />
  </g>
</svg>
