/* XPM */
static char * festige_xpm[] = {
"48 48 328 2",
"  	c None",
". 	c #A90608",
"+ 	c #C00B10",
"@ 	c #BF1216",
"# 	c #BD181D",
"$ 	c #BD2024",
"% 	c #BD282C",
"& 	c #BE3134",
"* 	c #BF3A3E",
"= 	c #C14447",
"- 	c #C34D50",
"; 	c #C55557",
"> 	c #C34F52",
", 	c #C14648",
"' 	c #BF3B3E",
") 	c #BE3236",
"! 	c #A71215",
"~ 	c #438352",
"{ 	c #6BA97B",
"] 	c #77AF85",
"^ 	c #80B38D",
"/ 	c #7DB28B",
"( 	c #74AE82",
"_ 	c #67A876",
": 	c #5BA36A",
"< 	c #4F9E5D",
"[ 	c #439850",
"} 	c #379342",
"| 	c #2B8C34",
"1 	c #AF0504",
"2 	c #EC0C10",
"3 	c #F2161D",
"4 	c #EF2229",
"5 	c #EC2E36",
"6 	c #EA3D44",
"7 	c #EB4D53",
"8 	c #EB5D62",
"9 	c #ED6E72",
"0 	c #EF7D82",
"a 	c #F18A8E",
"b 	c #F39195",
"c 	c #F28C90",
"d 	c #EF7F84",
"e 	c #ED6F75",
"f 	c #EB6065",
"g 	c #C52327",
"h 	c #569766",
"i 	c #8BCD9E",
"j 	c #9BD4AB",
"k 	c #A7D9B5",
"l 	c #A3D8B1",
"m 	c #97D2A6",
"n 	c #88CC97",
"o 	c #79C688",
"p 	c #6AC077",
"q 	c #5CBA66",
"r 	c #4FB554",
"s 	c #43B143",
"t 	c #339D2D",
"u 	c #B60D03",
"v 	c #F20E08",
"w 	c #FA0C0A",
"x 	c #F70F11",
"y 	c #F2151B",
"z 	c #EF1E26",
"A 	c #ED2931",
"B 	c #EC343C",
"C 	c #EB3F46",
"D 	c #EB494F",
"E 	c #EB5157",
"F 	c #EB575C",
"G 	c #EB595E",
"H 	c #EB575D",
"I 	c #EB5258",
"J 	c #EB4A51",
"K 	c #EB4147",
"L 	c #C5171D",
"M 	c #36854A",
"N 	c #5AB874",
"O 	c #61BB7A",
"P 	c #65BD7D",
"Q 	c #66BD7C",
"R 	c #63BC78",
"S 	c #5DBA70",
"T 	c #57B865",
"U 	c #50B559",
"V 	c #49B34B",
"W 	c #43B23D",
"X 	c #42B233",
"Y 	c #47B52F",
"Z 	c #45A929",
"` 	c #B91803",
" .	c #F31E08",
"..	c #FB1909",
"+.	c #FB1309",
"@.	c #FB0D09",
"#.	c #FA0A0C",
"$.	c #F70B11",
"%.	c #F41018",
"&.	c #F1171F",
"*.	c #F01D26",
"=.	c #EF232B",
"-.	c #E22229",
";.	c #E1242B",
">.	c #E0252C",
",.	c #E0242B",
"'.	c #E12229",
").	c #E11E25",
"!.	c #E21A21",
"~.	c #BE090E",
"{.	c #107128",
"].	c #209F43",
"^.	c #24A147",
"/.	c #27A248",
"(.	c #29A347",
"_.	c #2BA445",
":.	c #2CA540",
"<.	c #2FA73B",
"[.	c #32AA36",
"}.	c #39AE32",
"|.	c #42B230",
"1.	c #4DB82E",
"2.	c #57BD2D",
"3.	c #60C22C",
"4.	c #5CB627",
"5.	c #BE2503",
"6.	c #F33107",
"7.	c #FB2D07",
"8.	c #FB2608",
"9.	c #FB1D08",
"0.	c #FB1509",
"a.	c #FB0E09",
"b.	c #FB0809",
"c.	c #FB030A",
"d.	c #FA020B",
"e.	c #F9030D",
"f.	c #F9040D",
"g.	c #960002",
"h.	c #066C20",
"i.	c #109836",
"j.	c #129936",
"k.	c #169B35",
"l.	c #1B9E34",
"m.	c #22A134",
"n.	c #2AA633",
"o.	c #34AB31",
"p.	c #40B130",
"q.	c #4CB72E",
"r.	c #59BE2D",
"s.	c #67C52C",
"t.	c #73CC2A",
"u.	c #7DD129",
"v.	c #76C424",
"w.	c #C23302",
"x.	c #F54905",
"y.	c #FB4706",
"z.	c #FB3F06",
"A.	c #FB3507",
"B.	c #FB2A08",
"C.	c #FB1E08",
"D.	c #FB1409",
"E.	c #FB0C09",
"F.	c #FB060A",
"G.	c #FB020A",
"H.	c #FB000A",
"I.	c #9C0002",
"J.	c #06681E",
"K.	c #119836",
"L.	c #139A36",
"M.	c #179C35",
"N.	c #1D9F34",
"O.	c #25A333",
"P.	c #2EA832",
"Q.	c #39AD31",
"R.	c #46B42F",
"S.	c #54BB2E",
"T.	c #63C32C",
"U.	c #74CC2A",
"V.	c #86D528",
"W.	c #95DE26",
"X.	c #9FE325",
"Y.	c #8DD122",
"Z.	c #C43C02",
"`.	c #F65E04",
" +	c #FB6204",
".+	c #FB5D04",
"++	c #FB5205",
"@+	c #FB4406",
"#+	c #FB2708",
"$+	c #FB1B09",
"%+	c #FB1109",
"&+	c #FB0909",
"*+	c #9D0003",
"=+	c #0C872D",
"-+	c #0E8F31",
";+	c #0E9133",
">+	c #189C35",
",+	c #1E9F34",
"'+	c #26A333",
")+	c #2FA832",
"!+	c #3AAE31",
"~+	c #48B52F",
"{+	c #67C52B",
"]+	c #7ACF29",
"^+	c #8DDA27",
"/+	c #A2E524",
"(+	c #B5EF22",
"_+	c #ADEA23",
":+	c #89CF22",
"<+	c #BE3902",
"[+	c #F56704",
"}+	c #FB7903",
"|+	c #FB7D03",
"1+	c #FB7503",
"2+	c #FB6404",
"3+	c #FB4006",
"4+	c #FB2F07",
"5+	c #FB2108",
"6+	c #FB0B09",
"7+	c #FB050A",
"8+	c #FB010A",
"9+	c #39AE31",
"0+	c #54BC2E",
"a+	c #64C42C",
"b+	c #76CD29",
"c+	c #87D627",
"d+	c #98DF26",
"e+	c #A4E624",
"f+	c #A0E325",
"g+	c #91DB26",
"h+	c #70C125",
"i+	c #E96D02",
"j+	c #FB9202",
"k+	c #FB9B01",
"l+	c #FB8D02",
"m+	c #FB7404",
"n+	c #FB4806",
"o+	c #FB3407",
"p+	c #FB2508",
"q+	c #FB1809",
"r+	c #23A234",
"s+	c #2BA633",
"t+	c #35AB31",
"u+	c #41B230",
"v+	c #5BBF2D",
"w+	c #69C72B",
"x+	c #76CD2A",
"y+	c #81D328",
"z+	c #87D628",
"A+	c #85D528",
"B+	c #7CD029",
"C+	c #55A821",
"D+	c #EC8C01",
"E+	c #FBAC00",
"F+	c #FB9701",
"G+	c #FB7A03",
"H+	c #FB6104",
"I+	c #FB4B06",
"J+	c #FB3607",
"K+	c #087324",
"L+	c #097826",
"M+	c #0A7F29",
"N+	c #159A35",
"O+	c #199D35",
"P+	c #1FA034",
"Q+	c #27A433",
"R+	c #44B330",
"S+	c #4FB92E",
"T+	c #5ABE2D",
"U+	c #6AC72B",
"V+	c #6EC92A",
"W+	c #6CC72A",
"X+	c #51A522",
"Y+	c #EC8601",
"Z+	c #FB8902",
"`+	c #FB7304",
" @	c #139936",
".@	c #21A134",
"+@	c #28A533",
"@@	c #31A932",
"#@	c #4AB62F",
"$@	c #51BA2E",
"%@	c #55BC2D",
"&@	c #58BD2D",
"*@	c #439D23",
"=@	c #E96503",
"-@	c #FB5105",
";@	c #FB1609",
">@	c #B20004",
",@	c #AF0004",
"'@	c #119936",
")@	c #1C9E34",
"!@	c #3FB130",
"~@	c #42B22F",
"{@	c #339223",
"]@	c #E74804",
"^@	c #FB4306",
"/@	c #FB2808",
"(@	c #FB1C08",
"_@	c #FB1209",
":@	c #FB040A",
"<@	c #CC0006",
"[@	c #149A36",
"}@	c #1B9E35",
"|@	c #24A333",
"1@	c #2DA732",
"2@	c #30A731",
"3@	c #268B25",
"4@	c #E42F06",
"5@	c #FB1F08",
"6@	c #21A033",
"7@	c #1A8225",
"8@	c #E01B06",
"9@	c #FB0F09",
"0@	c #159B35",
"a@	c #179A34",
"b@	c #107A24",
"c@	c #AA0A03",
"d@	c #A70603",
"e@	c #A40403",
"f@	c #A10103",
"g@	c #9E0003",
"h@	c #910002",
"i@	c #04611A",
"j@	c #04621B",
"k@	c #05631B",
"l@	c #06641C",
"m@	c #07641B",
"                                                                                                ",
"                                                                                                ",
"                                                                                                ",
"                                                                                                ",
"                                                                                                ",
"                                                                                                ",
"                                                                                                ",
"                                                                                                ",
"                                                                                                ",
"                                                                                                ",
"                                                                                                ",
"                                                                                                ",
"                                                                                                ",
"                                                                                                ",
"                                                                                                ",
"                                                                                                ",
"                . + @ # $ % & * = - ; > , ' ) !       ~ { ] ^ / ( _ : < [ } |                   ",
"              1 2 3 4 5 6 7 8 9 0 a b c d e f g       h i j k l m n o p q r s t                 ",
"            u v w x y z A B C D E F G H I J K L       M N O P Q R S T U V W X Y Z               ",
"          `  ...+.@.#.$.%.&.*.=.-.;.>.,.'.).!.~.      {.].^./.(._.:.<.[.}.|.1.2.3.4.            ",
"        5.6.7.8.9.0.a.b.c.d.e.f.g.                    h.i.i.j.k.l.m.n.o.p.q.r.s.t.u.v.          ",
"      w.x.y.z.A.B.C.D.E.F.G.H.H.I.                    J.i.K.L.M.N.O.P.Q.R.S.T.U.V.W.X.Y.        ",
"    Z.`. +.+++@+A.#+$+%+&+c.H.H.*+          =+-+-+-+-+;+i.K.L.>+,+'+)+!+~+2.{+]+^+/+(+_+:+      ",
"  <+[+}+|+1+2+++3+4+5+0.6+7+8+H.*+          -+i.i.i.i.i.i.K.L.M.N.O.P.9+R.0+a+b+c+d+e+f+g+h+    ",
"    i+j+k+l+m+.+n+o+p+q+@.F.G.H.I.          -+i.i.i.i.i.i.i.j.k.l.r+s+t+u+1.v+w+x+y+z+A+B+C+    ",
"      D+E+F+G+H+I+J+8...a.F.G.H.*+          K+L+L+L+L+M+i.i.j.N+O+P+Q+)+9+R+S+T+a+U+V+W+X+      ",
"        Y+Z+`+.+n+A.p+q+@.F.G.H.*+                    h.i.i.K. @k.l..@+@@@9+u+#@$@%@&@*@        ",
"          =@ +-@3+4+5+;@E.7+8+H.>@,@,@,@,@,@,@I.      h.i.i.i.'@L.M.)@.@Q+P.o.!+!@~@{@          ",
"            ]@^@J+/@(@_@&+:@8+H.H.H.H.H.H.H.H.<@      h.i.i.i.i.'@[@M.}@P+|@+@1@2@3@            ",
"              4@B.5@0.@.F.G.H.H.H.H.H.H.H.H.H.<@      h.i.i.i.i.i.'@L.k.O+)@P+6@7@              ",
"                8@;@9@b.:@8+H.H.H.H.H.H.H.H.H.<@      h.i.i.i.i.i.i.K.j.L.0@a@b@                ",
"                  c@d@e@f@g@*+*+*+*+*+*+*+*+*+h@        i@i@i@i@i@i@i@j@k@l@m@                  ",
"                                                                                                ",
"                                                                                                ",
"                                                                                                ",
"                                                                                                ",
"                                                                                                ",
"                                                                                                ",
"                                                                                                ",
"                                                                                                ",
"                                                                                                ",
"                                                                                                ",
"                                                                                                ",
"                                                                                                ",
"                                                                                                ",
"                                                                                                ",
"                                                                                                ",
"                                                                                                "};
