/* XPM */
static char *PgcEdit__[] = {
/* columns rows colors chars-per-pixel */
"32 32 72 1",
"  c black",
". c #730000",
"X c #B90000",
"o c #A68500",
"O c #A98803",
"+ c #A88804",
"@ c #A98804",
"# c #AB8C09",
"$ c #AB8D09",
"% c #AC8C09",
"& c #AC8D09",
"* c #AF910F",
"= c #AF920F",
"- c #AF9210",
"; c #B39715",
": c #B39716",
"> c #B39815",
", c #B39816",
"< c #B79D1D",
"1 c #B79D1E",
"2 c #B89D1D",
"3 c #B89E1D",
"4 c #BEA82C",
"5 c #BEA82D",
"6 c #BFA82D",
"7 c #DC9200",
"8 c #D0BF4A",
"9 c #D0BF4B",
"0 c #CDBB54",
"q c #FFB848",
"w c #D2C349",
"e c #D2C34A",
"r c #D3C34A",
"t c #D6C950",
"y c #D6C951",
"u c #D7C951",
"i c #D6CA51",
"p c #D7CA51",
"a c #DBCF58",
"s c #DBCF59",
"d c #DBD058",
"f c #DBD059",
"g c #DCD058",
"h c #DCD059",
"j c #D4C561",
"k c #D4C661",
"l c #D7C978",
"z c #E0D660",
"x c #E0D661",
"c c #E5DC67",
"v c #E5DC68",
"b c #E4DD68",
"n c #E5DD68",
"m c #E9E26F",
"M c #E9E36F",
"N c #E9E370",
"B c #EDE875",
"V c #EDE976",
"C c gray62",
"Z c #AAAAAA",
"A c #B6B6B6",
"S c #FF8E8E",
"D c #DDD181",
"F c #DDD182",
"G c gray76",
"H c #DADADA",
"J c #F2EED2",
"K c #F3EFD6",
"L c #FFF0D4",
"P c gray95",
"I c gray100",
"U c None",
/* pixels */
"UUUUUUUUUUUUUUUUUUUUUUUUUUUUUUUU",
"UUUUUUUUUUUUUUUUUUUUUUUUUUUUUUUU",
"UUUUUUUUUUUUUUUUUUUUUUUUUUUUUUUU",
"UU                     UUUUUUUUU",
"U GIIIIIIIIIIIIIIIIIIIH UUUUUUUU",
"U GIIIIIIIIIIIIIIIIIIII UUUUUUUU",
"UU GIICCCCCCCCCCCCCCCCIH UUUUUUU",
"UU GIIIIIIIIIIIIIIIIIIII UUU.UUU",
"UUU GIIIIIIIIIHHGZZZZCCIH U.S.UU",
"UUU GIIICCZZZZZGHIPIIIIII  SXX.U",
"UUUU GIIIIIIIIIIIIIHGZCCI LIX.UU",
"UUUU GIIIIIIIHGZCCZGHIII Lq7 UUU",
"UUUUU GIIICCZGHIIIIIIII Lq7 UUUU",
"UUUUU GIIIIIIIIIIIIIII Lq7  UUUU",
"UUUUUU GIIIIIIIIIIIII Lq7 IH UUU",
"UUUUUU GIIIIIIIIIIII Lq7 III UUU",
"UUUUUUU GIIIIIIIIII Lq7 GCCIH UU",
"UUUUU     IIIIIIII Lq7 GHIIII UU",
"UUU  o@&*:  IIIII Lq7 IIIHCCIH U",
"UU oo@%*:160 III Aq7 IIHCCIIIG U",
"U oo+$=,24lJj II AA IHCCIIIGG UU",
"U o+#-;34lKD8 II   ICCIIIGG  UUU",
" o@#=,   JF9wi  IIIIIIIGG  UUUUU",
" O$=,  U  8ruf IIIIIIGG  UUUUUUU",
" $*;3 UUU etax IIIIGG  UUUUUUUUU",
" *,<5  U  pszc IIGG  UUUUUUUUUUU",
" >25lJ   uhzvM GG  UUUUUUUUUUUUU",
"U 5lKF9wudzbN G  UUUUUUUUUUUUUUU",
"U 0JF9euhxbMV  UUUUUUUUUUUUUUUUU",
"UU k8rygzbmB UUUUUUUUUUUUUUUUUUU",
"UUU  yhznM  UUUUUUUUUUUUUUUUUUUU",
"UUUUU     UUUUUUUUUUUUUUUUUUUUUU"
};
