/* XPM */
static char * jondo_xpm[] = {
"31 32 359 2",
"  	c None",
". 	c #B7B7B7",
"+ 	c #585858",
"@ 	c #494949",
"# 	c #7D7D7D",
"$ 	c #DCDCDC",
"% 	c #727272",
"& 	c #141414",
"* 	c #060606",
"= 	c #030303",
"- 	c #0A0A0A",
"; 	c #383838",
"> 	c #C6C6C6",
", 	c #848484",
"' 	c #090909",
") 	c #050505",
"! 	c #040404",
"~ 	c #070707",
"{ 	c #434343",
"] 	c #E5E5E5",
"^ 	c #E3E3E3",
"/ 	c #2D2D2D",
"( 	c #111111",
"_ 	c #B6B6B6",
": 	c #BABABA",
"< 	c #101010",
"[ 	c #767676",
"} 	c #A2A2A2",
"| 	c #020202",
"1 	c #535353",
"2 	c #AFAFAF",
"3 	c #0C0C0C",
"4 	c #484848",
"5 	c #D7D7D7",
"6 	c #1E1E1E",
"7 	c #414141",
"8 	c #ADADAD",
"9 	c #080808",
"0 	c #464646",
"a 	c #C7C7C7",
"b 	c #1A1A1A",
"c 	c #4A4A4A",
"d 	c #5B5B5B",
"e 	c #DBDBDB",
"f 	c #2B2B2B",
"g 	c #828282",
"h 	c #222222",
"i 	c #CECECE",
"j 	c #B5B5B5",
"k 	c #282828",
"l 	c #4C4C4C",
"m 	c #9D9D9D",
"n 	c #515151",
"o 	c #010101",
"p 	c #202020",
"q 	c #D2D2D2",
"r 	c #CACACA",
"s 	c #C0C0C0",
"t 	c #7F8081",
"u 	c #525355",
"v 	c #3C3F41",
"w 	c #3A4146",
"x 	c #3F4245",
"y 	c #3E4144",
"z 	c #1C2329",
"A 	c #03060A",
"B 	c #050608",
"C 	c #141515",
"D 	c #767575",
"E 	c #D3D5D4",
"F 	c #D8D8D8",
"G 	c #BCB9B6",
"H 	c #565451",
"I 	c #1B1A1A",
"J 	c #020408",
"K 	c #6D7378",
"L 	c #D0E1EC",
"M 	c #7C838B",
"N 	c #6B7278",
"O 	c #A5B4BF",
"P 	c #939FA6",
"Q 	c #1D232A",
"R 	c #020406",
"S 	c #0A0908",
"T 	c #262825",
"U 	c #7C807E",
"V 	c #E2E2E3",
"W 	c #444444",
"X 	c #969695",
"Y 	c #1E1E1D",
"Z 	c #070706",
"` 	c #040303",
" .	c #040506",
"..	c #010509",
"+.	c #6E757A",
"@.	c #D3E7F6",
"#.	c #2D343A",
"$.	c #050609",
"%.	c #2F373F",
"&.	c #C4D0D7",
"*.	c #8B959D",
"=.	c #0D1014",
"-.	c #070808",
";.	c #090907",
">.	c #433F3D",
",.	c #C6C0BD",
"'.	c #DADADA",
").	c #DCDCDD",
"!.	c #E0E2E3",
"~.	c #353638",
"{.	c #1B1C1E",
"].	c #040505",
"^.	c #0E0E10",
"/.	c #191D20",
"(.	c #6A7176",
"_.	c #CFE5F4",
":.	c #2E363C",
"<.	c #030304",
"[.	c #94A2AE",
"}.	c #C1CDD8",
"|.	c #1C2127",
"1.	c #0C0E11",
"2.	c #252930",
"3.	c #2C3037",
"4.	c #1D1F21",
"5.	c #2B2B28",
"6.	c #212121",
"7.	c #D3D3D3",
"8.	c #898989",
"9.	c #303030",
"0.	c #545454",
"a.	c #292B2C",
"b.	c #83878A",
"c.	c #5F6367",
"d.	c #949A9D",
"e.	c #0C0E10",
"f.	c #363739",
"g.	c #6F7378",
"h.	c #686E75",
"i.	c #CDE4F5",
"j.	c #30373D",
"k.	c #080403",
"l.	c #060201",
"m.	c #8E9EAA",
"n.	c #C0CEDB",
"o.	c #232A30",
"p.	c #6E7479",
"q.	c #B1BCCA",
"r.	c #8F9AA8",
"s.	c #B4BFC7",
"t.	c #262F31",
"u.	c #424242",
"v.	c #C1C1C1",
"w.	c #2E2E2E",
"x.	c #8E8E8E",
"y.	c #F8F8F8",
"z.	c #363637",
"A.	c #090D11",
"B.	c #545D64",
"C.	c #CDDBE5",
"D.	c #404A54",
"E.	c #050304",
"F.	c #383A3F",
"G.	c #747B83",
"H.	c #666E7A",
"I.	c #D2E4F5",
"J.	c #2F343A",
"K.	c #040204",
"L.	c #8D9EAB",
"M.	c #C0CBE0",
"N.	c #363E40",
"O.	c #BBCDD4",
"P.	c #616B78",
"Q.	c #0E0D0F",
"R.	c #A4B1BD",
"S.	c #80909F",
"T.	c #B1B1B1",
"U.	c #BEBEBE",
"V.	c #F9F9F9",
"W.	c #555556",
"X.	c #181C20",
"Y.	c #535C64",
"Z.	c #D8E6F1",
"`.	c #A6B3BF",
" +	c #12141A",
".+	c #383C44",
"++	c #747A83",
"@+	c #676E79",
"#+	c #8EA0AC",
"$+	c #BEC8DD",
"%+	c #3D4749",
"&+	c #BED0D5",
"*+	c #434D59",
"=+	c #080708",
"-+	c #8E9CAA",
";+	c #A1B1BC",
">+	c #B0B0B0",
",+	c #B8B8B8",
"'+	c #FDFDFD",
")+	c #545455",
"!+	c #3E4346",
"~+	c #576067",
"{+	c #ADBBC6",
"]+	c #CEDDEB",
"^+	c #66707C",
"/+	c #333C45",
"(+	c #757C84",
"_+	c #666E76",
":+	c #C0CADF",
"<+	c #3C4648",
"[+	c #BED0D4",
"}+	c #3F4955",
"|+	c #080709",
"1+	c #929FAE",
"2+	c #A1B1BF",
"3+	c #B2B2B2",
"4+	c #FCFCFC",
"5+	c #5A5B5C",
"6+	c #727679",
"7+	c #586169",
"8+	c #5A6873",
"9+	c #A0B1BF",
"0+	c #B7C7D6",
"a+	c #505C68",
"b+	c #717880",
"c+	c #686C73",
"d+	c #8C9DAB",
"e+	c #C1CCE0",
"f+	c #3D4547",
"g+	c #C0D1D4",
"h+	c #424C59",
"i+	c #09080A",
"j+	c #919EAD",
"k+	c #A1B0BF",
"l+	c #404040",
"m+	c #232323",
"n+	c #B9B9B9",
"o+	c #6B7176",
"p+	c #87949D",
"q+	c #58636B",
"r+	c #555C64",
"s+	c #3C454F",
"t+	c #C4D5E6",
"u+	c #9FB2C5",
"v+	c #6C7784",
"w+	c #686B72",
"x+	c #CFE6F5",
"y+	c #2C3339",
"z+	c #070401",
"A+	c #050101",
"B+	c #8C9CAB",
"C+	c #C3CDD8",
"D+	c #3D4349",
"E+	c #C1CFD3",
"F+	c #464A4E",
"G+	c #07090E",
"H+	c #919DAC",
"I+	c #A5B2BE",
"J+	c #7F7F7F",
"K+	c #3F3F3F",
"L+	c #272727",
"M+	c #FBFBFB",
"N+	c #868D91",
"O+	c #929EA7",
"P+	c #5A646C",
"Q+	c #565B61",
"R+	c #080D13",
"S+	c #818D9A",
"T+	c #D0E1F2",
"U+	c #737F8C",
"V+	c #6C6F75",
"W+	c #2D363C",
"X+	c #070606",
"Y+	c #060708",
"Z+	c #9EACBA",
"`+	c #BBC3CC",
" @	c #3A3F43",
".@	c #C0CDD4",
"+@	c #474C4F",
"@@	c #070910",
"#@	c #909DAA",
"$@	c #A5AFB9",
"%@	c #C9C9C9",
"&@	c #1F1F1F",
"*@	c #4D4D4D",
"=@	c #999999",
"-@	c #ECECEC",
";@	c #858A8F",
">@	c #879098",
",@	c #5A6166",
"'@	c #5A5E62",
")@	c #030507",
"!@	c #272B2F",
"~@	c #BDCBD5",
"{@	c #727F87",
"]@	c #696E74",
"^@	c #D0E4F3",
"/@	c #2F363C",
"(@	c #06080B",
"_@	c #3D454C",
":@	c #C8D5E1",
"<@	c #7B8188",
"[@	c #242729",
"}@	c #C0CCD0",
"|@	c #5F656B",
"1@	c #0F141E",
"2@	c #A7B4C0",
"3@	c #868C93",
"4@	c #A1A1A1",
"5@	c #565656",
"6@	c #858585",
"7@	c #3C3C3C",
"8@	c #BBBBBB",
"9@	c #7A7A7A",
"0@	c #363636",
"a@	c #6C6C6C",
"b@	c #64676A",
"c@	c #353B41",
"d@	c #5A5F63",
"e@	c #555759",
"f@	c #090806",
"g@	c #656F74",
"h@	c #6E7A81",
"i@	c #61696D",
"j@	c #C7D8E6",
"k@	c #7E868E",
"l@	c #777E85",
"m@	c #AAB9C4",
"n@	c #89949F",
"o@	c #181B21",
"p@	c #0C0D0E",
"q@	c #7B8486",
"r@	c #AAB3BB",
"s@	c #7F8B97",
"t@	c #B0BDC8",
"u@	c #2A2C31",
"v@	c #E0E0E0",
"w@	c #C8C8C8",
"x@	c #767779",
"y@	c #505153",
"z@	c #606162",
"A@	c #5D5E5E",
"B@	c #535251",
"C@	c #525150",
"D@	c #595D5E",
"E@	c #616669",
"F@	c #5F6264",
"G@	c #6B7177",
"H@	c #727578",
"I@	c #707477",
"J@	c #636A6F",
"K@	c #54575D",
"L@	c #515254",
"M@	c #525252",
"N@	c #575A5B",
"O@	c #707478",
"P@	c #787E83",
"Q@	c #5E6268",
"R@	c #535455",
"                                                              ",
"                                                              ",
"                                        . + @ # $             ",
"                                      % & * = - ; >           ",
"                                    , ' ) ! ! * ~ { ]         ",
"                                  ^ / ! ! ! ! ) ! ( _         ",
"                                  : < ! ! ! ! ! ) * [         ",
"                                  } ! ! ! ! ! ) | * 1         ",
"                                  2 3 ! ! ! ! ) ! ) 4         ",
"                                  5 6 ! ) | ) ) ! ) 7         ",
"                                  8 9 ! ) | | * ! = 0         ",
"                                  a b = = ! ! ! ! = c         ",
"                                    + - = ! ) ! = ! d         ",
"                                    e f * | = ! = 9 g         ",
"                                      4 ! ) = = * h i         ",
"                                    j k = ! ! ! * l m         ",
"                                    n o * | = * ! p q         ",
"        r s                   r t u v w x y z A B C D E       ",
"        4 k F             G H I B J K L M N O P Q R S T U V   ",
"        W p F           X Y Z `  ...+.@.#.$.%.&.*.=.-.) ;.>.,.",
"        { p '.  q r ).!.~.{.].` ^./.(._.:.* <.[.}.|.1.2.3.4.5.",
"        { 6.7.8.9.0.a.b.c.d.e.` f.g.h.i.j.k.l.m.n.o.p.q.r.s.t.",
"        u.h v.w.x.y.z.A.B.C.D.E.F.G.H.I.J.k.K.L.M.N.O.P.Q.R.S.",
"        u.h T.h U.V.W.X.Y.Z.`. +.+++@+I.J.k.K.#+$+%+&+*+=+-+;+",
"        u.h >+h ,+'+)+!+~+{+]+^+/+(+_+I.J.k.K.#+:+<+[+}+|+1+2+",
"        u.h 3+h ,+4+5+6+7+8+9+0+a+b+c+I.J.k.K.d+e+f+g+h+i+j+k+",
"        l+h 3+m+n+'+o+p+q+r+s+t+u+v+w+x+y+z+A+B+C+D+E+F+G+H+I+",
"J+      K+L+_ 6.n+M+N+O+P+Q+R+S+T+U+V+_.W+X+Y+Z+`+ @.@+@@@#@$@",
"7 q   %@&@*@F w.=@-@;@>@,@'@)@!@~@{@]@^@/@(@_@:@<@[@}@|@1@2@3@",
"4@5@6@4 7@8@  9@0@a@b@c@d@e@` f@g@h@i@j@k@l@m@n@o@p@q@r@s@t@u@",
"  v@s i         '.w@x@y@z@A@B@C@D@E@F@G@H@I@J@K@L@M@N@O@P@Q@R@",
"                                                              "};
