/* XPM */
static char * keepassx2_xpm[] = {
"32 32 466 2",
"  	c None",
". 	c #000000",
"+ 	c #181B16",
"@ 	c #0B0C0A",
"# 	c #6E7967",
"$ 	c #9BA596",
"% 	c #CBCFCA",
"& 	c #FAFAFA",
"* 	c #9CA696",
"= 	c #707D68",
"- 	c #0D110B",
"; 	c #343A30",
"> 	c #BCC3B8",
", 	c #FFFFFF",
"' 	c #FEFEFE",
") 	c #CED1CC",
"! 	c #ADB6A8",
"~ 	c #E6E7E5",
"{ 	c #BDC4B9",
"] 	c #3A4435",
"^ 	c #010101",
"/ 	c #4D5549",
"( 	c #EDEEED",
"_ 	c #FBFBFB",
": 	c #92A588",
"< 	c #66914E",
"[ 	c #65A142",
"} 	c #6EB048",
"| 	c #639B44",
"1 	c #70975B",
"2 	c #B7C0B1",
"3 	c #55614D",
"4 	c #030303",
"5 	c #788375",
"6 	c #839080",
"7 	c #869283",
"8 	c #899586",
"9 	c #748270",
"0 	c #060905",
"a 	c #141713",
"b 	c #D1D6CF",
"c 	c #EAECEA",
"d 	c #71935E",
"e 	c #63A93B",
"f 	c #64AB3C",
"g 	c #64AA3B",
"h 	c #63AA3A",
"i 	c #5F9F3A",
"j 	c #8A9E7F",
"k 	c #D1D7CF",
"l 	c #191F15",
"m 	c #E5E5E5",
"n 	c #909D8C",
"o 	c #111310",
"p 	c #8A9385",
"q 	c #88A07A",
"r 	c #6AAE44",
"s 	c #6BAE44",
"t 	c #64A93D",
"u 	c #628A4B",
"v 	c #637957",
"w 	c #5A903C",
"x 	c #67A543",
"y 	c #AFB8A9",
"z 	c #8F9B88",
"A 	c #E2E2E2",
"B 	c #AEB5AC",
"C 	c #BABFB8",
"D 	c #F9F9F9",
"E 	c #8E9A8A",
"F 	c #050805",
"G 	c #131513",
"H 	c #F2F2F2",
"I 	c #C2C9BE",
"J 	c #64A042",
"K 	c #6AAE43",
"L 	c #718367",
"M 	c #FCFCFC",
"N 	c #9D9D9D",
"O 	c #365424",
"P 	c #678F4F",
"Q 	c #F5F5F5",
"R 	c #1B2317",
"S 	c #DEDEDE",
"T 	c #B8BDB7",
"U 	c #2E7922",
"V 	c #337D24",
"W 	c #63825D",
"X 	c #869382",
"Y 	c #080A08",
"Z 	c #3E443A",
"` 	c #8CA281",
" .	c #5FA539",
"..	c #62A83B",
"+.	c #5DA135",
"@.	c #BFC1BE",
"#.	c #30302F",
"$.	c #63A240",
"%.	c #BCC2B8",
"&.	c #4A5742",
"*.	c #D9DAD9",
"=.	c #BBC0BB",
"-.	c #3A7E31",
";.	c #408735",
">.	c #428935",
",.	c #6D8866",
"'.	c #869282",
").	c #0E0F0E",
"!.	c #6B7667",
"~.	c #7B9A6D",
"{.	c #65A845",
"].	c #68AB46",
"^.	c #6CAE47",
"/.	c #65A440",
"(.	c #A0A0A0",
"_.	c #EAEAEA",
":.	c #242424",
"<.	c #76A45B",
"[.	c #A3B29A",
"}.	c #73816B",
"|.	c #D2D3D2",
"1.	c #FDFDFD",
"2.	c #70886E",
"3.	c #317A27",
"4.	c #357F29",
"5.	c #378029",
"6.	c #6C8667",
"7.	c #7C8A79",
"8.	c #020301",
"9.	c #7E8A79",
"0.	c #689058",
"a.	c #569E34",
"b.	c #59A135",
"c.	c #5CA437",
"d.	c #5FA737",
"e.	c #60A836",
"f.	c #3F4F37",
"g.	c #A6A6A6",
"h.	c #C4C4C4",
"i.	c #515151",
"j.	c #0D1309",
"k.	c #64AA3C",
"l.	c #93AA87",
"m.	c #819078",
"n.	c #546153",
"o.	c #6E876B",
"p.	c #367E2D",
"q.	c #3A832F",
"r.	c #3C8430",
"s.	c #728A6D",
"t.	c #7C8879",
"u.	c #0F0F0F",
"v.	c #758071",
"w.	c #809C75",
"x.	c #5DA140",
"y.	c #60A441",
"z.	c #64A743",
"A.	c #67AA45",
"B.	c #6BAD47",
"C.	c #5F963F",
"D.	c #2E4223",
"E.	c #181818",
"F.	c #273420",
"G.	c #6F9E55",
"H.	c #AAB7A3",
"I.	c #697861",
"J.	c #020202",
"K.	c #687468",
"L.	c #6B8668",
"M.	c #377F2F",
"N.	c #3B8331",
"O.	c #3C8230",
"P.	c #758D71",
"Q.	c #838E80",
"R.	c #DADCD9",
"S.	c #8FA289",
"T.	c #559B3A",
"U.	c #599E3B",
"V.	c #5BA13C",
"W.	c #5FA43D",
"X.	c #61A73E",
"Y.	c #64A93F",
"Z.	c #67AC40",
"`.	c #67A743",
" +	c #67AC3F",
".+	c #CFD2CD",
"++	c #3C4936",
"@+	c #717E71",
"#+	c #638060",
"$+	c #2E7A26",
"%+	c #317D26",
"&+	c #337C27",
"*+	c #788D73",
"=+	c #DBDEDB",
"-+	c #558246",
";+	c #4E9734",
">+	c #529936",
",+	c #559C37",
"'+	c #59A039",
")+	c #5CA23B",
"!+	c #61A63D",
"~+	c #64A83F",
"{+	c #66AC40",
"]+	c #68AD40",
"^+	c #799669",
"/+	c #D8DBD7",
"(+	c #0F150B",
"_+	c #879287",
":+	c #F8F8F8",
"<+	c #658262",
"[+	c #3B8233",
"}+	c #3E8534",
"|+	c #3E8333",
"1+	c #7E927A",
"2+	c #EDEEEC",
"3+	c #5E8355",
"4+	c #51953C",
"5+	c #54983E",
"6+	c #579B3E",
"7+	c #5A9E3F",
"8+	c #5DA141",
"9+	c #60A442",
"0+	c #64A744",
"a+	c #66A945",
"b+	c #6AAC46",
"c+	c #67984B",
"d+	c #D9DCD8",
"e+	c #6E7C66",
"f+	c #050505",
"g+	c #090A09",
"h+	c #939E92",
"i+	c #F6F6F6",
"j+	c #5A7C57",
"k+	c #2C7823",
"l+	c #2E7A24",
"m+	c #317924",
"n+	c #7D9179",
"o+	c #5F7F58",
"p+	c #3B8628",
"q+	c #3E892A",
"r+	c #428C2B",
"s+	c #41892A",
"t+	c #468430",
"u+	c #4B952F",
"v+	c #4E9831",
"w+	c #529B32",
"x+	c #559E33",
"y+	c #59A235",
"z+	c #648F4E",
"A+	c #C3C9BF",
"B+	c #AEB7A8",
"C+	c #040603",
"D+	c #040404",
"E+	c #0A0C0A",
"F+	c #A3ADA3",
"G+	c #F3F3F3",
"H+	c #5D7E5A",
"I+	c #398132",
"J+	c #3E8434",
"K+	c #3D8132",
"L+	c #438935",
"M+	c #478C38",
"N+	c #498F39",
"O+	c #4C9039",
"P+	c #7C9275",
"Q+	c #CDD1CB",
"R+	c #7D9874",
"S+	c #658B56",
"T+	c #5E8A4C",
"U+	c #78986A",
"V+	c #92A589",
"W+	c #EEEEED",
"X+	c #BFC7BB",
"Y+	c #323D2D",
"Z+	c #080808",
"`+	c #181C18",
" @	c #B3BAB3",
".@	c #EFF0EF",
"+@	c #567B54",
"@@	c #327C2B",
"#@	c #347E2B",
"$@	c #38812D",
"%@	c #3B852E",
"&@	c #3E872E",
"*@	c #6C8965",
"=@	c #82907B",
"-@	c #141A13",
";@	c #0A0A0A",
">@	c #171817",
",@	c #ACB4AC",
"'@	c #638262",
")@	c #2A7624",
"!@	c #2E7927",
"~@	c #327C28",
"{@	c #5E8158",
"]@	c #848F81",
"^@	c #6E7E6B",
"/@	c #919F8D",
"(@	c #ABB4A8",
"_@	c #8E9C88",
":@	c #63725D",
"<@	c #313C2B",
"[@	c #0B0B0B",
"}@	c #121512",
"|@	c #ADB4AD",
"1@	c #698469",
"2@	c #2F772D",
"3@	c #337A30",
"4@	c #357D31",
"5@	c #3C8334",
"6@	c #547E4D",
"7@	c #DCDFDC",
"8@	c #EEEFEE",
"9@	c #525F4E",
"0@	c #101311",
"a@	c #A8B1A8",
"b@	c #658165",
"c@	c #1A681B",
"d@	c #1B691C",
"e@	c #1D6C1C",
"f@	c #216F1D",
"g@	c #24721F",
"h@	c #277520",
"i@	c #2B7822",
"j@	c #497843",
"k@	c #DADDD9",
"l@	c #E6E8E5",
"m@	c #3F4C3D",
"n@	c #151815",
"o@	c #AAB2AA",
"p@	c #6F876F",
"q@	c #2A722B",
"r@	c #2C752D",
"s@	c #316B32",
"t@	c #799179",
"u@	c #829882",
"v@	c #8B9F8A",
"w@	c #4F794D",
"x@	c #388032",
"y@	c #527E4C",
"z@	c #DEE0DD",
"A@	c #424D40",
"B@	c #0E110E",
"C@	c #A7B0A7",
"D@	c #708870",
"E@	c #236C24",
"F@	c #246F25",
"G@	c #236F24",
"H@	c #306431",
"I@	c #DDE0DD",
"J@	c #447341",
"K@	c #2E7827",
"L@	c #307A27",
"M@	c #4A7844",
"N@	c #D7DAD6",
"O@	c #D4D9D3",
"P@	c #2C3629",
"Q@	c #121412",
"R@	c #A6B0A6",
"S@	c #728972",
"T@	c #206A21",
"U@	c #226E23",
"V@	c #677667",
"W@	c #98A298",
"X@	c #D5DAD5",
"Y@	c #427340",
"Z@	c #317B2C",
"`@	c #357E2D",
" #	c #4D7A47",
".#	c #D6D9D5",
"+#	c #CBD1CA",
"@#	c #31382D",
"##	c #131313",
"$#	c #919B91",
"%#	c #798D79",
"&#	c #2A702B",
"*#	c #286C29",
"=#	c #29652A",
"-#	c #365A36",
";#	c #6B7A6B",
">#	c #151715",
",#	c #A6AEA6",
"'#	c #CCD1CC",
")#	c #41733F",
"!#	c #357D2F",
"~#	c #378030",
"{#	c #4D7A46",
"]#	c #D3D8D3",
"^#	c #C1C7C0",
"/#	c #20281F",
"(#	c #B5BAB5",
"_#	c #788E79",
":#	c #186419",
"<#	c #19681A",
"[#	c #3E6E3E",
"}#	c #C1C5C1",
"|#	c #697A69",
"1#	c #111511",
"2#	c #ADB6AE",
"3#	c #C1C9C1",
"4#	c #346C31",
"5#	c #287422",
"6#	c #2C7825",
"7#	c #457640",
"8#	c #D1D6D0",
"9#	c #AFB6AD",
"0#	c #020502",
"a#	c #B7BCB7",
"b#	c #296C2A",
"c#	c #447345",
"d#	c #D7DAD7",
"e#	c #D6D8D6",
"f#	c #C3C7C3",
"g#	c #C3C6C3",
"h#	c #5F6F5F",
"i#	c #161C16",
"j#	c #BBC2BB",
"k#	c #BAC2BA",
"l#	c #3C733A",
"m#	c #367E31",
"n#	c #398133",
"o#	c #4F744B",
"p#	c #E2E3E2",
"q#	c #0C110A",
"r#	c #B6BBB6",
"s#	c #216B22",
"t#	c #396C3A",
"u#	c #CDD2CD",
"v#	c #B4BDB5",
"w#	c #171E17",
"x#	c #1F251F",
"y#	c #C3C9C3",
"z#	c #AEB8AE",
"A#	c #2E6B2B",
"B#	c #267321",
"C#	c #396A34",
"D#	c #DCDDDB",
"E#	c #020701",
"F#	c #EFEFEF",
"G#	c #B1B8B1",
"H#	c #D9DBD9",
"I#	c #C9CFC9",
"J#	c #1D271D",
"K#	c #090909",
"L#	c #222A23",
"M#	c #CDD1CD",
"N#	c #C0C7C0",
"O#	c #A3B0A3",
"P#	c #D7D9D7",
"Q#	c #080B07",
"R#	c #B1B6B1",
"S#	c #F7F7F7",
"T#	c #D7DAD8",
"U#	c #364336",
"V#	c #2F382F",
"W#	c #D6DAD7",
"X#	c #D0D4D0",
"Y#	c #030603",
"Z#	c #0C120C",
"`#	c #0D150E",
" $	c #090F09",
".$	c #262F26",
"+$	c #485648",
"@$	c #475647",
"#$	c #475646",
"$$	c #404E3F",
"                                    . . . + . . .               ",
"                                  @ # $ % & % * = - .           ",
"                              . ; > , ' ) ! ~ , , { ] ^         ",
". . . . . .                 . / ( _ : < [ } | 1 2 , ( 3 .       ",
"4 5 6 7 8 9 0               a b c d e f g g g h i j , k l .     ",
"4 m , , , , n o           ^ p , q r r s s t u v w x y , z 4     ",
". A ( B C D , E F         G H I J s r r K L M , N O P Q H R .   ",
". S T U V W _ , X Y       Z , `  ...f f +.@., , ' #.$.%., &..   ",
". *.=.-.;.>.,.M , '.).  . !., ~.{.].^.} /.(., , _.:.<.[., }..   ",
". |.1.2.3.4.5.6.1., 7.8.. 9., 0.a.b.c.d.e.f.g.h.i.j.k.l., m..   ",
". n.M M o.p.q.r.s.' , t.u.v., w.x.y.z.A.B.C.D.E.F.G.} H., I..   ",
"  J.K., _ L.M.N.O.P.' , Q.R., S.T.U.V.W.X.Y.Z.`. + +i .+, ++.   ",
"    . @+, & #+$+%+&+*+, , , =+-+;+>+,+'+)+!+~+{+]+]+^+, /+(+.   ",
"    . ^ _+, :+<+[+}+|+1+, 2+3+4+5+6+7+8+9+0+a+b+^.c+d+, e+f+    ",
"      . g+h+, i+j+k+l+m+n+o+p+q+r+s+t+u+v+w+x+y+z+A+, B+C+D+    ",
"        . E+F+, G+H+I+J+K+L+M+N+O+P+Q+R+S+T+U+V+W+, X+Y+Z+      ",
"          . `+ @, .@+@@@#@$@%@&@*@1., , , , , , :+=@-@;@.       ",
"            >@,@, _ '@)@!@~@4.{@:+, ]@^@/@(@_@:@<@^ [@          ",
"          }@|@, M 1@2@3@4@I+5@6@7@, 8@9@. . ^ f+4 .             ",
"        0@a@, 1.b@c@d@e@f@g@h@i@j@k@, l@m@f+                    ",
"      n@o@, ' p@q@r@s@t@u@v@w@x@[+y@d+, z@A@;@                  ",
"    B@C@, , D@E@F@G@H@, , , I@J@K@L@M@N@, O@P@.                 ",
"  Q@R@, , S@T@U@U@G@H@, V@W@, X@Y@Z@`@ #.#, +#@###              ",
". $#, , %#&#r@r@*#=#-#, ;#>#,#, '#)#!#~#{#]#, ^#/#.             ",
". (#, _#:#<#<#[#}#_.1., |#. 1#2#, 3#4#5#6#7#8#, 9#0#            ",
". a#}#b#r@r@c#d#, e#f#g#h#. . i#j#, k#l#m#n#o#, p#q#.           ",
". r#a#s#U@t#u#, v#w#. . . .   . x#y#, z#A#B#C#, D#E#.           ",
". r#F#G#G#H#, I#J#K#. . . .     . L#M#, N#O#R@, P#Q#.           ",
". R#S#S#S#S#T#U#;@                . V#W#, , , , X#Y#.           ",
". Z#`#`#`#`# $D+.                   . .$+$@$@$#$$$. .           ",
". . . . . . . .                       . . . . . . .             ",
"                                                                "};
